<svg width="1496" height="500" viewBox="0 0 1496 500" fill="none" xmlns="http://www.w3.org/2000/svg">
<g clip-path="url(#clip0_3170_296105)">
<rect width="1496" height="500" fill="url(#paint0_linear_3170_296105)"/>
<path opacity="0.3" d="M1442.43 651.431L1429.83 652.292C1425.7 594.389 1375.41 551.051 1317.5 555.185L1316.64 542.583C1374.55 538.449 1417.89 488.16 1413.75 430.256L1426.35 429.396C1430.49 487.3 1480.78 530.637 1538.68 526.503L1539.54 539.104C1481.64 543.239 1438.3 593.528 1442.43 651.431Z" fill="white"/>
<circle opacity="0.3" cx="252.343" cy="252.343" r="252.343" transform="matrix(0.720745 0.6932 0.6932 -0.720745 889 190.75)" fill="white"/>
<circle opacity="0.3" cx="353.949" cy="353.949" r="353.949" transform="matrix(0.720745 0.6932 0.6932 -0.720745 411 469.215)" fill="white"/>
<circle opacity="0.3" cx="252.343" cy="252.343" r="252.343" transform="matrix(0.720745 0.6932 0.6932 -0.720745 -311 320.75)" fill="white"/>
<rect opacity="0.3" width="461.419" height="461.419" transform="matrix(-0.286501 0.95808 0.95808 0.286501 -183.803 333)" fill="white"/>
<path opacity="0.3" d="M310.76 181.256L305.782 179.405C314.219 156.504 302.451 131.196 279.549 122.76L281.401 117.782C304.302 126.219 329.61 114.451 338.046 91.5493L343.023 93.4005C334.587 116.302 346.355 141.609 369.256 150.046L367.405 155.023C344.504 146.587 319.196 158.355 310.76 181.256Z" fill="white"/>
<path opacity="0.3" d="M1428.98 635.646L1398.37 628.513C1430.72 487.783 1342.69 348.073 1201.96 315.722L1209.1 285.123C1349.83 317.473 1489.54 229.439 1521.89 88.7093L1552.48 95.8434C1520.13 236.573 1608.17 376.283 1748.9 408.633L1741.77 439.232C1601.04 406.882 1461.33 494.916 1428.98 635.646Z" fill="white"/>
<path opacity="0.3" d="M-72.9002 556.098L300.102 329.807L-82.373 119.923L-72.9002 556.098Z" fill="white"/>
<path opacity="0.3" d="M1396.23 68.8973L1419.98 82.8294L1420.17 55.2944L1396.23 68.8973Z" fill="white"/>
<path opacity="0.3" d="M892.904 46.4857L911.786 42.1483L898.589 27.9653L892.904 46.4857Z" fill="white"/>
<path opacity="0.3" d="M965.66 64.3611L974.719 55.8147L962.788 52.2427L965.66 64.3611Z" fill="white"/>
<path opacity="0.3" d="M745.641 74.1291L786.583 88.2266L778.321 45.7209L745.641 74.1291Z" fill="white"/>
<circle opacity="0.3" cx="249.024" cy="249.024" r="249.024" transform="matrix(-0.408867 0.912594 0.912594 0.408867 -319.364 -176)" fill="white"/>
<circle opacity="0.3" cx="28.8255" cy="28.8255" r="28.8255" transform="matrix(-0.408867 0.912594 0.912594 0.408867 836.871 293.74)" fill="white"/>
<path opacity="0.3" d="M400.07 97.011L397.842 97.1632C397.111 86.9235 388.217 79.2596 377.978 79.9907L377.826 77.7622C388.065 77.031 395.729 68.1379 394.998 57.8982L397.227 57.746C397.958 67.9858 406.851 75.6497 417.091 74.9185L417.243 77.147C407.003 77.8781 399.339 86.7712 400.07 97.011Z" fill="white"/>
<path opacity="0.48" d="M1204.01 97.0908L1201.94 96.2336C1205.85 86.7417 1201.31 75.9169 1191.82 72.0065L1192.68 69.9439C1202.17 73.8543 1212.99 69.3103 1216.9 59.8184L1218.97 60.6757C1215.05 70.1675 1219.6 80.9923 1229.09 84.9027L1228.23 86.9653C1218.74 83.0549 1207.92 87.5989 1204.01 97.0908Z" fill="white"/>
<path opacity="0.3" d="M449.758 109.99L448.871 109.506C451.086 105.423 449.562 100.335 445.48 98.1199L445.965 97.2332C450.047 99.4485 455.135 97.9246 457.351 93.8424L458.238 94.3272C456.022 98.4094 457.546 103.497 461.628 105.713L461.144 106.6C457.061 104.384 451.973 105.908 449.758 109.99Z" fill="white"/>
<path opacity="0.3" d="M1341.47 92.2632L1340.27 92.3839C1339.7 86.8741 1334.77 82.8947 1329.26 83.4662L1329.14 82.2669C1334.65 81.6955 1338.63 76.7667 1338.05 71.257L1339.25 71.1364C1339.82 76.6461 1344.75 80.6255 1350.26 80.0541L1350.38 81.2533C1344.87 81.8247 1340.89 86.7534 1341.47 92.2632Z" fill="white"/>
<path opacity="0.3" d="M1403.7 131.591L1402.83 131.418C1403.61 127.412 1401 123.546 1396.99 122.762L1397.17 121.891C1401.17 122.675 1405.04 120.06 1405.82 116.054L1406.69 116.228C1405.91 120.233 1408.52 124.099 1412.53 124.883L1412.36 125.754C1408.35 124.97 1404.49 127.586 1403.7 131.591Z" fill="white"/>
<path d="M502.224 86.4482C504.556 86.4482 506.447 84.557 506.447 82.2241C506.447 79.8912 504.556 78 502.224 78C499.891 78 498 79.8912 498 82.2241C498 84.557 499.891 86.4482 502.224 86.4482Z" fill="white"/>
<path d="M1373.22 90.4482C1375.56 90.4482 1377.45 88.557 1377.45 86.2241C1377.45 83.8912 1375.56 82 1373.22 82C1370.89 82 1369 83.8912 1369 86.2241C1369 88.557 1370.89 90.4482 1373.22 90.4482Z" fill="white"/>
<path d="M1322.98 114.485L1318.48 111L1315 115.494L1319.49 118.979L1322.98 114.485Z" fill="white"/>
<path d="M1354.89 136.652L1354.99 135.521C1360.19 135.959 1364.74 132.094 1365.18 126.893L1366.31 126.992C1365.87 132.193 1369.74 136.742 1374.94 137.18L1374.84 138.311C1369.64 137.873 1365.09 141.738 1364.65 146.939L1363.52 146.84C1363.96 141.639 1360.09 137.09 1354.89 136.652Z" fill="white"/>
<path d="M1095.2 91.3803L1094.99 90.2645C1100.11 89.2756 1103.44 84.3222 1102.45 79.1972L1103.57 78.9855C1104.56 84.1106 1109.51 87.4412 1114.63 86.4523L1114.85 87.5681C1109.72 88.557 1106.39 93.5103 1107.38 98.6354L1106.26 98.8471C1105.28 93.7221 1100.32 90.3914 1095.2 91.3803Z" fill="white"/>
<path d="M110.832 143.747L111.024 142.237C117.968 143.099 124.266 138.164 125.129 131.22L126.639 131.412C125.777 138.356 130.712 144.654 137.656 145.517L137.464 147.027C130.52 146.165 124.222 151.1 123.359 158.044L121.849 157.852C122.711 150.908 117.776 144.61 110.832 143.747Z" fill="white"/>
<path d="M543.035 106.293L542.627 105.45C546.494 103.561 548.081 98.9025 546.192 95.0353L547.035 94.627C548.924 98.4943 553.583 100.081 557.45 98.1926L557.858 99.0353C553.991 100.924 552.404 105.583 554.293 109.45L553.45 109.858C551.561 105.991 546.902 104.404 543.035 106.293Z" fill="white"/>
<g style="mix-blend-mode:screen" opacity="0.8">
<path d="M872.905 39.1353L566.745 -292.311L568.83 -294.237L874.991 37.2091L872.905 39.1353Z" fill="#FFCD8F"/>
<path d="M1034.53 135.282L869.334 -43.5598L871.797 -45.8349L1037 133.007L1034.53 135.282Z" fill="#FFCD8F"/>
<path d="M1047.78 295.918L1046.91 294.982C1051.2 291.024 1051.46 284.359 1047.5 280.073L1048.44 279.209C1052.4 283.494 1059.06 283.759 1063.35 279.8L1064.21 280.736C1059.93 284.694 1059.66 291.359 1063.62 295.645L1062.69 296.509C1058.73 292.224 1052.06 291.959 1047.78 295.918Z" fill="#FFCD8F"/>
<path d="M813.733 55.3915L812.808 54.3899C817.356 50.1886 817.638 43.0816 813.436 38.5334L814.438 37.6082C818.639 42.1564 825.746 42.4383 830.295 38.2371L831.22 39.2386C826.671 43.4399 826.39 50.5469 830.591 55.0951L829.589 56.0203C825.388 51.4721 818.281 51.1902 813.733 55.3915Z" fill="#FFCD8F"/>
<path d="M1121.45 91.941L1120.96 91.4154C1123.37 89.1859 1123.51 85.4422 1121.29 83.0449L1121.82 82.5596C1124.05 84.9732 1127.79 85.1059 1130.19 82.8915L1130.67 83.4171C1128.26 85.6466 1128.13 89.3901 1130.34 91.7874L1129.82 92.2727C1127.59 89.859 1123.84 89.7266 1121.45 91.941Z" fill="#FFCD8F"/>
<path d="M1048.11 226.9L1044.02 222.467C1064.23 203.797 1065.48 172.273 1046.81 152.061L1051.24 147.966C1069.91 168.178 1101.44 169.428 1121.65 150.758L1125.74 155.191C1105.53 173.862 1104.28 205.385 1122.95 225.598L1118.52 229.693C1099.85 209.48 1068.32 208.23 1048.11 226.9Z" fill="#FFCD8F"/>
<path d="M997.97 138.26L997.66 136.903C1003.9 135.49 1007.83 129.271 1006.42 123.03L1007.78 122.72C1009.19 128.961 1015.41 132.894 1021.65 131.48L1021.96 132.837C1015.72 134.25 1011.79 140.469 1013.2 146.71L1011.84 147.02C1010.43 140.779 1004.21 136.847 997.97 138.26Z" fill="#FFCD8F"/>
<path d="M1113.79 251.398L1094.87 312.243L1051.63 265.431L1113.79 251.398Z" fill="#FFCD8F"/>
<path d="M1172.96 179.035L1162.29 214.424L1136.99 187.463L1172.96 179.035Z" fill="#FFCD8F"/>
<path d="M993.809 214.498L975.873 273.88L933.423 228.649L993.809 214.498Z" fill="#FFCD8F"/>
<path opacity="0.2" d="M1140.88 96.6023L1115.33 181.213L1054.8 116.774L1140.88 96.6023Z" fill="#FFCD8F"/>
<path d="M860.065 2.6713L802.248 -59.9202L825.268 -81.1843L883.085 -18.5928L860.065 2.6713Z" fill="#FFCD8F"/>
<path d="M897.35 133.891L865.863 99.8037L872.136 94.0099L903.622 128.097L897.35 133.891Z" fill="#FFCD8F"/>
<path d="M995.667 152.439L865.762 11.8047L868.898 8.90779L998.803 149.542L995.667 152.439Z" fill="#FFCD8F"/>
<path d="M1125.33 320.439C1124.9 330.356 1119.2 338.163 1112.6 337.878C1106.01 337.594 1101 329.324 1101.43 319.408C1101.86 309.492 1107.56 301.684 1114.15 301.969C1120.75 302.254 1125.76 310.523 1125.33 320.439Z" fill="#FFCD8F"/>
<path d="M1034.82 270.039C1031.2 279.28 1023.44 284.88 1017.48 282.546C1011.53 280.213 1009.64 270.83 1013.26 261.589C1016.88 252.348 1024.65 246.748 1030.6 249.082C1036.55 251.415 1038.44 260.798 1034.82 270.039Z" fill="#FFCD8F"/>
<path d="M1093.63 370.563C1096.37 374.215 1101.56 374.958 1105.21 372.224C1108.86 369.49 1109.61 364.3 1106.87 360.648C1104.14 356.996 1098.95 356.252 1095.3 358.987C1091.64 361.721 1090.9 366.911 1093.63 370.563Z" fill="#FFCD8F"/>
<path d="M1010.64 190.948C1017.43 200.012 1030.26 201.85 1039.33 195.06C1048.39 188.269 1050.23 175.435 1043.44 166.37C1036.65 157.306 1023.82 155.469 1014.75 162.259C1005.69 169.049 1003.85 181.884 1010.64 190.948Z" fill="#FFCD8F"/>
<path d="M1113.43 259.593C1116.16 263.244 1121.35 263.988 1125 261.254C1128.65 258.52 1129.4 253.329 1126.66 249.678C1123.93 246.026 1118.74 245.282 1115.09 248.017C1111.44 250.751 1110.69 255.941 1113.43 259.593Z" fill="#FFCD8F"/>
<path d="M1133.42 283.844C1134.86 295.354 1140.83 304.812 1146.77 304.985C1152.7 305.141 1156.37 295.938 1154.93 284.428C1153.48 272.919 1147.52 263.46 1141.58 263.288C1135.65 263.132 1131.98 272.335 1133.42 283.844Z" fill="#FFCD8F"/>
<path d="M973.909 193.747C986.043 182.539 986.777 163.633 975.583 151.516C964.39 139.398 945.47 138.648 933.352 149.841C921.235 161.034 920.468 179.97 931.661 192.088C942.854 204.205 961.775 204.956 973.909 193.747Z" fill="#FFCD8F"/>
<path d="M1088.11 235.322C1090.68 238.106 1090.51 242.447 1087.73 245.019C1084.94 247.59 1080.6 247.418 1078.03 244.634C1075.46 241.85 1075.63 237.509 1078.42 234.937C1081.2 232.365 1085.54 232.538 1088.11 235.322Z" fill="#FFCD8F"/>
<path d="M1024.56 195.55C1027.1 198.298 1026.93 202.583 1024.18 205.121C1021.44 207.659 1017.15 207.489 1014.61 204.741C1012.08 201.994 1012.25 197.709 1014.99 195.171C1017.74 192.632 1022.03 192.802 1024.56 195.55Z" fill="#FFCD8F"/>
<path d="M972.41 118.234C973.067 101.683 964.928 87.9305 954.235 87.5223C943.527 87.0977 934.325 100.162 933.685 116.699C933.029 133.25 941.168 147.002 951.86 147.411C962.568 147.835 971.77 134.77 972.41 118.234Z" fill="#FFCD8F"/>
<path opacity="0.5" d="M878.889 136.307C879.978 108.827 866.443 85.9711 848.691 85.2671C830.94 84.5631 815.637 106.276 814.547 133.756C813.457 161.236 826.976 184.107 844.759 184.813C862.543 185.518 877.814 163.804 878.92 136.309L878.889 136.307Z" fill="#FFCD8F"/>
<path opacity="0.3" d="M908.288 172.352C925.672 176.348 943.011 165.536 946.988 148.198C950.966 130.861 940.105 113.569 922.721 109.573C905.337 105.578 887.998 116.39 884.021 133.727C880.043 151.064 890.905 168.357 908.288 172.352Z" fill="#FFCD8F"/>
<path opacity="0.3" d="M1051.09 178.015C1063.58 180.899 1076.03 173.119 1078.91 160.658C1081.77 148.212 1073.96 135.77 1061.47 132.918C1048.98 130.034 1036.54 137.813 1033.65 150.274C1030.79 162.72 1038.6 175.162 1051.11 178.031L1051.09 178.015Z" fill="#FFCD8F"/>
<path d="M868.973 74.4446C870.422 76.0134 870.325 78.4599 868.756 79.9091C867.187 81.3582 864.74 81.2612 863.291 79.6924C861.842 78.1235 861.939 75.6771 863.508 74.2279C865.077 72.7788 867.523 72.8758 868.973 74.4446Z" fill="#FFCD8F"/>
<path d="M982.13 317.88C983.633 319.87 986.448 320.282 988.438 318.779C990.427 317.276 990.839 314.461 989.336 312.472C987.833 310.482 985.018 310.07 983.029 311.573C981.039 313.076 980.627 315.891 982.13 317.88Z" fill="#FFCD8F"/>
</g>
<g style="mix-blend-mode:screen">
<path d="M15.8562 247.895L-138.138 52.6423L-140.827 54.7631L13.1673 250.016L15.8562 247.895Z" fill="#FFCD8F"/>
<path d="M175.785 286.947L174.979 285.925C170.301 289.615 163.535 288.816 159.845 284.137L158.823 284.943C162.513 289.622 161.714 296.388 157.035 300.078L157.841 301.099C162.52 297.409 169.285 298.209 172.976 302.888L173.997 302.082C170.307 297.403 171.106 290.637 175.785 286.947Z" fill="#FFCD8F"/>
<path d="M192.585 356.208L190.588 342.896C129.897 352 73.3118 310.176 64.2083 249.484L50.8966 251.48C60.0001 312.172 18.1763 368.757 -42.5156 377.861L-40.5189 391.172C20.173 382.069 76.7578 423.893 85.8613 484.585L99.173 482.588C90.0695 421.896 131.893 365.311 192.585 356.208Z" fill="#FFCD8F"/>
<path d="M24.7076 211.488L23.3884 210.959C20.9645 217.028 14.0621 220.001 7.99232 217.577L7.46271 218.896C13.5325 221.32 16.5047 228.222 14.0807 234.292L15.4 234.822C17.8239 228.752 24.7263 225.78 30.796 228.204L31.3256 226.884C25.2559 224.46 22.2837 217.558 24.7076 211.488Z" fill="#FFCD8F"/>
<path d="M120.316 346.426L184.723 337.063L144.415 285.955L120.316 346.426Z" fill="#FFCD8F"/>
<path d="M37.8536 394.54L75.2605 389.433L52.1089 359.599L37.8536 394.54Z" fill="#FFCD8F"/>
<path d="M102.279 219.482L165.051 210.885L126.212 160.829L102.279 219.482Z" fill="#FFCD8F"/>
<path opacity="0.2" d="M-40.1727 348.988L49.2674 336.747L-6.05811 265.382L-40.1727 348.988Z" fill="#FFCD8F"/>
<path d="M36.3916 109.286L7.04053 72.0706L0.192677 77.4714L29.5438 114.686L36.3916 109.286Z" fill="#FFCD8F"/>
<path d="M39.3777 211.432L-81.7168 57.8931L-85.1407 60.5935L35.9538 214.132L39.3777 211.432Z" fill="#FFCD8F"/>
<path d="M188.118 369.101C198.19 370.255 206.977 365.758 207.745 359.056C208.513 352.354 200.972 345.985 190.9 344.831C180.828 343.677 172.04 348.174 171.272 354.876C170.504 361.578 178.047 367.947 188.118 369.101Z" fill="#FFCD8F"/>
<path d="M151.751 269.741C161.653 267.565 168.543 260.63 167.141 254.251C165.74 247.871 156.577 244.464 146.675 246.639C136.774 248.815 129.883 255.75 131.285 262.129C132.687 268.509 141.85 271.916 151.751 269.741Z" fill="#FFCD8F"/>
<path d="M243.752 345.144C246.998 348.486 246.918 353.841 243.576 357.088C240.234 360.334 234.879 360.254 231.633 356.912C228.386 353.57 228.466 348.215 231.808 344.968C235.15 341.722 240.505 341.802 243.752 345.144Z" fill="#FFCD8F"/>
<path d="M128.642 347.362C131.889 350.704 131.809 356.059 128.467 359.306C125.125 362.552 119.77 362.472 116.523 359.13C113.277 355.788 113.357 350.433 116.699 347.186C120.041 343.94 125.396 344.02 128.642 347.362Z" fill="#FFCD8F"/>
<path d="M149.907 371.413C161.287 374.708 169.875 382.241 169.098 388.261C168.308 394.264 158.437 396.495 147.057 393.2C135.677 389.905 127.089 382.372 127.866 376.352C128.656 370.349 138.527 368.118 149.907 371.413Z" fill="#FFCD8F"/>
<path d="M84.5285 196.089C71.281 206.537 52.0922 204.254 41.6581 191.024C31.2241 177.795 33.4931 158.588 46.7227 148.154C59.9523 137.72 79.1768 139.975 89.6109 153.204C100.045 166.434 97.776 185.64 84.5285 196.089Z" fill="#FFCD8F"/>
<path d="M108.205 317.946C110.603 320.985 115.01 321.506 118.049 319.109C121.089 316.711 121.609 312.304 119.212 309.265C116.815 306.226 112.408 305.705 109.368 308.102C106.329 310.499 105.808 314.906 108.205 317.946Z" fill="#FFCD8F"/>
<path d="M78.2478 247.479C80.6137 250.479 84.9634 250.993 87.9632 248.627C90.963 246.261 91.477 241.911 89.1111 238.911C86.7452 235.911 82.3953 235.397 79.3955 237.763C76.3957 240.129 75.8818 244.479 78.2478 247.479Z" fill="#FFCD8F"/>
<path opacity="0.5" d="M41.7811 91.0476C13.8849 87.752 -7.00734 70.4422 -4.87849 52.4219C-2.74965 34.4016 21.601 22.4365 49.4972 25.732C77.3934 29.0275 98.3036 46.3232 96.1709 64.3756C94.0383 82.428 69.6914 94.361 41.7773 91.0796L41.7811 91.0476Z" fill="#FFCD8F"/>
<path opacity="0.3" d="M73.4402 126.471C74.6905 144.647 61.0103 160.408 42.8846 161.648C24.759 162.888 9.05127 149.166 7.80096 130.99C6.55065 112.814 20.2307 97.0528 38.3563 95.8128C56.482 94.5728 72.1899 108.296 73.4402 126.471Z" fill="#FFCD8F"/>
<path opacity="0.3" d="M56.3159 271.436C57.2272 284.499 47.3896 295.805 34.358 296.721C21.3442 297.622 10.0419 287.752 9.16264 274.692C8.25127 261.628 18.0889 250.322 31.1205 249.407C44.1343 248.506 55.4366 258.376 56.33 271.453L56.3159 271.436Z" fill="#FFCD8F"/>
<path d="M208.441 224.236C210.207 226.071 210.173 228.976 208.338 230.743C206.504 232.509 203.598 232.475 201.832 230.641C200.065 228.806 200.1 225.901 201.934 224.134C203.768 222.367 206.674 222.402 208.441 224.236Z" fill="#FFCD8F"/>
</g>
<g style="mix-blend-mode:screen" opacity="0.6">
<path d="M1197.07 167.537L975.25 -36.1877L973.968 -34.7922L1195.79 168.933L1197.07 167.537Z" fill="#FFCD8F"/>
<path d="M1261.56 275.239L1141.87 165.312L1140.36 166.961L1260.05 276.887L1261.56 275.239Z" fill="#FFCD8F"/>
<path d="M1368.81 283.772L1368.18 283.197C1365.55 286.065 1361.1 286.254 1358.23 283.62L1357.66 284.246C1360.53 286.88 1360.71 291.329 1358.08 294.197L1358.71 294.772C1361.34 291.904 1365.79 291.715 1368.66 294.349L1369.23 293.722C1366.36 291.088 1366.18 286.64 1368.81 283.772Z" fill="#FFCD8F"/>
<path d="M1207.81 128.009L1207.14 127.394C1204.35 130.437 1199.6 130.639 1196.56 127.844L1195.94 128.514C1198.99 131.31 1199.19 136.053 1196.39 139.097L1197.06 139.712C1199.86 136.668 1204.6 136.467 1207.65 139.262L1208.26 138.592C1205.22 135.796 1205.02 131.053 1207.81 128.009Z" fill="#FFCD8F"/>
<path d="M1232.8 333.336L1232.45 333.013C1230.96 334.628 1228.46 334.724 1226.86 333.25L1226.54 333.602C1228.15 335.085 1228.25 337.584 1226.77 339.189L1227.13 339.512C1228.61 337.896 1231.11 337.8 1232.71 339.274L1233.04 338.922C1231.42 337.439 1231.32 334.94 1232.8 333.336Z" fill="#FFCD8F"/>
<path d="M1428.06 332.272L1414.65 329.888C1403.78 391.024 1345.41 431.78 1284.27 420.914L1281.89 434.323C1343.02 445.189 1383.78 503.562 1372.91 564.698L1386.32 567.081C1397.19 505.945 1455.56 465.19 1516.7 476.055L1519.08 462.646C1457.95 451.781 1417.19 393.407 1428.06 332.272Z" fill="#FFCD8F"/>
<path d="M1263.48 250.827L1262.57 250.623C1261.64 254.791 1257.5 257.428 1253.33 256.497L1253.12 257.403C1257.29 258.334 1259.93 262.478 1259 266.646L1259.9 266.851C1260.84 262.682 1264.98 260.046 1269.15 260.977L1269.35 260.071C1265.18 259.139 1262.55 254.996 1263.48 250.827Z" fill="#FFCD8F"/>
<path d="M1339.22 327.924L1379.8 315.173L1348.47 286.4L1339.22 327.924Z" fill="#FFCD8F"/>
<path d="M1112.94 89.963L1119.71 90.2453L1116.57 84.2224L1112.94 89.963Z" fill="#FFCD8F"/>
<path d="M1291.03 367.556L1314.63 360.364L1296.59 343.528L1291.03 367.556Z" fill="#FFCD8F"/>
<path d="M1314.36 247.903L1353.96 235.817L1323.69 207.569L1314.36 247.903Z" fill="#FFCD8F"/>
<path opacity="0.2" d="M1235.95 346.296L1292.37 329.081L1249.24 288.802L1235.95 346.296Z" fill="#FFCD8F"/>
<path d="M1112.12 124.412L1101.36 114.531L1091.48 125.29L1102.23 135.17L1112.12 124.412Z" fill="#FFCD8F"/>
<path d="M1114.62 53.3511L1106.77 52.1201L1105.54 59.9768L1113.39 61.2077L1114.62 53.3511Z" fill="#FFCD8F"/>
<path d="M1172.71 159.037L1130.82 120.565L1116.67 135.972L1158.56 174.444L1172.71 159.037Z" fill="#FFCD8F"/>
<path d="M1260.37 183.673L1237.56 162.722L1233.7 166.919L1256.51 187.871L1260.37 183.673Z" fill="#FFCD8F"/>
<path d="M1272.94 249.263L1178.82 162.821L1176.89 164.92L1271.01 251.361L1272.94 249.263Z" fill="#FFCD8F"/>
<path d="M1044.96 91.5289L1039.4 91.7654L1039.64 97.3256L1045.2 97.0891L1044.96 91.5289Z" fill="#FFCD8F"/>
<path d="M1053.91 8.46005L1049.63 11.1809L1052.35 15.4624L1056.63 12.7416L1053.91 8.46005Z" fill="#FFCD8F"/>
<path d="M1019.37 49.4865C1021.3 51.259 1024.3 51.1314 1026.07 49.2014C1027.85 47.2715 1027.72 44.27 1025.79 42.4975C1023.86 40.725 1020.86 40.8526 1019.08 42.7826C1017.31 44.7125 1017.44 47.714 1019.37 49.4865Z" fill="#FFCD8F"/>
<path d="M1385.33 335.489C1391.94 335.184 1397.14 331.367 1396.94 326.963C1396.74 322.559 1391.21 319.236 1384.59 319.541C1377.97 319.845 1372.77 323.662 1372.98 328.066C1373.18 332.47 1378.71 335.793 1385.33 335.489Z" fill="#FFCD8F"/>
<path d="M1351.51 275.174C1357.67 272.739 1361.4 267.547 1359.83 263.577C1358.26 259.608 1351.99 258.364 1345.83 260.799C1339.67 263.234 1335.95 268.426 1337.51 272.396C1339.08 276.366 1345.35 277.609 1351.51 275.174Z" fill="#FFCD8F"/>
<path d="M991.795 5.66329C993.695 7.40791 996.649 7.28226 998.394 5.38265C1000.14 3.48303 1000.01 0.528784 998.113 -1.21584C996.213 -2.96046 993.259 -2.83481 991.514 -0.935192C989.77 0.964424 989.895 3.91867 991.795 5.66329Z" fill="#FFCD8F"/>
<path d="M1060.95 67.0731C1063.4 68.8911 1063.9 72.3543 1062.09 74.797C1060.27 77.2397 1056.8 77.746 1054.36 75.928C1051.92 74.11 1051.41 70.6468 1053.23 68.2041C1055.05 65.7614 1058.51 65.2551 1060.95 67.0731Z" fill="#FFCD8F"/>
<path d="M1418.72 314.237C1421.16 316.055 1421.67 319.518 1419.85 321.961C1418.03 324.403 1414.57 324.91 1412.13 323.092C1409.69 321.274 1409.18 317.811 1411 315.368C1412.82 312.925 1416.28 312.419 1418.72 314.237Z" fill="#FFCD8F"/>
<path d="M1298.67 259.183C1304.73 263.698 1305.99 272.261 1301.47 278.325C1296.96 284.388 1288.39 285.639 1282.33 281.124C1276.27 276.609 1275.01 268.045 1279.53 261.982C1284.04 255.919 1292.61 254.668 1298.67 259.183Z" fill="#FFCD8F"/>
<path d="M1344.69 327.659C1347.13 329.477 1347.64 332.94 1345.82 335.383C1344 337.826 1340.54 338.332 1338.09 336.514C1335.65 334.696 1335.15 331.233 1336.96 328.79C1338.78 326.348 1342.24 325.841 1344.69 327.659Z" fill="#FFCD8F"/>
<path d="M1360.91 340.961C1368.6 341.901 1374.92 345.867 1375.05 349.832C1375.17 353.787 1369.03 356.255 1361.35 355.314C1353.66 354.374 1347.34 350.409 1347.21 346.443C1347.09 342.488 1353.23 340.021 1360.91 340.961Z" fill="#FFCD8F"/>
<path d="M1300.47 234.661C1293.01 242.782 1280.39 243.308 1272.28 235.86C1264.17 228.412 1263.64 215.784 1271.08 207.674C1278.53 199.564 1291.17 199.016 1299.28 206.464C1307.39 213.912 1307.93 226.54 1300.47 234.661Z" fill="#FFCD8F"/>
<path d="M1328.44 310.811C1330.3 312.522 1333.2 312.398 1334.91 310.535C1336.62 308.672 1336.5 305.774 1334.64 304.063C1332.77 302.352 1329.87 302.475 1328.16 304.338C1326.45 306.202 1326.58 309.099 1328.44 310.811Z" fill="#FFCD8F"/>
<path d="M1301.77 268.47C1303.61 270.159 1306.47 270.037 1308.16 268.198C1309.85 266.359 1309.73 263.499 1307.89 261.81C1306.05 260.122 1303.19 260.243 1301.5 262.082C1299.81 263.921 1299.93 266.781 1301.77 268.47Z" fill="#FFCD8F"/>
<path d="M1207.45 216.167C1217.28 223.49 1219.31 237.385 1211.99 247.199C1204.67 257.025 1190.79 259.062 1180.96 251.74C1171.14 244.418 1169.1 230.534 1176.42 220.708C1183.74 210.882 1197.64 208.855 1207.45 216.167Z" fill="#FFCD8F"/>
<path d="M1250.06 233.805C1239.02 234.275 1229.82 228.869 1229.53 221.732C1229.22 214.586 1237.93 208.418 1248.96 207.96C1260.01 207.49 1269.2 212.896 1269.5 220.032C1269.8 227.179 1261.1 233.346 1250.06 233.805Z" fill="#FFCD8F"/>
<path opacity="0.5" d="M1261.96 171.336C1243.61 172.116 1228.33 163.125 1227.83 151.277C1227.32 139.43 1241.79 129.173 1260.13 128.393C1278.47 127.613 1293.76 136.593 1294.27 148.462C1294.77 160.331 1280.31 170.566 1261.96 171.357L1261.96 171.336Z" fill="#FFCD8F"/>
<path opacity="0.3" d="M1286.06 190.901C1288.76 202.497 1281.58 214.091 1270.02 216.779C1258.45 219.468 1246.89 212.251 1244.19 200.655C1241.49 189.059 1248.67 177.465 1260.24 174.777C1271.8 172.088 1283.36 179.305 1286.06 190.901Z" fill="#FFCD8F"/>
<path opacity="0.3" d="M1290.12 286.211C1292.06 294.544 1286.9 302.863 1278.58 304.811C1270.28 306.748 1261.96 301.558 1260.03 293.224C1258.08 284.891 1263.25 276.572 1271.57 274.624C1279.87 272.686 1288.19 277.876 1290.13 286.221L1290.12 286.211Z" fill="#FFCD8F"/>
<path d="M1220.64 164.845C1221.69 165.809 1223.32 165.74 1224.28 164.69C1225.25 163.64 1225.18 162.007 1224.13 161.043C1223.08 160.078 1221.44 160.148 1220.48 161.198C1219.52 162.248 1219.59 163.881 1220.64 164.845Z" fill="#FFCD8F"/>
<path d="M1383.35 239.902C1384.68 240.901 1384.96 242.78 1383.97 244.11C1382.97 245.441 1381.09 245.722 1379.76 244.722C1378.43 243.723 1378.15 241.845 1379.15 240.514C1380.14 239.183 1382.02 238.903 1383.35 239.902Z" fill="#FFCD8F"/>
</g>
<rect y="100" width="2444.08" height="400" fill="url(#paint1_linear_3170_296105)"/>
</g>
<defs>
<linearGradient id="paint0_linear_3170_296105" x1="748" y1="-63.7643" x2="748" y2="529.314" gradientUnits="userSpaceOnUse">
<stop offset="0.02" stop-color="#FFEFD1"/>
<stop offset="0.270392" stop-color="#FFD1D6"/>
<stop offset="0.592964" stop-color="#D2CBFF"/>
<stop offset="0.805" stop-color="#9CFFE7"/>
<stop offset="1" stop-color="#A6FFB4"/>
</linearGradient>
<linearGradient id="paint1_linear_3170_296105" x1="1222.04" y1="100" x2="1222.04" y2="500" gradientUnits="userSpaceOnUse">
<stop stop-color="#FBFCFE" stop-opacity="0"/>
<stop offset="1" stop-color="#FBFCFE"/>
</linearGradient>
<clipPath id="clip0_3170_296105">
<rect width="1496" height="500" fill="white"/>
</clipPath>
</defs>
</svg>
