<svg width="120" height="120" viewBox="0 0 120 120" fill="none" xmlns="http://www.w3.org/2000/svg">
<path d="M99.9358 78.5777L98.5057 109.661L84.3228 102.133L69.552 120L61.8222 102.646L28.9879 118.065L29.3952 90.2937L1.35422 82.6177L22.7568 65.1318L0 41.0866L26.4753 38.404L26.9026 10.1317L50.1477 25.0851L65.2012 0L76.5737 28.8961L98.461 14.999L97.8495 27.295L97.2381 39.5911L114.286 43.0221L102.218 62.9471L115 83.9803L99.9358 78.5777Z" fill="url(#paint0_radial_1118_40013)"/>
<path d="M58.9118 56.9502C61.7961 59.8567 64.283 61.1004 66.2936 60.6476C68.298 60.1946 69.9935 58.0202 71.3411 54.1848C71.4515 53.8616 71.8032 53.6951 72.1265 53.8055C72.4498 53.9159 72.6162 54.2676 72.5059 54.5909C71.0133 58.8533 69.0116 61.3007 66.5654 61.849C66.136 61.9448 65.69 61.9844 65.2398 61.9682C63.0939 61.8914 60.7226 60.5222 58.035 57.8141C57.7967 57.571 57.7983 57.182 58.0353 56.9435C58.2723 56.7051 58.6674 56.7069 58.9059 56.9439L58.9118 56.9502Z" fill="url(#paint1_linear_1118_40013)"/>
<path d="M69.9427 48.7833C69.8555 49.0189 69.6444 49.1712 69.4106 49.189C69.3244 49.1956 69.2369 49.1837 69.1541 49.1529C68.8357 49.0349 68.6726 48.6823 68.7844 48.3643C69.7313 45.7733 70.6512 44.2054 71.6492 43.498L70.8139 40.7461C70.7147 40.4195 70.8989 40.0774 71.2255 39.9782C71.5521 39.879 71.8942 40.0633 71.9934 40.3899L72.7975 43.0575C73.8855 42.962 74.9201 43.706 75.9978 45.3378C76.1865 45.6205 76.1106 46.0038 75.8218 46.1929C75.5392 46.3816 75.1559 46.3057 74.9667 46.0169C74.4139 45.1804 73.5839 44.198 72.8726 44.2832C72.2592 44.3549 71.2526 45.1929 69.937 48.7899L69.9427 48.7833Z" fill="url(#paint2_linear_1118_40013)"/>
<path d="M50.2724 51.4864C51.1238 48.6984 52.2211 47.1046 53.6004 46.6094L53.1117 43.6144C53.0551 43.2784 53.2843 42.9576 53.6208 42.9072C53.9625 42.8439 54.2714 43.0803 54.328 43.4163L54.8262 46.4539C56.2605 46.598 57.8197 47.8094 59.5691 50.1325C59.7757 50.4076 59.7183 50.7895 59.4494 50.9957C59.1743 51.2023 58.7924 51.1449 58.5857 50.8698C56.8771 48.5931 55.4007 47.4929 54.2709 47.6906C53.2022 47.8775 52.2289 49.3133 51.4567 51.8415C51.3771 52.0951 51.1607 52.2601 50.9146 52.2789C50.8408 52.2846 50.7599 52.2784 50.6898 52.2528C50.3667 52.1537 50.1794 51.8091 50.278 51.4798L50.2724 51.4864Z" fill="url(#paint3_linear_1118_40013)"/>
<path d="M93.1792 87.7791L99.02 71.4785L83.4057 64.8556C77.2186 60.178 88.7495 48.0844 90.5493 50.4951L110.743 72.2147L93.4898 90.464C92.7386 90.0298 92.5266 89.2192 93.1859 87.7787L93.1792 87.7791Z" fill="url(#paint4_radial_1118_40013)"/>
<path d="M57.7711 112.241L43.9467 102.372L43.6502 85.8161L79.2217 74.2391L91.2611 83.4134L91.3802 98.8572L57.7711 112.241Z" fill="url(#paint5_linear_1118_40013)"/>
<path d="M41.602 105.187C41.2976 105.044 40.943 104.748 40.5211 104.238C39.506 103.017 20.8799 87.7114 20.5052 86.1236C20.1304 84.5358 37.9196 56.8114 41.6615 55.604C43.6619 55.0084 44.4766 59.1589 46.7892 62.0396C49.1017 64.9192 50.7108 67.3421 53.2829 69.4811L33.6761 86.0298L43.2834 101.664C43.2834 101.664 42.8688 105.802 41.6025 105.194" fill="url(#paint6_radial_1118_40013)"/>
<path fill-rule="evenodd" clip-rule="evenodd" d="M95.2938 84.2399L95.2938 84.2399C94.8662 84.1062 94.4475 83.9752 94.0481 83.9271C93.7655 83.8523 93.5266 83.9165 93.5568 83.9617C93.5591 83.9656 93.5612 83.9671 93.5628 83.9682C93.5664 83.9707 93.567 83.9711 93.5592 83.9954C92.7674 85.715 90.6267 86.1433 89.1341 84.6389L89.1621 84.4611C89.5118 84.2403 89.8209 84.117 90.119 84.0284C90.5931 83.8461 91.0412 83.6793 91.4993 83.6537L91.5256 83.6519C91.6912 83.6405 91.852 83.6295 92.0229 83.5018C92.0865 83.4521 92.152 83.3947 92.2205 83.3347C92.4491 83.1344 92.7111 82.9049 93.0444 82.8346C93.2165 82.7798 93.3766 82.7931 93.543 82.8069L93.543 82.8069C93.5878 82.8106 93.6329 82.8144 93.6789 82.8169C93.7578 82.8371 93.9216 82.8907 94.0409 82.9298C94.078 82.9419 94.1108 82.9526 94.1355 82.9605C94.8427 83.3029 95.4109 83.7836 95.9306 84.2474L95.8261 84.3968L95.8333 84.4031C95.6524 84.3521 95.4723 84.2958 95.2938 84.2399ZM96.1494 85.1081L96.1523 85.1056L96.1527 85.1123L96.1494 85.1081ZM96.1494 85.1081L96.0341 84.9651C94.5152 85.5795 92.9539 86.1698 91.3564 86.5327C89.5984 86.7311 88.4018 86.9305 86.6574 87.5134L86.6155 87.6855C87.3035 88.3029 88.1432 88.5837 89.0029 88.6233C87.741 88.8011 86.5309 88.9727 85.0927 89.2731L85.044 89.4456C88.9945 92.3322 94.1543 88.6813 96.9362 86.2194L96.8109 86.0727C94.9951 86.9853 93.0928 87.8228 91.0918 88.3157L90.9255 88.342C91.2923 88.2204 91.6429 88.0645 91.9656 87.883C93.5589 87.1894 94.9153 86.2019 96.1494 85.1081ZM88.2296 92.4339C92.2724 94.2318 95.7461 89.5101 97.1593 86.7254L96.9986 86.4926C96.8143 86.6767 96.629 86.865 96.4419 87.0551C95.3786 88.1356 94.2586 89.2737 92.9414 90.005C92.8419 90.0468 92.744 90.0879 92.6473 90.1284C91.0521 90.7978 89.8152 91.3169 88.2168 92.2522L88.2296 92.4339Z" fill="url(#paint7_radial_1118_40013)"/>
<path fill-rule="evenodd" clip-rule="evenodd" d="M42.7882 101.434C42.6167 101.496 42.4436 101.56 42.269 101.619L42.2748 101.605L42.1634 101.464C42.6637 100.982 43.2107 100.49 43.8945 100.118C43.9332 100.104 43.9949 100.08 44.0617 100.054C44.1657 100.013 44.282 99.9673 44.3426 99.9507C44.3922 99.9456 44.4409 99.9388 44.4892 99.9321C44.6504 99.9096 44.8074 99.8877 44.9771 99.933C45.3074 99.9874 45.5808 100.193 45.8183 100.371C45.8908 100.425 45.96 100.477 46.0264 100.522C46.2108 100.644 46.3867 100.645 46.5555 100.64C47.0083 100.635 47.4643 100.772 47.9482 100.921C48.2442 100.994 48.5623 101.094 48.9207 101.285L48.96 101.458C47.5402 102.999 45.389 102.704 44.518 101.095C44.5069 101.072 44.5073 101.071 44.5106 101.068C44.512 101.067 44.5139 101.065 44.5156 101.061C44.5464 101.018 44.3061 100.968 44.0282 101.055C43.6284 101.127 43.2135 101.278 42.7882 101.434ZM41.9883 102.316C43.2684 103.301 44.676 104.175 46.2992 104.751C46.6235 104.903 46.9732 105.031 47.3365 105.126L47.1901 105.113C45.1697 104.755 43.2337 104.059 41.38 103.284L41.2616 103.427L41.2621 103.434C41.3106 103.471 41.3599 103.509 41.4099 103.547L41.339 103.591L41.3458 103.591C42.8821 106.195 46.2857 110.885 50.2318 108.916C50.2982 108.863 50.2613 108.792 50.2191 108.735C49.3497 107.57 48.1677 107.282 47.0481 107.008C46.3377 106.835 45.6525 106.668 45.0882 106.287C44.0373 105.577 43.3078 105.007 42.4972 104.328C45.5021 106.375 49.9629 108.478 53.2752 105.853L53.2229 105.688C51.7845 105.482 50.5765 105.385 49.3166 105.288C50.1623 105.195 50.9757 104.875 51.6269 104.246L51.5746 104.081C49.8105 103.617 48.6051 103.499 46.8401 103.407C45.2258 103.149 43.6434 102.672 42.0995 102.166L41.9883 102.316Z" fill="url(#paint8_radial_1118_40013)"/>
<path d="M44.0362 87.1231C44.2429 86.8073 44.6612 86.7231 44.9661 86.9412L58.1451 95.9364L90.5021 84.6122C90.8505 84.4918 91.2339 84.6769 91.3536 85.0381C91.4729 85.3924 91.2916 85.7817 90.937 85.9093L58.3632 97.3105L58.0409 108.874C58.0333 109.052 57.9017 109.191 57.7275 109.204C57.7141 109.205 57.7074 109.205 57.694 109.206C57.5117 109.198 57.3594 109.045 57.3661 108.853L57.6879 97.2829L44.2117 88.0827C43.9005 87.8719 43.8233 87.4461 44.0305 87.1372L44.0362 87.1231Z" fill="#FD2D2E"/>
<defs>
<radialGradient id="paint0_radial_1118_40013" cx="0" cy="0" r="1" gradientUnits="userSpaceOnUse" gradientTransform="translate(62.6802 56.6129) rotate(-55.2747) scale(101.85 94.9753)">
<stop offset="0.192213" stop-color="#FFF9FF"/>
<stop offset="0.281629" stop-color="#FFE2FE"/>
<stop offset="0.564578" stop-color="#FF89AC"/>
<stop offset="0.869362" stop-color="#FC2C2C"/>
</radialGradient>
<linearGradient id="paint1_linear_1118_40013" x1="65.5335" y1="49.7656" x2="68.0585" y2="66.2429" gradientUnits="userSpaceOnUse">
<stop offset="0.16" stop-color="#E20ABD"/>
<stop offset="0.909943" stop-color="#DF0A70"/>
</linearGradient>
<linearGradient id="paint2_linear_1118_40013" x1="66.8959" y1="52.6823" x2="73.5501" y2="40.337" gradientUnits="userSpaceOnUse">
<stop offset="0.16" stop-color="#E20ABD"/>
<stop offset="0.909943" stop-color="#DF0A70"/>
</linearGradient>
<linearGradient id="paint3_linear_1118_40013" x1="61.5529" y1="54.1385" x2="48.4579" y2="51.8701" gradientUnits="userSpaceOnUse">
<stop offset="0.16" stop-color="#E20ABD"/>
<stop offset="0.909943" stop-color="#DF0A70"/>
</linearGradient>
<radialGradient id="paint4_radial_1118_40013" cx="0" cy="0" r="1" gradientUnits="userSpaceOnUse" gradientTransform="translate(81.0791 54.0156) rotate(35.7295) scale(39.9736 37.2928)">
<stop offset="0.0822582" stop-color="#FFF9FF" stop-opacity="0"/>
<stop offset="0.262081" stop-color="#FFE2FE" stop-opacity="0.4"/>
<stop offset="0.584229" stop-color="#FF89AC"/>
<stop offset="0.869362" stop-color="#FC2C2C"/>
</radialGradient>
<linearGradient id="paint5_linear_1118_40013" x1="66.3522" y1="75.1468" x2="68.9132" y2="111.455" gradientUnits="userSpaceOnUse">
<stop stop-color="#E9BDB8"/>
<stop offset="1" stop-color="#FC2D99"/>
</linearGradient>
<radialGradient id="paint6_radial_1118_40013" cx="0" cy="0" r="1" gradientUnits="userSpaceOnUse" gradientTransform="translate(48.644 61.1929) rotate(115.393) scale(45.2727 45.0541)">
<stop offset="0.154701" stop-color="#FFF9FF"/>
<stop offset="0.285286" stop-color="#FFE2FE"/>
<stop offset="0.72" stop-color="#FF89AC"/>
<stop offset="1" stop-color="#FC2C2C"/>
</radialGradient>
<radialGradient id="paint7_radial_1118_40013" cx="0" cy="0" r="1" gradientUnits="userSpaceOnUse" gradientTransform="translate(96.1462 86.1793) rotate(157.487) scale(14.161 15.2356)">
<stop stop-color="#FD2D2E"/>
<stop offset="1" stop-color="#C93131"/>
</radialGradient>
<radialGradient id="paint8_radial_1118_40013" cx="0" cy="0" r="1" gradientUnits="userSpaceOnUse" gradientTransform="translate(48.2622 106.627) rotate(-150.637) scale(8.09485 8.50885)">
<stop stop-color="#C93131"/>
<stop offset="1" stop-color="#FD2D2E"/>
</radialGradient>
</defs>
</svg>
