<svg width="124" height="124" viewBox="0 0 124 124" fill="none" xmlns="http://www.w3.org/2000/svg">
<g clip-path="url(#clip0_3170_296280)">
<rect width="124" height="124" fill="url(#paint0_linear_3170_296280)"/>
<path d="M61.4295 130.937C48.4082 132.02 37.5837 129.671 37.2525 125.69C36.9214 121.708 47.2089 117.603 60.2302 116.52C73.2516 115.437 84.0756 117.786 84.4068 121.767C84.738 125.748 74.4509 129.853 61.4295 130.937Z" stroke="#FFCD8F" stroke-miterlimit="1.5" stroke-linejoin="round"/>
<path d="M61.1708 120.084C41.8037 119.297 26.2863 114.16 26.5118 108.61C26.7373 103.061 42.6204 99.2 61.9875 99.987C81.3546 100.774 96.8719 105.911 96.6463 111.461C96.4208 117.01 80.5379 120.871 61.1708 120.084Z" stroke="#FAEB47" stroke-width="1.05931" stroke-miterlimit="24"/>
<path fill-rule="evenodd" clip-rule="evenodd" d="M110.453 41.0044C111.68 41.5514 112.855 42.1112 113.912 42.8827C114.115 43.0313 114.401 42.9868 114.549 42.7833C114.698 42.5798 114.653 42.2943 114.45 42.1458C113.36 41.3499 112.168 40.7736 110.99 40.245C112.391 40.5202 113.738 40.8881 115.054 41.5228C115.351 41.6659 115.708 41.5413 115.851 41.2444C115.994 40.9476 115.869 40.591 115.573 40.4479C115.08 40.2106 114.583 40.0077 114.083 39.8318C114.727 39.9519 115.482 40.1035 116.383 40.2951C116.592 40.3395 116.797 40.2064 116.841 39.9978C116.885 39.7893 116.752 39.5843 116.544 39.5399C112.213 38.6189 111.158 38.6063 109.645 38.5883C109.18 38.5828 108.672 38.5767 108.011 38.5435C107.858 38.5197 107.705 38.4957 107.552 38.4712L107.545 38.5169C107.486 38.5132 107.425 38.5091 107.363 38.5049L107.362 38.5102C107.321 38.4863 107.28 38.4621 107.239 38.4377L106.773 39.222C106.972 39.3405 107.174 39.4541 107.377 39.5637L107.363 39.6494C107.447 39.6628 107.531 39.6761 107.614 39.6893C108.377 40.0863 109.16 40.4322 109.927 40.771L109.927 40.771L109.927 40.7711C110.103 40.849 110.279 40.9266 110.453 41.0044Z" fill="#A1F9F7"/>
<path fill-rule="evenodd" clip-rule="evenodd" d="M110.453 41.0044C111.68 41.5514 112.855 42.1112 113.912 42.8827C114.115 43.0313 114.401 42.9868 114.549 42.7833C114.698 42.5798 114.653 42.2943 114.45 42.1458C113.36 41.3499 112.168 40.7736 110.99 40.245C112.391 40.5202 113.738 40.8881 115.054 41.5228C115.351 41.6659 115.708 41.5413 115.851 41.2444C115.994 40.9476 115.869 40.591 115.573 40.4479C115.08 40.2106 114.583 40.0077 114.083 39.8318C114.727 39.9519 115.482 40.1035 116.383 40.2951C116.592 40.3395 116.797 40.2064 116.841 39.9978C116.885 39.7893 116.752 39.5843 116.544 39.5399C112.213 38.6189 111.158 38.6063 109.645 38.5883C109.18 38.5828 108.672 38.5767 108.011 38.5435C107.858 38.5197 107.705 38.4957 107.552 38.4712L107.545 38.5169C107.486 38.5132 107.425 38.5091 107.363 38.5049L107.362 38.5102C107.321 38.4863 107.28 38.4621 107.239 38.4377L106.773 39.222C106.972 39.3405 107.174 39.4541 107.377 39.5637L107.363 39.6494C107.447 39.6628 107.531 39.6761 107.614 39.6893C108.377 40.0863 109.16 40.4322 109.927 40.771L109.927 40.771L109.927 40.7711C110.103 40.849 110.279 40.9266 110.453 41.0044Z" fill="url(#paint1_linear_3170_296280)"/>
<path fill-rule="evenodd" clip-rule="evenodd" d="M90.6333 73.5559C90.674 74.6998 90.2374 83.9962 86.9997 90.6037C81.3495 85.9298 77.6493 81.3084 77.1757 79.4951" fill="url(#paint2_radial_3170_296280)"/>
<path fill-rule="evenodd" clip-rule="evenodd" d="M58.9868 84.5147C56.7038 90.9464 53.2885 96.9544 48.5301 102.46L40.1529 76.2837" fill="url(#paint3_radial_3170_296280)"/>
<path fill-rule="evenodd" clip-rule="evenodd" d="M93.4514 34.2239C96.8075 34.2072 101.218 34.9611 111.386 39.9014C105.655 45.2844 100.437 49.4591 96.5596 50.5145" fill="url(#paint4_radial_3170_296280)"/>
<path fill-rule="evenodd" clip-rule="evenodd" d="M98.9502 27.5171L62.8438 11.9818L27.0149 25.1489V72.6123L61.4414 91.7992L98.9502 77.5189V27.5171Z" fill="url(#paint5_radial_3170_296280)"/>
<path fill-rule="evenodd" clip-rule="evenodd" d="M87.7046 46.3849C88.1893 48.7078 88.9404 50.5822 90.6943 50.7509C88.0672 51.8615 87.4937 53.4036 87.2754 55.0219C87.0867 53.6796 86.4539 52.6941 84.9997 52.3644C87.0459 51.9744 87.5602 49.4372 87.7046 46.3849ZM78.1648 60.2588C78.0793 59.6671 78.577 59.7622 79.3679 59.9133C80.1928 60.0708 81.3368 60.2893 82.4706 59.853C84.0338 59.2516 84.808 58.1027 85.2351 57.4688C85.4921 57.0874 85.6235 56.8924 85.7256 57.1151C86.025 59.6941 85.1378 61.5964 82.4706 62.6421C79.9198 63.6423 78.5196 62.7088 78.1648 60.2588ZM79.3519 53.646C77.994 53.1645 77.4056 51.4541 77.3131 48.9476C76.3474 52.6553 75.1152 55.1902 73.5167 56.1135C75.1263 55.9707 76.2586 56.5414 76.599 58.2966C77.3835 55.6166 78.3159 54.1748 79.3519 53.646Z" fill="url(#paint6_radial_3170_296280)"/>
<path fill-rule="evenodd" clip-rule="evenodd" d="M20.9463 73.9463C21.2992 73.8905 21.6274 74.118 21.6793 74.4542C21.7312 74.7904 21.4871 75.1082 21.1342 75.1639C18.2677 75.6164 16.0349 76.7266 14.5217 79.2081C14.3407 79.5049 13.9448 79.6097 13.6373 79.4422C13.3299 79.2747 13.2274 78.8983 13.4084 78.6015C15.1729 75.7079 17.8097 74.4414 20.9463 73.9463ZM15.4402 83.0006C15.9349 79.8794 17.9108 77.9536 20.9693 76.5137L20.4311 75.3706C17.1522 76.9143 14.7758 79.1216 14.1923 82.8028C14.1377 83.1474 14.3728 83.471 14.7174 83.5256C15.062 83.5802 15.3856 83.3451 15.4402 83.0006ZM24.9941 76.8168C24.512 77.7145 24.5329 78.598 24.672 79.6814C24.6915 79.8328 24.7139 79.9905 24.7372 80.1536L24.7372 80.1537L24.7372 80.1537C24.8721 81.1016 25.0334 82.2343 24.7844 83.3954L23.8625 82.5649C23.8076 82.4612 23.7573 82.3666 23.711 82.2797C23.2611 81.4344 23.1953 81.3107 23.0755 80.4461L23.0755 80.446C23.0509 80.2685 23.0255 80.0856 23.0012 79.896C22.8528 78.7404 22.7661 77.4048 23.5101 76.0197L24.9941 76.8168ZM21.5747 76.2591C21.8554 76.0521 22.2509 76.1118 22.458 76.3926C22.6651 76.6734 22.6053 77.0689 22.3245 77.276C19.9005 79.0637 18.1535 80.8926 17.45 83.2608C17.3507 83.5953 16.999 83.7858 16.6646 83.6865C16.3302 83.5872 16.1396 83.2355 16.2389 82.9011C17.0603 80.1358 19.077 78.1011 21.5747 76.2591Z" fill="url(#paint7_linear_3170_296280)"/>
<path fill-rule="evenodd" clip-rule="evenodd" d="M107.461 39.4217L107.461 40.5559C108.598 41.1873 108.971 42.7465 110.557 42.5356C112.143 42.3247 111.535 42.0706 111.535 42.0706C110.104 41.684 110.089 41.1719 109.647 40.8502" fill="url(#paint8_linear_3170_296280)"/>
<path fill-rule="evenodd" clip-rule="evenodd" d="M52.6863 67.8444C41.5998 72.9137 27.6622 79.6061 17.3802 77.0865C15.1455 73.8931 52.5396 44.6641 52.1146 45.5746" fill="url(#paint9_radial_3170_296280)"/>
<path d="M29.6598 95.6667C28.6851 95.6667 27.8948 94.8763 27.8948 93.9014C27.8948 92.9265 28.6851 92.1362 29.6598 92.1362C30.6346 92.1362 31.4248 92.9265 31.4248 93.9014C31.4248 94.8763 30.6346 95.6667 29.6598 95.6667Z" fill="#FF8847"/>
<path d="M96.7648 16.5304C95.79 16.5304 94.9998 15.7401 94.9998 14.7652C94.9998 13.7903 95.79 13 96.7648 13C97.7396 13 98.5298 13.7903 98.5298 14.7652C98.5298 15.7401 97.7396 16.5304 96.7648 16.5304Z" fill="#FF8847"/>
<path d="M64.4183 101.606C59.124 102.047 54.723 101.091 54.5883 99.4727C54.4537 97.8541 58.6364 96.1849 63.9306 95.7444C69.2249 95.304 73.6258 96.2592 73.7604 97.8779C73.8951 99.4965 69.7125 101.166 64.4183 101.606Z" stroke="#FFAF4D" stroke-width="0.373873" stroke-miterlimit="1.5" stroke-linejoin="round"/>
<path d="M55.4097 107.827L59.8687 107.162L62.5646 112.748L58.1057 113.413L55.4097 107.827Z" fill="#FF8847"/>
<path opacity="0.5" d="M24.911 12.3497L24.8741 11.9273C22.9326 12.0908 21.2345 10.6482 21.071 8.70665L20.6486 8.74355C20.8121 10.6851 19.3695 12.3832 17.428 12.5467L17.4649 12.969C19.4064 12.8055 21.1045 14.2481 21.268 16.1896L21.6903 16.1528C21.5269 14.2113 22.9694 12.5131 24.911 12.3497Z" fill="#FFCB3D"/>
<path opacity="0.5" d="M17.9405 24.3211L18.1195 23.7836C15.6521 22.9537 14.3356 20.2836 15.1655 17.8163L14.6281 17.6374C13.7981 20.1047 11.1281 21.4213 8.66068 20.5913L8.48177 21.1288C10.9492 21.9587 12.2657 24.6288 11.4358 27.0961L11.9732 27.2751C12.8031 24.8077 15.4732 23.4911 17.9405 24.3211Z" fill="#FA5300"/>
<path opacity="0.5" d="M82.7018 101.006L82.8724 100.653C81.2564 99.8643 80.5932 97.9174 81.3824 96.3013L81.0302 96.1307C80.241 97.7468 78.2942 98.4099 76.6781 97.6207L76.5075 97.9729C78.1235 98.7621 78.7867 100.709 77.9975 102.325L78.3496 102.496C79.1388 100.88 81.0857 100.216 82.7018 101.006Z" fill="#FA8900"/>
</g>
<defs>
<linearGradient id="paint0_linear_3170_296280" x1="-1.21119e-06" y1="124" x2="159.286" y2="-38.5625" gradientUnits="userSpaceOnUse">
<stop stop-color="#FFE792"/>
<stop offset="1" stop-color="white"/>
</linearGradient>
<linearGradient id="paint1_linear_3170_296280" x1="100.66" y1="37.4371" x2="105.009" y2="46.546" gradientUnits="userSpaceOnUse">
<stop stop-color="#FFC830"/>
<stop offset="1" stop-color="#FA4119"/>
</linearGradient>
<radialGradient id="paint2_radial_3170_296280" cx="0" cy="0" r="1" gradientUnits="userSpaceOnUse" gradientTransform="translate(90.6221 77.5365) rotate(120.833) scale(17.8381 18.413)">
<stop offset="0.32941" stop-color="#FFF8D6"/>
<stop offset="0.425" stop-color="#FFE767"/>
<stop offset="0.54" stop-color="#FF9D42"/>
<stop offset="0.809272" stop-color="#FA4119"/>
</radialGradient>
<radialGradient id="paint3_radial_3170_296280" cx="0" cy="0" r="1" gradientUnits="userSpaceOnUse" gradientTransform="translate(58.9677 82.3956) rotate(122.211) scale(23.7671 24.6946)">
<stop offset="0.32941" stop-color="#FFF8D6"/>
<stop offset="0.425" stop-color="#FFE767"/>
<stop offset="0.54" stop-color="#FF9D42"/>
<stop offset="0.809272" stop-color="#FA4119"/>
</radialGradient>
<radialGradient id="paint4_radial_3170_296280" cx="0" cy="0" r="1" gradientUnits="userSpaceOnUse" gradientTransform="translate(89.107 44.7524) rotate(-7.8917) scale(31.7453 30.3498)">
<stop offset="0.32941" stop-color="#FFF8D6"/>
<stop offset="0.425" stop-color="#FFE767"/>
<stop offset="0.54" stop-color="#FF9D42"/>
<stop offset="0.809272" stop-color="#FA4119"/>
</radialGradient>
<radialGradient id="paint5_radial_3170_296280" cx="0" cy="0" r="1" gradientUnits="userSpaceOnUse" gradientTransform="translate(72.6529 53.5292) rotate(-141.891) scale(71.4782 72.3507)">
<stop offset="0.281592" stop-color="#FFF8D6"/>
<stop offset="0.412926" stop-color="#FFE767"/>
<stop offset="0.54" stop-color="#FF9D42"/>
<stop offset="0.809272" stop-color="#FA4119"/>
</radialGradient>
<radialGradient id="paint6_radial_3170_296280" cx="0" cy="0" r="1" gradientUnits="userSpaceOnUse" gradientTransform="translate(82.101 54.5592) rotate(135.117) scale(8.70619 5.74203)">
<stop stop-color="#FFC830"/>
<stop offset="0.62" stop-color="#FA4119"/>
</radialGradient>
<linearGradient id="paint7_linear_3170_296280" x1="25.1279" y1="71.2158" x2="14.1007" y2="80.4832" gradientUnits="userSpaceOnUse">
<stop stop-color="#FFC830"/>
<stop offset="1" stop-color="#FA4119"/>
</linearGradient>
<linearGradient id="paint8_linear_3170_296280" x1="104.83" y1="39.1484" x2="110.232" y2="42.4374" gradientUnits="userSpaceOnUse">
<stop stop-color="#FFC830"/>
<stop offset="1" stop-color="#FA4119"/>
</linearGradient>
<radialGradient id="paint9_radial_3170_296280" cx="0" cy="0" r="1" gradientUnits="userSpaceOnUse" gradientTransform="translate(55.6133 55.7622) rotate(153.55) scale(60.7515 62.2636)">
<stop offset="0.32941" stop-color="#FFF8D6"/>
<stop offset="0.425" stop-color="#FFE767"/>
<stop offset="0.54" stop-color="#FF9D42"/>
<stop offset="0.809272" stop-color="#FA4119"/>
</radialGradient>
<clipPath id="clip0_3170_296280">
<rect width="124" height="124" fill="white"/>
</clipPath>
</defs>
</svg>
