<svg width="124" height="124" viewBox="0 0 124 124" fill="none" xmlns="http://www.w3.org/2000/svg">
<g clip-path="url(#clip0_3170_296279)">
<rect width="124" height="124" fill="url(#paint0_linear_3170_296279)"/>
<path fill-rule="evenodd" clip-rule="evenodd" d="M110.36 95.6473C110.36 95.6473 110.359 95.6473 110.358 95.6472L110.361 95.6535L110.36 95.6473ZM111.301 95.7886C111.014 95.6909 110.696 95.6529 110.36 95.6473L110.346 95.5593C110.923 95.3613 111.652 95.2734 112.236 95.6064C112.416 95.6943 112.573 95.8341 112.726 95.971C112.962 96.1815 113.19 96.3856 113.488 96.3856C113.652 96.3901 113.8 96.3705 113.952 96.3505C114.115 96.3289 114.282 96.3068 114.477 96.3133L114.531 96.3919C114.298 96.9668 113.683 97.4884 113.011 97.2904C112.867 97.2527 112.713 97.1459 112.609 97.0485C112.473 96.908 112.389 96.7779 112.313 96.6603C112.279 96.6069 112.246 96.5561 112.211 96.5081C112.017 96.1951 111.766 95.9893 111.476 95.8577C111.7 96.6004 111.964 97.3432 112.342 98.0033C112.571 98.3129 112.773 98.5769 112.972 98.8382C113.238 99.1867 113.5 99.5301 113.818 99.9701L113.784 100.058C112.876 100.171 112.044 99.4925 111.78 98.6536C111.408 97.743 111.281 96.7601 111.301 95.7886ZM111.043 101.601C108.691 100.828 109.504 97.4755 110.255 95.7852L110.258 95.782L110.349 95.8103C110.273 96.3193 110.211 96.8251 110.201 97.3278C110.126 98.3018 110.336 99.2601 110.641 100.143C110.751 100.586 110.895 101.004 111.105 101.529L111.043 101.601ZM113.507 101.485C110.722 101.47 110.594 97.869 110.722 95.8017L110.817 95.7954C110.843 95.9223 110.868 96.049 110.893 96.1754L110.893 96.1754L110.893 96.1754L110.893 96.1755C110.977 96.5967 111.06 97.0145 111.171 97.4229C111.517 99.0409 112.405 100.197 113.542 101.397L113.507 101.485Z" fill="url(#paint1_linear_3170_296279)"/>
<path d="M21.8198 47.7401L38.8521 62.5132L33.3327 66.6542L41.8253 73.1642L39.9855 85.4427L50.7825 87.6294L53.0838 100.982L63.8463 97.1556L72.6434 106L82.0465 97.1556L93.305 102.384L95.5749 89.4863L111.935 97.5892L105.587 77.5974L119.053 72.4635L108.432 61.9979L114.475 49.3738L103.443 46.3231L101.411 32.4234L90.313 35.4207L83.1014 24.4242L73.9997 30.7425L63.322 24L58.2139 35.4207L44.7325 34.7075L46.1547 47.3096L21.8136 47.7432L21.8198 47.7401Z" fill="url(#paint2_radial_3170_296279)"/>
<path d="M77.1144 59.0007C77.2494 59.0007 77.3812 58.9442 77.4754 58.8342C77.6418 58.6363 77.6167 58.3378 77.4189 58.1713C75.7392 56.7574 74.9889 55.8714 74.6812 54.0648C74.6498 53.8857 74.5179 53.7381 74.3421 53.6878C74.1663 53.6375 73.9779 53.6972 73.8586 53.8355C71.7708 56.2893 69.6579 56.4966 66.49 56.0254C66.2357 55.9877 65.994 56.1636 65.9563 56.4212C65.9186 56.6789 66.0944 56.9177 66.3519 56.9554C69.4726 57.4204 71.7802 57.2538 73.9559 55.1142C74.3986 56.638 75.2652 57.5837 76.813 58.8876C76.9009 58.963 77.0076 58.9976 77.1175 58.9976L77.1144 59.0007Z" fill="url(#paint3_linear_3170_296279)"/>
<path fill-rule="evenodd" clip-rule="evenodd" d="M21.1696 47.3498C21.8635 47.5572 22.617 47.6452 23.3516 47.7206V47.7237L23.361 47.818C22.6044 48.0222 21.8321 48.1573 21.0346 48.0945C20.994 48.091 20.9527 48.0878 20.911 48.0845C20.5393 48.0557 20.1282 48.0238 19.8008 47.7583C19.4428 47.4818 19.1634 47.0294 19.2356 46.5612L19.3204 46.5204C19.716 46.7372 19.9891 46.8409 20.2811 46.9445C20.4175 46.9865 20.5489 47.0572 20.6859 47.1308C20.8358 47.2115 20.9924 47.2957 21.1696 47.3498ZM23.3297 47.8905C22.3156 48.3084 21.1571 48.4812 20.1147 48.1544L19.9439 48.0825C19.2374 47.7854 18.6697 47.5466 17.9861 47.0139L17.9013 47.0516C17.8762 47.7208 18.3408 48.3398 18.9028 48.6822C19.3487 48.9336 19.873 48.9839 20.3753 48.9933C21.4679 49.0279 22.5416 48.632 23.3799 47.9659L23.3297 47.8842V47.8905ZM23.1319 48.6388C22.2434 48.8965 21.3267 49.107 20.4162 49.1855C20.1208 49.1748 19.8527 49.1722 19.594 49.1698C19.0197 49.1643 18.492 49.1593 17.8166 49.0661L17.7538 49.1384C17.9579 49.66 18.5042 49.9741 19.0191 50.0872C19.4983 50.2064 19.9673 50.0821 20.4029 49.9666C20.4496 49.9543 20.4959 49.942 20.5418 49.9302C21.4899 49.6851 22.3627 49.2515 23.1727 48.7268L23.1319 48.642V48.6388Z" fill="url(#paint4_linear_3170_296279)"/>
<path d="M97.3173 62.4793C97.5025 62.4793 97.6783 62.3694 97.7537 62.184C97.851 61.9421 97.7348 61.6687 97.4931 61.5713C94.6329 60.412 93.8512 58.4357 93.4273 56.472C93.3771 56.2427 93.1699 56.0856 92.9344 56.1013C92.699 56.117 92.5137 56.3055 92.498 56.538C92.4007 57.9833 91.8889 59.1583 91.0946 59.7584C90.6425 60.1009 90.1276 60.2329 89.6441 60.1292C89.3898 60.0758 89.1387 60.2392 89.0853 60.4936C89.0319 60.7481 89.1952 60.9995 89.4495 61.0529C90.203 61.2131 90.991 61.0215 91.6629 60.5125C92.2783 60.0475 92.7492 59.3626 93.0569 58.5143C93.6785 60.0381 94.8088 61.4959 97.1415 62.4416C97.198 62.4636 97.2608 62.4762 97.3173 62.4762V62.4793Z" fill="url(#paint5_linear_3170_296279)"/>
<path d="M80.7353 68.4733C80.0303 68.0712 79.994 66.8055 80.6542 65.6461C81.3145 64.4868 82.4213 63.873 83.1263 64.2751C83.8313 64.6772 83.8676 65.943 83.2074 67.1023C82.5471 68.2616 81.4404 68.8755 80.7353 68.4733Z" fill="url(#paint6_linear_3170_296279)"/>
<path d="M21.8228 47.9854L10.0116 56.9335L20.3283 29.9447L21.8228 47.9854Z" fill="url(#paint7_linear_3170_296279)"/>
<path d="M20.3281 29.9447L10.0114 56.9335L6.95035 41.8713L20.3281 29.9447Z" fill="url(#paint8_linear_3170_296279)"/>
<path d="M6.94762 41.8705L16.4888 39.9885L21.8198 47.9815L13.0541 48.9743L6.95074 41.8705H6.94762Z" fill="url(#paint9_linear_3170_296279)"/>
<path d="M22.9764 47.765C22.5431 47.6111 22.4018 47.2026 21.9811 47.0769C21.8587 47.0329 21.6515 46.967 21.6515 46.8539C21.6672 46.2978 21.6138 45.8013 21.237 45.2735L21.1428 45.2672C21.0016 45.4086 20.9042 45.5563 20.832 45.7134C20.4082 46.4297 20.8885 47.7273 21.8869 47.6299C21.956 47.6299 21.9654 47.6205 22.0282 47.6362C22.2762 47.7399 22.6624 47.8938 22.9607 47.8561L22.9795 47.765H22.9764Z" fill="url(#paint10_linear_3170_296279)"/>
<g style="mix-blend-mode:overlay" opacity="0.38">
<path d="M125.506 -4.50182L104.461 16.3677L133.057 24.1587L125.506 -4.50182Z" fill="#D6FFDA"/>
</g>
<g style="mix-blend-mode:overlay" opacity="0.77">
<path d="M6.50612 68.4982L-14.5392 89.3677L14.057 97.1587L6.50612 68.4982Z" fill="#D6FFDA"/>
</g>
<g style="mix-blend-mode:overlay" opacity="0.38">
<path d="M9.91125 10.6943L8.1997 19.5282L16.7058 16.5935L9.91125 10.6943Z" fill="#D6FFDA"/>
</g>
<g style="mix-blend-mode:overlay" opacity="0.38">
<path d="M34.162 -4.83964L24.7647 7.4176L40.0784 9.42733L34.162 -4.83964Z" fill="#D6FFDA"/>
</g>
<path fill-rule="evenodd" clip-rule="evenodd" d="M35.9225 16.2079L38.7573 19.9412L37.4212 23.5382L37.4212 23.5382L37.4212 23.5382L34.6582 20.6733L35.9225 16.2079L35.9225 16.2079L35.9225 16.2079L35.9225 16.2079L35.9225 16.2079Z" fill="#68DFDC"/>
<path fill-rule="evenodd" clip-rule="evenodd" d="M33.3592 100.677L21.4243 90.5091L25.1003 99.513L33.3592 100.677ZM33.3593 100.677L30.9228 93.014L21.4244 90.5091L33.3593 100.677Z" fill="#68DFDC"/>
<path fill-rule="evenodd" clip-rule="evenodd" d="M11.4737 100.37L11.4737 100.369L9.94852 107.665L14.6959 111.945L14.6959 111.945L16.4335 106.033L11.4737 100.37Z" fill="#A3F5F1"/>
<path fill-rule="evenodd" clip-rule="evenodd" d="M49.004 13.3812L54.6537 15.5319L60.5713 11.1134L60.5714 11.1134L60.5713 11.1134L60.5714 11.1134L60.5713 11.1134L53.5524 9.0649L49.004 13.3812L49.004 13.3812L49.004 13.3812Z" fill="#69A0F7"/>
<path fill-rule="evenodd" clip-rule="evenodd" d="M13.4465 80.1508L16.2769 77.6475L15.5486 73.0891L15.5486 73.0891L15.5486 73.0891L15.5486 73.0891L15.5486 73.0891L12.3773 76.38L13.4465 80.1508L13.4465 80.1508L13.4465 80.1508L13.4465 80.1508L13.4465 80.1508Z" fill="#69A0F7"/>
<path fill-rule="evenodd" clip-rule="evenodd" d="M28.344 96.0906L31.1744 93.5873L30.446 89.0289L30.446 89.0289L30.446 89.0289L30.446 89.0289L30.446 89.0289L27.2747 92.3198L28.344 96.0906L28.344 96.0906L28.344 96.0906L28.344 96.0906L28.344 96.0906Z" fill="#69A0F7"/>
<path d="M42.7648 112.53C41.79 112.53 40.9998 111.74 40.9998 110.765C40.9998 109.79 41.79 109 42.7648 109C43.7396 109 44.5298 109.79 44.5298 110.765C44.5298 111.74 43.7396 112.53 42.7648 112.53Z" fill="#7AF088"/>
</g>
<defs>
<linearGradient id="paint0_linear_3170_296279" x1="0" y1="124" x2="124" y2="0" gradientUnits="userSpaceOnUse">
<stop stop-color="#B3FFA0"/>
<stop offset="1" stop-color="white"/>
</linearGradient>
<linearGradient id="paint1_linear_3170_296279" x1="109.559" y1="98.4581" x2="114.874" y2="99.0264" gradientUnits="userSpaceOnUse">
<stop stop-color="#61A9FD"/>
<stop offset="0.878495" stop-color="#6F8FFF"/>
</linearGradient>
<radialGradient id="paint2_radial_3170_296279" cx="0" cy="0" r="1" gradientUnits="userSpaceOnUse" gradientTransform="translate(77.7018 65) rotate(173.43) scale(79.535 74.2506)">
<stop offset="0.221759" stop-color="#EFFFF7"/>
<stop offset="0.335" stop-color="#B8FFE4"/>
<stop offset="0.435" stop-color="#6FE8EC"/>
<stop offset="0.686918" stop-color="#4991E5"/>
</radialGradient>
<linearGradient id="paint3_linear_3170_296279" x1="77.5969" y1="56.3326" x2="65.9466" y2="56.3326" gradientUnits="userSpaceOnUse">
<stop offset="0.16" stop-color="#00AAB5"/>
<stop offset="0.9" stop-color="#018EAD"/>
</linearGradient>
<linearGradient id="paint4_linear_3170_296279" x1="17.8355" y1="48.3082" x2="23.5891" y2="49.4879" gradientUnits="userSpaceOnUse">
<stop stop-color="#456CF5"/>
<stop offset="0.878495" stop-color="#4991E5"/>
</linearGradient>
<linearGradient id="paint5_linear_3170_296279" x1="97.7967" y1="59.2863" x2="89.0718" y2="59.2863" gradientUnits="userSpaceOnUse">
<stop offset="0.16" stop-color="#018EAD"/>
<stop offset="0.9" stop-color="#00AAB5"/>
</linearGradient>
<linearGradient id="paint6_linear_3170_296279" x1="83.2112" y1="67.1015" x2="80.6536" y2="65.6449" gradientUnits="userSpaceOnUse">
<stop offset="0.16" stop-color="#018EAD"/>
<stop offset="0.9" stop-color="#00AAB5"/>
</linearGradient>
<linearGradient id="paint7_linear_3170_296279" x1="21.8228" y1="43.4391" x2="10.0116" y2="43.4391" gradientUnits="userSpaceOnUse">
<stop stop-color="#5DDDEF"/>
<stop offset="0.82" stop-color="#69BAE8"/>
</linearGradient>
<linearGradient id="paint8_linear_3170_296279" x1="12.385" y1="33.2751" x2="20.4898" y2="62.8026" gradientUnits="userSpaceOnUse">
<stop stop-color="#4298EB"/>
<stop offset="0.82" stop-color="#69BAE8"/>
</linearGradient>
<linearGradient id="paint9_linear_3170_296279" x1="22.994" y1="51.0699" x2="7.66724" y2="38.8087" gradientUnits="userSpaceOnUse">
<stop offset="0.27" stop-color="#66B4D7"/>
<stop offset="0.32" stop-color="#70B9CE"/>
<stop offset="0.44" stop-color="#85C5BD"/>
<stop offset="0.58" stop-color="#94CDB2"/>
<stop offset="0.75" stop-color="#9DD2AB"/>
<stop offset="1" stop-color="#A0D4A9"/>
</linearGradient>
<linearGradient id="paint10_linear_3170_296279" x1="20.711" y1="46.5504" x2="23.131" y2="46.8332" gradientUnits="userSpaceOnUse">
<stop offset="0.121505" stop-color="#456CF5"/>
<stop offset="1" stop-color="#4991E5"/>
</linearGradient>
<clipPath id="clip0_3170_296279">
<rect width="124" height="124" fill="white"/>
</clipPath>
</defs>
</svg>
