<svg width="1600" height="900" viewBox="0 0 1600 900" fill="none" xmlns="http://www.w3.org/2000/svg">
<g clip-path="url(#clip0_1002_5001)">
<rect width="1600" height="900" fill="url(#paint0_linear_1002_5001)"/>
<g style="mix-blend-mode:lighten" opacity="0.34">
<path d="M314.99 599.433L315.825 589.875C359.762 593.574 398.191 560.928 401.89 516.991L411.448 517.826C407.748 561.763 440.395 600.192 484.332 603.891L483.497 613.449C439.56 609.749 401.131 642.395 397.432 686.333L387.874 685.499C391.574 641.561 358.928 603.133 314.99 599.433Z" fill="white"/>
</g>
<g style="mix-blend-mode:lighten" opacity="0.34">
<path d="M181.172 516.455L180.312 513.205C195.238 509.207 204.032 493.88 200.034 478.954L203.285 478.095C207.282 493.02 222.609 501.814 237.535 497.817L238.395 501.067C223.469 505.064 214.675 520.391 218.673 535.317L215.423 536.177C211.425 521.251 196.098 512.457 181.172 516.455Z" fill="white"/>
</g>
<g style="mix-blend-mode:lighten" opacity="0.19">
<path d="M332.678 91.9237L331.033 87.7902C350.006 80.1763 359.131 58.6514 351.517 39.6786L355.651 38.0348C363.264 57.0077 384.789 66.1322 403.762 58.5183L405.406 62.6516C386.433 70.2655 377.308 91.7903 384.922 110.763L380.789 112.407C373.175 93.4344 351.651 84.3099 332.678 91.9237Z" fill="#F0FFF1"/>
</g>
<g style="mix-blend-mode:lighten" opacity="0.19">
<path d="M414.789 3.18537L416.275 -4.37674C451.048 2.34254 484.536 -20.4375 491.255 -55.2105L498.817 -53.7246C492.097 -18.9516 514.877 14.5363 549.65 21.2556L548.165 28.8169C513.392 22.0976 479.904 44.8776 473.185 79.6506L465.623 78.1656C472.342 43.3925 449.562 9.90464 414.789 3.18537Z" fill="#F0FFF1"/>
</g>
<g style="mix-blend-mode:lighten" opacity="0.19">
<path d="M969.775 418.43L964.143 407.855C1012.66 381.821 1030.67 321.485 1004.64 272.968L1015.21 267.336C1041.24 315.854 1101.58 333.864 1150.1 307.83L1155.73 318.404C1107.21 344.438 1089.2 404.774 1115.24 453.291L1104.66 458.923C1078.63 410.406 1018.29 392.396 969.775 418.43Z" fill="#F0FFF1"/>
</g>
<g style="mix-blend-mode:lighten" opacity="0.19">
<path d="M873.662 516.775L875.838 509.843C907.727 519.747 941.472 501.875 951.376 469.986L958.308 472.163C948.403 504.052 966.276 537.797 998.164 547.701L995.988 554.633C964.099 544.728 930.354 562.601 920.45 594.489L913.518 592.313C923.423 560.425 905.55 526.68 873.662 516.775Z" fill="#F0FFF1"/>
</g>
<g style="mix-blend-mode:overlay" opacity="0.4">
<circle cx="239.344" cy="239.344" r="239.344" transform="matrix(-0.337922 0.941174 0.941174 0.337922 1331 -345)" fill="#D6FFDA"/>
</g>
<g style="mix-blend-mode:plus-darker" opacity="0.11">
<path d="M1151.4 721.592L753.87 836.506L1052.15 1123.32L1151.4 721.592Z" fill="#A3F5F1"/>
</g>
<g style="mix-blend-mode:plus-darker" opacity="0.15">
<path d="M1439.4 442.593L1041.87 557.506L1340.15 844.319L1439.4 442.593Z" fill="#ADFBB4"/>
</g>
<path opacity="0.3" d="M740.259 140.601L737.918 136.33C757.511 125.509 764.535 100.894 753.713 81.3006L757.984 78.9593C768.806 98.5528 793.42 105.577 813.014 94.755L815.355 99.0255C795.762 109.847 788.738 134.462 799.56 154.055L795.289 156.397C784.468 136.803 759.853 129.78 740.259 140.601Z" fill="white"/>
<path opacity="0.3" d="M639.44 176.319L637.203 175.986C638.7 165.699 631.566 156.189 621.278 154.691L621.611 152.453C631.899 153.951 641.409 146.817 642.907 136.529L645.144 136.862C643.646 147.15 650.781 156.66 661.068 158.157L660.735 160.395C650.448 158.897 640.938 166.031 639.44 176.319Z" fill="white"/>
<path opacity="0.3" d="M1295.71 255.194L1297.17 249.271C1324.41 255.921 1351.77 239.196 1358.42 211.959L1364.34 213.425C1357.69 240.662 1374.41 268.017 1401.65 274.667L1400.18 280.588C1372.95 273.939 1345.59 290.663 1338.94 317.901L1333.02 316.436C1339.67 289.199 1322.95 261.844 1295.71 255.194Z" fill="white"/>
<ellipse opacity="0.3" cx="8.5" cy="8" rx="8.5" ry="8" transform="matrix(-1 0 0 1 1443 91)" fill="white"/>
<ellipse opacity="0.3" cx="8.5" cy="8" rx="8.5" ry="8" transform="matrix(-1 0 0 1 1400 392)" fill="white"/>
<ellipse opacity="0.3" cx="8.5" cy="8" rx="8.5" ry="8" transform="matrix(-1 0 0 1 1478 339)" fill="white"/>
<path opacity="0.3" d="M865.225 171.394L864.141 170.089C870.122 165.088 870.89 156.205 865.889 150.224L867.194 149.14C872.195 155.121 881.078 155.889 887.059 150.888L888.143 152.193C882.162 157.194 881.394 166.077 886.395 172.058L885.09 173.142C880.089 167.161 871.206 166.393 865.225 171.394Z" fill="white"/>
<g style="mix-blend-mode:lighten" opacity="0.34">
<path d="M314.991 599.433L315.825 589.875C359.762 593.574 398.191 560.928 401.891 516.991L411.448 517.826C407.749 561.763 440.395 600.192 484.333 603.891L483.498 613.449C439.561 609.749 401.132 642.395 397.432 686.333L387.875 685.499C391.574 641.561 358.928 603.133 314.991 599.433Z" fill="white"/>
</g>
<g style="mix-blend-mode:lighten" opacity="0.34">
<path d="M181.172 516.455L180.312 513.205C195.238 509.207 204.032 493.88 200.034 478.954L203.285 478.095C207.282 493.02 222.609 501.814 237.535 497.817L238.395 501.067C223.469 505.064 214.675 520.391 218.673 535.317L215.423 536.177C211.425 521.251 196.098 512.457 181.172 516.455Z" fill="white"/>
</g>
<g style="mix-blend-mode:lighten" opacity="0.19">
<path d="M332.678 91.9237L331.033 87.7902C350.006 80.1763 359.131 58.6514 351.517 39.6786L355.651 38.0348C363.264 57.0077 384.789 66.1322 403.762 58.5183L405.406 62.6516C386.433 70.2655 377.308 91.7903 384.922 110.763L380.789 112.407C373.175 93.4344 351.651 84.3099 332.678 91.9237Z" fill="#F0FFF1"/>
</g>
<g style="mix-blend-mode:lighten" opacity="0.19">
<path d="M414.79 3.18537L416.275 -4.37674C451.048 2.34254 484.536 -20.4375 491.255 -55.2105L498.817 -53.7246C492.098 -18.9516 514.878 14.5363 549.651 21.2556L548.165 28.8169C513.392 22.0976 479.904 44.8776 473.185 79.6506L465.623 78.1656C472.343 43.3925 449.563 9.90464 414.79 3.18537Z" fill="#F0FFF1"/>
</g>
<g style="mix-blend-mode:lighten" opacity="0.19">
<path d="M969.774 418.43L964.141 407.855C1012.66 381.821 1030.67 321.485 1004.63 272.968L1015.21 267.336C1041.24 315.854 1101.58 333.864 1150.1 307.83L1155.73 318.404C1107.21 344.438 1089.2 404.774 1115.23 453.291L1104.66 458.923C1078.63 410.406 1018.29 392.396 969.774 418.43Z" fill="#F0FFF1"/>
</g>
<g style="mix-blend-mode:lighten" opacity="0.19">
<path d="M873.66 516.775L875.837 509.843C907.725 519.747 941.47 501.875 951.375 469.986L958.307 472.163C948.402 504.052 966.274 537.797 998.163 547.701L995.986 554.633C964.098 544.728 930.353 562.601 920.448 594.489L913.517 592.313C923.421 560.425 905.549 526.68 873.66 516.775Z" fill="#F0FFF1"/>
</g>
<g style="mix-blend-mode:overlay" opacity="0.4">
<circle cx="239.344" cy="239.344" r="239.344" transform="matrix(-0.337922 0.941174 0.941174 0.337922 1331 -345)" fill="#D6FFDA"/>
</g>
<g style="mix-blend-mode:plus-darker" opacity="0.11">
<path d="M1151.4 721.592L753.869 836.506L1052.15 1123.32L1151.4 721.592Z" fill="#A3F5F1"/>
</g>
<g style="mix-blend-mode:plus-darker" opacity="0.11">
<path d="M500.859 299.442L-398.047 559.288L276.439 1207.84L500.859 299.442Z" fill="#68DFDC"/>
</g>
<g style="mix-blend-mode:plus-darker" opacity="0.15">
<path d="M1439.41 442.593L1041.88 557.506L1340.16 844.319L1439.41 442.593Z" fill="#ADFBB4"/>
</g>
<path opacity="0.3" d="M740.258 140.601L737.916 136.33C757.51 125.509 764.534 100.894 753.712 81.3006L757.983 78.9593C768.804 98.5528 793.419 105.577 813.013 94.755L815.354 99.0255C795.76 109.847 788.737 134.462 799.558 154.055L795.288 156.397C784.466 136.803 759.851 129.78 740.258 140.601Z" fill="white"/>
<path opacity="0.3" d="M639.439 176.319L637.201 175.986C638.699 165.699 631.564 156.189 621.277 154.691L621.61 152.453C631.897 153.951 641.407 146.817 642.905 136.529L645.142 136.862C643.645 147.15 650.779 156.66 661.067 158.157L660.734 160.395C650.446 158.897 640.937 166.031 639.439 176.319Z" fill="white"/>
<path opacity="0.3" d="M1295.71 255.194L1297.17 249.271C1324.41 255.921 1351.76 239.196 1358.41 211.959L1364.34 213.425C1357.69 240.662 1374.41 268.017 1401.65 274.667L1400.18 280.588C1372.95 273.939 1345.59 290.663 1338.94 317.901L1333.02 316.436C1339.67 289.199 1322.94 261.844 1295.71 255.194Z" fill="white"/>
<ellipse opacity="0.3" cx="8.5" cy="8" rx="8.5" ry="8" transform="matrix(-1 0 0 1 1443 91)" fill="white"/>
<ellipse opacity="0.3" cx="8.5" cy="8" rx="8.5" ry="8" transform="matrix(-1 0 0 1 1400 392)" fill="white"/>
<ellipse opacity="0.3" cx="8.5" cy="8" rx="8.5" ry="8" transform="matrix(-1 0 0 1 1478 339)" fill="white"/>
<path opacity="0.3" d="M865.224 171.394L864.139 170.089C870.121 165.088 870.888 156.205 865.887 150.224L867.192 149.14C872.193 155.121 881.076 155.889 887.057 150.888L888.141 152.193C882.16 157.194 881.393 166.077 886.394 172.058L885.089 173.142C880.088 167.161 871.205 166.393 865.224 171.394Z" fill="white"/>
<path d="M71.04 111V69.84H78.992V111H71.04ZM96.016 111L83.472 93.192H92.376L105.312 111H96.016ZM76.64 97.336V90.896H87.056C88.512 90.896 89.7627 90.5973 90.808 90C91.8907 89.4027 92.7307 88.5627 93.328 87.48C93.9253 86.3973 94.224 85.1653 94.224 83.784C94.224 82.3653 93.9253 81.1147 93.328 80.032C92.7307 78.9493 91.8907 78.1093 90.808 77.512C89.7627 76.9147 88.512 76.616 87.056 76.616H76.64V69.84H86.216C89.5013 69.84 92.3387 70.3253 94.728 71.296C97.1547 72.2667 99.0213 73.7413 100.328 75.72C101.635 77.6987 102.288 80.1813 102.288 83.168V84.064C102.288 87.088 101.616 89.5707 100.272 91.512C98.9653 93.4533 97.1173 94.9093 94.728 95.88C92.3387 96.8507 89.5013 97.336 86.216 97.336H76.64ZM121.55 112.064C118.936 112.064 116.64 111.616 114.662 110.72C112.72 109.824 111.096 108.629 109.79 107.136C108.52 105.605 107.55 103.907 106.878 102.04C106.243 100.173 105.926 98.2693 105.926 96.328V95.264C105.926 93.248 106.243 91.3067 106.878 89.44C107.55 87.536 108.52 85.856 109.79 84.4C111.096 82.9067 112.702 81.7307 114.606 80.872C116.51 79.976 118.712 79.528 121.214 79.528C124.499 79.528 127.243 80.256 129.446 81.712C131.686 83.1307 133.366 85.016 134.486 87.368C135.606 89.6827 136.166 92.184 136.166 94.872V97.672H109.23V92.912H131.294L128.886 95.264C128.886 93.3227 128.606 91.6613 128.046 90.28C127.486 88.8987 126.627 87.8347 125.47 87.088C124.35 86.3413 122.931 85.968 121.214 85.968C119.496 85.968 118.04 86.36 116.846 87.144C115.651 87.928 114.736 89.0667 114.102 90.56C113.504 92.016 113.206 93.7707 113.206 95.824C113.206 97.728 113.504 99.4267 114.102 100.92C114.699 102.376 115.614 103.533 116.846 104.392C118.078 105.213 119.646 105.624 121.55 105.624C123.454 105.624 125.003 105.251 126.198 104.504C127.392 103.72 128.158 102.768 128.494 101.648H135.662C135.214 103.739 134.355 105.568 133.086 107.136C131.816 108.704 130.192 109.917 128.214 110.776C126.272 111.635 124.051 112.064 121.55 112.064ZM153.644 111.392C150.844 111.392 148.53 111.037 146.7 110.328C144.908 109.581 143.564 108.349 142.668 106.632C141.772 104.877 141.324 102.525 141.324 99.576L141.38 72.024H148.66L148.604 100.08C148.604 101.573 148.996 102.731 149.78 103.552C150.602 104.336 151.759 104.728 153.252 104.728H158.012V111.392H153.644ZM136.508 86.304V80.592H158.012V86.304H136.508ZM162.306 111V80.592H168.466V93.472H168.298C168.298 89.104 169.231 85.8 171.098 83.56C172.964 81.32 175.708 80.2 179.33 80.2H180.45V86.976H178.322C175.708 86.976 173.674 87.6853 172.218 89.104C170.799 90.4853 170.09 92.5013 170.09 95.152V111H162.306ZM197.814 112.064C195.126 112.064 192.756 111.635 190.702 110.776C188.649 109.917 186.913 108.76 185.494 107.304C184.076 105.811 182.993 104.131 182.246 102.264C181.537 100.397 181.182 98.456 181.182 96.44V95.264C181.182 93.1733 181.556 91.1947 182.302 89.328C183.086 87.424 184.188 85.744 185.606 84.288C187.062 82.7947 188.817 81.6373 190.87 80.816C192.924 79.9573 195.238 79.528 197.814 79.528C200.39 79.528 202.705 79.9573 204.758 80.816C206.812 81.6373 208.548 82.7947 209.966 84.288C211.422 85.744 212.524 87.424 213.27 89.328C214.017 91.1947 214.39 93.1733 214.39 95.264V96.44C214.39 98.456 214.017 100.397 213.27 102.264C212.561 104.131 211.497 105.811 210.078 107.304C208.66 108.76 206.924 109.917 204.87 110.776C202.817 111.635 200.465 112.064 197.814 112.064ZM197.814 105.4C199.718 105.4 201.324 104.989 202.63 104.168C203.937 103.309 204.926 102.171 205.598 100.752C206.27 99.296 206.606 97.6533 206.606 95.824C206.606 93.9573 206.252 92.3147 205.542 90.896C204.87 89.44 203.862 88.3013 202.518 87.48C201.212 86.6213 199.644 86.192 197.814 86.192C195.985 86.192 194.398 86.6213 193.054 87.48C191.748 88.3013 190.74 89.44 190.03 90.896C189.321 92.3147 188.966 93.9573 188.966 95.824C188.966 97.6533 189.302 99.296 189.974 100.752C190.684 102.171 191.692 103.309 192.998 104.168C194.305 104.989 195.91 105.4 197.814 105.4ZM229.428 111V70.12H237.38V111H229.428ZM236.26 93.976V87.256L252.612 87.2V93.92L236.26 93.976ZM236.26 76.84V70.12H253.396V76.84H236.26ZM267.831 111.952C264.321 111.952 261.596 110.795 259.655 108.48C257.751 106.165 256.799 102.731 256.799 98.176V80.536H264.583V98.848C264.583 100.715 265.105 102.208 266.151 103.328C267.196 104.411 268.615 104.952 270.407 104.952C272.199 104.952 273.655 104.373 274.775 103.216C275.932 102.059 276.511 100.491 276.511 98.512V80.536H284.295V111H278.135V98.064H278.751C278.751 101.125 278.359 103.683 277.575 105.736C276.791 107.789 275.615 109.339 274.047 110.384C272.479 111.429 270.519 111.952 268.167 111.952H267.831ZM290.996 111V80.592H297.156V93.64H296.596C296.596 90.5413 297.007 87.9653 297.828 85.912C298.65 83.8213 299.863 82.2533 301.468 81.208C303.111 80.1627 305.146 79.64 307.572 79.64H307.908C311.53 79.64 314.274 80.816 316.14 83.168C318.007 85.4827 318.94 88.9547 318.94 93.584V111H311.156V92.912C311.156 91.0453 310.615 89.5333 309.532 88.376C308.487 87.2187 307.031 86.64 305.164 86.64C303.26 86.64 301.711 87.2373 300.516 88.432C299.359 89.5893 298.78 91.1573 298.78 93.136V111H290.996ZM337.669 112.008C335.541 112.008 333.581 111.616 331.789 110.832C329.997 110.048 328.447 108.947 327.141 107.528C325.834 106.109 324.826 104.467 324.117 102.6C323.407 100.696 323.053 98.6427 323.053 96.44V95.264C323.053 93.0987 323.389 91.064 324.061 89.16C324.77 87.256 325.741 85.5947 326.973 84.176C328.242 82.7573 329.754 81.656 331.509 80.872C333.301 80.0507 335.279 79.64 337.445 79.64C339.834 79.64 341.925 80.1627 343.717 81.208C345.546 82.216 347.002 83.7467 348.085 85.8C349.167 87.8533 349.765 90.4293 349.877 93.528L347.581 90.84V70.12H355.365V111H349.205V98.064H350.549C350.437 101.163 349.802 103.757 348.645 105.848C347.487 107.901 345.957 109.451 344.053 110.496C342.186 111.504 340.058 112.008 337.669 112.008ZM339.405 105.456C340.935 105.456 342.335 105.12 343.605 104.448C344.874 103.739 345.882 102.731 346.629 101.424C347.413 100.08 347.805 98.512 347.805 96.72V94.48C347.805 92.688 347.413 91.1947 346.629 90C345.845 88.768 344.818 87.8347 343.549 87.2C342.279 86.528 340.898 86.192 339.405 86.192C337.725 86.192 336.231 86.6027 334.925 87.424C333.655 88.208 332.647 89.328 331.901 90.784C331.191 92.24 330.837 93.9387 330.837 95.88C330.837 97.8213 331.21 99.52 331.957 100.976C332.703 102.395 333.711 103.496 334.981 104.28C336.287 105.064 337.762 105.456 339.405 105.456ZM363.441 111V80.592H371.225V111H363.441ZM359.185 86.416V80.592H371.225V86.416H359.185ZM366.297 76.952C364.766 76.952 363.628 76.56 362.881 75.776C362.172 74.9547 361.817 73.928 361.817 72.696C361.817 71.464 362.172 70.456 362.881 69.672C363.628 68.888 364.766 68.496 366.297 68.496C367.828 68.496 368.948 68.888 369.657 69.672C370.366 70.456 370.721 71.464 370.721 72.696C370.721 73.928 370.366 74.9547 369.657 75.776C368.948 76.56 367.828 76.952 366.297 76.952ZM377.956 111V80.592H384.116V93.64H383.556C383.556 90.5413 383.967 87.9653 384.788 85.912C385.609 83.8213 386.823 82.2533 388.428 81.208C390.071 80.1627 392.105 79.64 394.532 79.64H394.868C398.489 79.64 401.233 80.816 403.1 83.168C404.967 85.4827 405.9 88.9547 405.9 93.584V111H398.116V92.912C398.116 91.0453 397.575 89.5333 396.492 88.376C395.447 87.2187 393.991 86.64 392.124 86.64C390.22 86.64 388.671 87.2373 387.476 88.432C386.319 89.5893 385.74 91.1573 385.74 93.136V111H377.956ZM423.9 122.984C422.444 122.984 420.951 122.928 419.42 122.816C417.927 122.704 416.527 122.555 415.22 122.368V115.872C416.564 116.021 418.002 116.152 419.532 116.264C421.063 116.413 422.5 116.488 423.844 116.488C426.346 116.488 428.362 116.189 429.892 115.592C431.46 114.995 432.599 114.043 433.308 112.736C434.055 111.467 434.428 109.843 434.428 107.864V101.872L436.108 98.064C435.996 100.864 435.418 103.253 434.372 105.232C433.327 107.173 431.908 108.667 430.116 109.712C428.324 110.72 426.252 111.224 423.9 111.224C421.81 111.224 419.906 110.832 418.188 110.048C416.508 109.264 415.052 108.181 413.82 106.8C412.626 105.419 411.692 103.795 411.02 101.928C410.348 100.061 410.012 98.064 410.012 95.936V94.76C410.012 92.632 410.348 90.6533 411.02 88.824C411.73 86.9573 412.719 85.3333 413.988 83.952C415.258 82.5707 416.77 81.5067 418.524 80.76C420.279 80.0133 422.22 79.64 424.348 79.64C426.85 79.64 429.015 80.1813 430.844 81.264C432.711 82.3467 434.167 83.9147 435.212 85.968C436.258 88.0213 436.836 90.5413 436.948 93.528L435.604 93.752V80.592H441.764V107.416C441.764 111.112 441.13 114.099 439.86 116.376C438.591 118.653 436.631 120.315 433.98 121.36C431.367 122.443 428.007 122.984 423.9 122.984ZM426.14 104.56C427.634 104.56 428.996 104.224 430.228 103.552C431.46 102.88 432.45 101.909 433.196 100.64C433.943 99.3707 434.316 97.84 434.316 96.048V94.088C434.316 92.3707 433.924 90.9147 433.14 89.72C432.394 88.5253 431.404 87.6293 430.172 87.032C428.94 86.3973 427.596 86.08 426.14 86.08C424.498 86.08 423.042 86.472 421.772 87.256C420.54 88.0027 419.57 89.0667 418.86 90.448C418.151 91.8293 417.796 93.472 417.796 95.376C417.796 97.2427 418.151 98.8667 418.86 100.248C419.57 101.629 420.54 102.693 421.772 103.44C423.042 104.187 424.498 104.56 426.14 104.56ZM473.373 112.176C470.349 112.176 467.773 111.672 465.645 110.664C463.554 109.619 461.856 108.2 460.549 106.408C459.242 104.616 458.29 102.544 457.693 100.192C457.096 97.8027 456.797 95.2827 456.797 92.632V90.168C456.797 83.4853 458.477 78.4267 461.837 74.992C465.234 71.52 470.2 69.784 476.733 69.784C478.152 69.784 479.477 69.8213 480.709 69.896C481.941 69.9707 483.173 70.0827 484.405 70.232V76.896C483.173 76.7467 481.904 76.6347 480.597 76.56C479.328 76.4853 477.946 76.448 476.453 76.448C473.317 76.448 470.853 76.9893 469.061 78.072C467.269 79.1547 465.981 80.7413 465.197 82.832C464.45 84.9227 464.077 87.5173 464.077 90.616V94.256L462.285 96.832C462.322 93.9573 462.882 91.5867 463.965 89.72C465.085 87.816 466.616 86.3973 468.557 85.464C470.498 84.4933 472.72 84.008 475.221 84.008C478.133 84.008 480.616 84.5867 482.669 85.744C484.722 86.9013 486.29 88.5067 487.373 90.56C488.493 92.6133 489.053 95.0027 489.053 97.728C489.053 100.565 488.418 103.085 487.149 105.288C485.88 107.453 484.069 109.152 481.717 110.384C479.402 111.579 476.621 112.176 473.373 112.176ZM473.205 105.512C474.96 105.512 476.453 105.195 477.685 104.56C478.917 103.888 479.85 102.973 480.485 101.816C481.12 100.659 481.437 99.3333 481.437 97.84C481.437 96.3093 481.12 94.9653 480.485 93.808C479.888 92.6507 478.992 91.7547 477.797 91.12C476.602 90.4853 475.165 90.168 473.485 90.168C471.88 90.168 470.405 90.4667 469.061 91.064C467.754 91.624 466.709 92.4827 465.925 93.64C465.178 94.76 464.805 96.16 464.805 97.84C464.805 99.296 465.104 100.603 465.701 101.76C466.336 102.917 467.269 103.832 468.501 104.504C469.77 105.176 471.338 105.512 473.205 105.512Z" fill="#3374DB"/>
<path d="M122.5 250.85C113.1 250.85 104.8 249.3 97.6 246.2C90.5 243 84.5 238.75 79.6 233.45C74.8 228.05 71.15 222 68.65 215.3C66.25 208.5 65.05 201.45 65.05 194.15V190.85C65.05 183.95 66.25 177.2 68.65 170.6C71.05 164 74.55 158.05 79.15 152.75C83.85 147.45 89.6 143.25 96.4 140.15C103.3 136.95 111.2 135.35 120.1 135.35C129.7 135.35 138.2 137.15 145.6 140.75C153 144.25 158.95 149.2 163.45 155.6C167.95 161.9 170.6 169.25 171.4 177.65H149.95C149.25 172.95 147.5 168.95 144.7 165.65C141.9 162.25 138.35 159.65 134.05 157.85C129.85 156.05 125.2 155.15 120.1 155.15C115 155.15 110.35 156.05 106.15 157.85C102.05 159.65 98.55 162.2 95.65 165.5C92.75 168.8 90.5 172.75 88.9 177.35C87.4 181.95 86.65 187.05 86.65 192.65C86.65 198.75 87.5 204.2 89.2 209C90.9 213.8 93.3 217.9 96.4 221.3C99.5 224.6 103.25 227.15 107.65 228.95C112.05 230.65 117 231.5 122.5 231.5C129.8 231.5 136.2 230 141.7 227C147.2 223.9 151.2 219.9 153.7 215L149.95 232.25V204.05H169.6V228.35C164.9 235.45 158.5 241 150.4 245C142.3 248.9 133 250.85 122.5 250.85ZM119.05 208.25V192.35H178.75V208.25H119.05ZM224.805 250.85C217.605 250.85 211.255 249.7 205.755 247.4C200.255 245.1 195.605 242 191.805 238.1C188.005 234.1 185.105 229.6 183.105 224.6C181.205 219.6 180.255 214.4 180.255 209V205.85C180.255 200.25 181.255 194.95 183.255 189.95C185.355 184.85 188.305 180.35 192.105 176.45C196.005 172.45 200.705 169.35 206.205 167.15C211.705 164.85 217.905 163.7 224.805 163.7C231.705 163.7 237.905 164.85 243.405 167.15C248.905 169.35 253.555 172.45 257.355 176.45C261.255 180.35 264.205 184.85 266.205 189.95C268.205 194.95 269.205 200.25 269.205 205.85V209C269.205 214.4 268.205 219.6 266.205 224.6C264.305 229.6 261.455 234.1 257.655 238.1C253.855 242 249.205 245.1 243.705 247.4C238.205 249.7 231.905 250.85 224.805 250.85ZM224.805 233C229.905 233 234.205 231.9 237.705 229.7C241.205 227.4 243.855 224.35 245.655 220.55C247.455 216.65 248.355 212.25 248.355 207.35C248.355 202.35 247.405 197.95 245.505 194.15C243.705 190.25 241.005 187.2 237.405 185C233.905 182.7 229.705 181.55 224.805 181.55C219.905 181.55 215.655 182.7 212.055 185C208.555 187.2 205.855 190.25 203.955 194.15C202.055 197.95 201.105 202.35 201.105 207.35C201.105 212.25 202.005 216.65 203.805 220.55C205.705 224.35 208.405 227.4 211.905 229.7C215.405 231.9 219.705 233 224.805 233ZM293.054 248L267.554 166.55H289.004L313.454 248H293.054ZM299.204 248V230.9H321.254V248H299.204ZM307.454 248L328.454 166.55H348.554L326.504 248H307.454ZM389.993 250.85C382.993 250.85 376.843 249.65 371.543 247.25C366.343 244.85 361.993 241.65 358.493 237.65C355.093 233.55 352.493 229 350.693 224C348.993 219 348.143 213.9 348.143 208.7V205.85C348.143 200.45 348.993 195.25 350.693 190.25C352.493 185.15 355.093 180.65 358.493 176.75C361.993 172.75 366.293 169.6 371.393 167.3C376.493 164.9 382.393 163.7 389.093 163.7C397.893 163.7 405.243 165.65 411.143 169.55C417.143 173.35 421.643 178.4 424.643 184.7C427.643 190.9 429.143 197.6 429.143 204.8V212.3H356.993V199.55H416.093L409.643 205.85C409.643 200.65 408.893 196.2 407.393 192.5C405.893 188.8 403.593 185.95 400.493 183.95C397.493 181.95 393.693 180.95 389.093 180.95C384.493 180.95 380.593 182 377.393 184.1C374.193 186.2 371.743 189.25 370.043 193.25C368.443 197.15 367.643 201.85 367.643 207.35C367.643 212.45 368.443 217 370.043 221C371.643 224.9 374.093 228 377.393 230.3C380.693 232.5 384.893 233.6 389.993 233.6C395.093 233.6 399.243 232.6 402.443 230.6C405.643 228.5 407.693 225.95 408.593 222.95H427.793C426.593 228.55 424.293 233.45 420.893 237.65C417.493 241.85 413.143 245.1 407.843 247.4C402.643 249.7 396.693 250.85 389.993 250.85ZM437.561 248V166.55H454.061V201.05H453.611C453.611 189.35 456.111 180.5 461.111 174.5C466.111 168.5 473.461 165.5 483.161 165.5H486.161V183.65H480.461C473.461 183.65 468.011 185.55 464.111 189.35C460.311 193.05 458.411 198.45 458.411 205.55V248H437.561ZM491.11 248V166.55H507.61V201.5H506.11C506.11 193.2 507.21 186.3 509.41 180.8C511.61 175.2 514.86 171 519.16 168.2C523.56 165.4 529.01 164 535.51 164H536.41C546.11 164 553.46 167.15 558.46 173.45C563.46 179.65 565.96 188.95 565.96 201.35V248H545.11V199.55C545.11 194.55 543.66 190.5 540.76 187.4C537.96 184.3 534.06 182.75 529.06 182.75C523.96 182.75 519.81 184.35 516.61 187.55C513.51 190.65 511.96 194.85 511.96 200.15V248H491.11ZM628.725 248V223.85H625.275V197C625.275 192.3 624.125 188.8 621.825 186.5C619.525 184.2 615.975 183.05 611.175 183.05C608.675 183.05 605.675 183.1 602.175 183.2C598.675 183.3 595.125 183.45 591.525 183.65C588.025 183.75 584.875 183.9 582.075 184.1V166.4C584.375 166.2 586.975 166 589.875 165.8C592.775 165.6 595.725 165.5 598.725 165.5C601.825 165.4 604.725 165.35 607.425 165.35C615.825 165.35 622.775 166.45 628.275 168.65C633.875 170.85 638.075 174.3 640.875 179C643.775 183.7 645.225 189.85 645.225 197.45V248H628.725ZM602.475 250.1C596.575 250.1 591.375 249.05 586.875 246.95C582.475 244.85 579.025 241.85 576.525 237.95C574.125 234.05 572.925 229.35 572.925 223.85C572.925 217.85 574.375 212.95 577.275 209.15C580.275 205.35 584.425 202.5 589.725 200.6C595.125 198.7 601.425 197.75 608.625 197.75H627.525V210.2H608.325C603.525 210.2 599.825 211.4 597.225 213.8C594.725 216.1 593.475 219.1 593.475 222.8C593.475 226.5 594.725 229.5 597.225 231.8C599.825 234.1 603.525 235.25 608.325 235.25C611.225 235.25 613.875 234.75 616.275 233.75C618.775 232.65 620.825 230.85 622.425 228.35C624.125 225.75 625.075 222.25 625.275 217.85L630.375 223.7C629.875 229.4 628.475 234.2 626.175 238.1C623.975 242 620.875 245 616.875 247.1C612.975 249.1 608.175 250.1 602.475 250.1ZM658.559 248V166.55H675.059V201.5H673.559C673.559 193.2 674.659 186.3 676.859 180.8C679.059 175.2 682.309 171 686.609 168.2C691.009 165.4 696.459 164 702.959 164H703.859C713.559 164 720.909 167.15 725.909 173.45C730.909 179.65 733.409 188.95 733.409 201.35V248H712.559V199.55C712.559 194.55 711.109 190.5 708.209 187.4C705.409 184.3 701.509 182.75 696.509 182.75C691.409 182.75 687.259 184.35 684.059 187.55C680.959 190.65 679.409 194.85 679.409 200.15V248H658.559ZM782.975 250.85C775.875 250.85 769.725 249.65 764.525 247.25C759.425 244.85 755.125 241.65 751.625 237.65C748.225 233.65 745.675 229.15 743.975 224.15C742.275 219.15 741.425 214.05 741.425 208.85V206C741.425 200.5 742.275 195.25 743.975 190.25C745.775 185.15 748.425 180.65 751.925 176.75C755.425 172.75 759.725 169.6 764.825 167.3C770.025 164.9 776.025 163.7 782.825 163.7C789.925 163.7 796.275 165.1 801.875 167.9C807.475 170.6 811.925 174.4 815.225 179.3C818.625 184.2 820.525 189.9 820.925 196.4H800.675C800.175 192.2 798.375 188.7 795.275 185.9C792.275 183.1 788.125 181.7 782.825 181.7C778.225 181.7 774.375 182.8 771.275 185C768.275 187.2 766.025 190.25 764.525 194.15C763.025 197.95 762.275 202.35 762.275 207.35C762.275 212.15 762.975 216.5 764.375 220.4C765.875 224.3 768.125 227.35 771.125 229.55C774.225 231.75 778.175 232.85 782.975 232.85C786.575 232.85 789.675 232.2 792.275 230.9C794.875 229.6 796.925 227.8 798.425 225.5C800.025 223.2 801.025 220.6 801.425 217.7H821.675C821.275 224.3 819.325 230.1 815.825 235.1C812.425 240 807.875 243.85 802.175 246.65C796.575 249.45 790.175 250.85 782.975 250.85ZM865.827 250.85C858.827 250.85 852.677 249.65 847.377 247.25C842.177 244.85 837.827 241.65 834.327 237.65C830.927 233.55 828.327 229 826.527 224C824.827 219 823.977 213.9 823.977 208.7V205.85C823.977 200.45 824.827 195.25 826.527 190.25C828.327 185.15 830.927 180.65 834.327 176.75C837.827 172.75 842.127 169.6 847.227 167.3C852.327 164.9 858.227 163.7 864.927 163.7C873.727 163.7 881.077 165.65 886.977 169.55C892.977 173.35 897.477 178.4 900.477 184.7C903.477 190.9 904.977 197.6 904.977 204.8V212.3H832.827V199.55H891.927L885.477 205.85C885.477 200.65 884.727 196.2 883.227 192.5C881.727 188.8 879.427 185.95 876.327 183.95C873.327 181.95 869.527 180.95 864.927 180.95C860.327 180.95 856.427 182 853.227 184.1C850.027 186.2 847.577 189.25 845.877 193.25C844.277 197.15 843.477 201.85 843.477 207.35C843.477 212.45 844.277 217 845.877 221C847.477 224.9 849.927 228 853.227 230.3C856.527 232.5 860.727 233.6 865.827 233.6C870.927 233.6 875.077 232.6 878.277 230.6C881.477 228.5 883.527 225.95 884.427 222.95H903.627C902.427 228.55 900.127 233.45 896.727 237.65C893.327 241.85 888.977 245.1 883.677 247.4C878.477 249.7 872.527 250.85 865.827 250.85Z" fill="url(#paint1_linear_1002_5001)"/>
<rect x="70" y="351" width="359" height="359" rx="38" stroke="url(#paint2_linear_1002_5001)" stroke-width="8"/>
<path d="M68.4287 829V794.237H79.1433C81.2069 794.237 83.0164 794.666 84.572 795.523C86.1277 796.348 87.334 797.507 88.1912 798.999C89.0484 800.491 89.477 802.237 89.477 804.237C89.477 806.587 88.8738 808.603 87.6674 810.285C86.461 811.968 84.8578 813.142 82.8577 813.809L89.9532 829H85.2387L78.429 814.238H72.6669V829H68.4287ZM72.6669 810.38H79.1433C80.9211 810.38 82.3498 809.825 83.4292 808.714C84.5086 807.571 85.0483 806.079 85.0483 804.237C85.0483 802.364 84.5086 800.872 83.4292 799.761C82.3498 798.65 80.9211 798.094 79.1433 798.094H72.6669V810.38ZM97.3157 829V794.237H117.316V798.142H101.554V808.904H115.65V812.714H101.554V825.095H117.316V829H97.3157ZM133.251 829V798.142H123.727V794.237H147.061V798.142H137.536V829H133.251ZM154.09 829V794.237H164.804C166.868 794.237 168.678 794.666 170.233 795.523C171.789 796.348 172.995 797.507 173.852 798.999C174.709 800.491 175.138 802.237 175.138 804.237C175.138 806.587 174.535 808.603 173.328 810.285C172.122 811.968 170.519 813.142 168.519 813.809L175.614 829H170.9L164.09 814.238H158.328V829H154.09ZM158.328 810.38H164.804C166.582 810.38 168.011 809.825 169.09 808.714C170.17 807.571 170.709 806.079 170.709 804.237C170.709 802.364 170.17 800.872 169.09 799.761C168.011 798.65 166.582 798.094 164.804 798.094H158.328V810.38ZM192.501 829.476C189.39 829.476 186.929 828.571 185.12 826.762C183.31 824.952 182.405 822.365 182.405 819V804.237C182.405 800.872 183.31 798.285 185.12 796.475C186.929 794.666 189.39 793.761 192.501 793.761C195.612 793.761 198.072 794.666 199.882 796.475C201.692 798.285 202.596 800.856 202.596 804.19V819C202.596 822.365 201.692 824.952 199.882 826.762C198.072 828.571 195.612 829.476 192.501 829.476ZM192.501 825.619C194.374 825.619 195.803 825.095 196.787 824.047C197.803 822.968 198.311 821.444 198.311 819.476V803.761C198.311 801.793 197.803 800.285 196.787 799.237C195.803 798.158 194.374 797.618 192.501 797.618C190.66 797.618 189.231 798.158 188.215 799.237C187.199 800.285 186.691 801.793 186.691 803.761V819.476C186.691 821.444 187.199 822.968 188.215 824.047C189.231 825.095 190.66 825.619 192.501 825.619ZM211.292 829V794.237H231.769V798.142H215.483V809.666H230.531V813.571H215.578V829H211.292ZM249.608 829.476C246.37 829.476 243.894 828.587 242.179 826.809C240.465 825 239.608 822.555 239.608 819.476V794.237H243.894V819.476C243.894 821.381 244.354 822.889 245.275 824C246.227 825.111 247.672 825.667 249.608 825.667C251.513 825.667 252.942 825.111 253.894 824C254.847 822.889 255.323 821.381 255.323 819.476V794.237H259.609V819.476C259.609 822.587 258.751 825.032 257.037 826.809C255.354 828.587 252.878 829.476 249.608 829.476ZM268.162 829V794.237H273.876L284.495 824C284.432 823.206 284.353 822.238 284.257 821.095C284.194 819.92 284.13 818.698 284.067 817.428C284.035 816.127 284.019 814.904 284.019 813.761V794.237H288.162V829H282.448L271.876 799.237C271.94 799.999 272.003 800.967 272.067 802.142C272.13 803.285 272.178 804.507 272.209 805.809C272.273 807.079 272.305 808.301 272.305 809.476V829H268.162ZM296.811 829V794.237H305.811C308.065 794.237 310.001 794.666 311.621 795.523C313.271 796.38 314.541 797.586 315.43 799.142C316.351 800.698 316.811 802.539 316.811 804.666V818.523C316.811 820.651 316.351 822.508 315.43 824.095C314.541 825.651 313.271 826.857 311.621 827.714C310.001 828.571 308.065 829 305.811 829H296.811ZM301.096 825.19H305.811C307.906 825.19 309.541 824.603 310.716 823.428C311.922 822.254 312.525 820.619 312.525 818.523V804.666C312.525 802.602 311.922 800.983 310.716 799.809C309.541 798.634 307.906 798.047 305.811 798.047H301.096V825.19ZM325.983 829V825.095H333.079V798.142H325.983V794.237H344.555V798.142H337.46V825.095H344.555V829H325.983ZM353.823 829V794.237H359.537L370.157 824C370.093 823.206 370.014 822.238 369.918 821.095C369.855 819.92 369.791 818.698 369.728 817.428C369.696 816.127 369.68 814.904 369.68 813.761V794.237H373.823V829H368.109L357.537 799.237C357.601 799.999 357.664 800.967 357.728 802.142C357.791 803.285 357.839 804.507 357.87 805.809C357.934 807.079 357.966 808.301 357.966 809.476V829H353.823ZM392.567 829.476C389.393 829.476 386.884 828.587 385.043 826.809C383.202 825.032 382.281 822.587 382.281 819.476V803.761C382.281 800.65 383.202 798.205 385.043 796.428C386.884 794.65 389.393 793.761 392.567 793.761C395.678 793.761 398.155 794.666 399.996 796.475C401.837 798.253 402.758 800.682 402.758 803.761H398.472C398.472 801.793 397.948 800.285 396.901 799.237C395.885 798.158 394.44 797.618 392.567 797.618C390.694 797.618 389.218 798.142 388.138 799.19C387.091 800.237 386.567 801.745 386.567 803.714V819.476C386.567 821.444 387.091 822.968 388.138 824.047C389.218 825.127 390.694 825.667 392.567 825.667C394.44 825.667 395.885 825.127 396.901 824.047C397.948 822.968 398.472 821.444 398.472 819.476V814.714H391.424V810.809H402.758V819.476C402.758 822.555 401.837 825 399.996 826.809C398.155 828.587 395.678 829.476 392.567 829.476ZM420.93 829.476C419.756 829.476 418.803 829.127 418.073 828.429C417.375 827.73 417.026 826.825 417.026 825.714C417.026 824.54 417.375 823.587 418.073 822.857C418.803 822.127 419.756 821.762 420.93 821.762C422.105 821.762 423.042 822.127 423.74 822.857C424.47 823.587 424.835 824.54 424.835 825.714C424.835 826.825 424.47 827.73 423.74 828.429C423.042 829.127 422.105 829.476 420.93 829.476ZM449.484 829.476C446.373 829.476 443.912 828.571 442.103 826.762C440.293 824.952 439.389 822.365 439.389 819V804.237C439.389 800.872 440.293 798.285 442.103 796.475C443.912 794.666 446.373 793.761 449.484 793.761C452.595 793.761 455.056 794.666 456.865 796.475C458.675 798.285 459.58 800.856 459.58 804.19V819C459.58 822.365 458.675 824.952 456.865 826.762C455.056 828.571 452.595 829.476 449.484 829.476ZM449.484 825.619C451.357 825.619 452.786 825.095 453.77 824.047C454.786 822.968 455.294 821.444 455.294 819.476V803.761C455.294 801.793 454.786 800.285 453.77 799.237C452.786 798.158 451.357 797.618 449.484 797.618C447.643 797.618 446.214 798.158 445.198 799.237C444.182 800.285 443.674 801.793 443.674 803.761V819.476C443.674 821.444 444.182 822.968 445.198 824.047C446.214 825.095 447.643 825.619 449.484 825.619ZM468.133 829V794.237H479.324C482.562 794.237 485.133 795.174 487.038 797.047C488.975 798.888 489.943 801.364 489.943 804.475C489.943 807.587 488.975 810.079 487.038 811.952C485.133 813.793 482.562 814.714 479.324 814.714H472.419V829H468.133ZM472.419 810.857H479.324C481.197 810.857 482.689 810.285 483.8 809.142C484.943 807.968 485.514 806.412 485.514 804.475C485.514 802.507 484.943 800.952 483.8 799.809C482.689 798.666 481.197 798.094 479.324 798.094H472.419V810.857ZM504.449 829V798.142H494.924V794.237H518.258V798.142H508.734V829H504.449ZM525.859 829V825.095H532.955V798.142H525.859V794.237H544.431V798.142H537.336V825.095H544.431V829H525.859ZM552.841 829V794.237H559.175L563.604 809.285L568.223 794.237H574.556V829H570.413V812.571C570.413 811.015 570.429 809.237 570.461 807.237C570.524 805.206 570.604 803.158 570.699 801.094C570.794 799.031 570.905 797.174 571.032 795.523L565.413 813.476H561.699L556.318 795.951C556.572 798.301 556.746 800.872 556.841 803.666C556.937 806.46 556.984 809.428 556.984 812.571V829H552.841ZM582.967 829V825.095H590.062V798.142H582.967V794.237H601.539V798.142H594.443V825.095H601.539V829H582.967ZM620.997 829.476C617.632 829.476 614.949 828.587 612.949 826.809C610.949 825.032 609.949 822.587 609.949 819.476H614.235C614.235 821.412 614.854 822.936 616.092 824.047C617.33 825.127 618.965 825.667 620.997 825.667C622.965 825.667 624.536 825.095 625.711 823.952C626.886 822.809 627.473 821.317 627.473 819.476C627.473 818.079 627.092 816.873 626.33 815.857C625.6 814.809 624.536 814.095 623.14 813.714L617.854 812.238C615.663 811.603 613.933 810.476 612.663 808.857C611.425 807.206 610.806 805.269 610.806 803.047C610.806 801.206 611.219 799.586 612.044 798.19C612.869 796.793 614.028 795.713 615.52 794.951C617.012 794.158 618.727 793.761 620.663 793.761C622.632 793.761 624.362 794.158 625.854 794.951C627.378 795.713 628.568 796.793 629.426 798.19C630.283 799.555 630.711 801.142 630.711 802.952H626.425C626.425 801.364 625.886 800.078 624.806 799.094C623.727 798.078 622.346 797.57 620.663 797.57C618.981 797.57 617.616 798.078 616.568 799.094C615.52 800.078 614.997 801.364 614.997 802.952C614.997 804.221 615.33 805.317 615.997 806.237C616.695 807.126 617.663 807.745 618.901 808.095L624.33 809.618C626.648 810.253 628.441 811.46 629.711 813.238C631.013 814.984 631.664 817.063 631.664 819.476C631.664 822.524 630.695 824.952 628.759 826.762C626.822 828.571 624.235 829.476 620.997 829.476ZM638.502 829V794.237H644.836L649.265 809.285L653.884 794.237H660.217V829H656.074V812.571C656.074 811.015 656.09 809.237 656.122 807.237C656.185 805.206 656.265 803.158 656.36 801.094C656.455 799.031 656.566 797.174 656.693 795.523L651.074 813.476H647.36L641.979 795.951C642.233 798.301 642.407 800.872 642.503 803.666C642.598 806.46 642.645 809.428 642.645 812.571V829H638.502ZM677.914 829.476C676.739 829.476 675.787 829.127 675.056 828.429C674.358 827.73 674.009 826.825 674.009 825.714C674.009 824.54 674.358 823.587 675.056 822.857C675.787 822.127 676.739 821.762 677.914 821.762C679.088 821.762 680.025 822.127 680.723 822.857C681.453 823.587 681.818 824.54 681.818 825.714C681.818 826.825 681.453 827.73 680.723 828.429C680.025 829.127 679.088 829.476 677.914 829.476ZM697.181 829V825.095H704.277V798.142H697.181V794.237H715.753V798.142H708.658V825.095H715.753V829H697.181ZM735.021 829.476C731.91 829.476 729.449 828.571 727.64 826.762C725.83 824.952 724.925 822.365 724.925 819V804.237C724.925 800.872 725.83 798.285 727.64 796.475C729.449 794.666 731.91 793.761 735.021 793.761C738.132 793.761 740.593 794.666 742.402 796.475C744.212 798.285 745.116 800.856 745.116 804.19V819C745.116 822.365 744.212 824.952 742.402 826.762C740.593 828.571 738.132 829.476 735.021 829.476ZM735.021 825.619C736.894 825.619 738.323 825.095 739.307 824.047C740.323 822.968 740.831 821.444 740.831 819.476V803.761C740.831 801.793 740.323 800.285 739.307 799.237C738.323 798.158 736.894 797.618 735.021 797.618C733.18 797.618 731.751 798.158 730.735 799.237C729.719 800.285 729.211 801.793 729.211 803.761V819.476C729.211 821.444 729.719 822.968 730.735 824.047C731.751 825.095 733.18 825.619 735.021 825.619Z" fill="#3374DB"/>
<path fill-rule="evenodd" clip-rule="evenodd" d="M1000.82 119.971C999.044 121.307 995.896 124.948 995.576 127.199C995.255 129.452 997.26 133.826 998.596 135.605C997.26 133.826 993.621 130.679 991.368 130.358C989.117 130.036 984.742 132.042 982.962 133.377C984.742 132.042 987.89 128.401 988.211 126.151C988.532 123.898 986.526 119.523 985.19 117.743C986.526 119.523 990.166 122.671 992.419 122.992C994.669 123.313 999.044 121.307 1000.82 119.971Z" fill="white"/>
<path d="M1172.38 448.962C1176.48 448.962 1179.8 445.638 1179.8 441.539C1179.8 437.44 1176.48 434.117 1172.38 434.117C1168.28 434.117 1164.96 437.44 1164.96 441.539C1164.96 445.638 1168.28 448.962 1172.38 448.962Z" fill="white"/>
<path d="M1103.6 533.595L1095.81 530.962L1093.18 538.752L1100.97 541.385L1103.6 533.595Z" fill="white"/>
<path fill-rule="evenodd" clip-rule="evenodd" d="M1411.46 480.327C1457.41 462.101 1467.46 427.311 1495.12 410.811C1517.8 412.688 1516.12 441.628 1497.37 489.516C1477.31 490.084 1453.41 484.809 1411.46 480.327Z" fill="url(#paint3_linear_1002_5001)"/>
<path d="M1153.84 -40.6436C1229.64 -27.0759 1321.83 6.60713 1314.54 60.5949C1301.5 157.184 1015.96 108.585 998.969 214.858" stroke="white" stroke-opacity="0.8" stroke-width="1.81401" stroke-linecap="round"/>
<path d="M1284 536.75C1281.97 540.722 1280.81 542.289 1278.31 546.021" stroke="white" stroke-opacity="0.8" stroke-width="0.491339" stroke-linecap="round"/>
<path d="M1008.68 286.314C1008.68 290.367 1008.89 294.296 1009.3 298.106" stroke="white" stroke-opacity="0.8" stroke-width="1.81401" stroke-linecap="round"/>
<path d="M1010.84 307.967C1035.85 428.316 1270.84 420.503 1313.09 452.459" stroke="white" stroke-opacity="0.8" stroke-width="1.81401" stroke-linecap="round"/>
<path d="M1243.79 407.047C1387.73 453.829 1190.23 493.417 1093.23 497.93" stroke="white" stroke-opacity="0.8" stroke-width="1.81401" stroke-linecap="round"/>
<path d="M993.003 201.712C967.321 271.445 979.865 350.623 1065.25 404.366" stroke="white" stroke-opacity="0.8" stroke-width="1.81401" stroke-linecap="round"/>
<path fill-rule="evenodd" clip-rule="evenodd" d="M1377.43 315.631C1369.95 314.029 1278.73 190.259 1312.23 147.321C1314.66 145.938 1318.52 154.362 1320.75 160.587C1343 222.679 1380.62 197.824 1403.04 221.836L1377.43 315.631Z" fill="url(#paint4_linear_1002_5001)"/>
<path opacity="0.7" fill-rule="evenodd" clip-rule="evenodd" d="M1184.29 413.217L1236.13 419.725L1165.61 468.616L1184.29 413.217Z" fill="#69A0F7"/>
<path opacity="0.5" fill-rule="evenodd" clip-rule="evenodd" d="M1165.6 468.616L1125.67 423.708L1184.29 413.217L1165.6 468.616Z" fill="#1FC1BF"/>
<path opacity="0.5" fill-rule="evenodd" clip-rule="evenodd" d="M1030.13 418.92L999 390.592L1026.3 386L1030.13 418.92Z" fill="#1FC1BF"/>
<path opacity="0.7" fill-rule="evenodd" clip-rule="evenodd" d="M1026.3 386L1054.37 388.436L1030.13 418.92L1026.3 386Z" fill="#69A0F7"/>
<path fill-rule="evenodd" clip-rule="evenodd" d="M1090.47 107.742L1083.93 116.533L1093.73 122.792L1097 115.9L1090.47 107.742Z" fill="white" stroke="white" stroke-width="0.372374" stroke-miterlimit="1.5" stroke-linecap="round" stroke-linejoin="round"/>
<path fill-rule="evenodd" clip-rule="evenodd" d="M1140.47 41.145V259.009L1228.75 223.311C1147.24 166.858 1151.24 98.6831 1151.24 54.4855L1140.47 41.145Z" fill="url(#paint5_linear_1002_5001)"/>
<path fill-rule="evenodd" clip-rule="evenodd" d="M1140.46 41.1429V259.007L1052.19 223.309C1133.69 166.856 1128.86 69.808 1128.86 25.6104L1140.46 41.1429Z" fill="url(#paint6_linear_1002_5001)"/>
<path fill-rule="evenodd" clip-rule="evenodd" d="M1169.44 226.634L1133.22 231.467C1095.85 227.408 1058.48 223.272 1023.4 196.365C1023.4 196.365 1070.6 183.159 1101.91 193.321C1133.22 203.482 1169.44 226.634 1169.44 226.634Z" fill="#0E4CAF"/>
<path fill-rule="evenodd" clip-rule="evenodd" d="M1043.45 267.421C1042.82 266.672 1042.22 265.911 1041.66 265.15C1033.17 252.071 1086.64 233.981 1142.32 230.809C1197.27 227.688 1247.8 242.772 1243.53 257.069C1243.47 257.259 1243.41 257.449 1243.33 257.64C1234.95 280.703 1192.06 298.285 1140.47 298.285C1096.46 298.285 1058.78 285.498 1043.45 267.421Z" fill="url(#paint7_linear_1002_5001)"/>
<path fill-rule="evenodd" clip-rule="evenodd" d="M1041.67 265.147C1038.07 260.205 1036.12 254.894 1036.12 249.385C1036.12 222.394 1082.88 200.477 1140.48 200.477C1198.07 200.477 1244.82 222.394 1244.82 249.385C1244.82 251.995 1244.39 254.565 1243.54 257.069C1247.81 242.769 1197.28 227.692 1142.33 230.815C1086.64 233.978 1033.18 252.074 1041.67 265.147Z" fill="url(#paint8_linear_1002_5001)"/>
<path d="M1172.51 323.255L1141.59 363.12L1104.91 327.659L1130.01 315.829L1172.51 323.255Z" fill="white" stroke="white" stroke-width="0.792285"/>
<path fill-rule="evenodd" clip-rule="evenodd" d="M1486.57 125.711L1498.21 170.549L1555.89 157.317L1542.9 209.803C1568.36 216.264 1595.36 227.867 1623.97 244.9L1555.94 266.951L1606.27 314.099C1585.67 317.618 1550.37 327.675 1525.84 327.779L1538.7 419.541C1507.88 406.398 1476.56 386.298 1444.15 350.86L1423.25 452.099C1407.01 437.226 1388.55 398.889 1370.48 356.122L1338.55 344.834C1338.54 318.44 1339.53 298.241 1341.22 282.287C1337.54 273.021 1332 256.479 1325.05 234.457L1351.05 214.195C1357.96 191.509 1367.9 171.433 1379.72 152.998L1405.17 168.082C1425.02 145.831 1450.02 139.933 1486.57 125.711Z" fill="url(#paint9_radial_1002_5001)"/>
<path d="M1097.81 46.7614C1097.81 49.7564 1095.38 52.1844 1092.38 52.1844C1089.39 52.1844 1086.96 49.7564 1086.96 46.7614C1086.96 43.7664 1089.39 41.3385 1092.38 41.3385C1095.38 41.3385 1097.81 43.7664 1097.81 46.7614Z" stroke="white" stroke-opacity="0.5" stroke-width="0.386906"/>
<path opacity="0.8" d="M1009.21 281.036C1011.55 281.036 1013.45 279.141 1013.45 276.803C1013.45 274.465 1011.55 272.57 1009.21 272.57C1006.88 272.57 1004.98 274.465 1004.98 276.803C1004.98 279.141 1006.88 281.036 1009.21 281.036Z" fill="white"/>
<path opacity="0.8" d="M1292.54 514.107C1295.91 514.107 1298.64 511.38 1298.64 508.015C1298.64 504.651 1295.91 501.924 1292.54 501.924C1289.18 501.924 1286.45 504.651 1286.45 508.015C1286.45 511.38 1289.18 514.107 1292.54 514.107Z" fill="white"/>
<path d="M1094.78 661.273C1094.78 664.521 1092.15 667.155 1088.9 667.155C1085.65 667.155 1083.02 664.521 1083.02 661.273C1083.02 658.024 1085.65 655.391 1088.9 655.391C1092.15 655.391 1094.78 658.024 1094.78 661.273Z" stroke="white" stroke-opacity="0.5" stroke-width="0.41964"/>
<path opacity="0.8" d="M1124.51 723.496C1126.8 723.496 1128.66 721.636 1128.66 719.34C1128.66 717.045 1126.8 715.185 1124.51 715.185C1122.21 715.185 1120.35 717.045 1120.35 719.34C1120.35 721.636 1122.21 723.496 1124.51 723.496Z" fill="white"/>
<path d="M995.656 198.726C995.656 199.574 994.968 200.262 994.119 200.262C993.27 200.262 992.582 199.574 992.582 198.726C992.582 197.877 993.27 197.189 994.119 197.189C994.968 197.189 995.656 197.877 995.656 198.726Z" fill="white" stroke="white" stroke-width="0.109654"/>
<path d="M1234.94 406.539C1236.3 406.539 1237.4 405.435 1237.4 404.072C1237.4 402.71 1236.3 401.605 1234.94 401.605C1233.58 401.605 1232.47 402.71 1232.47 404.072C1232.47 405.435 1233.58 406.539 1234.94 406.539Z" fill="white"/>
<path d="M1289.51 281.063C1289.51 282.378 1288.44 283.444 1287.13 283.444C1285.81 283.444 1284.75 282.378 1284.75 281.063C1284.75 279.747 1285.81 278.681 1287.13 278.681C1288.44 278.681 1289.51 279.747 1289.51 281.063Z" stroke="white" stroke-opacity="0.5" stroke-width="0.169938"/>
<path opacity="0.5" fill-rule="evenodd" clip-rule="evenodd" d="M998.513 107.742L956 116.939L988.862 156.925" fill="#1FC1BF"/>
<path opacity="0.7" fill-rule="evenodd" clip-rule="evenodd" d="M988.861 156.925L1025.63 114.872L998.513 107.742" fill="#69A0F7"/>
<path fill-rule="evenodd" clip-rule="evenodd" d="M1648.58 347.633L1636.67 391.293L1706.59 426.205L1656.2 454.191L1692.84 496.904L1630.9 516.191L1649.83 575.492L1572.6 548.244L1520.98 619.887L1508.6 535.384L1472.8 539.474L1468.82 483.605L1450.17 449.077L1471.88 417.143L1485.03 363.775L1516.37 367.099L1565.48 339.876L1581.43 356.892L1648.58 347.633Z" fill="url(#paint10_radial_1002_5001)"/>
<path fill-rule="evenodd" clip-rule="evenodd" d="M1525.73 398.56C1520.85 404.307 1515.4 409.074 1508.47 411.337C1509.93 413.324 1511.03 415.515 1509.87 419.05C1510.66 418.673 1511.41 418.296 1512.14 417.931C1516.74 415.624 1520.36 413.807 1525.25 415.741C1522.07 410.535 1523.51 404.61 1525.73 398.56ZM1558.1 402.555C1553.15 407.613 1545.47 414.94 1540.73 416.188C1541.87 417.712 1543.18 418.771 1544.42 419.77C1546.7 421.609 1548.73 423.248 1549.01 427.221L1560.34 421.432C1558.35 418.92 1555.45 412.998 1558.1 402.555ZM1519.01 435.467C1514.13 433.196 1513.29 424.727 1516.92 422.433C1518.64 421.334 1519.01 422.99 1519.48 425.123C1520 427.458 1520.64 430.367 1523.34 430.86C1525.68 431.288 1528.15 430.24 1530.53 429.232C1533.4 428.015 1536.13 426.857 1538.32 428.433C1543.93 432.476 1525.74 438.598 1519.01 435.467Z" fill="url(#paint11_radial_1002_5001)"/>
<path fill-rule="evenodd" clip-rule="evenodd" d="M1303.25 149.72C1302.38 149.719 1301.54 149.705 1300.77 149.676C1289.86 149.234 1283.96 146.412 1283.43 146.056C1281.73 144.931 1280.98 144.031 1279.94 142.769C1279.3 141.997 1278.55 141.089 1277.4 139.911C1276.35 138.854 1277.21 138.138 1278.37 137.998C1278.47 137.983 1278.53 137.994 1278.69 138.02C1279.03 138.077 1279.8 138.205 1282.21 138.309C1286.3 138.499 1287.13 138.962 1289.61 140.356C1290.27 140.726 1291.04 141.163 1292.03 141.677C1297.69 144.618 1303.61 146.552 1312.81 147.179C1313.42 147.262 1313.67 147.519 1313.69 147.838C1314 147.836 1314.3 147.929 1314.57 148.235C1314.73 148.418 1314.52 148.738 1313.84 148.99C1313.59 149.084 1313.36 149.186 1313.15 149.295C1313.08 149.465 1313.01 149.63 1312.89 149.774C1312.89 149.777 1312.85 149.796 1312.77 149.828C1312.85 150.162 1312.96 150.559 1313.25 150.922C1312.83 151.246 1312.41 151.568 1311.99 151.888C1311.59 152.189 1311.2 152.489 1310.81 152.786C1310.68 153.841 1310.75 155.042 1310.83 156.351C1310.96 158.64 1311.11 161.259 1310.23 164.001C1309.5 166.24 1308.52 167.404 1307.16 168.684C1305.65 170.089 1303.17 171.296 1302.8 171.475C1302.59 171.58 1300.22 172.728 1300.16 172.72C1300.01 172.723 1299.88 172.676 1299.74 172.629C1299.6 172.584 1299.47 172.539 1299.34 172.537C1299.4 172.412 1299.41 172.27 1299.43 172.129C1299.45 171.988 1299.47 171.847 1299.52 171.722C1299.55 171.67 1299.64 171.596 1299.79 171.473C1300.28 171.067 1301.42 170.135 1302.87 167.756C1303.66 166.467 1303.97 165.764 1304.35 164.878C1304.58 164.366 1304.83 163.793 1305.21 163.011C1306.62 160.159 1307.18 157.622 1307.66 155.454C1307.68 155.341 1307.71 155.229 1307.73 155.119C1300.42 160.594 1293.52 165.192 1283.82 168.426C1279.71 169.788 1277.84 169.718 1273.38 169.248C1273.2 169.228 1272.92 169.214 1272.58 169.198L1272.58 169.198C1270.59 169.101 1266.68 168.909 1268.86 166.862C1268.93 166.791 1269 166.762 1269.15 166.689C1269.48 166.536 1270.23 166.189 1272.4 164.854C1277.41 161.781 1278.66 161.553 1282.56 160.838C1283.59 160.649 1284.81 160.426 1286.34 160.107C1293.06 158.704 1298.84 156.902 1307.81 151.717C1305.28 152.623 1302.21 153.643 1299.56 154.301C1298.05 154.676 1288.64 157.001 1280.14 156.387C1276.7 156.139 1272.98 153.964 1270.56 152.543C1270.11 152.282 1269.71 152.047 1269.36 151.854C1267.12 150.607 1272.62 149.406 1274.42 149.025C1278.95 148.112 1280.4 148.365 1283.66 148.932C1285.18 149.196 1287.08 149.528 1289.87 149.842C1295.56 150.475 1300.17 150.142 1303.25 149.72Z" fill="url(#paint12_linear_1002_5001)"/>
<path fill-rule="evenodd" clip-rule="evenodd" d="M1410.57 99.2798C1409.12 98.5125 1408.31 98.0861 1406 98.2844C1405.93 98.2904 1405.81 98.2933 1405.67 98.297C1404.69 98.3211 1402.4 98.3776 1403.74 99.5399C1404.28 99.9229 1404.7 100.366 1405.11 100.804C1405.85 101.583 1406.57 102.347 1407.93 102.738C1411.35 103.727 1414.33 103.744 1417.72 103.476C1418.31 103.434 1419.18 103.334 1419.91 103.243C1419.5 103.826 1418.88 104.59 1418.07 105.356C1413.99 109.166 1407.87 109.785 1402 110.379C1399.57 110.625 1397.18 110.867 1394.99 111.328L1394.92 111.344C1391.69 112.026 1389.72 112.444 1386.43 116.137C1383.92 118.947 1385.05 118.86 1388.11 118.626L1388.11 118.626L1388.11 118.626C1388.36 118.607 1388.61 118.588 1388.88 118.569C1389.21 118.547 1389.5 118.528 1389.77 118.51L1389.77 118.51L1389.78 118.51C1392.34 118.344 1392.65 118.324 1395.57 117.265C1398.28 116.28 1400.88 115.494 1403.32 114.754L1403.32 114.754C1409.11 112.999 1414.06 111.501 1417.78 108.226C1415.13 112.54 1411.61 114.82 1407.54 117.461L1407.54 117.461C1406.73 117.986 1405.9 118.525 1405.05 119.097C1402.22 121.003 1401.57 121.851 1400.49 124.268C1399.05 127.476 1399.38 128.219 1403.03 127.127C1406.02 126.226 1406.55 125.768 1409.25 123.045L1409.64 122.649L1409.64 122.649L1409.64 122.649C1415.04 117.186 1418.79 113.39 1421.05 105.463C1421.87 115.67 1417.79 120.351 1414.29 124.349C1413.41 125.361 1412.56 126.33 1411.84 127.334C1411.59 127.684 1410.57 129.104 1410.17 132.58C1410.03 133.807 1409.87 134.499 1409.8 134.807C1409.77 134.921 1409.76 134.983 1409.76 135C1409.93 135.926 1410.15 136.086 1411.02 135.698C1412.84 134.804 1415.77 132.416 1416.91 130.725C1423.29 121.239 1423.74 115.522 1423.39 110.231C1423.15 106.661 1422.17 102.7 1422.17 102.7C1422.05 102.581 1421.9 102.499 1421.75 102.418L1421.69 102.385C1421.63 102.237 1421.58 102.091 1421.56 101.939C1421.44 101.996 1421.3 102.027 1421.16 102.054C1421.12 102.05 1421.03 102.05 1420.9 102.05C1420.01 102.05 1417.12 102.052 1413.66 100.714C1412.26 100.17 1411.33 99.6788 1410.57 99.2798Z" fill="url(#paint13_linear_1002_5001)"/>
<path fill-rule="evenodd" clip-rule="evenodd" d="M1385.49 222.543L1385.49 222.543C1388.85 218.953 1391.64 215.988 1392.11 213.48L1382.69 209.754C1389.37 212.163 1401.98 212.716 1410.51 200.911L1406.03 207.844C1405.27 210.213 1406.15 211.833 1410.08 212.064C1398.89 217.051 1393.71 226.41 1390.4 237.121C1392.48 222.397 1389.3 218.83 1379.44 229.375C1381.43 226.87 1383.56 224.604 1385.49 222.543ZM1419.22 218.785C1421.72 215.652 1424.08 213.716 1425.97 212.161C1428.22 210.312 1429.82 209.001 1430.22 206.856L1422.33 204.336C1428.91 206.173 1437.58 202.56 1445.75 191.26L1440.76 199.781C1440 202.149 1447.65 203.806 1451.58 204.038C1441.51 208.539 1439.74 214.483 1437.06 223.443L1437.06 223.444C1436.77 224.433 1436.46 225.459 1436.13 226.524C1438.22 211.799 1429.09 208.253 1419.22 218.785ZM1421.48 204.064C1421.76 204.165 1422.04 204.255 1422.33 204.336L1421.48 204.064ZM1420.65 247.886C1419.69 240.379 1417.99 234.399 1416.86 234.543C1415.73 234.688 1415.17 239.523 1418.15 248.264C1419.57 252.439 1419.69 256.38 1419.77 258.911C1419.83 260.722 1419.86 261.812 1420.33 261.752C1421.46 261.607 1421.6 255.392 1420.65 247.886Z" fill="url(#paint14_radial_1002_5001)"/>
<path fill-rule="evenodd" clip-rule="evenodd" d="M1161.92 46.0308C1161.92 55.6682 1162.46 65.2737 1164.38 74.7409L1160.03 75.6214C1158.05 65.8641 1157.48 55.9639 1157.48 46.0305L1161.92 46.0308Z" fill="white" stroke="white" stroke-width="2.7689" stroke-linecap="square"/>
<path fill-rule="evenodd" clip-rule="evenodd" d="M1148.82 93.2134C1148.82 100.572 1148.93 101.682 1150.33 108.595L1145.99 109.476C1144.51 102.152 1144.38 100.712 1144.38 93.2131L1148.82 93.2134Z" fill="#F2FBEB"/>
<path fill-rule="evenodd" clip-rule="evenodd" d="M1101.61 133.977C1101.61 142.458 1101.48 143.737 1099.84 151.706L1104.92 152.721C1106.65 144.28 1106.79 142.62 1106.79 133.977L1101.61 133.977Z" fill="#F2FBEB"/>
<path fill-rule="evenodd" clip-rule="evenodd" d="M1128.44 103.42C1127.92 121.291 1126.91 124.212 1123.42 141.186L1134.24 143.347C1137 126.244 1138.23 121.832 1138.23 103.42H1128.44Z" fill="white"/>
<path fill-rule="evenodd" clip-rule="evenodd" d="M1140.41 3.67656L1135.7 8.19142L1139.29 11.9276L1143.99 7.41309L1140.41 3.67656Z" fill="white" stroke="white" stroke-width="0.922966" stroke-linecap="square"/>
<path fill-rule="evenodd" clip-rule="evenodd" d="M1147.36 21.0159L1147.36 27.5353H1152.54L1152.54 21.0156L1147.36 21.0159Z" fill="white" stroke="white" stroke-width="2.7689" stroke-linecap="square"/>
<path d="M1180.94 103.83C1179.98 130.776 1186.38 158.57 1203.01 187.558" stroke="white" stroke-opacity="0.8" stroke-width="1.81401" stroke-linecap="round"/>
<path d="M1217.58 263.486C1238.58 280.4 1264.67 291.933 1297.84 295.987" stroke="white" stroke-opacity="0.8" stroke-width="1.81401" stroke-linecap="round"/>
<path d="M1035.65 294.232C1058.02 279.188 1076.77 257.691 1090.47 227.207" stroke="white" stroke-opacity="0.8" stroke-width="1.81401" stroke-linecap="round"/>
<path fill-rule="evenodd" clip-rule="evenodd" d="M1496.77 305.578C1459.96 167.289 1424.11 148.382 1420.78 101.829C1485.27 125.813 1554.34 204.973 1555.77 252.908C1556.85 289.573 1496.77 305.578 1496.77 305.578Z" fill="url(#paint15_radial_1002_5001)"/>
<path fill-rule="evenodd" clip-rule="evenodd" d="M1496.77 305.578C1459.96 167.289 1424.11 148.382 1420.78 101.829C1485.27 125.813 1554.34 204.973 1555.77 252.908C1556.85 289.573 1496.77 305.578 1496.77 305.578Z" fill="url(#paint16_radial_1002_5001)"/>
<path opacity="0.8" d="M1014.74 648.593L1009.87 651.555L1012.83 656.424L1017.7 653.462L1014.74 648.593Z" fill="white"/>
<path d="M1295.57 263.609L1294.03 264.547L1294.97 266.088L1296.51 265.15L1295.57 263.609Z" fill="white"/>
<path d="M1313.97 265.11L1310.72 264.005L1309.62 267.25L1312.86 268.354L1313.97 265.11Z" fill="white"/>
<path d="M1269.31 549.808L1267.25 551.064L1268.5 553.13L1270.57 551.873L1269.31 549.808Z" fill="white"/>
<path opacity="0.8" fill-rule="evenodd" clip-rule="evenodd" d="M1058.8 600.943C1058.8 602.211 1059.38 604.876 1060.3 605.789C1061.21 606.702 1063.88 607.286 1065.15 607.286C1063.88 607.286 1061.21 607.869 1060.3 608.783C1059.38 609.696 1058.8 612.36 1058.8 613.629C1058.8 612.36 1058.22 609.696 1057.31 608.783C1056.4 607.869 1053.72 607.286 1052.46 607.286C1053.72 607.286 1056.4 606.702 1057.31 605.789C1058.22 604.876 1058.8 602.211 1058.8 600.943Z" fill="white"/>
<path d="M1089.36 381.697C1089.39 381.646 1089.43 381.595 1089.46 381.544C1089.74 381.094 1090 380.621 1090.19 380.167C1090.38 379.718 1090.52 379.262 1090.54 378.851C1090.55 378.44 1090.46 377.975 1090.31 377.511C1090.16 377.042 1089.95 376.549 1089.7 376.074C1089.68 376.02 1089.65 375.965 1089.62 375.911C1089.67 375.944 1089.72 375.977 1089.78 376.01C1090.23 376.293 1090.7 376.551 1091.15 376.743C1091.6 376.933 1092.05 377.069 1092.47 377.089C1092.88 377.109 1093.34 377.015 1093.81 376.867C1094.28 376.716 1094.77 376.502 1095.25 376.259C1095.3 376.232 1095.35 376.204 1095.41 376.176C1095.37 376.227 1095.34 376.278 1095.31 376.329C1095.02 376.78 1094.77 377.252 1094.57 377.706C1094.38 378.154 1094.25 378.608 1094.23 379.016L1094.23 379.019C1094.21 379.429 1094.3 379.894 1094.45 380.359C1094.6 380.828 1094.82 381.321 1095.06 381.795C1095.09 381.85 1095.11 381.905 1095.14 381.959C1095.09 381.925 1095.04 381.892 1094.99 381.86C1094.54 381.576 1094.07 381.319 1093.61 381.127C1093.16 380.937 1092.71 380.8 1092.3 380.78L1092.3 380.78C1091.89 380.763 1091.42 380.858 1090.96 381.007C1090.49 381.158 1090 381.372 1089.52 381.613C1089.47 381.641 1089.41 381.669 1089.36 381.697Z" stroke="white" stroke-opacity="0.5" stroke-width="0.792285"/>
<path opacity="0.8" fill-rule="evenodd" clip-rule="evenodd" d="M1267.13 253.218C1268.04 254.21 1270.4 255.884 1271.78 255.95C1273.15 256.017 1275.66 254.552 1276.65 253.646C1275.66 254.552 1273.98 256.926 1273.92 258.292C1273.86 259.668 1275.31 262.173 1276.22 263.166C1275.31 262.173 1272.95 260.5 1271.57 260.433C1270.21 260.375 1267.69 261.831 1266.7 262.736C1267.69 261.831 1269.38 259.467 1269.43 258.091C1269.49 256.715 1268.04 254.21 1267.13 253.218Z" fill="white"/>
<path fill-rule="evenodd" clip-rule="evenodd" d="M1374.02 147.852C1373.69 148.588 1373.33 150.287 1373.62 151.061C1373.91 151.835 1375.31 152.869 1376.05 153.201C1375.31 152.869 1373.6 152.508 1372.83 152.796C1372.06 153.091 1371.03 154.487 1370.7 155.222C1371.03 154.487 1371.39 152.787 1371.1 152.013C1370.81 151.246 1369.41 150.205 1368.67 149.874C1369.41 150.205 1371.11 150.573 1371.88 150.278C1372.65 149.983 1373.69 148.588 1374.02 147.852Z" fill="white"/>
<path fill-rule="evenodd" clip-rule="evenodd" d="M1289.11 537.397C1289.16 537.985 1289.53 539.201 1289.99 539.594C1290.45 539.987 1291.72 540.152 1292.3 540.104C1291.72 540.152 1290.5 540.525 1290.1 540.982C1289.72 541.444 1289.55 542.704 1289.59 543.293C1289.55 542.704 1289.18 541.488 1288.72 541.095C1288.26 540.708 1286.99 540.538 1286.4 540.586C1286.99 540.538 1288.21 540.17 1288.6 539.708C1288.99 539.245 1289.16 537.985 1289.11 537.397Z" fill="white"/>
<path d="M1098.29 82.5778C1098.3 82.4661 1098.31 82.3542 1098.32 82.2424C1098.36 81.6654 1098.37 81.0819 1098.32 80.5501C1098.28 80.0238 1098.18 79.5218 1097.99 79.1237C1097.8 78.7252 1097.48 78.3292 1097.1 77.9599C1096.72 77.5869 1096.26 77.2225 1095.79 76.8898C1095.7 76.8253 1095.6 76.7618 1095.51 76.6994C1095.62 76.7103 1095.73 76.72 1095.84 76.7283C1096.42 76.7712 1097.01 76.7784 1097.54 76.7321C1098.06 76.6862 1098.57 76.5858 1098.97 76.3972C1099.36 76.2088 1099.76 75.8841 1100.13 75.5059C1100.5 75.1239 1100.86 74.6681 1101.2 74.1946C1101.26 74.1029 1101.33 74.0101 1101.39 73.9168C1101.38 74.0285 1101.37 74.1405 1101.36 74.2523C1101.32 74.8294 1101.31 75.4129 1101.36 75.9447C1101.4 76.4711 1101.5 76.9731 1101.69 77.3713C1101.69 77.3714 1101.69 77.3715 1101.69 77.3715L1102.05 77.2018C1102.48 78.1151 1103.85 79.1748 1105.11 79.9175C1104.81 79.8681 1104.49 79.8266 1104.17 79.7954C1104.44 79.9734 1104.71 80.142 1104.98 80.297L1098.29 82.5778ZM1098.29 82.5778C1098.35 82.4844 1098.42 82.3917 1098.48 82.3C1098.81 81.8265 1099.18 81.3707 1099.55 80.9887C1099.92 80.6107 1100.32 80.2861 1100.72 80.0978" fill="white" stroke="white" stroke-width="0.792285"/>
<path fill-rule="evenodd" clip-rule="evenodd" d="M1163.64 163.439C1163.14 164.815 1162.74 167.95 1163.38 169.299C1164.02 170.65 1166.7 172.321 1168.07 172.813C1166.7 172.321 1163.56 171.914 1162.21 172.553C1160.86 173.192 1159.19 175.875 1158.7 177.251C1159.19 175.875 1159.6 172.74 1158.96 171.391C1158.32 170.04 1155.64 168.368 1154.26 167.877C1155.64 168.368 1158.77 168.776 1160.12 168.137C1161.47 167.498 1163.14 164.815 1163.64 163.439Z" fill="#F2FBEB"/>
<path fill-rule="evenodd" clip-rule="evenodd" d="M1140.47 41.144V259.008L1228.75 223.31C1147.24 166.858 1151.24 98.6822 1151.24 54.4845L1140.47 41.144Z" fill="url(#paint17_linear_1002_5001)"/>
<path fill-rule="evenodd" clip-rule="evenodd" d="M1140.47 41.1434V259.007L1052.19 223.309C1133.7 166.857 1128.86 69.8085 1128.86 25.6108L1140.47 41.1434Z" fill="url(#paint18_linear_1002_5001)"/>
<path fill-rule="evenodd" clip-rule="evenodd" d="M1169.45 226.633L1133.22 231.466C1095.85 227.407 1058.49 223.271 1023.4 196.365C1023.4 196.365 1070.61 183.158 1101.91 193.32C1133.22 203.481 1169.45 226.633 1169.45 226.633Z" fill="#787878"/>
<path fill-rule="evenodd" clip-rule="evenodd" d="M1043.46 267.42C1042.82 266.671 1042.23 265.91 1041.67 265.149C1033.18 252.07 1086.64 233.98 1142.33 230.808C1197.27 227.687 1247.8 242.771 1243.54 257.068C1243.48 257.258 1243.41 257.448 1243.34 257.639C1234.96 280.702 1192.06 298.284 1140.47 298.284C1096.47 298.284 1058.79 285.497 1043.46 267.42Z" fill="url(#paint19_linear_1002_5001)"/>
<path fill-rule="evenodd" clip-rule="evenodd" d="M1041.67 265.147C1038.08 260.205 1036.13 254.893 1036.13 249.384C1036.13 222.393 1082.88 200.476 1140.48 200.476C1198.07 200.476 1244.83 222.393 1244.83 249.384C1244.83 251.994 1244.39 254.564 1243.55 257.068C1247.81 242.768 1197.28 227.691 1142.33 230.815C1086.65 233.978 1033.18 252.073 1041.67 265.147Z" fill="url(#paint20_linear_1002_5001)"/>
<path d="M1098.16 217.879C1098.16 220.089 1096.37 221.881 1094.16 221.881C1091.95 221.881 1090.16 220.089 1090.16 217.879C1090.16 215.668 1091.95 213.876 1094.16 213.876C1096.37 213.876 1098.16 215.668 1098.16 217.879Z" stroke="#FFCED4" stroke-width="0.461483"/>
<path fill-rule="evenodd" clip-rule="evenodd" d="M1148.82 93.2126C1148.82 100.571 1148.93 101.681 1150.33 108.595L1145.99 109.475C1144.5 102.151 1144.38 100.712 1144.38 93.2124L1148.82 93.2126Z" fill="#F2FBEB"/>
<path fill-rule="evenodd" clip-rule="evenodd" d="M1101.61 133.977C1101.61 142.457 1101.48 143.737 1099.84 151.705L1104.92 152.72C1106.65 144.279 1106.79 142.62 1106.79 133.976L1101.61 133.977Z" fill="#F2FBEB"/>
<path fill-rule="evenodd" clip-rule="evenodd" d="M1128.44 103.421C1127.93 121.292 1126.91 124.212 1123.43 141.186L1134.24 143.348C1137.01 126.244 1138.24 121.832 1138.24 103.421H1128.44Z" fill="white"/>
<path d="M1035.65 294.23C1058.02 279.185 1076.77 257.688 1090.47 227.205" stroke="#DFEBD5" stroke-width="1.02205" stroke-linecap="round"/>
<mask id="mask0_1002_5001" style="mask-type:alpha" maskUnits="userSpaceOnUse" x="1036" y="200" width="209" height="66">
<path fill-rule="evenodd" clip-rule="evenodd" d="M1041.67 265.146C1038.08 260.204 1036.13 254.893 1036.13 249.384C1036.13 222.393 1082.89 200.475 1140.48 200.475C1198.07 200.475 1244.83 222.393 1244.83 249.384C1244.83 251.993 1244.39 254.563 1243.55 257.067C1247.81 242.768 1197.28 227.691 1142.33 230.814C1086.65 233.977 1033.18 252.072 1041.67 265.146Z" fill="#FF6300"/>
</mask>
<g mask="url(#mask0_1002_5001)">
<path d="M1022.78 197.636C1033.97 222.167 1052.12 244.167 1079.96 262.656" stroke="#DFEBD5" stroke-width="1.02205" stroke-linecap="round"/>
<path d="M1042.2 193.172C1053.39 217.702 1071.55 239.703 1099.39 258.192" stroke="#DFEBD5" stroke-width="1.02205" stroke-linecap="round"/>
<path d="M1065.03 205.344C1085.12 223.322 1110.57 236.192 1143.49 241.958" stroke="#DFEBD5" stroke-width="1.02205" stroke-linecap="round"/>
<path d="M1089.17 200.364C1121.63 222.836 1160.79 237.168 1209.29 240.182" stroke="#B7CED1" stroke-width="1.02205" stroke-linecap="round"/>
<path d="M1141.33 194.672C1168.13 223.661 1203.23 246.162 1249.93 259.648" stroke="#B7CED1" stroke-width="1.02205" stroke-linecap="round"/>
<path d="M1175.14 184.291C1193.66 219.15 1221.87 249.855 1263.59 274.794" stroke="#B7CED1" stroke-width="1.02205" stroke-linecap="round"/>
</g>
<path fill-rule="evenodd" clip-rule="evenodd" d="M1163.64 163.437C1163.15 164.813 1162.74 167.947 1163.38 169.297C1164.02 170.648 1166.7 172.319 1168.08 172.811C1166.7 172.319 1163.57 171.912 1162.22 172.551C1160.87 173.189 1159.2 175.872 1158.71 177.248C1159.2 175.872 1159.61 172.738 1158.97 171.388C1158.33 170.038 1155.64 168.366 1154.27 167.874C1155.64 168.366 1158.78 168.774 1160.13 168.134C1161.48 167.496 1163.15 164.813 1163.64 163.437Z" fill="#F2FBEB"/>
<path fill-rule="evenodd" clip-rule="evenodd" d="M1023.4 196.364C1054.73 181.991 1149.73 167.846 1228.65 211.676C1230.62 212.767 1232.34 214.34 1234.5 216.586C1236.66 218.818 1238.79 222.738 1239.72 224.501C1248.77 241.792 1248.4 242.972 1246.43 253.565C1244.55 239.522 1209.19 220.873 1139.31 223.436C1095.17 189.768 1062.82 196.364 1023.4 196.364Z" fill="url(#paint21_linear_1002_5001)"/>
<path fill-rule="evenodd" clip-rule="evenodd" d="M1576.51 465.687C1601.46 509.03 1641.56 502.443 1695.37 554.842C1668.27 478.286 1652.25 450.326 1625.84 420.748C1596.09 387.428 1567.9 440.243 1576.51 465.687Z" fill="url(#paint22_linear_1002_5001)"/>
<path fill-rule="evenodd" clip-rule="evenodd" d="M1023.4 196.367C1054.72 181.994 1149.73 167.849 1228.65 211.679C1230.61 212.77 1232.34 214.343 1234.5 216.588C1236.66 218.821 1238.79 222.741 1239.71 224.504C1248.77 241.795 1248.39 242.975 1246.42 253.567C1244.54 239.524 1209.18 220.876 1139.3 223.438C1095.16 189.77 1062.81 196.367 1023.4 196.367Z" fill="url(#paint23_linear_1002_5001)"/>
<path opacity="0.5" fill-rule="evenodd" clip-rule="evenodd" d="M1138.82 391.235L1042.12 302.18L1149.49 267.624" fill="#1FC1BF"/>
<path opacity="0.7" fill-rule="evenodd" clip-rule="evenodd" d="M1149.4 267.624L1261.71 302.18L1138.73 391.235" fill="#69A0F7"/>
</g>
<defs>
<linearGradient id="paint0_linear_1002_5001" x1="800" y1="0" x2="800" y2="900" gradientUnits="userSpaceOnUse">
<stop stop-color="#B3FFA0"/>
<stop offset="0.685" stop-color="#EAFFE5"/>
<stop offset="1" stop-color="#EFFFF7"/>
</linearGradient>
<linearGradient id="paint1_linear_1002_5001" x1="333.214" y1="122" x2="621.815" y2="446.338" gradientUnits="userSpaceOnUse">
<stop stop-color="#39D551"/>
<stop offset="1" stop-color="#3374DB"/>
</linearGradient>
<linearGradient id="paint2_linear_1002_5001" x1="433" y1="714" x2="66" y2="380" gradientUnits="userSpaceOnUse">
<stop stop-color="#3374DB"/>
<stop offset="1" stop-color="#0DA529"/>
</linearGradient>
<linearGradient id="paint3_linear_1002_5001" x1="1512.87" y1="438.808" x2="1423.71" y2="437.38" gradientUnits="userSpaceOnUse">
<stop offset="0.26" stop-color="#EFFFF7" stop-opacity="0"/>
<stop offset="0.425" stop-color="#B8FFE4" stop-opacity="0"/>
<stop offset="0.518" stop-color="#6FE8EC"/>
<stop offset="0.809272" stop-color="#4991E6"/>
</linearGradient>
<linearGradient id="paint4_linear_1002_5001" x1="1298.23" y1="139.769" x2="1382.58" y2="296.596" gradientUnits="userSpaceOnUse">
<stop offset="0.190728" stop-color="#4991E6"/>
<stop offset="0.482" stop-color="#6FE8EC"/>
<stop offset="0.575" stop-color="#B8FFE4"/>
<stop offset="0.74" stop-color="#EFFFF7"/>
</linearGradient>
<linearGradient id="paint5_linear_1002_5001" x1="1184.61" y1="41.145" x2="1184.61" y2="199.579" gradientUnits="userSpaceOnUse">
<stop stop-color="#FAFBFF"/>
<stop offset="1" stop-color="#AAC9FD"/>
</linearGradient>
<linearGradient id="paint6_linear_1002_5001" x1="1082.73" y1="384.762" x2="1259.98" y2="284.133" gradientUnits="userSpaceOnUse">
<stop offset="0.690949" stop-color="#D6E4FF"/>
<stop offset="0.878762" stop-color="#FAFBFF"/>
</linearGradient>
<linearGradient id="paint7_linear_1002_5001" x1="1142.28" y1="230.395" x2="1142.28" y2="300.26" gradientUnits="userSpaceOnUse">
<stop stop-color="#68DFDC"/>
<stop offset="1" stop-color="#3374DB"/>
</linearGradient>
<linearGradient id="paint8_linear_1002_5001" x1="1036.12" y1="232.812" x2="1143.05" y2="200.477" gradientUnits="userSpaceOnUse">
<stop stop-color="#68DFDC"/>
<stop offset="1" stop-color="#69A0F7"/>
</linearGradient>
<radialGradient id="paint9_radial_1002_5001" cx="0" cy="0" r="1" gradientUnits="userSpaceOnUse" gradientTransform="translate(1429.27 265.533) rotate(48.6936) scale(189.671 204.584)">
<stop offset="0.26" stop-color="#EFFFF7"/>
<stop offset="0.425" stop-color="#B8FFE4"/>
<stop offset="0.518" stop-color="#6FE8EC"/>
<stop offset="0.809272" stop-color="#4991E6"/>
</radialGradient>
<radialGradient id="paint10_radial_1002_5001" cx="0" cy="0" r="1" gradientUnits="userSpaceOnUse" gradientTransform="translate(1547.02 448.015) rotate(142.525) scale(138.657 141.981)">
<stop offset="0.196106" stop-color="#EFFFF7"/>
<stop offset="0.425" stop-color="#B8FFE4"/>
<stop offset="0.518" stop-color="#6FE8EC"/>
<stop offset="0.809272" stop-color="#4991E6"/>
</radialGradient>
<radialGradient id="paint11_radial_1002_5001" cx="0" cy="0" r="1" gradientUnits="userSpaceOnUse" gradientTransform="translate(1557 434.019) rotate(-141.647) scale(63.4021 50.4555)">
<stop offset="0.303759" stop-color="#00AAB5"/>
<stop offset="0.814207" stop-color="#018EAD"/>
</radialGradient>
<linearGradient id="paint12_linear_1002_5001" x1="1267" y1="150.952" x2="1309.24" y2="174.434" gradientUnits="userSpaceOnUse">
<stop stop-color="#4991E5"/>
<stop offset="1" stop-color="#456CF5"/>
</linearGradient>
<linearGradient id="paint13_linear_1002_5001" x1="1384.64" y1="112.481" x2="1423.23" y2="128.75" gradientUnits="userSpaceOnUse">
<stop stop-color="#4991E5"/>
<stop offset="1" stop-color="#456CF5"/>
</linearGradient>
<radialGradient id="paint14_radial_1002_5001" cx="0" cy="0" r="1" gradientUnits="userSpaceOnUse" gradientTransform="translate(1464.25 240.46) rotate(-160.419) scale(101.036 80.6857)">
<stop offset="0.303759" stop-color="#00AAB5"/>
<stop offset="0.814207" stop-color="#018EAD"/>
</radialGradient>
<radialGradient id="paint15_radial_1002_5001" cx="0" cy="0" r="1" gradientUnits="userSpaceOnUse" gradientTransform="translate(1437.58 125.772) rotate(85.3006) scale(172.624 167.782)">
<stop stop-color="#FC2C2C"/>
<stop offset="0.469057" stop-color="#FF89AC"/>
<stop offset="0.714401" stop-color="#FFE2FE" stop-opacity="0.5"/>
<stop offset="0.917489" stop-color="#FFF9FF" stop-opacity="0"/>
</radialGradient>
<radialGradient id="paint16_radial_1002_5001" cx="0" cy="0" r="1" gradientUnits="userSpaceOnUse" gradientTransform="translate(1442.52 145.196) rotate(63.6154) scale(279.4 222.754)">
<stop offset="0.190728" stop-color="#4991E6"/>
<stop offset="0.430443" stop-color="#6FE8EC"/>
<stop offset="0.578905" stop-color="#B8FFE4" stop-opacity="0"/>
<stop offset="1" stop-color="#EFFFF7" stop-opacity="0"/>
</radialGradient>
<linearGradient id="paint17_linear_1002_5001" x1="1184.61" y1="41.144" x2="1184.61" y2="199.578" gradientUnits="userSpaceOnUse">
<stop stop-color="#EFDFDF"/>
<stop offset="1" stop-color="#C8D1FF"/>
</linearGradient>
<linearGradient id="paint18_linear_1002_5001" x1="1082.73" y1="384.763" x2="1259.98" y2="284.133" gradientUnits="userSpaceOnUse">
<stop offset="0.690949" stop-color="#E2EED8"/>
<stop offset="0.878762" stop-color="#F2F0FF"/>
</linearGradient>
<linearGradient id="paint19_linear_1002_5001" x1="1142.28" y1="230.394" x2="1142.28" y2="300.26" gradientUnits="userSpaceOnUse">
<stop stop-color="#E18BDE"/>
<stop offset="1" stop-color="#FF011D"/>
</linearGradient>
<linearGradient id="paint20_linear_1002_5001" x1="1036.13" y1="232.811" x2="1143.05" y2="200.476" gradientUnits="userSpaceOnUse">
<stop stop-color="#FF6300"/>
<stop offset="1" stop-color="#FF0420"/>
</linearGradient>
<linearGradient id="paint21_linear_1002_5001" x1="1100.95" y1="292.021" x2="1126.58" y2="171.205" gradientUnits="userSpaceOnUse">
<stop offset="0.690949" stop-color="#E2EED8"/>
<stop offset="0.878762" stop-color="white"/>
</linearGradient>
<linearGradient id="paint22_linear_1002_5001" x1="1566.33" y1="405.472" x2="1663.5" y2="540.809" gradientUnits="userSpaceOnUse">
<stop offset="0.26" stop-color="#EFFFF7" stop-opacity="0"/>
<stop offset="0.425" stop-color="#B8FFE4" stop-opacity="0"/>
<stop offset="0.518" stop-color="#6FE8EC"/>
<stop offset="0.809272" stop-color="#4991E6"/>
</linearGradient>
<linearGradient id="paint23_linear_1002_5001" x1="1100.95" y1="292.024" x2="1126.58" y2="171.207" gradientUnits="userSpaceOnUse">
<stop offset="0.690949" stop-color="#D6E4FF"/>
<stop offset="0.878762" stop-color="white"/>
</linearGradient>
<clipPath id="clip0_1002_5001">
<rect width="1600" height="900" fill="white"/>
</clipPath>
</defs>
</svg>
