<svg width="120" height="120" viewBox="0 0 120 120" fill="none"
    xmlns="http://www.w3.org/2000/svg">
    <path fill-rule="evenodd" clip-rule="evenodd" d="M79.3124 54.4407L100.817 71.8226C95.3595 65.5615 90.6334 57.8609 86.3565 49.2746C107.204 63.2378 121.107 73.195 119.247 74.0718C105.938 80.7438 91.463 84.8925 76.2635 87.48" fill="url(#paint0_radial_7_6670)"/>
    <path fill-rule="evenodd" clip-rule="evenodd" d="M31.4856 9.60336C35.7785 10.7743 47.2727 13.4296 55.0836 23.0456L58.3315 6.53814C63.2035 11.2459 69.8866 19.3293 71.232 23.0456L84.9445 15.7376L86.0599 36.1277L98.9068 39.2018L96.8037 61.1289L105.547 70.1287L95.2612 77.7328L101.832 89.7486L89.7195 88.0448L90.7062 102.643L80.3003 96.7211L76.1501 117.392L61.4378 102.256L45.4847 118.714L39.0299 97.2759L17.7662 107.125L25.0821 84.5788L0.0627284 81.0436L16.4524 59.0841L-0.000975202 48L22.2884 44.253L16.2854 24.9678L34.0778 28.4797L31.4856 9.60336Z" fill="url(#paint1_radial_7_6670)"/>
    <path fill-rule="evenodd" clip-rule="evenodd" d="M63.3757 51.8682C61.1114 55.5432 60.1002 59.5983 58.9893 64.1068C59.6311 64.1828 64.8455 63.9437 65.4582 63.9859L63.3757 51.8682Z" fill="#2872C8"/>
    <path fill-rule="evenodd" clip-rule="evenodd" d="M55.0129 44.73C55.9374 45.1282 56.8313 45.7042 57.6855 46.4981C57.9911 46.7802 58.0098 47.2594 57.7277 47.565C57.4412 47.8678 56.9655 47.8857 56.66 47.6036C54.393 45.495 51.7849 45.2266 49.0423 45.7292C48.6335 45.8021 48.24 45.5309 48.1672 45.1221C48.0908 44.7141 48.362 44.3207 48.7699 44.2442C50.3056 43.9628 51.7982 43.9001 53.2302 44.1817C52.2611 41.5983 50.9227 39.7394 49.2169 38.5668C48.8741 38.3319 48.7851 37.859 49.02 37.5163C49.2584 37.1726 49.7286 37.0881 50.0714 37.323C52.226 38.8059 53.9041 41.2331 55.0129 44.73Z" fill="#2872C8"/>
    <path fill-rule="evenodd" clip-rule="evenodd" d="M67.5817 43.1251C68.8584 42.6464 70.2571 42.6515 71.7351 42.9571C72.1015 43.0316 72.3364 43.3951 72.2618 43.7615C72.184 44.1288 71.8238 44.3628 71.4573 44.2882C69.3202 43.8422 67.3706 44.1532 65.8396 46.1243C65.611 46.4205 65.1846 46.4736 64.8884 46.2449C64.5913 46.0131 64.5383 45.5867 64.767 45.2904C65.253 44.6634 65.7754 44.1669 66.3269 43.7859C65.8071 40.9141 64.7427 38.9773 63.2739 37.6946C62.9928 37.4451 62.9631 37.0162 63.2118 36.732C63.4581 36.4517 63.8869 36.422 64.1712 36.6707C65.7588 38.0597 66.967 40.1069 67.5817 43.1251Z" fill="#2872C8"/>
    <path fill-rule="evenodd" clip-rule="evenodd" d="M27.2519 67.8985C22.4058 50.3803 18.897 38.5051 11.0794 10.9784L41.4624 45.5837C54.8115 66.5004 33.1998 78.2513 27.2519 67.8985Z" fill="url(#paint2_radial_7_6670)"/>
    <path fill-rule="evenodd" clip-rule="evenodd" d="M85.5502 43.1556L84.5169 44.4361C84.6679 44.535 84.8172 44.6378 84.9619 44.7456C85.1818 44.9062 85.3866 45.0788 85.5756 45.2608C85.8676 45.5436 86.1112 45.8186 86.3264 46.1044C86.4491 46.266 86.5465 46.3949 86.6326 46.554C86.9913 47.2112 87.2079 47.6036 87.1817 47.9644C87.2709 48.2003 87.1534 48.4656 86.9146 48.5558C86.6787 48.645 86.4123 48.5247 86.3232 48.2887C86.2644 48.2362 86.1752 48.2926 86.0695 48.2448C85.8647 48.15 85.6396 48.1474 85.3295 48.0404C85.0223 47.9323 84.708 47.8398 84.3509 47.6856C84.1376 47.594 83.9279 47.4946 83.7181 47.3692C83.3761 47.1606 83.0405 46.917 82.7169 46.6624L78.5046 51.876C78.0828 55.5405 79.3728 57.8112 82.0474 58.9577L117.306 53.4338C111.271 53.8231 96.856 31.6271 100.551 24.5884L87.9278 40.2141C87.8567 40.3612 87.7426 40.6869 87.7426 40.6869L87.3457 42.1817L86.9408 44.3943C86.9805 44.6457 86.8071 44.8833 86.5586 44.922C86.3072 44.9617 86.0724 44.7873 86.0337 44.5388C86.0337 44.5388 85.792 43.9934 85.5502 43.1556Z" fill="url(#paint3_linear_7_6670)"/>
    <path d="M118.244 53.1642C120.879 51.6165 119.184 43.8431 114.459 35.8017C109.734 27.7604 103.769 22.4962 101.135 24.0438C98.5006 25.5915 100.195 33.365 104.92 41.4064C109.645 49.4478 115.61 54.7119 118.244 53.1642Z" fill="url(#paint4_linear_7_6670)"/>
    <path fill-rule="evenodd" clip-rule="evenodd" d="M11.8132 11.4947C11.962 11.4193 12.1426 11.4798 12.2179 11.6286C12.2902 11.7784 12.2298 11.9589 12.0809 12.0342C12.0809 12.0342 10.5762 12.9183 8.51741 13.1918C7.33856 13.3478 5.99611 13.2828 4.65357 12.7748C3.69552 12.4103 2.7422 11.8128 1.87298 10.8854C1.56404 10.5569 1.25397 10.1922 0.998637 9.75797C0.843018 9.49814 0.706976 9.21581 0.593487 8.91001C0.524245 8.71631 0.461977 8.52379 0.411118 8.31453C0.376921 8.15969 0.34043 8.01879 0.320422 7.85629C0.268371 7.49201 0.251285 7.16658 0.239021 6.77027C0.180888 6.61284 0.261111 6.44279 0.418542 6.38466C0.572949 6.32745 0.746921 6.4097 0.804129 6.56411C1.12362 6.99196 1.43703 7.30272 1.74103 7.66919C1.8624 7.81718 1.97607 7.95094 2.08651 8.09566C2.25311 8.31575 2.41814 8.51983 2.56802 8.72852C2.80792 9.05841 3.02411 9.37572 3.25827 9.65447C3.89946 10.4202 4.57482 10.9738 5.28882 11.3404C8.37293 12.9252 11.8132 11.4947 11.8132 11.4947Z" fill="#2872C8"/>
    <path fill-rule="evenodd" clip-rule="evenodd" d="M10.5005 11.4928C10.699 11.4717 10.8755 11.6161 10.8966 11.8146C10.9168 12.0101 10.7754 12.1856 10.5769 12.2067C10.5769 12.2067 7.07848 12.8748 3.85329 9.33951C3.22617 8.65209 2.61718 7.79711 2.07329 6.73373C1.88065 6.35299 1.68153 5.9511 1.54545 5.50676C1.46028 5.22866 1.39626 4.94407 1.35575 4.63907C1.32766 4.43938 1.3102 4.25292 1.30839 4.04188C1.30448 3.83478 1.305 3.65283 1.32527 3.43833C1.35219 3.11598 1.39735 2.86405 1.44963 2.52733C1.40735 2.33529 1.52612 2.1402 1.71816 2.09791C1.9123 2.05168 2.10438 2.17139 2.15061 2.36552C2.42272 2.76821 2.67079 3.04938 2.92458 3.42462C3.04613 3.60561 3.14818 3.76608 3.2537 3.94868C3.35526 4.12918 3.45015 4.29853 3.53778 4.47669C3.61102 4.62949 3.67636 4.77811 3.73869 4.92765C3.88858 5.29834 4.02083 5.65454 4.16567 5.9871C4.75376 7.36757 5.39921 8.40644 6.10222 9.17972C8.20453 11.4884 10.5005 11.4928 10.5005 11.4928Z" fill="#2872C8"/>
    <path fill-rule="evenodd" clip-rule="evenodd" d="M11.3847 10.9995C11.5839 10.9914 11.7511 11.1485 11.7583 11.3447C11.7664 11.5439 11.6123 11.7101 11.4131 11.7182C11.4131 11.7182 8.93739 12.1094 6.26214 7.68161C5.84792 6.99843 5.43365 6.19622 5.05419 5.23789C4.9196 4.89557 4.77345 4.537 4.68007 4.1457C4.62112 3.89924 4.58725 3.64844 4.56785 3.37996C4.5532 3.2026 4.54619 3.03941 4.55968 2.85673C4.59331 2.38355 4.67935 2.01661 4.76578 1.51073C4.72047 1.31961 4.84229 1.12367 5.03434 1.08138C5.22847 1.03515 5.42055 1.15486 5.46678 1.34899C5.66262 1.59981 5.81557 1.76457 5.99654 2.01002C6.11069 2.16682 6.20256 2.29404 6.30067 2.45246C6.44191 2.68693 6.56367 2.90097 6.67493 3.13471C6.74817 3.28751 6.81533 3.44212 6.86649 3.59838C7.14365 4.4062 7.32933 5.15279 7.5602 5.80947C8.03212 7.15609 8.4833 8.16518 8.96996 8.91214C10.2351 10.8623 11.3847 10.9995 11.3847 10.9995Z" fill="#2872C8"/>
    <path fill-rule="evenodd" clip-rule="evenodd" d="M15.2943 9.25046C15.2883 9.23074 15.2726 9.20102 15.2623 9.19985C15.1427 9.1869 15.2556 9.42624 15.2459 9.53491C15.2192 9.92271 15.2112 10.3608 14.6453 10.7801C14.2081 11.1016 13.3291 11.5132 11.328 11.9858C11.1449 12.057 10.9357 11.9679 10.8626 11.7832C10.7895 11.5986 10.8778 11.3903 11.0634 11.3162C12.5133 10.4797 13.1584 9.97363 13.4608 9.61141C13.4856 9.5844 13.5212 9.53895 13.4971 9.52479C13.4457 9.49738 13.4137 9.63016 13.4137 9.63016C13.4137 9.63016 13.3889 9.59244 13.3822 9.57075C13.3599 9.47622 13.3436 9.37986 13.3291 9.2786C13.3007 9.09963 13.3268 8.91475 13.3649 8.70463C13.4297 8.33321 13.6565 7.86475 14.3525 7.24394C14.529 7.08634 14.7389 6.89695 15.0254 6.74232C15.1705 6.66553 15.3302 6.59291 15.5212 6.54735C15.7467 6.49555 15.9353 6.46365 16.2043 6.46754C16.4866 6.47167 16.6299 6.50765 16.9472 6.55066C17.1244 6.45974 17.3414 6.5313 17.4314 6.70649C17.519 6.88457 17.4494 7.1 17.2723 7.19092C17.0896 7.51216 17.0473 7.68689 16.8689 7.94643C16.7062 8.18175 16.5785 8.35889 16.4044 8.51359C16.1958 8.69611 15.98 8.80103 15.8161 8.91377C15.6305 9.04179 15.4787 9.11848 15.3784 9.21177C15.3578 9.23101 15.3149 9.24201 15.2943 9.25046ZM15.2943 9.25046C15.2979 9.26229 15.2974 9.2711 15.2889 9.26506C15.2805 9.25903 15.2859 9.25521 15.2943 9.25046Z" fill="#2872C8"/>
    <path fill-rule="evenodd" clip-rule="evenodd" d="M82.2511 46.2719C82.3619 46.3502 82.4681 46.4336 82.5743 46.5169C82.8422 46.7275 83.0908 46.9552 83.2977 47.2019C83.5852 47.5416 83.7982 47.8477 83.9616 48.1856C84.2433 48.7678 84.3687 49.1168 84.4005 49.4848C84.5358 49.6968 84.471 49.9812 84.259 50.1165C84.0442 50.2529 83.761 50.191 83.6246 49.9761C83.5334 49.9326 83.4602 49.9537 83.3391 49.9085C83.1245 49.8304 82.9309 49.8256 82.6479 49.7214C82.371 49.6246 82.1072 49.5456 81.7928 49.4012C81.6115 49.317 81.436 49.2307 81.2633 49.1173C80.9494 48.9142 80.6522 48.6692 80.3589 48.4259C79.5256 47.7337 78.7708 47.0085 78.3064 46.4758C77.9419 46.0612 77.7013 45.7169 77.6338 45.4695C77.486 44.9406 77.5284 44.5282 77.7863 44.2391C77.9853 44.0177 78.3382 43.6278 79.0762 43.7323C79.7493 43.8288 81.2655 44.3768 84.1055 45.789C84.3454 45.8738 84.4701 46.1352 84.3854 46.3752C84.2995 46.6123 84.0352 46.7381 83.7981 46.6522C83.2508 46.5277 82.733 46.3952 82.2511 46.2719Z" fill="#2872C8"/>
    <path fill-rule="evenodd" clip-rule="evenodd" d="M82.7168 46.6624C82.56 46.5397 82.4061 46.416 82.2589 46.2929C81.2121 45.4312 80.3957 44.5084 80.1506 43.7824C79.9199 43.1029 79.9181 42.4961 80.306 41.9922C80.53 41.6996 80.8508 41.3706 81.4216 41.1874C82.3456 40.8903 84.1034 40.7882 87.1547 41.1687L86.2607 42.2764C84.3963 42.4577 83.2158 42.7121 82.5162 43.0186C82.5597 43.0477 82.6031 43.0768 82.6342 43.1073C82.8648 43.3222 83.1662 43.5267 83.4869 43.7564C83.8075 43.9861 84.1652 44.2018 84.5168 44.436C84.6679 44.5349 84.8172 44.6377 84.9618 44.7455C85.1817 44.9061 85.3865 45.0788 85.5755 45.2608C85.8675 45.5435 86.1111 45.8186 86.3263 46.1044C86.449 46.2659 86.5464 46.3948 86.6326 46.554C86.9913 47.2111 87.2078 47.6036 87.1816 47.9643C87.2708 48.2003 87.1533 48.4655 86.9145 48.5557C86.6786 48.6449 86.4122 48.5246 86.3231 48.2887C86.2643 48.2362 86.1751 48.2925 86.0694 48.2448C85.8646 48.1499 85.6395 48.1473 85.3294 48.0403C85.0222 47.9322 84.708 47.8398 84.3508 47.6856C84.1376 47.594 83.9278 47.4946 83.718 47.3692C83.376 47.1605 83.0404 46.917 82.7168 46.6624Z" fill="#2872C8"/>
    <path fill-rule="evenodd" clip-rule="evenodd" d="M87.3461 42.1817C87.0927 43.4112 86.9411 44.3944 86.9411 44.3944C86.9809 44.6457 86.8075 44.8834 86.559 44.922C86.3076 44.9618 86.0727 44.7874 86.0341 44.5388C86.0341 44.5388 85.7923 43.9934 85.5506 43.1557C85.5179 43.0348 85.482 42.9055 85.4479 42.7722C85.347 42.3848 85.2798 41.9748 85.2325 41.5314C85.1671 40.9714 85.1871 40.4051 85.2551 39.8628C85.3451 39.1466 85.6064 38.5054 85.9566 37.9963C86.6587 36.9742 87.8107 36.3863 89.4927 36.8228C89.7735 36.8954 90.0739 37.0028 90.4001 37.1525L88.4481 39.5694C88.3681 39.5899 88.3024 39.6309 88.2474 39.7004C88.1254 39.8505 88.0205 40.0201 87.9282 40.2142C87.8571 40.3612 87.7959 40.5175 87.7429 40.687C87.6865 40.8642 87.6339 41.0432 87.5825 41.2251C87.494 41.5412 87.4133 41.8608 87.3468 42.175L87.3461 42.1817Z" fill="#2872C8"/>
    <path d="M118.407 45.8748C120.099 44.8809 119.01 39.8885 115.976 34.7242C112.942 29.5598 109.11 26.1789 107.419 27.1729C105.727 28.1669 106.815 33.1592 109.85 38.3236C112.884 43.488 116.715 46.8688 118.407 45.8748Z" stroke="#FFF386" stroke-width="0.633347" stroke-miterlimit="24"/>
    <defs>
        <radialGradient id="paint0_radial_7_6670" cx="0" cy="0" r="1" gradientUnits="userSpaceOnUse" gradientTransform="translate(84 66.0002) rotate(7.71189) scale(48.4381 36.9836)">
            <stop offset="0.221759" stop-color="#EFFFF7"/>
            <stop offset="0.335" stop-color="#B8FFE4"/>
            <stop offset="0.435" stop-color="#6FE8EC"/>
            <stop offset="0.687512" stop-color="#4991E5"/>
            <stop offset="0.868169" stop-color="#2577D7"/>
        </radialGradient>
        <radialGradient id="paint1_radial_7_6670" cx="0" cy="0" r="1" gradientUnits="userSpaceOnUse" gradientTransform="translate(56.7134 63.646) rotate(-4.90906) scale(88.5613 97.7098)">
            <stop offset="0.221759" stop-color="#EFFFF7"/>
            <stop offset="0.335" stop-color="#B8FFE4"/>
            <stop offset="0.435" stop-color="#6FE8EC"/>
            <stop offset="0.686918" stop-color="#4991E5"/>
        </radialGradient>
        <radialGradient id="paint2_radial_7_6670" cx="0" cy="0" r="1" gradientUnits="userSpaceOnUse" gradientTransform="translate(57.054 62.9378) rotate(-169.224) scale(59.5719 57.4346)">
            <stop offset="0.355001" stop-color="#EFFFF7"/>
            <stop offset="0.522603" stop-color="#B8FFE4"/>
            <stop offset="0.660515" stop-color="#6FE8EC"/>
            <stop offset="0.884897" stop-color="#4991E5"/>
            <stop offset="1" stop-color="#2872C8"/>
        </radialGradient>
        <linearGradient id="paint3_linear_7_6670" x1="79.9495" y1="51.6526" x2="115.378" y2="34.8517" gradientUnits="userSpaceOnUse">
            <stop stop-color="#04FFE3"/>
            <stop offset="1" stop-color="#009CBA"/>
        </linearGradient>
        <linearGradient id="paint4_linear_7_6670" x1="110.759" y1="36.1178" x2="113.941" y2="52.1247" gradientUnits="userSpaceOnUse">
            <stop stop-color="#007575"/>
            <stop offset="1" stop-color="#02D0D0"/>
        </linearGradient>
    </defs>
</svg>
