<svg width="124" height="124" viewBox="0 0 124 124" fill="none" xmlns="http://www.w3.org/2000/svg">
<g clip-path="url(#clip0_3170_296276)">
<rect width="124" height="124" fill="url(#paint0_linear_3170_296276)"/>
<path fill-rule="evenodd" clip-rule="evenodd" d="M73.5541 60.2608L90.7767 72.886C86.3642 68.2666 82.4911 62.5229 78.9494 56.0876C95.5805 66.1178 106.686 73.3006 105.25 74.0297C94.987 79.5511 83.7531 83.1785 71.9171 85.6341" fill="url(#paint1_radial_3170_296276)"/>
<path fill-rule="evenodd" clip-rule="evenodd" d="M38.8002 28.4574C43.8608 29.6187 49.6724 35.057 53.3877 44.3841L54.6526 34.8599C57.3488 39.0342 58.8049 42.0848 59.7379 44.6619L69.0411 36.2268L72.2676 52.4187L81.1764 57.7389L79.718 70.8189L85.7812 75.9971L78.6484 82.3331L83.2051 89.6028L74.8054 88.4213L75.4896 98.5443L68.2735 94.438L68.0671 108.772L55.193 96.6675L41.7169 112.907L39.654 94.8227L24.9083 101.653L29.9816 86.0177L11.5688 83.5662L23.9973 68.3381L10.1487 59.5091L28.0895 57.013L25.0573 46.8505L38.3455 48.1778L38.8002 28.4574Z" fill="url(#paint2_radial_3170_296276)"/>
<path fill-rule="evenodd" clip-rule="evenodd" d="M59.9529 60.8786C58.383 63.4266 57.682 66.2382 56.9117 69.364C57.3567 69.4167 60.972 69.251 61.3968 69.2802L59.9529 60.8786Z" fill="url(#paint3_radial_3170_296276)"/>
<path fill-rule="evenodd" clip-rule="evenodd" d="M54.154 55.9299C54.795 56.2059 55.4147 56.6053 56.007 57.1558C56.2189 57.3513 56.2319 57.6836 56.0363 57.8954C55.8376 58.1054 55.5078 58.1178 55.296 57.9222C53.7242 56.4603 51.9159 56.2741 50.0144 56.6227C49.731 56.6732 49.4582 56.4851 49.4077 56.2017C49.3547 55.9189 49.5427 55.646 49.8255 55.5931C50.8903 55.3979 51.9252 55.3545 52.918 55.5497C52.2461 53.7586 51.3182 52.4697 50.1354 51.6567C49.8978 51.4938 49.8361 51.166 49.9989 50.9283C50.1642 50.6901 50.4902 50.6315 50.7279 50.7943C52.2217 51.8225 53.3853 53.5053 54.154 55.9299Z" fill="url(#paint4_linear_3170_296276)"/>
<path fill-rule="evenodd" clip-rule="evenodd" d="M62.8666 54.8169C63.7518 54.4849 64.7216 54.4885 65.7463 54.7004C66.0004 54.7521 66.1632 55.004 66.1115 55.2581C66.0576 55.5128 65.8078 55.675 65.5537 55.6233C64.072 55.314 62.7202 55.5297 61.6588 56.8963C61.5003 57.1017 61.2046 57.1385 60.9992 56.9799C60.7933 56.8192 60.7566 56.5236 60.9151 56.3182C61.2521 55.8834 61.6143 55.5392 61.9966 55.275C61.6363 53.2839 60.8982 51.9411 59.8799 51.0517C59.685 50.8787 59.6644 50.5814 59.8368 50.3843C60.0076 50.19 60.3049 50.1694 60.502 50.3418C61.6028 51.3049 62.4404 52.7242 62.8666 54.8169Z" fill="url(#paint5_radial_3170_296276)"/>
<path fill-rule="evenodd" clip-rule="evenodd" d="M29.281 71.1819C25.3531 57.9768 21.4335 44.3895 17.7368 21.449L41.3424 52.8565C51.5623 71.5543 33.8073 80.3989 29.281 71.1819Z" fill="url(#paint6_radial_3170_296276)"/>
<path fill-rule="evenodd" clip-rule="evenodd" d="M79.8957 49.2463L79.0315 50.3172C79.1579 50.3999 79.2827 50.4859 79.4037 50.576C79.5876 50.7103 79.7589 50.8547 79.9169 51.0069C80.1611 51.2434 80.3649 51.4734 80.5448 51.7125C80.6475 51.8476 80.729 51.9554 80.801 52.0885C81.101 52.638 81.2821 52.9663 81.2602 53.268C81.3347 53.4653 81.2365 53.6872 81.0368 53.7626C80.8395 53.8372 80.6167 53.7366 80.5422 53.5392C80.493 53.4953 80.4184 53.5425 80.33 53.5025C80.1588 53.4232 79.9705 53.421 79.7111 53.3315C79.4542 53.2411 79.1914 53.1638 78.8927 53.0349C78.7144 52.9583 78.5389 52.8751 78.3635 52.7702C78.0775 52.5957 77.7968 52.3921 77.5262 52.1791L74.0033 56.5394C73.6506 59.6041 74.7294 61.5031 76.9663 62.4619L106.454 57.8421C101.406 58.1677 89.351 39.6048 92.4412 33.7182L81.8842 46.7863C81.8247 46.9093 81.7292 47.1817 81.7292 47.1817L81.3974 48.4318L81.0587 50.2822C81.0919 50.4925 80.9469 50.6912 80.7391 50.7235C80.5289 50.7568 80.3324 50.6109 80.3001 50.4031C80.3001 50.4031 80.0979 49.9469 79.8957 49.2463Z" fill="url(#paint7_linear_3170_296276)"/>
<path d="M107.237 57.6167C109.44 56.3224 108.023 49.8213 104.071 43.0961C100.12 36.371 95.1308 31.9684 92.9278 33.2628C90.7248 34.5572 92.1422 41.0583 96.0936 47.7834C100.045 54.5086 105.034 58.9111 107.237 57.6167Z" fill="url(#paint8_linear_3170_296276)"/>
<path fill-rule="evenodd" clip-rule="evenodd" d="M18.3029 21.893C18.4254 21.8385 18.568 21.8943 18.6225 22.0169C18.6745 22.1401 18.6187 22.2825 18.4961 22.337C18.4961 22.337 17.2523 22.9863 15.5883 23.1229C14.6355 23.2007 13.5603 23.0944 12.5028 22.6324C11.7482 22.3011 11.0069 21.783 10.3463 21.0034C10.1115 20.7271 9.87726 20.4219 9.68974 20.0629C9.57526 19.848 9.47741 19.6159 9.39861 19.3658C9.35081 19.2074 9.30858 19.0504 9.27617 18.8803C9.25495 18.7546 9.23133 18.64 9.22181 18.5087C9.19469 18.2141 9.19409 17.9521 9.20021 17.6334C9.15987 17.5047 9.23114 17.3714 9.35988 17.3311C9.48616 17.2914 9.62253 17.3644 9.66225 17.4907C9.90153 17.8471 10.1407 18.1092 10.37 18.4157C10.4615 18.5394 10.5473 18.6514 10.6302 18.7721C10.7551 18.9555 10.8794 19.126 10.9913 19.2996C11.1706 19.5741 11.3314 19.8376 11.5082 20.0709C11.9922 20.7115 12.5121 21.1832 13.0706 21.5063C15.4831 22.903 18.3029 21.893 18.3029 21.893Z" fill="url(#paint9_linear_3170_296276)"/>
<path fill-rule="evenodd" clip-rule="evenodd" d="M17.2495 21.839C17.4097 21.83 17.5456 21.953 17.5545 22.1133C17.5629 22.2711 17.4423 22.4063 17.282 22.4152C17.282 22.4152 14.4462 22.8107 11.9991 19.8422C11.5233 19.265 11.0687 18.554 10.6749 17.6783C10.5355 17.3649 10.3919 17.0341 10.3005 16.6719C10.2433 16.4452 10.2034 16.2141 10.1831 15.9676C10.1686 15.8061 10.1621 15.6557 10.1692 15.4862C10.1744 15.3197 10.1821 15.1737 10.207 15.0023C10.2416 14.7445 10.2881 14.5441 10.3436 14.2758C10.3174 14.1199 10.4206 13.9681 10.5765 13.9418C10.7343 13.9126 10.8836 14.0164 10.9129 14.1741C11.1152 14.5084 11.3031 14.7442 11.4917 15.0557C11.582 15.2059 11.6575 15.3389 11.7348 15.4897C11.8091 15.6387 11.8785 15.7785 11.9417 15.9251C11.9943 16.0507 12.0408 16.1727 12.0848 16.2953C12.1902 16.599 12.2821 16.8903 12.385 17.1631C12.8015 18.2952 13.2779 19.1553 13.8112 19.8046C15.4062 21.7429 17.2495 21.839 17.2495 21.839Z" fill="url(#paint10_linear_3170_296276)"/>
<path fill-rule="evenodd" clip-rule="evenodd" d="M17.9809 21.4786C18.1411 21.4801 18.269 21.613 18.2669 21.7708C18.2654 21.9311 18.1349 22.0583 17.9746 22.0568C17.9746 22.0568 15.9711 22.2711 14.0015 18.6082C13.6965 18.043 13.3962 17.3822 13.1301 16.5974C13.0358 16.3172 12.9329 16.0234 12.8737 15.7054C12.8363 15.5052 12.8192 15.3024 12.8145 15.0861C12.8098 14.9431 12.8108 14.8118 12.829 14.6657C12.875 14.2871 12.9589 13.9959 13.0487 13.5932C13.02 13.438 13.1257 13.2855 13.2816 13.2593C13.4394 13.23 13.5888 13.3339 13.618 13.4916C13.7652 13.7009 13.8814 13.8393 14.0168 14.0437C14.1021 14.1742 14.1707 14.2801 14.2431 14.4112C14.3471 14.6052 14.4362 14.7819 14.5161 14.9741C14.5688 15.0997 14.6165 15.2266 14.6513 15.3541C14.8413 16.0138 14.9603 16.6208 15.1192 17.1573C15.4438 18.2576 15.7654 19.086 16.1261 19.7053C17.0633 21.322 17.9809 21.4786 17.9809 21.4786Z" fill="url(#paint11_linear_3170_296276)"/>
<path fill-rule="evenodd" clip-rule="evenodd" d="M21.1886 20.2313C21.1845 20.2152 21.1732 20.1907 21.165 20.1894C21.0694 20.1741 21.1504 20.3709 21.1383 20.4577C21.1012 20.768 21.0771 21.1195 20.6058 21.4333C20.2419 21.6738 19.5195 21.9689 17.8938 22.2677C17.7439 22.3175 17.5795 22.2376 17.5283 22.0863C17.477 21.9351 17.5563 21.7715 17.7083 21.7195C18.9061 21.1062 19.4445 20.7259 19.7019 20.4472C19.7229 20.4265 19.7534 20.3915 19.7345 20.3791C19.6944 20.3551 19.6633 20.4604 19.6633 20.4604C19.6633 20.4604 19.6449 20.4291 19.6405 20.4114C19.6263 20.3346 19.6171 20.2566 19.6096 20.1747C19.594 20.0299 19.6224 19.8825 19.6615 19.7153C19.7285 19.4197 19.9294 19.0527 20.5132 18.5823C20.6613 18.4629 20.8374 18.3193 21.0738 18.2066C21.1934 18.1508 21.3245 18.099 21.4797 18.0701C21.6628 18.0376 21.8155 18.0195 22.0314 18.0335C22.2579 18.0482 22.3714 18.0829 22.6245 18.1302C22.7704 18.0643 22.9418 18.1305 23.007 18.2748C23.0701 18.4213 23.0056 18.5915 22.8597 18.6573C22.7001 18.9079 22.6591 19.0465 22.5054 19.2477C22.3653 19.4301 22.2556 19.5672 22.1096 19.6844C21.9347 19.8225 21.7572 19.8981 21.6211 19.982C21.4669 20.0773 21.342 20.1327 21.2576 20.2036C21.2404 20.2182 21.2054 20.2253 21.1886 20.2313ZM21.1886 20.2313C21.191 20.2409 21.1902 20.248 21.1837 20.2428C21.1771 20.2376 21.1816 20.2348 21.1886 20.2313Z" fill="url(#paint12_linear_3170_296276)"/>
<path fill-rule="evenodd" clip-rule="evenodd" d="M77.1367 51.8528C77.2293 51.9183 77.3181 51.988 77.407 52.0577C77.6311 52.2339 77.8389 52.4243 78.012 52.6306C78.2524 52.9147 78.4306 53.1707 78.5672 53.4532C78.8028 53.9402 78.9077 54.2321 78.9343 54.5399C79.0475 54.7172 78.9933 54.955 78.816 55.0682C78.6363 55.1822 78.3994 55.1304 78.2853 54.9507C78.2091 54.9143 78.1479 54.932 78.0466 54.8942C77.8671 54.8289 77.7052 54.8249 77.4686 54.7377C77.2369 54.6568 77.0163 54.5907 76.7534 54.4699C76.6018 54.3995 76.455 54.3273 76.3105 54.2325C76.0481 54.0627 75.7995 53.8577 75.5542 53.6543C74.8573 53.0753 74.2261 52.4688 73.8377 52.0233C73.5328 51.6766 73.3316 51.3886 73.2752 51.1817C73.1515 50.7394 73.187 50.3945 73.4027 50.1528C73.5691 49.9676 73.8643 49.6415 74.4814 49.7289C75.0444 49.8096 76.3124 50.2679 78.6875 51.449C78.8882 51.5199 78.9925 51.7385 78.9216 51.9392C78.8498 52.1375 78.6288 52.2427 78.4305 52.1709C77.9728 52.0667 77.5397 51.9559 77.1367 51.8528Z" fill="url(#paint13_linear_3170_296276)"/>
<path fill-rule="evenodd" clip-rule="evenodd" d="M77.5257 52.1793C77.3946 52.0767 77.2658 51.9732 77.1427 51.8703C76.2673 51.1496 75.5845 50.3779 75.3796 49.7707C75.1866 49.2024 75.1851 48.6949 75.5095 48.2735C75.6969 48.0288 75.9651 47.7536 76.4425 47.6005C77.2153 47.352 78.6854 47.2665 81.2372 47.5848L80.4896 48.5112C78.9303 48.6629 77.943 48.8755 77.3579 49.1319C77.3943 49.1562 77.4307 49.1805 77.4566 49.2061C77.6495 49.3859 77.9015 49.5569 78.1697 49.749C78.4379 49.9411 78.737 50.1214 79.0311 50.3173C79.1574 50.4 79.2823 50.486 79.4033 50.5762C79.5871 50.7105 79.7585 50.8549 79.9165 51.0071C80.1607 51.2436 80.3644 51.4736 80.5444 51.7126C80.647 51.8477 80.7285 51.9555 80.8005 52.0886C81.1005 52.6382 81.2816 52.9664 81.2597 53.2681C81.3343 53.4654 81.2361 53.6873 81.0364 53.7627C80.839 53.8373 80.6163 53.7367 80.5417 53.5394C80.4925 53.4955 80.418 53.5426 80.3295 53.5027C80.1583 53.4234 79.97 53.4211 79.7107 53.3317C79.4538 53.2413 79.1909 53.164 78.8923 53.035C78.7139 52.9584 78.5385 52.8753 78.363 52.7704C78.077 52.5959 77.7963 52.3922 77.5257 52.1793Z" fill="url(#paint14_linear_3170_296276)"/>
<path fill-rule="evenodd" clip-rule="evenodd" d="M81.3978 48.4317C81.1858 49.4599 81.0591 50.2821 81.0591 50.2821C81.0923 50.4923 80.9473 50.6911 80.7395 50.7234C80.5293 50.7567 80.3328 50.6108 80.3005 50.403C80.3005 50.403 80.0983 49.9468 79.8961 49.2462C79.8688 49.1451 79.8388 49.037 79.8102 48.9255C79.7259 48.6015 79.6697 48.2586 79.6301 47.8878C79.5754 47.4194 79.5921 46.9458 79.649 46.4923C79.7243 45.8934 79.9428 45.3571 80.2357 44.9313C80.8228 44.0765 81.7863 43.5848 83.193 43.9499C83.4278 44.0106 83.6791 44.1004 83.9519 44.2256L82.3193 46.2469C82.2525 46.2641 82.1975 46.2984 82.1515 46.3565C82.0495 46.482 81.9618 46.6238 81.8846 46.7861C81.8251 46.9091 81.7739 47.0399 81.7296 47.1816C81.6824 47.3298 81.6385 47.4795 81.5954 47.6316C81.5214 47.896 81.4539 48.1632 81.3983 48.426L81.3978 48.4317Z" fill="url(#paint15_linear_3170_296276)"/>
<path d="M107.373 51.5203C108.787 50.689 107.877 46.5138 105.339 42.1947C102.802 37.8757 99.5977 35.0482 98.1828 35.8795C96.768 36.7108 97.6783 40.886 100.216 45.2051C102.754 49.5241 105.958 52.3515 107.373 51.5203Z" stroke="#FFF386" stroke-width="0.768891" stroke-miterlimit="24"/>
<g style="mix-blend-mode:overlay">
<path d="M96.6606 48.2654L130.363 32.5118L130.263 32.2987L96.561 48.0523L96.6606 48.2654Z" fill="#FBF3FF"/>
<path d="M102.621 41.1689L102.564 41.1969C102.441 40.9337 102.127 40.8187 101.861 40.9412L101.833 40.8838C102.097 40.7611 102.212 40.4471 102.089 40.1812L102.146 40.1532C102.269 40.4164 102.583 40.5314 102.849 40.4089L102.877 40.4663C102.614 40.589 102.499 40.903 102.621 41.1689Z" fill="#FBF3FF"/>
<path d="M114.68 36.8451L115.586 37.4782L114.585 37.9488L114.68 36.8451Z" fill="#FBF3FF"/>
<path d="M120.966 38.7949L121.776 39.0133L121.182 39.6043L120.966 38.7949Z" fill="#FBF3FF"/>
<path d="M92.1396 45.7608L92.6341 46.1056L92.0874 46.363L92.1396 45.7608Z" fill="#FBF3FF"/>
<path d="M99.3995 47.0152L100.207 47.2333L99.615 47.8245L99.3995 47.0152Z" fill="#FBF3FF"/>
<path d="M127.668 39.1344L121.128 41.7062L122.074 44.1117L128.614 41.5399L127.668 39.1344Z" fill="#FBF3FF"/>
<path d="M105.286 39.7506L104.396 40.1664L104.812 41.056L105.702 40.6401L105.286 39.7506Z" fill="#FBF3FF"/>
<path d="M121.041 32.3348C120.748 32.4717 120.622 32.8201 120.758 33.1129C120.895 33.4058 121.244 33.5322 121.537 33.3953C121.829 33.2584 121.956 32.91 121.819 32.6172C121.682 32.3243 121.334 32.1979 121.041 32.3348Z" fill="#FBF3FF"/>
<path d="M109.205 37.2121C108.709 37.4443 108.494 38.0352 108.726 38.532C108.959 39.0288 109.55 39.2432 110.046 39.011C110.543 38.7788 110.758 38.1879 110.525 37.6911C110.293 37.1943 109.702 36.9799 109.205 37.2121Z" fill="#FBF3FF"/>
<path d="M108.944 42.6921C108.203 43.0388 107.882 43.9212 108.229 44.6629C108.576 45.4046 109.458 45.7249 110.2 45.3781C110.942 45.0314 111.262 44.1491 110.915 43.4073C110.568 42.6656 109.686 42.3454 108.944 42.6921Z" fill="#FBF3FF"/>
<path d="M100.287 42.2934C100.13 42.3669 100.062 42.5542 100.135 42.7115C100.209 42.8689 100.396 42.9369 100.553 42.8633C100.711 42.7897 100.779 42.6025 100.705 42.4451C100.632 42.2878 100.444 42.2198 100.287 42.2934Z" fill="#FBF3FF"/>
<path d="M117.118 36.0227C116.829 36.1577 116.704 36.5012 116.839 36.7899C116.974 37.0787 117.318 37.2033 117.607 37.0684C117.895 36.9334 118.02 36.5899 117.885 36.3011C117.75 36.0124 117.407 35.8877 117.118 36.0227Z" fill="#FBF3FF"/>
<path opacity="0.5" d="M122.493 36.3251C120.361 35.5503 118.226 36.0409 117.728 37.4199C117.227 38.7987 118.55 40.5441 120.682 41.3162C122.814 42.091 124.949 41.6004 125.45 40.2216C125.951 38.8428 124.628 37.0974 122.495 36.3253L122.493 36.3251Z" fill="#FBF3FF"/>
<path opacity="0.3" d="M108.581 40.6645C109.97 38.3193 109.2 35.293 106.86 33.9099C104.52 32.5241 101.498 33.3058 100.109 35.651C98.7194 37.9989 99.49 41.0225 101.83 42.4057C104.17 43.7915 107.192 43.0098 108.581 40.6645Z" fill="#FBF3FF"/>
<g style="mix-blend-mode:overlay">
<path fill-rule="evenodd" clip-rule="evenodd" d="M124.6 6.43519L119.301 5.98531C119.301 5.98531 111.992 14.292 113.33 15.5602C113.88 16.0806 115.255 16.7391 117.773 16.2983C120.79 15.7699 114.346 20.4784 112.738 22.4392L114.224 26.8007C114.586 26.471 127.609 14.5054 118.449 14.727C117.507 14.7504 120.961 10.4701 124.6 6.43519Z" fill="url(#paint16_linear_3170_296276)"/>
</g>
</g>
<path d="M106.104 29.3718C104.82 28.9065 103.537 29.2018 103.235 30.0295C102.933 30.8599 103.731 31.9092 105.014 32.3744C106.298 32.8396 107.583 32.5446 107.883 31.7167C108.185 30.8863 107.387 29.837 106.104 29.3718Z" fill="#FBF3FF"/>
<path opacity="0.75" d="M102.865 23.5531C104.294 23.0563 105.05 21.4964 104.553 20.0669C104.056 18.6374 102.496 17.8819 101.067 18.3787C99.6372 18.8754 98.8817 20.4354 99.3784 21.8648C99.8752 23.2943 101.435 24.0498 102.865 23.5531Z" fill="#FBF3FF"/>
<path opacity="0.3" d="M75.4426 20.6777L74.8139 19.4974C80.229 16.5917 82.2391 9.85751 79.3334 4.44243L80.5137 3.81388C83.4194 9.22896 90.1536 11.2391 95.5686 8.33341L96.1972 9.51358C90.7821 12.4193 88.772 19.1535 91.6777 24.5686L90.4975 25.1972C87.5918 19.7821 80.8576 17.7719 75.4426 20.6777Z" fill="white"/>
<g style="mix-blend-mode:overlay">
<path d="M132.805 48.0846L111.76 68.9541L140.356 76.7451L132.805 48.0846Z" fill="#A495FF"/>
</g>
</g>
<defs>
<linearGradient id="paint0_linear_3170_296276" x1="-39.193" y1="171.606" x2="124" y2="-3.89838e-06" gradientUnits="userSpaceOnUse">
<stop stop-color="#D59FFF"/>
<stop offset="0.49" stop-color="#D2D2FF"/>
<stop offset="1" stop-color="#F8FBFF"/>
</linearGradient>
<radialGradient id="paint1_radial_3170_296276" cx="0" cy="0" r="1" gradientUnits="userSpaceOnUse" gradientTransform="translate(55.461 71.8801) rotate(-29.925) scale(44.422 56.1467)">
<stop offset="0.258983" stop-color="#F3F6FF"/>
<stop offset="0.32171" stop-color="#D1DEFF"/>
<stop offset="0.398279" stop-color="#C3BCFF"/>
<stop offset="0.686918" stop-color="#BA61FF"/>
</radialGradient>
<radialGradient id="paint2_radial_3170_296276" cx="0" cy="0" r="1" gradientUnits="userSpaceOnUse" gradientTransform="translate(51.5372 69.0932) rotate(-26.9023) scale(66.0467 61.7104)">
<stop offset="0.235" stop-color="#F3F6FF"/>
<stop offset="0.356618" stop-color="#D1DEFF"/>
<stop offset="0.425" stop-color="#C3BCFF"/>
<stop offset="0.686918" stop-color="#B25FF2"/>
</radialGradient>
<radialGradient id="paint3_radial_3170_296276" cx="0" cy="0" r="1" gradientUnits="userSpaceOnUse" gradientTransform="translate(55.6016 70.7417) rotate(-36.1167) scale(13.2359 9.39034)">
<stop stop-color="#A663FF"/>
<stop offset="0.608148" stop-color="#8346E1"/>
<stop offset="1" stop-color="#B5A8FC"/>
</radialGradient>
<linearGradient id="paint4_linear_3170_296276" x1="56.4387" y1="58.5209" x2="51.7492" y2="51.3757" gradientUnits="userSpaceOnUse">
<stop stop-color="#8B76FF"/>
<stop offset="0.46" stop-color="#A269FA"/>
<stop offset="1" stop-color="#9D57FA"/>
</linearGradient>
<radialGradient id="paint5_radial_3170_296276" cx="0" cy="0" r="1" gradientUnits="userSpaceOnUse" gradientTransform="translate(61.5261 56.1641) rotate(14.9041) scale(6.57323 6.69798)">
<stop stop-color="#806AF8"/>
<stop offset="0.46" stop-color="#A269FA"/>
<stop offset="1" stop-color="#9D57FA"/>
</radialGradient>
<radialGradient id="paint6_radial_3170_296276" cx="0" cy="0" r="1" gradientUnits="userSpaceOnUse" gradientTransform="translate(52.8395 68.7067) rotate(-129.178) scale(68.941 246.247)">
<stop offset="0.184055" stop-color="#F3F6FF" stop-opacity="0"/>
<stop offset="0.32003" stop-color="#D1DEFF"/>
<stop offset="0.435" stop-color="#C3BCFF"/>
<stop offset="0.686918" stop-color="#BA61FF"/>
</radialGradient>
<linearGradient id="paint7_linear_3170_296276" x1="75.2117" y1="56.3525" x2="104.842" y2="42.3016" gradientUnits="userSpaceOnUse">
<stop stop-color="#B8FFD1"/>
<stop offset="0.23" stop-color="#04FFE3"/>
<stop offset="1" stop-color="#009CBA"/>
</linearGradient>
<linearGradient id="paint8_linear_3170_296276" x1="100.977" y1="43.3605" x2="103.638" y2="56.7474" gradientUnits="userSpaceOnUse">
<stop stop-color="#007575"/>
<stop offset="1" stop-color="#02D0D0"/>
</linearGradient>
<linearGradient id="paint9_linear_3170_296276" x1="10.5783" y1="13.2797" x2="15.9224" y2="23.6736" gradientUnits="userSpaceOnUse">
<stop stop-color="#7365EE"/>
<stop offset="0.878495" stop-color="#BA61FF"/>
</linearGradient>
<linearGradient id="paint10_linear_3170_296276" x1="10.2206" y1="8.93785" x2="19.5169" y2="20.4968" gradientUnits="userSpaceOnUse">
<stop stop-color="#7365EE"/>
<stop offset="0.878495" stop-color="#BA61FF"/>
</linearGradient>
<linearGradient id="paint11_linear_3170_296276" x1="12.284" y1="8.50686" x2="22.1999" y2="17.2712" gradientUnits="userSpaceOnUse">
<stop stop-color="#7365EE"/>
<stop offset="0.878495" stop-color="#BA61FF"/>
</linearGradient>
<linearGradient id="paint12_linear_3170_296276" x1="20.5481" y1="16.6293" x2="21.1322" y2="21.9081" gradientUnits="userSpaceOnUse">
<stop stop-color="#7365EE"/>
<stop offset="0.878495" stop-color="#BA61FF"/>
</linearGradient>
<linearGradient id="paint13_linear_3170_296276" x1="73.4968" y1="52.2424" x2="77.6306" y2="53.2227" gradientUnits="userSpaceOnUse">
<stop stop-color="#7365EE"/>
<stop offset="0.878495" stop-color="#A54AEA"/>
</linearGradient>
<linearGradient id="paint14_linear_3170_296276" x1="75.4478" y1="50.5242" x2="80.274" y2="51.9195" gradientUnits="userSpaceOnUse">
<stop stop-color="#7365EE"/>
<stop offset="0.878495" stop-color="#A54AEA"/>
</linearGradient>
<linearGradient id="paint15_linear_3170_296276" x1="78.833" y1="47.0531" x2="82.9662" y2="48.4385" gradientUnits="userSpaceOnUse">
<stop stop-color="#7365EE"/>
<stop offset="0.878495" stop-color="#A54AEA"/>
</linearGradient>
<linearGradient id="paint16_linear_3170_296276" x1="120.247" y1="5.96845" x2="114.794" y2="23.5692" gradientUnits="userSpaceOnUse">
<stop stop-color="#CACAFD" stop-opacity="0.5"/>
<stop offset="1" stop-color="#D9BDFF"/>
</linearGradient>
<clipPath id="clip0_3170_296276">
<rect width="124" height="124" fill="white"/>
</clipPath>
</defs>
</svg>
