<svg width="1600" height="900" viewBox="0 0 1600 900" fill="none" xmlns="http://www.w3.org/2000/svg">
<g clip-path="url(#clip0_1002_5001)">
<rect width="1600" height="900" fill="url(#paint0_linear_1002_5001)"/>
<g style="mix-blend-mode:lighten" opacity="0.34">
<path d="M314.99 599.433L315.825 589.875C359.762 593.574 398.191 560.928 401.89 516.991L411.448 517.826C407.748 561.763 440.395 600.192 484.332 603.891L483.497 613.449C439.56 609.749 401.131 642.395 397.432 686.333L387.874 685.499C391.574 641.561 358.928 603.133 314.99 599.433Z" fill="white"/>
</g>
<g style="mix-blend-mode:lighten" opacity="0.34">
<path d="M181.172 516.455L180.312 513.205C195.238 509.207 204.032 493.88 200.034 478.954L203.285 478.095C207.282 493.02 222.609 501.814 237.535 497.817L238.395 501.067C223.469 505.064 214.675 520.391 218.673 535.317L215.423 536.177C211.425 521.251 196.098 512.457 181.172 516.455Z" fill="white"/>
</g>
<g style="mix-blend-mode:lighten" opacity="0.19">
<path d="M332.678 91.9237L331.033 87.7902C350.006 80.1763 359.131 58.6514 351.517 39.6786L355.651 38.0348C363.264 57.0077 384.789 66.1322 403.762 58.5183L405.406 62.6516C386.433 70.2655 377.308 91.7903 384.922 110.763L380.789 112.407C373.175 93.4344 351.651 84.3099 332.678 91.9237Z" fill="#F0FFF1"/>
</g>
<g style="mix-blend-mode:lighten" opacity="0.19">
<path d="M414.789 3.18537L416.275 -4.37674C451.048 2.34254 484.536 -20.4375 491.255 -55.2105L498.817 -53.7246C492.097 -18.9516 514.877 14.5363 549.65 21.2556L548.165 28.8169C513.392 22.0976 479.904 44.8776 473.185 79.6506L465.623 78.1656C472.342 43.3925 449.562 9.90464 414.789 3.18537Z" fill="#F0FFF1"/>
</g>
<g style="mix-blend-mode:lighten" opacity="0.19">
<path d="M969.775 418.43L964.143 407.855C1012.66 381.821 1030.67 321.485 1004.64 272.968L1015.21 267.336C1041.24 315.854 1101.58 333.864 1150.1 307.83L1155.73 318.404C1107.21 344.438 1089.2 404.774 1115.24 453.291L1104.66 458.923C1078.63 410.406 1018.29 392.396 969.775 418.43Z" fill="#F0FFF1"/>
</g>
<g style="mix-blend-mode:lighten" opacity="0.19">
<path d="M873.662 516.775L875.838 509.843C907.727 519.747 941.472 501.875 951.376 469.986L958.308 472.163C948.403 504.052 966.276 537.797 998.164 547.701L995.988 554.633C964.099 544.728 930.354 562.601 920.45 594.489L913.518 592.313C923.423 560.425 905.55 526.68 873.662 516.775Z" fill="#F0FFF1"/>
</g>
<g style="mix-blend-mode:overlay" opacity="0.4">
<circle cx="239.344" cy="239.344" r="239.344" transform="matrix(-0.337922 0.941174 0.941174 0.337922 1331 -345)" fill="#D6FFDA"/>
</g>
<g style="mix-blend-mode:plus-darker" opacity="0.11">
<path d="M1151.4 721.592L753.87 836.506L1052.15 1123.32L1151.4 721.592Z" fill="#A3F5F1"/>
</g>
<g style="mix-blend-mode:plus-darker" opacity="0.15">
<path d="M1439.4 442.593L1041.87 557.506L1340.15 844.319L1439.4 442.593Z" fill="#ADFBB4"/>
</g>
<path opacity="0.3" d="M740.259 140.601L737.918 136.33C757.511 125.509 764.535 100.894 753.713 81.3006L757.984 78.9593C768.806 98.5528 793.42 105.577 813.014 94.755L815.355 99.0255C795.762 109.847 788.738 134.462 799.56 154.055L795.289 156.397C784.468 136.803 759.853 129.78 740.259 140.601Z" fill="white"/>
<path opacity="0.3" d="M639.44 176.319L637.203 175.986C638.7 165.699 631.566 156.189 621.278 154.691L621.611 152.453C631.899 153.951 641.409 146.817 642.907 136.529L645.144 136.862C643.646 147.15 650.781 156.66 661.068 158.157L660.735 160.395C650.448 158.897 640.938 166.031 639.44 176.319Z" fill="white"/>
<path opacity="0.3" d="M1295.71 255.194L1297.17 249.271C1324.41 255.921 1351.77 239.196 1358.42 211.959L1364.34 213.425C1357.69 240.662 1374.41 268.017 1401.65 274.667L1400.18 280.588C1372.95 273.939 1345.59 290.663 1338.94 317.901L1333.02 316.436C1339.67 289.199 1322.95 261.844 1295.71 255.194Z" fill="white"/>
<ellipse opacity="0.3" cx="8.5" cy="8" rx="8.5" ry="8" transform="matrix(-1 0 0 1 1443 91)" fill="white"/>
<ellipse opacity="0.3" cx="8.5" cy="8" rx="8.5" ry="8" transform="matrix(-1 0 0 1 1400 392)" fill="white"/>
<ellipse opacity="0.3" cx="8.5" cy="8" rx="8.5" ry="8" transform="matrix(-1 0 0 1 1478 339)" fill="white"/>
<path opacity="0.3" d="M865.225 171.394L864.141 170.089C870.122 165.088 870.89 156.205 865.889 150.224L867.194 149.14C872.195 155.121 881.078 155.889 887.059 150.888L888.143 152.193C882.162 157.194 881.394 166.077 886.395 172.058L885.09 173.142C880.089 167.161 871.206 166.393 865.225 171.394Z" fill="white"/>
<g style="mix-blend-mode:lighten" opacity="0.34">
<path d="M314.991 599.433L315.825 589.875C359.762 593.574 398.191 560.928 401.891 516.991L411.448 517.826C407.749 561.763 440.395 600.192 484.333 603.891L483.498 613.449C439.561 609.749 401.132 642.395 397.432 686.333L387.875 685.499C391.574 641.561 358.928 603.133 314.991 599.433Z" fill="white"/>
</g>
<g style="mix-blend-mode:lighten" opacity="0.34">
<path d="M181.172 516.455L180.312 513.205C195.238 509.207 204.032 493.88 200.034 478.954L203.285 478.095C207.282 493.02 222.609 501.814 237.535 497.817L238.395 501.067C223.469 505.064 214.675 520.391 218.673 535.317L215.423 536.177C211.425 521.251 196.098 512.457 181.172 516.455Z" fill="white"/>
</g>
<g style="mix-blend-mode:lighten" opacity="0.19">
<path d="M332.678 91.9237L331.033 87.7902C350.006 80.1763 359.131 58.6514 351.517 39.6786L355.651 38.0348C363.264 57.0077 384.789 66.1322 403.762 58.5183L405.406 62.6516C386.433 70.2655 377.308 91.7903 384.922 110.763L380.789 112.407C373.175 93.4344 351.651 84.3099 332.678 91.9237Z" fill="#F0FFF1"/>
</g>
<g style="mix-blend-mode:lighten" opacity="0.19">
<path d="M414.79 3.18537L416.275 -4.37674C451.048 2.34254 484.536 -20.4375 491.255 -55.2105L498.817 -53.7246C492.098 -18.9516 514.878 14.5363 549.651 21.2556L548.165 28.8169C513.392 22.0976 479.904 44.8776 473.185 79.6506L465.623 78.1656C472.343 43.3925 449.563 9.90464 414.79 3.18537Z" fill="#F0FFF1"/>
</g>
<g style="mix-blend-mode:lighten" opacity="0.19">
<path d="M969.774 418.43L964.141 407.855C1012.66 381.821 1030.67 321.485 1004.63 272.968L1015.21 267.336C1041.24 315.854 1101.58 333.864 1150.1 307.83L1155.73 318.404C1107.21 344.438 1089.2 404.774 1115.23 453.291L1104.66 458.923C1078.63 410.406 1018.29 392.396 969.774 418.43Z" fill="#F0FFF1"/>
</g>
<g style="mix-blend-mode:lighten" opacity="0.19">
<path d="M873.66 516.775L875.837 509.843C907.725 519.747 941.47 501.875 951.375 469.986L958.307 472.163C948.402 504.052 966.274 537.797 998.163 547.701L995.986 554.633C964.098 544.728 930.353 562.601 920.448 594.489L913.517 592.313C923.421 560.425 905.549 526.68 873.66 516.775Z" fill="#F0FFF1"/>
</g>
<g style="mix-blend-mode:overlay" opacity="0.4">
<circle cx="239.344" cy="239.344" r="239.344" transform="matrix(-0.337922 0.941174 0.941174 0.337922 1331 -345)" fill="#D6FFDA"/>
</g>
<g style="mix-blend-mode:plus-darker" opacity="0.11">
<path d="M1151.4 721.592L753.869 836.506L1052.15 1123.32L1151.4 721.592Z" fill="#A3F5F1"/>
</g>
<g style="mix-blend-mode:plus-darker" opacity="0.11">
<path d="M500.859 299.442L-398.047 559.288L276.439 1207.84L500.859 299.442Z" fill="#68DFDC"/>
</g>
<g style="mix-blend-mode:plus-darker" opacity="0.15">
<path d="M1439.41 442.593L1041.88 557.506L1340.16 844.319L1439.41 442.593Z" fill="#ADFBB4"/>
</g>
<path opacity="0.3" d="M740.258 140.601L737.916 136.33C757.51 125.509 764.534 100.894 753.712 81.3006L757.983 78.9593C768.804 98.5528 793.419 105.577 813.013 94.755L815.354 99.0255C795.76 109.847 788.737 134.462 799.558 154.055L795.288 156.397C784.466 136.803 759.851 129.78 740.258 140.601Z" fill="white"/>
<path opacity="0.3" d="M639.439 176.319L637.201 175.986C638.699 165.699 631.564 156.189 621.277 154.691L621.61 152.453C631.897 153.951 641.407 146.817 642.905 136.529L645.142 136.862C643.645 147.15 650.779 156.66 661.067 158.157L660.734 160.395C650.446 158.897 640.937 166.031 639.439 176.319Z" fill="white"/>
<path opacity="0.3" d="M1295.71 255.194L1297.17 249.271C1324.41 255.921 1351.76 239.196 1358.41 211.959L1364.34 213.425C1357.69 240.662 1374.41 268.017 1401.65 274.667L1400.18 280.588C1372.95 273.939 1345.59 290.663 1338.94 317.901L1333.02 316.436C1339.67 289.199 1322.94 261.844 1295.71 255.194Z" fill="white"/>
<ellipse opacity="0.3" cx="8.5" cy="8" rx="8.5" ry="8" transform="matrix(-1 0 0 1 1443 91)" fill="white"/>
<ellipse opacity="0.3" cx="8.5" cy="8" rx="8.5" ry="8" transform="matrix(-1 0 0 1 1400 392)" fill="white"/>
<ellipse opacity="0.3" cx="8.5" cy="8" rx="8.5" ry="8" transform="matrix(-1 0 0 1 1478 339)" fill="white"/>
<path opacity="0.3" d="M865.224 171.394L864.139 170.089C870.121 165.088 870.888 156.205 865.887 150.224L867.192 149.14C872.193 155.121 881.076 155.889 887.057 150.888L888.141 152.193C882.16 157.194 881.393 166.077 886.394 172.058L885.089 173.142C880.088 167.161 871.205 166.393 865.224 171.394Z" fill="white"/>
<path d="M60.04 111V69.84H67.992V111H60.04ZM85.016 111L72.472 93.192H81.376L94.312 111H85.016ZM65.64 97.336V90.896H76.056C77.512 90.896 78.7627 90.5973 79.808 90C80.8907 89.4027 81.7307 88.5627 82.328 87.48C82.9253 86.3973 83.224 85.1653 83.224 83.784C83.224 82.3653 82.9253 81.1147 82.328 80.032C81.7307 78.9493 80.8907 78.1093 79.808 77.512C78.7627 76.9147 77.512 76.616 76.056 76.616H65.64V69.84H75.216C78.5013 69.84 81.3387 70.3253 83.728 71.296C86.1547 72.2667 88.0213 73.7413 89.328 75.72C90.6347 77.6987 91.288 80.1813 91.288 83.168V84.064C91.288 87.088 90.616 89.5707 89.272 91.512C87.9653 93.4533 86.1173 94.9093 83.728 95.88C81.3387 96.8507 78.5013 97.336 75.216 97.336H65.64ZM110.55 112.064C107.936 112.064 105.64 111.616 103.662 110.72C101.72 109.824 100.096 108.629 98.7898 107.136C97.5205 105.605 96.5498 103.907 95.8778 102.04C95.2431 100.173 94.9258 98.2693 94.9258 96.328V95.264C94.9258 93.248 95.2431 91.3067 95.8778 89.44C96.5498 87.536 97.5205 85.856 98.7898 84.4C100.096 82.9067 101.702 81.7307 103.606 80.872C105.51 79.976 107.712 79.528 110.214 79.528C113.499 79.528 116.243 80.256 118.446 81.712C120.686 83.1307 122.366 85.016 123.486 87.368C124.606 89.6827 125.166 92.184 125.166 94.872V97.672H98.2298V92.912H120.294L117.886 95.264C117.886 93.3227 117.606 91.6613 117.046 90.28C116.486 88.8987 115.627 87.8347 114.47 87.088C113.35 86.3413 111.931 85.968 110.214 85.968C108.496 85.968 107.04 86.36 105.846 87.144C104.651 87.928 103.736 89.0667 103.102 90.56C102.504 92.016 102.206 93.7707 102.206 95.824C102.206 97.728 102.504 99.4267 103.102 100.92C103.699 102.376 104.614 103.533 105.846 104.392C107.078 105.213 108.646 105.624 110.55 105.624C112.454 105.624 114.003 105.251 115.198 104.504C116.392 103.72 117.158 102.768 117.494 101.648H124.662C124.214 103.739 123.355 105.568 122.086 107.136C120.816 108.704 119.192 109.917 117.214 110.776C115.272 111.635 113.051 112.064 110.55 112.064ZM142.644 111.392C139.844 111.392 137.53 111.037 135.7 110.328C133.908 109.581 132.564 108.349 131.668 106.632C130.772 104.877 130.324 102.525 130.324 99.576L130.38 72.024H137.66L137.604 100.08C137.604 101.573 137.996 102.731 138.78 103.552C139.602 104.336 140.759 104.728 142.252 104.728H147.012V111.392H142.644ZM125.508 86.304V80.592H147.012V86.304H125.508ZM151.306 111V80.592H157.466V93.472H157.298C157.298 89.104 158.231 85.8 160.098 83.56C161.964 81.32 164.708 80.2 168.33 80.2H169.45V86.976H167.322C164.708 86.976 162.674 87.6853 161.218 89.104C159.799 90.4853 159.09 92.5013 159.09 95.152V111H151.306ZM186.814 112.064C184.126 112.064 181.756 111.635 179.702 110.776C177.649 109.917 175.913 108.76 174.494 107.304C173.076 105.811 171.993 104.131 171.246 102.264C170.537 100.397 170.182 98.456 170.182 96.44V95.264C170.182 93.1733 170.556 91.1947 171.302 89.328C172.086 87.424 173.188 85.744 174.606 84.288C176.062 82.7947 177.817 81.6373 179.87 80.816C181.924 79.9573 184.238 79.528 186.814 79.528C189.39 79.528 191.705 79.9573 193.758 80.816C195.812 81.6373 197.548 82.7947 198.966 84.288C200.422 85.744 201.524 87.424 202.27 89.328C203.017 91.1947 203.39 93.1733 203.39 95.264V96.44C203.39 98.456 203.017 100.397 202.27 102.264C201.561 104.131 200.497 105.811 199.078 107.304C197.66 108.76 195.924 109.917 193.87 110.776C191.817 111.635 189.465 112.064 186.814 112.064ZM186.814 105.4C188.718 105.4 190.324 104.989 191.63 104.168C192.937 103.309 193.926 102.171 194.598 100.752C195.27 99.296 195.606 97.6533 195.606 95.824C195.606 93.9573 195.252 92.3147 194.542 90.896C193.87 89.44 192.862 88.3013 191.518 87.48C190.212 86.6213 188.644 86.192 186.814 86.192C184.985 86.192 183.398 86.6213 182.054 87.48C180.748 88.3013 179.74 89.44 179.03 90.896C178.321 92.3147 177.966 93.9573 177.966 95.824C177.966 97.6533 178.302 99.296 178.974 100.752C179.684 102.171 180.692 103.309 181.998 104.168C183.305 104.989 184.91 105.4 186.814 105.4ZM218.428 111V70.12H226.38V111H218.428ZM225.26 93.976V87.256L241.612 87.2V93.92L225.26 93.976ZM225.26 76.84V70.12H242.396V76.84H225.26ZM256.831 111.952C253.321 111.952 250.596 110.795 248.655 108.48C246.751 106.165 245.799 102.731 245.799 98.176V80.536H253.583V98.848C253.583 100.715 254.105 102.208 255.151 103.328C256.196 104.411 257.615 104.952 259.407 104.952C261.199 104.952 262.655 104.373 263.775 103.216C264.932 102.059 265.511 100.491 265.511 98.512V80.536H273.295V111H267.135V98.064H267.751C267.751 101.125 267.359 103.683 266.575 105.736C265.791 107.789 264.615 109.339 263.047 110.384C261.479 111.429 259.519 111.952 257.167 111.952H256.831ZM279.996 111V80.592H286.156V93.64H285.596C285.596 90.5413 286.007 87.9653 286.828 85.912C287.65 83.8213 288.863 82.2533 290.468 81.208C292.111 80.1627 294.146 79.64 296.572 79.64H296.908C300.53 79.64 303.274 80.816 305.14 83.168C307.007 85.4827 307.94 88.9547 307.94 93.584V111H300.156V92.912C300.156 91.0453 299.615 89.5333 298.532 88.376C297.487 87.2187 296.031 86.64 294.164 86.64C292.26 86.64 290.711 87.2373 289.516 88.432C288.359 89.5893 287.78 91.1573 287.78 93.136V111H279.996ZM326.669 112.008C324.541 112.008 322.581 111.616 320.789 110.832C318.997 110.048 317.447 108.947 316.141 107.528C314.834 106.109 313.826 104.467 313.117 102.6C312.407 100.696 312.053 98.6427 312.053 96.44V95.264C312.053 93.0987 312.389 91.064 313.061 89.16C313.77 87.256 314.741 85.5947 315.973 84.176C317.242 82.7573 318.754 81.656 320.509 80.872C322.301 80.0507 324.279 79.64 326.445 79.64C328.834 79.64 330.925 80.1627 332.717 81.208C334.546 82.216 336.002 83.7467 337.085 85.8C338.167 87.8533 338.765 90.4293 338.877 93.528L336.581 90.84V70.12H344.365V111H338.205V98.064H339.549C339.437 101.163 338.802 103.757 337.645 105.848C336.487 107.901 334.957 109.451 333.053 110.496C331.186 111.504 329.058 112.008 326.669 112.008ZM328.405 105.456C329.935 105.456 331.335 105.12 332.605 104.448C333.874 103.739 334.882 102.731 335.629 101.424C336.413 100.08 336.805 98.512 336.805 96.72V94.48C336.805 92.688 336.413 91.1947 335.629 90C334.845 88.768 333.818 87.8347 332.549 87.2C331.279 86.528 329.898 86.192 328.405 86.192C326.725 86.192 325.231 86.6027 323.925 87.424C322.655 88.208 321.647 89.328 320.901 90.784C320.191 92.24 319.837 93.9387 319.837 95.88C319.837 97.8213 320.21 99.52 320.957 100.976C321.703 102.395 322.711 103.496 323.981 104.28C325.287 105.064 326.762 105.456 328.405 105.456ZM352.441 111V80.592H360.225V111H352.441ZM348.185 86.416V80.592H360.225V86.416H348.185ZM355.297 76.952C353.766 76.952 352.628 76.56 351.881 75.776C351.172 74.9547 350.817 73.928 350.817 72.696C350.817 71.464 351.172 70.456 351.881 69.672C352.628 68.888 353.766 68.496 355.297 68.496C356.828 68.496 357.948 68.888 358.657 69.672C359.366 70.456 359.721 71.464 359.721 72.696C359.721 73.928 359.366 74.9547 358.657 75.776C357.948 76.56 356.828 76.952 355.297 76.952ZM366.956 111V80.592H373.116V93.64H372.556C372.556 90.5413 372.967 87.9653 373.788 85.912C374.609 83.8213 375.823 82.2533 377.428 81.208C379.071 80.1627 381.105 79.64 383.532 79.64H383.868C387.489 79.64 390.233 80.816 392.1 83.168C393.967 85.4827 394.9 88.9547 394.9 93.584V111H387.116V92.912C387.116 91.0453 386.575 89.5333 385.492 88.376C384.447 87.2187 382.991 86.64 381.124 86.64C379.22 86.64 377.671 87.2373 376.476 88.432C375.319 89.5893 374.74 91.1573 374.74 93.136V111H366.956ZM412.9 122.984C411.444 122.984 409.951 122.928 408.42 122.816C406.927 122.704 405.527 122.555 404.22 122.368V115.872C405.564 116.021 407.002 116.152 408.532 116.264C410.063 116.413 411.5 116.488 412.844 116.488C415.346 116.488 417.362 116.189 418.892 115.592C420.46 114.995 421.599 114.043 422.308 112.736C423.055 111.467 423.428 109.843 423.428 107.864V101.872L425.108 98.064C424.996 100.864 424.418 103.253 423.372 105.232C422.327 107.173 420.908 108.667 419.116 109.712C417.324 110.72 415.252 111.224 412.9 111.224C410.81 111.224 408.906 110.832 407.188 110.048C405.508 109.264 404.052 108.181 402.82 106.8C401.626 105.419 400.692 103.795 400.02 101.928C399.348 100.061 399.012 98.064 399.012 95.936V94.76C399.012 92.632 399.348 90.6533 400.02 88.824C400.73 86.9573 401.719 85.3333 402.988 83.952C404.258 82.5707 405.77 81.5067 407.524 80.76C409.279 80.0133 411.22 79.64 413.348 79.64C415.85 79.64 418.015 80.1813 419.844 81.264C421.711 82.3467 423.167 83.9147 424.212 85.968C425.258 88.0213 425.836 90.5413 425.948 93.528L424.604 93.752V80.592H430.764V107.416C430.764 111.112 430.13 114.099 428.86 116.376C427.591 118.653 425.631 120.315 422.98 121.36C420.367 122.443 417.007 122.984 412.9 122.984ZM415.14 104.56C416.634 104.56 417.996 104.224 419.228 103.552C420.46 102.88 421.45 101.909 422.196 100.64C422.943 99.3707 423.316 97.84 423.316 96.048V94.088C423.316 92.3707 422.924 90.9147 422.14 89.72C421.394 88.5253 420.404 87.6293 419.172 87.032C417.94 86.3973 416.596 86.08 415.14 86.08C413.498 86.08 412.042 86.472 410.772 87.256C409.54 88.0027 408.57 89.0667 407.86 90.448C407.151 91.8293 406.796 93.472 406.796 95.376C406.796 97.2427 407.151 98.8667 407.86 100.248C408.57 101.629 409.54 102.693 410.772 103.44C412.042 104.187 413.498 104.56 415.14 104.56ZM462.373 112.176C459.349 112.176 456.773 111.672 454.645 110.664C452.554 109.619 450.856 108.2 449.549 106.408C448.242 104.616 447.29 102.544 446.693 100.192C446.096 97.8027 445.797 95.2827 445.797 92.632V90.168C445.797 83.4853 447.477 78.4267 450.837 74.992C454.234 71.52 459.2 69.784 465.733 69.784C467.152 69.784 468.477 69.8213 469.709 69.896C470.941 69.9707 472.173 70.0827 473.405 70.232V76.896C472.173 76.7467 470.904 76.6347 469.597 76.56C468.328 76.4853 466.946 76.448 465.453 76.448C462.317 76.448 459.853 76.9893 458.061 78.072C456.269 79.1547 454.981 80.7413 454.197 82.832C453.45 84.9227 453.077 87.5173 453.077 90.616V94.256L451.285 96.832C451.322 93.9573 451.882 91.5867 452.965 89.72C454.085 87.816 455.616 86.3973 457.557 85.464C459.498 84.4933 461.72 84.008 464.221 84.008C467.133 84.008 469.616 84.5867 471.669 85.744C473.722 86.9013 475.29 88.5067 476.373 90.56C477.493 92.6133 478.053 95.0027 478.053 97.728C478.053 100.565 477.418 103.085 476.149 105.288C474.88 107.453 473.069 109.152 470.717 110.384C468.402 111.579 465.621 112.176 462.373 112.176ZM462.205 105.512C463.96 105.512 465.453 105.195 466.685 104.56C467.917 103.888 468.85 102.973 469.485 101.816C470.12 100.659 470.437 99.3333 470.437 97.84C470.437 96.3093 470.12 94.9653 469.485 93.808C468.888 92.6507 467.992 91.7547 466.797 91.12C465.602 90.4853 464.165 90.168 462.485 90.168C460.88 90.168 459.405 90.4667 458.061 91.064C456.754 91.624 455.709 92.4827 454.925 93.64C454.178 94.76 453.805 96.16 453.805 97.84C453.805 99.296 454.104 100.603 454.701 101.76C455.336 102.917 456.269 103.832 457.501 104.504C458.77 105.176 460.338 105.512 462.205 105.512Z" fill="#3374DB"/>
<path d="M111.5 250.85C102.1 250.85 93.8 249.3 86.6 246.2C79.5 243 73.5 238.75 68.6 233.45C63.8 228.05 60.15 222 57.65 215.3C55.25 208.5 54.05 201.45 54.05 194.15V190.85C54.05 183.95 55.25 177.2 57.65 170.6C60.05 164 63.55 158.05 68.15 152.75C72.85 147.45 78.6 143.25 85.4 140.15C92.3 136.95 100.2 135.35 109.1 135.35C118.7 135.35 127.2 137.15 134.6 140.75C142 144.25 147.95 149.2 152.45 155.6C156.95 161.9 159.6 169.25 160.4 177.65H138.95C138.25 172.95 136.5 168.95 133.7 165.65C130.9 162.25 127.35 159.65 123.05 157.85C118.85 156.05 114.2 155.15 109.1 155.15C104 155.15 99.35 156.05 95.15 157.85C91.05 159.65 87.55 162.2 84.65 165.5C81.75 168.8 79.5 172.75 77.9 177.35C76.4 181.95 75.65 187.05 75.65 192.65C75.65 198.75 76.5 204.2 78.2 209C79.9 213.8 82.3 217.9 85.4 221.3C88.5 224.6 92.25 227.15 96.65 228.95C101.05 230.65 106 231.5 111.5 231.5C118.8 231.5 125.2 230 130.7 227C136.2 223.9 140.2 219.9 142.7 215L138.95 232.25V204.05H158.6V228.35C153.9 235.45 147.5 241 139.4 245C131.3 248.9 122 250.85 111.5 250.85ZM108.05 208.25V192.35H167.75V208.25H108.05ZM213.805 250.85C206.605 250.85 200.255 249.7 194.755 247.4C189.255 245.1 184.605 242 180.805 238.1C177.005 234.1 174.105 229.6 172.105 224.6C170.205 219.6 169.255 214.4 169.255 209V205.85C169.255 200.25 170.255 194.95 172.255 189.95C174.355 184.85 177.305 180.35 181.105 176.45C185.005 172.45 189.705 169.35 195.205 167.15C200.705 164.85 206.905 163.7 213.805 163.7C220.705 163.7 226.905 164.85 232.405 167.15C237.905 169.35 242.555 172.45 246.355 176.45C250.255 180.35 253.205 184.85 255.205 189.95C257.205 194.95 258.205 200.25 258.205 205.85V209C258.205 214.4 257.205 219.6 255.205 224.6C253.305 229.6 250.455 234.1 246.655 238.1C242.855 242 238.205 245.1 232.705 247.4C227.205 249.7 220.905 250.85 213.805 250.85ZM213.805 233C218.905 233 223.205 231.9 226.705 229.7C230.205 227.4 232.855 224.35 234.655 220.55C236.455 216.65 237.355 212.25 237.355 207.35C237.355 202.35 236.405 197.95 234.505 194.15C232.705 190.25 230.005 187.2 226.405 185C222.905 182.7 218.705 181.55 213.805 181.55C208.905 181.55 204.655 182.7 201.055 185C197.555 187.2 194.855 190.25 192.955 194.15C191.055 197.95 190.105 202.35 190.105 207.35C190.105 212.25 191.005 216.65 192.805 220.55C194.705 224.35 197.405 227.4 200.905 229.7C204.405 231.9 208.705 233 213.805 233ZM282.054 248L256.554 166.55H278.004L302.454 248H282.054ZM288.204 248V230.9H310.254V248H288.204ZM296.454 248L317.454 166.55H337.554L315.504 248H296.454ZM378.993 250.85C371.993 250.85 365.843 249.65 360.543 247.25C355.343 244.85 350.993 241.65 347.493 237.65C344.093 233.55 341.493 229 339.693 224C337.993 219 337.143 213.9 337.143 208.7V205.85C337.143 200.45 337.993 195.25 339.693 190.25C341.493 185.15 344.093 180.65 347.493 176.75C350.993 172.75 355.293 169.6 360.393 167.3C365.493 164.9 371.393 163.7 378.093 163.7C386.893 163.7 394.243 165.65 400.143 169.55C406.143 173.35 410.643 178.4 413.643 184.7C416.643 190.9 418.143 197.6 418.143 204.8V212.3H345.993V199.55H405.093L398.643 205.85C398.643 200.65 397.893 196.2 396.393 192.5C394.893 188.8 392.593 185.95 389.493 183.95C386.493 181.95 382.693 180.95 378.093 180.95C373.493 180.95 369.593 182 366.393 184.1C363.193 186.2 360.743 189.25 359.043 193.25C357.443 197.15 356.643 201.85 356.643 207.35C356.643 212.45 357.443 217 359.043 221C360.643 224.9 363.093 228 366.393 230.3C369.693 232.5 373.893 233.6 378.993 233.6C384.093 233.6 388.243 232.6 391.443 230.6C394.643 228.5 396.693 225.95 397.593 222.95H416.793C415.593 228.55 413.293 233.45 409.893 237.65C406.493 241.85 402.143 245.1 396.843 247.4C391.643 249.7 385.693 250.85 378.993 250.85ZM426.561 248V166.55H443.061V201.05H442.611C442.611 189.35 445.111 180.5 450.111 174.5C455.111 168.5 462.461 165.5 472.161 165.5H475.161V183.65H469.461C462.461 183.65 457.011 185.55 453.111 189.35C449.311 193.05 447.411 198.45 447.411 205.55V248H426.561ZM480.11 248V166.55H496.61V201.5H495.11C495.11 193.2 496.21 186.3 498.41 180.8C500.61 175.2 503.86 171 508.16 168.2C512.56 165.4 518.01 164 524.51 164H525.41C535.11 164 542.46 167.15 547.46 173.45C552.46 179.65 554.96 188.95 554.96 201.35V248H534.11V199.55C534.11 194.55 532.66 190.5 529.76 187.4C526.96 184.3 523.06 182.75 518.06 182.75C512.96 182.75 508.81 184.35 505.61 187.55C502.51 190.65 500.96 194.85 500.96 200.15V248H480.11ZM617.725 248V223.85H614.275V197C614.275 192.3 613.125 188.8 610.825 186.5C608.525 184.2 604.975 183.05 600.175 183.05C597.675 183.05 594.675 183.1 591.175 183.2C587.675 183.3 584.125 183.45 580.525 183.65C577.025 183.75 573.875 183.9 571.075 184.1V166.4C573.375 166.2 575.975 166 578.875 165.8C581.775 165.6 584.725 165.5 587.725 165.5C590.825 165.4 593.725 165.35 596.425 165.35C604.825 165.35 611.775 166.45 617.275 168.65C622.875 170.85 627.075 174.3 629.875 179C632.775 183.7 634.225 189.85 634.225 197.45V248H617.725ZM591.475 250.1C585.575 250.1 580.375 249.05 575.875 246.95C571.475 244.85 568.025 241.85 565.525 237.95C563.125 234.05 561.925 229.35 561.925 223.85C561.925 217.85 563.375 212.95 566.275 209.15C569.275 205.35 573.425 202.5 578.725 200.6C584.125 198.7 590.425 197.75 597.625 197.75H616.525V210.2H597.325C592.525 210.2 588.825 211.4 586.225 213.8C583.725 216.1 582.475 219.1 582.475 222.8C582.475 226.5 583.725 229.5 586.225 231.8C588.825 234.1 592.525 235.25 597.325 235.25C600.225 235.25 602.875 234.75 605.275 233.75C607.775 232.65 609.825 230.85 611.425 228.35C613.125 225.75 614.075 222.25 614.275 217.85L619.375 223.7C618.875 229.4 617.475 234.2 615.175 238.1C612.975 242 609.875 245 605.875 247.1C601.975 249.1 597.175 250.1 591.475 250.1ZM647.559 248V166.55H664.059V201.5H662.559C662.559 193.2 663.659 186.3 665.859 180.8C668.059 175.2 671.309 171 675.609 168.2C680.009 165.4 685.459 164 691.959 164H692.859C702.559 164 709.909 167.15 714.909 173.45C719.909 179.65 722.409 188.95 722.409 201.35V248H701.559V199.55C701.559 194.55 700.109 190.5 697.209 187.4C694.409 184.3 690.509 182.75 685.509 182.75C680.409 182.75 676.259 184.35 673.059 187.55C669.959 190.65 668.409 194.85 668.409 200.15V248H647.559ZM771.975 250.85C764.875 250.85 758.725 249.65 753.525 247.25C748.425 244.85 744.125 241.65 740.625 237.65C737.225 233.65 734.675 229.15 732.975 224.15C731.275 219.15 730.425 214.05 730.425 208.85V206C730.425 200.5 731.275 195.25 732.975 190.25C734.775 185.15 737.425 180.65 740.925 176.75C744.425 172.75 748.725 169.6 753.825 167.3C759.025 164.9 765.025 163.7 771.825 163.7C778.925 163.7 785.275 165.1 790.875 167.9C796.475 170.6 800.925 174.4 804.225 179.3C807.625 184.2 809.525 189.9 809.925 196.4H789.675C789.175 192.2 787.375 188.7 784.275 185.9C781.275 183.1 777.125 181.7 771.825 181.7C767.225 181.7 763.375 182.8 760.275 185C757.275 187.2 755.025 190.25 753.525 194.15C752.025 197.95 751.275 202.35 751.275 207.35C751.275 212.15 751.975 216.5 753.375 220.4C754.875 224.3 757.125 227.35 760.125 229.55C763.225 231.75 767.175 232.85 771.975 232.85C775.575 232.85 778.675 232.2 781.275 230.9C783.875 229.6 785.925 227.8 787.425 225.5C789.025 223.2 790.025 220.6 790.425 217.7H810.675C810.275 224.3 808.325 230.1 804.825 235.1C801.425 240 796.875 243.85 791.175 246.65C785.575 249.45 779.175 250.85 771.975 250.85ZM854.827 250.85C847.827 250.85 841.677 249.65 836.377 247.25C831.177 244.85 826.827 241.65 823.327 237.65C819.927 233.55 817.327 229 815.527 224C813.827 219 812.977 213.9 812.977 208.7V205.85C812.977 200.45 813.827 195.25 815.527 190.25C817.327 185.15 819.927 180.65 823.327 176.75C826.827 172.75 831.127 169.6 836.227 167.3C841.327 164.9 847.227 163.7 853.927 163.7C862.727 163.7 870.077 165.65 875.977 169.55C881.977 173.35 886.477 178.4 889.477 184.7C892.477 190.9 893.977 197.6 893.977 204.8V212.3H821.827V199.55H880.927L874.477 205.85C874.477 200.65 873.727 196.2 872.227 192.5C870.727 188.8 868.427 185.95 865.327 183.95C862.327 181.95 858.527 180.95 853.927 180.95C849.327 180.95 845.427 182 842.227 184.1C839.027 186.2 836.577 189.25 834.877 193.25C833.277 197.15 832.477 201.85 832.477 207.35C832.477 212.45 833.277 217 834.877 221C836.477 224.9 838.927 228 842.227 230.3C845.527 232.5 849.727 233.6 854.827 233.6C859.927 233.6 864.077 232.6 867.277 230.6C870.477 228.5 872.527 225.95 873.427 222.95H892.627C891.427 228.55 889.127 233.45 885.727 237.65C882.327 241.85 877.977 245.1 872.677 247.4C867.477 249.7 861.527 250.85 854.827 250.85Z" fill="url(#paint1_linear_1002_5001)"/>
<path d="M60.022 834L60.022 794.58H72.172C74.512 794.58 76.564 795.066 78.328 796.038C80.092 796.974 81.46 798.288 82.432 799.98C83.404 801.672 83.89 803.652 83.89 805.92C83.89 808.584 83.206 810.87 81.838 812.778C80.47 814.686 78.652 816.018 76.384 816.774L84.43 834H79.084L71.362 817.26H64.828V834H60.022ZM64.828 812.886H72.172C74.188 812.886 75.808 812.256 77.032 810.996C78.256 809.7 78.868 808.008 78.868 805.92C78.868 803.796 78.256 802.104 77.032 800.844C75.808 799.584 74.188 798.954 72.172 798.954H64.828V812.886ZM92.7789 834V794.58H115.459V799.008H97.5849V811.212H113.569V815.532H97.5849V829.572H115.459V834H92.7789ZM133.528 834V799.008H122.728V794.58H149.188V799.008H138.388V834H133.528ZM157.159 834V794.58H169.309C171.649 794.58 173.701 795.066 175.465 796.038C177.229 796.974 178.597 798.288 179.569 799.98C180.541 801.672 181.027 803.652 181.027 805.92C181.027 808.584 180.343 810.87 178.975 812.778C177.607 814.686 175.789 816.018 173.521 816.774L181.567 834H176.221L168.499 817.26H161.965V834H157.159ZM161.965 812.886H169.309C171.325 812.886 172.945 812.256 174.169 810.996C175.393 809.7 176.005 808.008 176.005 805.92C176.005 803.796 175.393 802.104 174.169 800.844C172.945 799.584 171.325 798.954 169.309 798.954H161.965V812.886ZM200.716 834.54C197.188 834.54 194.398 833.514 192.346 831.462C190.294 829.41 189.268 826.476 189.268 822.66V805.92C189.268 802.104 190.294 799.17 192.346 797.118C194.398 795.066 197.188 794.04 200.716 794.04C204.244 794.04 207.034 795.066 209.086 797.118C211.138 799.17 212.164 802.086 212.164 805.866V822.66C212.164 826.476 211.138 829.41 209.086 831.462C207.034 833.514 204.244 834.54 200.716 834.54ZM200.716 830.166C202.84 830.166 204.46 829.572 205.576 828.384C206.728 827.16 207.304 825.432 207.304 823.2V805.38C207.304 803.148 206.728 801.438 205.576 800.25C204.46 799.026 202.84 798.414 200.716 798.414C198.628 798.414 197.008 799.026 195.856 800.25C194.704 801.438 194.128 803.148 194.128 805.38V823.2C194.128 825.432 194.704 827.16 195.856 828.384C197.008 829.572 198.628 830.166 200.716 830.166ZM222.025 834V794.58H245.245V799.008H226.777V812.076H243.841V816.504H226.885V834H222.025ZM265.473 834.54C261.801 834.54 258.993 833.532 257.049 831.516C255.105 829.464 254.133 826.692 254.133 823.2V794.58H258.993V823.2C258.993 825.36 259.515 827.07 260.559 828.33C261.639 829.59 263.277 830.22 265.473 830.22C267.633 830.22 269.253 829.59 270.333 828.33C271.413 827.07 271.953 825.36 271.953 823.2V794.58H276.813V823.2C276.813 826.728 275.841 829.5 273.897 831.516C271.989 833.532 269.181 834.54 265.473 834.54ZM286.512 834V794.58H292.992L305.034 828.33C304.962 827.43 304.872 826.332 304.764 825.036C304.692 823.704 304.62 822.318 304.548 820.878C304.512 819.402 304.494 818.016 304.494 816.72V794.58H309.192V834H302.712L290.724 800.25C290.796 801.114 290.868 802.212 290.94 803.544C291.012 804.84 291.066 806.226 291.102 807.702C291.174 809.142 291.21 810.528 291.21 811.86V834H286.512ZM318.999 834V794.58H329.205C331.761 794.58 333.957 795.066 335.793 796.038C337.665 797.01 339.105 798.378 340.113 800.142C341.157 801.906 341.679 803.994 341.679 806.406V822.12C341.679 824.532 341.157 826.638 340.113 828.438C339.105 830.202 337.665 831.57 335.793 832.542C333.957 833.514 331.761 834 329.205 834H318.999ZM323.859 829.68H329.205C331.581 829.68 333.435 829.014 334.767 827.682C336.135 826.35 336.819 824.496 336.819 822.12V806.406C336.819 804.066 336.135 802.23 334.767 800.898C333.435 799.566 331.581 798.9 329.205 798.9H323.859V829.68ZM352.08 834V829.572H360.126V799.008H352.08V794.58H373.14V799.008H365.094V829.572H373.14V834H352.08ZM383.649 834V794.58H390.129L402.171 828.33C402.099 827.43 402.009 826.332 401.901 825.036C401.829 823.704 401.757 822.318 401.685 820.878C401.649 819.402 401.631 818.016 401.631 816.72V794.58H406.329V834H399.849L387.861 800.25C387.933 801.114 388.005 802.212 388.077 803.544C388.149 804.84 388.203 806.226 388.239 807.702C388.311 809.142 388.347 810.528 388.347 811.86V834H383.649ZM427.584 834.54C423.984 834.54 421.14 833.532 419.052 831.516C416.964 829.5 415.92 826.728 415.92 823.2V805.38C415.92 801.852 416.964 799.08 419.052 797.064C421.14 795.048 423.984 794.04 427.584 794.04C431.112 794.04 433.92 795.066 436.008 797.118C438.096 799.134 439.14 801.888 439.14 805.38H434.28C434.28 803.148 433.686 801.438 432.498 800.25C431.346 799.026 429.708 798.414 427.584 798.414C425.46 798.414 423.786 799.008 422.562 800.196C421.374 801.384 420.78 803.094 420.78 805.326V823.2C420.78 825.432 421.374 827.16 422.562 828.384C423.786 829.608 425.46 830.22 427.584 830.22C429.708 830.22 431.346 829.608 432.498 828.384C433.686 827.16 434.28 825.432 434.28 823.2V817.8H426.288V813.372H439.14V823.2C439.14 826.692 438.096 829.464 436.008 831.516C433.92 833.532 431.112 834.54 427.584 834.54ZM459.747 834.54C458.415 834.54 457.335 834.144 456.507 833.352C455.715 832.56 455.319 831.534 455.319 830.274C455.319 828.942 455.715 827.862 456.507 827.034C457.335 826.206 458.415 825.792 459.747 825.792C461.079 825.792 462.141 826.206 462.933 827.034C463.761 827.862 464.175 828.942 464.175 830.274C464.175 831.534 463.761 832.56 462.933 833.352C462.141 834.144 461.079 834.54 459.747 834.54ZM492.126 834.54C488.598 834.54 485.808 833.514 483.756 831.462C481.704 829.41 480.678 826.476 480.678 822.66V805.92C480.678 802.104 481.704 799.17 483.756 797.118C485.808 795.066 488.598 794.04 492.126 794.04C495.654 794.04 498.444 795.066 500.496 797.118C502.548 799.17 503.574 802.086 503.574 805.866V822.66C503.574 826.476 502.548 829.41 500.496 831.462C498.444 833.514 495.654 834.54 492.126 834.54ZM492.126 830.166C494.25 830.166 495.87 829.572 496.986 828.384C498.138 827.16 498.714 825.432 498.714 823.2V805.38C498.714 803.148 498.138 801.438 496.986 800.25C495.87 799.026 494.25 798.414 492.126 798.414C490.038 798.414 488.418 799.026 487.266 800.25C486.114 801.438 485.538 803.148 485.538 805.38V823.2C485.538 825.432 486.114 827.16 487.266 828.384C488.418 829.572 490.038 830.166 492.126 830.166ZM513.273 834V794.58H525.963C529.635 794.58 532.551 795.642 534.711 797.766C536.907 799.854 538.005 802.662 538.005 806.19C538.005 809.718 536.907 812.544 534.711 814.668C532.551 816.756 529.635 817.8 525.963 817.8H518.133V834H513.273ZM518.133 813.426H525.963C528.087 813.426 529.779 812.778 531.039 811.482C532.335 810.15 532.983 808.386 532.983 806.19C532.983 803.958 532.335 802.194 531.039 800.898C529.779 799.602 528.087 798.954 525.963 798.954H518.133V813.426ZM554.454 834V799.008H543.654V794.58H570.114V799.008H559.314V834H554.454ZM578.733 834V829.572H586.779V799.008H578.733V794.58H599.793V799.008H591.747V829.572H599.793V834H578.733ZM609.329 834V794.58H616.511L621.533 811.644L626.771 794.58H633.953V834H629.255V815.37C629.255 813.606 629.273 811.59 629.309 809.322C629.381 807.018 629.471 804.696 629.579 802.356C629.687 800.016 629.813 797.91 629.957 796.038L623.585 816.396H619.373L613.271 796.524C613.559 799.188 613.757 802.104 613.865 805.272C613.973 808.44 614.027 811.806 614.027 815.37V834H609.329ZM643.49 834V829.572H651.536V799.008H643.49V794.58H664.55V799.008H656.504V829.572H664.55V834H643.49ZM686.615 834.54C682.799 834.54 679.757 833.532 677.489 831.516C675.221 829.5 674.087 826.728 674.087 823.2H678.947C678.947 825.396 679.649 827.124 681.053 828.384C682.457 829.608 684.311 830.22 686.615 830.22C688.847 830.22 690.629 829.572 691.961 828.276C693.293 826.98 693.959 825.288 693.959 823.2C693.959 821.616 693.527 820.248 692.663 819.096C691.835 817.908 690.629 817.098 689.045 816.666L683.051 814.992C680.567 814.272 678.605 812.994 677.165 811.158C675.761 809.286 675.059 807.09 675.059 804.57C675.059 802.482 675.527 800.646 676.463 799.062C677.399 797.478 678.713 796.254 680.405 795.39C682.097 794.49 684.041 794.04 686.237 794.04C688.469 794.04 690.431 794.49 692.123 795.39C693.851 796.254 695.201 797.478 696.173 799.062C697.145 800.61 697.631 802.41 697.631 804.462H692.771C692.771 802.662 692.159 801.204 690.935 800.088C689.711 798.936 688.145 798.36 686.237 798.36C684.329 798.36 682.781 798.936 681.593 800.088C680.405 801.204 679.811 802.662 679.811 804.462C679.811 805.902 680.189 807.144 680.945 808.188C681.737 809.196 682.835 809.898 684.239 810.294L690.395 812.022C693.023 812.742 695.057 814.11 696.497 816.126C697.973 818.106 698.711 820.464 698.711 823.2C698.711 826.656 697.613 829.41 695.417 831.462C693.221 833.514 690.287 834.54 686.615 834.54ZM706.466 834V794.58H713.648L718.67 811.644L723.908 794.58H731.09V834H726.392V815.37C726.392 813.606 726.41 811.59 726.446 809.322C726.518 807.018 726.608 804.696 726.716 802.356C726.824 800.016 726.95 797.91 727.094 796.038L720.722 816.396H716.51L710.408 796.524C710.696 799.188 710.894 802.104 711.002 805.272C711.11 808.44 711.164 811.806 711.164 815.37V834H706.466ZM751.157 834.54C749.825 834.54 748.745 834.144 747.917 833.352C747.125 832.56 746.729 831.534 746.729 830.274C746.729 828.942 747.125 827.862 747.917 827.034C748.745 826.206 749.825 825.792 751.157 825.792C752.489 825.792 753.551 826.206 754.343 827.034C755.171 827.862 755.585 828.942 755.585 830.274C755.585 831.534 755.171 832.56 754.343 833.352C753.551 834.144 752.489 834.54 751.157 834.54ZM773.006 834V829.572H781.052V799.008H773.006V794.58H794.066V799.008H786.02V829.572H794.066V834H773.006ZM815.915 834.54C812.387 834.54 809.597 833.514 807.545 831.462C805.493 829.41 804.467 826.476 804.467 822.66V805.92C804.467 802.104 805.493 799.17 807.545 797.118C809.597 795.066 812.387 794.04 815.915 794.04C819.443 794.04 822.233 795.066 824.285 797.118C826.337 799.17 827.363 802.086 827.363 805.866V822.66C827.363 826.476 826.337 829.41 824.285 831.462C822.233 833.514 819.443 834.54 815.915 834.54ZM815.915 830.166C818.039 830.166 819.659 829.572 820.775 828.384C821.927 827.16 822.503 825.432 822.503 823.2V805.38C822.503 803.148 821.927 801.438 820.775 800.25C819.659 799.026 818.039 798.414 815.915 798.414C813.827 798.414 812.207 799.026 811.055 800.25C809.903 801.438 809.327 803.148 809.327 805.38V823.2C809.327 825.432 809.903 827.16 811.055 828.384C812.207 829.572 813.827 830.166 815.915 830.166Z" fill="#3374DB"/>
<path fill-rule="evenodd" clip-rule="evenodd" d="M1000.82 60.9712C999.044 62.3069 995.896 65.9476 995.576 68.1992C995.255 70.452 997.26 74.8257 998.596 76.6055C997.26 74.8257 993.621 71.6788 991.368 71.3577C989.117 71.0355 984.742 73.0417 982.962 74.3774C984.742 73.0417 987.89 69.4011 988.211 67.151C988.532 64.8982 986.526 60.5229 985.19 58.7432C986.526 60.5229 990.166 63.6714 992.419 63.9925C994.669 64.3131 999.044 62.3069 1000.82 60.9712Z" fill="white"/>
<path d="M1172.38 389.962C1176.48 389.962 1179.8 386.638 1179.8 382.539C1179.8 378.44 1176.48 375.117 1172.38 375.117C1168.28 375.117 1164.96 378.44 1164.96 382.539C1164.96 386.638 1168.28 389.962 1172.38 389.962Z" fill="white"/>
<path d="M1103.6 474.595L1095.81 471.962L1093.18 479.753L1100.97 482.386L1103.6 474.595Z" fill="white"/>
<path fill-rule="evenodd" clip-rule="evenodd" d="M1411.46 421.327C1457.41 403.101 1467.46 368.311 1495.12 351.811C1517.8 353.688 1516.12 382.628 1497.37 430.516C1477.31 431.084 1453.41 425.809 1411.46 421.327Z" fill="url(#paint2_linear_1002_5001)"/>
<path d="M1153.84 -99.6436C1229.64 -86.0759 1321.83 -52.3929 1314.54 1.59489C1301.5 98.1835 1015.96 49.5845 998.969 155.858" stroke="white" stroke-opacity="0.8" stroke-width="1.81401" stroke-linecap="round"/>
<path d="M1284 477.75C1281.97 481.722 1280.81 483.289 1278.31 487.021" stroke="white" stroke-opacity="0.8" stroke-width="0.491339" stroke-linecap="round"/>
<path d="M1008.68 227.314C1008.68 231.367 1008.89 235.296 1009.3 239.106" stroke="white" stroke-opacity="0.8" stroke-width="1.81401" stroke-linecap="round"/>
<path d="M1010.84 248.967C1035.85 369.316 1270.84 361.503 1313.09 393.459" stroke="white" stroke-opacity="0.8" stroke-width="1.81401" stroke-linecap="round"/>
<path d="M1243.79 348.047C1387.73 394.829 1190.23 434.417 1093.23 438.93" stroke="white" stroke-opacity="0.8" stroke-width="1.81401" stroke-linecap="round"/>
<path d="M993.003 142.712C967.321 212.445 979.865 291.623 1065.25 345.366" stroke="white" stroke-opacity="0.8" stroke-width="1.81401" stroke-linecap="round"/>
<path fill-rule="evenodd" clip-rule="evenodd" d="M1377.43 256.631C1369.95 255.029 1278.73 131.259 1312.23 88.3207C1314.66 86.9385 1318.52 95.3622 1320.75 101.587C1343 163.679 1380.62 138.824 1403.04 162.836L1377.43 256.631Z" fill="url(#paint3_linear_1002_5001)"/>
<path opacity="0.7" fill-rule="evenodd" clip-rule="evenodd" d="M1184.29 354.217L1236.13 360.725L1165.61 409.616L1184.29 354.217Z" fill="#69A0F7"/>
<path opacity="0.5" fill-rule="evenodd" clip-rule="evenodd" d="M1165.6 409.616L1125.67 364.708L1184.29 354.217L1165.6 409.616Z" fill="#1FC1BF"/>
<path opacity="0.5" fill-rule="evenodd" clip-rule="evenodd" d="M1030.13 359.92L999 331.592L1026.3 327L1030.13 359.92Z" fill="#1FC1BF"/>
<path opacity="0.7" fill-rule="evenodd" clip-rule="evenodd" d="M1026.3 327L1054.37 329.436L1030.13 359.92L1026.3 327Z" fill="#69A0F7"/>
<path fill-rule="evenodd" clip-rule="evenodd" d="M1090.47 48.7422L1083.93 57.533L1093.73 63.7918L1097 56.9L1090.47 48.7422Z" fill="white" stroke="white" stroke-width="0.372374" stroke-miterlimit="1.5" stroke-linecap="round" stroke-linejoin="round"/>
<path fill-rule="evenodd" clip-rule="evenodd" d="M1140.47 -17.855V200.009L1228.75 164.311C1147.24 107.858 1151.24 39.6831 1151.24 -4.51451L1140.47 -17.855Z" fill="url(#paint4_linear_1002_5001)"/>
<path fill-rule="evenodd" clip-rule="evenodd" d="M1140.46 -17.8571V200.007L1052.19 164.309C1133.69 107.856 1128.86 10.808 1128.86 -33.3896L1140.46 -17.8571Z" fill="url(#paint5_linear_1002_5001)"/>
<path fill-rule="evenodd" clip-rule="evenodd" d="M1169.44 167.634L1133.22 172.467C1095.85 168.408 1058.48 164.272 1023.4 137.365C1023.4 137.365 1070.6 124.159 1101.91 134.321C1133.22 144.482 1169.44 167.634 1169.44 167.634Z" fill="#0E4CAF"/>
<path fill-rule="evenodd" clip-rule="evenodd" d="M1043.45 208.421C1042.82 207.672 1042.22 206.911 1041.66 206.15C1033.17 193.071 1086.64 174.981 1142.32 171.809C1197.27 168.688 1247.8 183.772 1243.53 198.069C1243.47 198.259 1243.41 198.449 1243.33 198.64C1234.95 221.703 1192.06 239.285 1140.47 239.285C1096.46 239.285 1058.78 226.498 1043.45 208.421Z" fill="url(#paint6_linear_1002_5001)"/>
<path fill-rule="evenodd" clip-rule="evenodd" d="M1041.67 206.147C1038.07 201.205 1036.12 195.894 1036.12 190.385C1036.12 163.394 1082.88 141.477 1140.48 141.477C1198.07 141.477 1244.82 163.394 1244.82 190.385C1244.82 192.995 1244.39 195.565 1243.54 198.069C1247.81 183.769 1197.28 168.692 1142.33 171.815C1086.64 174.978 1033.18 193.074 1041.67 206.147Z" fill="url(#paint7_linear_1002_5001)"/>
<path d="M1172.51 264.255L1141.59 304.12L1104.91 268.659L1130.01 256.829L1172.51 264.255Z" fill="white" stroke="white" stroke-width="0.792285"/>
<path fill-rule="evenodd" clip-rule="evenodd" d="M1486.57 66.7106L1498.21 111.549L1555.89 98.3172L1542.9 150.803C1568.36 157.264 1595.36 168.867 1623.97 185.9L1555.94 207.951L1606.27 255.099C1585.67 258.618 1550.37 268.675 1525.84 268.779L1538.7 360.541C1507.88 347.398 1476.56 327.298 1444.15 291.86L1423.25 393.099C1407.01 378.226 1388.55 339.889 1370.48 297.122L1338.55 285.834C1338.54 259.44 1339.53 239.241 1341.22 223.287C1337.54 214.021 1332 197.479 1325.05 175.457L1351.05 155.195C1357.96 132.509 1367.9 112.433 1379.72 93.9979L1405.17 109.082C1425.02 86.8309 1450.02 80.9332 1486.57 66.7106Z" fill="url(#paint8_radial_1002_5001)"/>
<path opacity="0.8" d="M1009.21 222.036C1011.55 222.036 1013.45 220.141 1013.45 217.803C1013.45 215.465 1011.55 213.57 1009.21 213.57C1006.88 213.57 1004.98 215.465 1004.98 217.803C1004.98 220.141 1006.88 222.036 1009.21 222.036Z" fill="white"/>
<path opacity="0.8" d="M1292.54 455.107C1295.91 455.107 1298.64 452.38 1298.64 449.015C1298.64 445.651 1295.91 442.924 1292.54 442.924C1289.18 442.924 1286.45 445.651 1286.45 449.015C1286.45 452.38 1289.18 455.107 1292.54 455.107Z" fill="white"/>
<path d="M1094.78 602.273C1094.78 605.521 1092.15 608.155 1088.9 608.155C1085.65 608.155 1083.02 605.521 1083.02 602.273C1083.02 599.024 1085.65 596.391 1088.9 596.391C1092.15 596.391 1094.78 599.024 1094.78 602.273Z" stroke="white" stroke-opacity="0.5" stroke-width="0.41964"/>
<path opacity="0.8" d="M1124.51 664.496C1126.8 664.496 1128.66 662.636 1128.66 660.34C1128.66 658.045 1126.8 656.185 1124.51 656.185C1122.21 656.185 1120.35 658.045 1120.35 660.34C1120.35 662.636 1122.21 664.496 1124.51 664.496Z" fill="white"/>
<path d="M995.656 139.726C995.656 140.574 994.968 141.262 994.119 141.262C993.27 141.262 992.582 140.574 992.582 139.726C992.582 138.877 993.27 138.189 994.119 138.189C994.968 138.189 995.656 138.877 995.656 139.726Z" fill="white" stroke="white" stroke-width="0.109654"/>
<path d="M1234.94 347.539C1236.3 347.539 1237.4 346.435 1237.4 345.072C1237.4 343.71 1236.3 342.605 1234.94 342.605C1233.58 342.605 1232.47 343.71 1232.47 345.072C1232.47 346.435 1233.58 347.539 1234.94 347.539Z" fill="white"/>
<path d="M1289.51 222.063C1289.51 223.378 1288.44 224.444 1287.13 224.444C1285.81 224.444 1284.75 223.378 1284.75 222.063C1284.75 220.747 1285.81 219.681 1287.13 219.681C1288.44 219.681 1289.51 220.747 1289.51 222.063Z" stroke="white" stroke-opacity="0.5" stroke-width="0.169938"/>
<path opacity="0.5" fill-rule="evenodd" clip-rule="evenodd" d="M998.513 48.7422L956 57.9395L988.862 97.9254" fill="#1FC1BF"/>
<path opacity="0.7" fill-rule="evenodd" clip-rule="evenodd" d="M988.861 97.9254L1025.63 55.8717L998.513 48.7422" fill="#69A0F7"/>
<path fill-rule="evenodd" clip-rule="evenodd" d="M1648.58 288.633L1636.67 332.293L1706.59 367.205L1656.2 395.191L1692.84 437.904L1630.9 457.191L1649.83 516.492L1572.6 489.244L1520.98 560.887L1508.6 476.384L1472.8 480.474L1468.82 424.605L1450.17 390.077L1471.88 358.143L1485.03 304.775L1516.37 308.099L1565.48 280.876L1581.43 297.892L1648.58 288.633Z" fill="url(#paint9_radial_1002_5001)"/>
<path fill-rule="evenodd" clip-rule="evenodd" d="M1525.73 339.56C1520.85 345.307 1515.4 350.074 1508.47 352.337C1509.93 354.324 1511.03 356.515 1509.87 360.05C1510.66 359.673 1511.41 359.296 1512.14 358.931C1516.74 356.624 1520.36 354.807 1525.25 356.741C1522.07 351.535 1523.51 345.61 1525.73 339.56ZM1558.1 343.555C1553.15 348.613 1545.47 355.94 1540.73 357.188C1541.87 358.712 1543.18 359.771 1544.42 360.77C1546.7 362.609 1548.73 364.248 1549.01 368.221L1560.34 362.432C1558.35 359.92 1555.45 353.998 1558.1 343.555ZM1519.01 376.467C1514.13 374.196 1513.29 365.727 1516.92 363.433C1518.64 362.334 1519.01 363.99 1519.48 366.123C1520 368.458 1520.64 371.367 1523.34 371.86C1525.68 372.288 1528.15 371.24 1530.53 370.232C1533.4 369.015 1536.13 367.857 1538.32 369.433C1543.93 373.476 1525.74 379.598 1519.01 376.467Z" fill="url(#paint10_radial_1002_5001)"/>
<path fill-rule="evenodd" clip-rule="evenodd" d="M1303.25 90.7203C1302.38 90.7186 1301.54 90.7051 1300.77 90.6755C1289.86 90.2336 1283.96 87.4122 1283.43 87.0557C1281.73 85.9308 1280.98 85.031 1279.94 83.7692C1279.3 82.997 1278.55 82.0892 1277.4 80.9113C1276.35 79.8536 1277.21 79.138 1278.37 78.998C1278.47 78.9828 1278.53 78.9936 1278.69 79.0204C1279.03 79.0769 1279.8 79.2045 1282.21 79.3086C1286.3 79.4985 1287.13 79.9617 1289.61 81.356C1290.27 81.7265 1291.04 82.1627 1292.03 82.677C1297.69 85.6177 1303.61 87.5523 1312.81 88.1794C1313.42 88.2624 1313.67 88.5185 1313.69 88.8377C1314 88.836 1314.3 88.9285 1314.57 89.235C1314.73 89.4179 1314.52 89.7379 1313.84 89.9897C1313.59 90.0839 1313.36 90.1858 1313.15 90.2952C1313.08 90.4652 1313.01 90.6299 1312.89 90.7744C1312.89 90.7773 1312.85 90.7958 1312.77 90.8282C1312.85 91.1624 1312.96 91.5591 1313.25 91.9219C1312.83 92.2462 1312.41 92.5681 1311.99 92.8877C1311.59 93.1893 1311.2 93.4887 1310.81 93.786C1310.68 94.8414 1310.75 96.0425 1310.83 97.3509C1310.96 99.6404 1311.11 102.259 1310.23 105.001C1309.5 107.24 1308.52 108.404 1307.16 109.684C1305.65 111.089 1303.17 112.296 1302.8 112.475C1302.59 112.58 1300.22 113.728 1300.16 113.72C1300.01 113.723 1299.88 113.676 1299.74 113.629C1299.6 113.584 1299.47 113.539 1299.34 113.537C1299.4 113.412 1299.41 113.27 1299.43 113.129C1299.45 112.988 1299.47 112.847 1299.52 112.722C1299.55 112.67 1299.64 112.596 1299.79 112.473C1300.28 112.067 1301.42 111.135 1302.87 108.756C1303.66 107.467 1303.97 106.764 1304.35 105.878C1304.58 105.366 1304.83 104.793 1305.21 104.011C1306.62 101.159 1307.18 98.6221 1307.66 96.4536C1307.68 96.3409 1307.71 96.2293 1307.73 96.1186C1300.42 101.594 1293.52 106.192 1283.82 109.426C1279.71 110.788 1277.84 110.718 1273.38 110.248C1273.2 110.228 1272.92 110.214 1272.58 110.198L1272.58 110.198C1270.59 110.101 1266.68 109.909 1268.86 107.862C1268.93 107.791 1269 107.762 1269.15 107.689C1269.48 107.536 1270.23 107.189 1272.4 105.854C1277.41 102.781 1278.66 102.553 1282.56 101.838C1283.59 101.649 1284.81 101.426 1286.34 101.107C1293.06 99.7036 1298.84 97.9024 1307.81 92.7173C1305.28 93.6227 1302.21 94.6428 1299.56 95.3006C1298.05 95.676 1288.64 98.0013 1280.14 97.3869C1276.7 97.139 1272.98 94.9639 1270.56 93.5434C1270.11 93.2824 1269.71 93.0469 1269.36 92.8535C1267.12 91.6073 1272.62 90.4065 1274.42 90.0252C1278.95 89.1116 1280.4 89.3648 1283.66 89.9316C1285.18 90.1956 1287.08 90.5277 1289.87 90.8416C1295.56 91.4745 1300.17 91.1419 1303.25 90.7203Z" fill="url(#paint11_linear_1002_5001)"/>
<path fill-rule="evenodd" clip-rule="evenodd" d="M1410.57 40.2798C1409.12 39.5125 1408.31 39.0861 1406 39.2844C1405.93 39.2904 1405.81 39.2933 1405.67 39.297C1404.69 39.3211 1402.4 39.3776 1403.74 40.5399C1404.28 40.9229 1404.7 41.3657 1405.11 41.804C1405.85 42.5826 1406.57 43.3472 1407.93 43.7382C1411.35 44.7274 1414.33 44.7436 1417.72 44.4759C1418.31 44.4342 1419.18 44.3338 1419.91 44.2434C1419.5 44.8262 1418.88 45.5897 1418.07 46.3558C1413.99 50.1658 1407.87 50.7847 1402 51.3794C1399.57 51.6253 1397.18 51.867 1394.99 52.3282L1394.92 52.3439C1391.69 53.0256 1389.72 53.4436 1386.43 57.137C1383.92 59.9468 1385.05 59.8598 1388.11 59.6262L1388.11 59.6261L1388.11 59.6261C1388.36 59.6075 1388.61 59.5879 1388.88 59.5688C1389.21 59.5467 1389.5 59.5276 1389.77 59.5101L1389.77 59.5101L1389.78 59.5101C1392.34 59.3443 1392.65 59.3242 1395.57 58.2647C1398.28 57.2803 1400.88 56.4943 1403.32 55.7541L1403.32 55.7541C1409.11 53.9988 1414.06 52.501 1417.78 49.2256C1415.13 53.5401 1411.61 55.82 1407.54 58.4611L1407.54 58.4612C1406.73 58.9858 1405.9 59.5248 1405.05 60.0967C1402.22 62.003 1401.57 62.8506 1400.49 65.2678C1399.05 68.4764 1399.38 69.2189 1403.03 68.1265C1406.02 67.2261 1406.55 66.768 1409.25 64.0448L1409.64 63.6491L1409.64 63.6491L1409.64 63.6491C1415.04 58.1864 1418.79 54.3895 1421.05 46.4629C1421.87 56.6702 1417.79 61.3505 1414.29 65.3485C1413.41 66.3614 1412.56 67.3304 1411.84 68.3345C1411.59 68.6835 1410.57 70.1041 1410.17 73.5796C1410.03 74.8066 1409.87 75.4987 1409.8 75.8072C1409.77 75.9212 1409.76 75.9828 1409.76 75.9997C1409.93 76.9257 1410.15 77.0859 1411.02 76.6983C1412.84 75.804 1415.77 73.4162 1416.91 71.7246C1423.29 62.2389 1423.74 56.5218 1423.39 51.2308C1423.15 47.6612 1422.17 43.6996 1422.17 43.6996C1422.05 43.5807 1421.9 43.4993 1421.75 43.4179L1421.69 43.3847C1421.63 43.2375 1421.58 43.0911 1421.56 42.9393C1421.44 42.9956 1421.3 43.0265 1421.16 43.054C1421.12 43.0498 1421.03 43.0498 1420.9 43.0499C1420.01 43.0505 1417.12 43.0523 1413.66 41.7135C1412.26 41.17 1411.33 40.6788 1410.57 40.2798Z" fill="url(#paint12_linear_1002_5001)"/>
<path fill-rule="evenodd" clip-rule="evenodd" d="M1385.49 163.543L1385.49 163.543C1388.85 159.953 1391.64 156.988 1392.11 154.48L1382.69 150.754C1389.37 153.163 1401.98 153.716 1410.51 141.911L1406.03 148.844C1405.27 151.213 1406.15 152.833 1410.08 153.064C1398.89 158.051 1393.71 167.41 1390.4 178.121C1392.48 163.397 1389.3 159.83 1379.44 170.375C1381.43 167.87 1383.56 165.604 1385.49 163.543ZM1419.22 159.785C1421.72 156.652 1424.08 154.716 1425.97 153.161C1428.22 151.312 1429.82 150.001 1430.22 147.856L1422.33 145.336C1428.91 147.173 1437.58 143.56 1445.75 132.26L1440.76 140.781C1440 143.149 1447.65 144.806 1451.58 145.038C1441.51 149.539 1439.74 155.483 1437.06 164.443L1437.06 164.444C1436.77 165.433 1436.46 166.459 1436.13 167.524C1438.22 152.799 1429.09 149.253 1419.22 159.785ZM1421.48 145.064C1421.76 145.165 1422.04 145.255 1422.33 145.336L1421.48 145.064ZM1420.65 188.886C1419.69 181.379 1417.99 175.399 1416.86 175.543C1415.73 175.688 1415.17 180.523 1418.15 189.264C1419.57 193.439 1419.69 197.38 1419.77 199.911C1419.83 201.722 1419.86 202.812 1420.33 202.752C1421.46 202.607 1421.6 196.392 1420.65 188.886Z" fill="url(#paint13_radial_1002_5001)"/>
<path fill-rule="evenodd" clip-rule="evenodd" d="M1161.92 -12.9692C1161.92 -3.3318 1162.46 6.2737 1164.38 15.7409L1160.03 16.6214C1158.05 6.86405 1157.48 -3.03605 1157.48 -12.9695L1161.92 -12.9692Z" fill="white" stroke="white" stroke-width="2.7689" stroke-linecap="square"/>
<path fill-rule="evenodd" clip-rule="evenodd" d="M1148.82 34.2134C1148.82 41.5716 1148.93 42.6817 1150.33 49.5954L1145.99 50.4758C1144.51 43.1521 1144.38 41.7123 1144.38 34.2131L1148.82 34.2134Z" fill="#F2FBEB"/>
<path fill-rule="evenodd" clip-rule="evenodd" d="M1101.61 74.9773C1101.61 83.458 1101.48 84.7374 1099.84 92.7058L1104.92 93.7206C1106.65 85.2797 1106.79 83.6202 1106.79 74.9771L1101.61 74.9773Z" fill="#F2FBEB"/>
<path fill-rule="evenodd" clip-rule="evenodd" d="M1128.44 44.4204C1127.92 62.2914 1126.91 65.2116 1123.42 82.1856L1134.24 84.3472C1137 67.2436 1138.23 62.8318 1138.23 44.4204H1128.44Z" fill="white"/>
<path d="M1180.94 44.8296C1179.98 71.7757 1186.38 99.5705 1203.01 128.558" stroke="white" stroke-opacity="0.8" stroke-width="1.81401" stroke-linecap="round"/>
<path d="M1217.58 204.486C1238.58 221.4 1264.67 232.933 1297.84 236.987" stroke="white" stroke-opacity="0.8" stroke-width="1.81401" stroke-linecap="round"/>
<path d="M1035.65 235.232C1058.02 220.188 1076.77 198.691 1090.47 168.207" stroke="white" stroke-opacity="0.8" stroke-width="1.81401" stroke-linecap="round"/>
<path fill-rule="evenodd" clip-rule="evenodd" d="M1496.77 246.578C1459.96 108.289 1424.11 89.3819 1420.78 42.8291C1485.27 66.8132 1554.34 145.973 1555.77 193.908C1556.85 230.573 1496.77 246.578 1496.77 246.578Z" fill="url(#paint14_radial_1002_5001)"/>
<path fill-rule="evenodd" clip-rule="evenodd" d="M1496.77 246.578C1459.96 108.289 1424.11 89.3819 1420.78 42.8291C1485.27 66.8132 1554.34 145.973 1555.77 193.908C1556.85 230.573 1496.77 246.578 1496.77 246.578Z" fill="url(#paint15_radial_1002_5001)"/>
<path opacity="0.8" d="M1014.74 589.593L1009.87 592.555L1012.83 597.424L1017.7 594.462L1014.74 589.593Z" fill="white"/>
<path d="M1295.57 204.609L1294.03 205.547L1294.97 207.088L1296.51 206.15L1295.57 204.609Z" fill="white"/>
<path d="M1313.97 206.11L1310.72 205.005L1309.62 208.25L1312.86 209.354L1313.97 206.11Z" fill="white"/>
<path d="M1269.31 490.808L1267.25 492.064L1268.5 494.13L1270.57 492.873L1269.31 490.808Z" fill="white"/>
<path opacity="0.8" fill-rule="evenodd" clip-rule="evenodd" d="M1058.8 541.943C1058.8 543.211 1059.38 545.876 1060.3 546.789C1061.21 547.702 1063.88 548.286 1065.15 548.286C1063.88 548.286 1061.21 548.869 1060.3 549.783C1059.38 550.696 1058.8 553.36 1058.8 554.629C1058.8 553.36 1058.22 550.696 1057.31 549.783C1056.4 548.869 1053.72 548.286 1052.46 548.286C1053.72 548.286 1056.4 547.702 1057.31 546.789C1058.22 545.876 1058.8 543.211 1058.8 541.943Z" fill="white"/>
<path d="M1089.36 322.697C1089.39 322.646 1089.43 322.595 1089.46 322.544C1089.74 322.094 1090 321.621 1090.19 321.167C1090.38 320.718 1090.52 320.262 1090.54 319.851C1090.55 319.44 1090.46 318.975 1090.31 318.511C1090.16 318.042 1089.95 317.549 1089.7 317.074C1089.68 317.02 1089.65 316.965 1089.62 316.911C1089.67 316.944 1089.72 316.977 1089.78 317.01C1090.23 317.293 1090.7 317.551 1091.15 317.743C1091.6 317.933 1092.05 318.069 1092.47 318.089C1092.88 318.109 1093.34 318.015 1093.81 317.867C1094.28 317.716 1094.77 317.502 1095.25 317.259C1095.3 317.232 1095.35 317.204 1095.41 317.176C1095.37 317.227 1095.34 317.278 1095.31 317.329C1095.02 317.78 1094.77 318.252 1094.57 318.706C1094.38 319.154 1094.25 319.608 1094.23 320.016L1094.23 320.019C1094.21 320.429 1094.3 320.894 1094.45 321.359C1094.6 321.828 1094.82 322.321 1095.06 322.795C1095.09 322.85 1095.11 322.905 1095.14 322.959C1095.09 322.925 1095.04 322.892 1094.99 322.86C1094.54 322.576 1094.07 322.319 1093.61 322.127C1093.16 321.937 1092.71 321.8 1092.3 321.78L1092.3 321.78C1091.89 321.763 1091.42 321.858 1090.96 322.007C1090.49 322.158 1090 322.372 1089.52 322.613C1089.47 322.641 1089.41 322.669 1089.36 322.697Z" stroke="white" stroke-opacity="0.5" stroke-width="0.792285"/>
<path opacity="0.8" fill-rule="evenodd" clip-rule="evenodd" d="M1267.13 194.218C1268.04 195.21 1270.4 196.884 1271.78 196.95C1273.15 197.017 1275.66 195.552 1276.65 194.646C1275.66 195.552 1273.98 197.926 1273.92 199.292C1273.86 200.668 1275.31 203.173 1276.22 204.166C1275.31 203.173 1272.95 201.5 1271.57 201.433C1270.21 201.375 1267.69 202.831 1266.7 203.736C1267.69 202.831 1269.38 200.467 1269.43 199.091C1269.49 197.715 1268.04 195.21 1267.13 194.218Z" fill="white"/>
<path fill-rule="evenodd" clip-rule="evenodd" d="M1374.02 88.8521C1373.69 89.5877 1373.33 91.2874 1373.62 92.0613C1373.91 92.8352 1375.31 93.869 1376.05 94.2005C1375.31 93.869 1373.6 93.5083 1372.83 93.7962C1372.06 94.0911 1371.03 95.4866 1370.7 96.2222C1371.03 95.4866 1371.39 93.7868 1371.1 93.0129C1370.81 92.246 1369.41 91.2052 1368.67 90.874C1369.41 91.2052 1371.11 91.5728 1371.88 91.2779C1372.65 90.9831 1373.69 89.5877 1374.02 88.8521Z" fill="white"/>
<path fill-rule="evenodd" clip-rule="evenodd" d="M1289.11 478.397C1289.16 478.985 1289.53 480.201 1289.99 480.594C1290.45 480.987 1291.72 481.152 1292.3 481.104C1291.72 481.152 1290.5 481.525 1290.1 481.982C1289.72 482.444 1289.55 483.704 1289.59 484.292C1289.55 483.704 1289.18 482.488 1288.72 482.095C1288.26 481.708 1286.99 481.537 1286.4 481.585C1286.99 481.537 1288.21 481.169 1288.6 480.707C1288.99 480.245 1289.16 478.985 1289.11 478.397Z" fill="white"/>
<path d="M1098.29 23.5778C1098.3 23.4661 1098.31 23.3542 1098.32 23.2424C1098.36 22.6654 1098.37 22.0819 1098.32 21.5501C1098.28 21.0238 1098.18 20.5218 1097.99 20.1237C1097.8 19.7252 1097.48 19.3292 1097.1 18.9599C1096.72 18.5869 1096.26 18.2225 1095.79 17.8898C1095.7 17.8253 1095.6 17.7618 1095.51 17.6994C1095.62 17.7103 1095.73 17.72 1095.84 17.7283C1096.42 17.7712 1097.01 17.7784 1097.54 17.7321C1098.06 17.6862 1098.57 17.5858 1098.97 17.3972C1099.36 17.2088 1099.76 16.8841 1100.13 16.5059C1100.5 16.1239 1100.86 15.6681 1101.2 15.1946C1101.26 15.1029 1101.33 15.0101 1101.39 14.9168C1101.38 15.0285 1101.37 15.1405 1101.36 15.2523C1101.32 15.8294 1101.31 16.4129 1101.36 16.9447C1101.4 17.4711 1101.5 17.9731 1101.69 18.3713C1101.69 18.3714 1101.69 18.3715 1101.69 18.3715L1102.05 18.2018C1102.48 19.1151 1103.85 20.1748 1105.11 20.9175C1104.81 20.8681 1104.49 20.8266 1104.17 20.7954C1104.44 20.9734 1104.71 21.142 1104.98 21.297L1098.29 23.5778ZM1098.29 23.5778C1098.35 23.4844 1098.42 23.3917 1098.48 23.3C1098.81 22.8265 1099.18 22.3707 1099.55 21.9887C1099.92 21.6107 1100.32 21.2861 1100.72 21.0978" fill="white" stroke="white" stroke-width="0.792285"/>
<path fill-rule="evenodd" clip-rule="evenodd" d="M1163.64 104.439C1163.14 105.815 1162.74 108.95 1163.38 110.299C1164.02 111.65 1166.7 113.321 1168.07 113.813C1166.7 113.321 1163.56 112.914 1162.21 113.553C1160.86 114.192 1159.19 116.875 1158.7 118.251C1159.19 116.875 1159.6 113.74 1158.96 112.391C1158.32 111.04 1155.64 109.368 1154.26 108.877C1155.64 109.368 1158.77 109.776 1160.12 109.137C1161.47 108.498 1163.14 105.815 1163.64 104.439Z" fill="#F2FBEB"/>
<path fill-rule="evenodd" clip-rule="evenodd" d="M1140.47 -17.856V200.008L1228.75 164.31C1147.24 107.858 1151.24 39.6822 1151.24 -4.51548L1140.47 -17.856Z" fill="url(#paint16_linear_1002_5001)"/>
<path fill-rule="evenodd" clip-rule="evenodd" d="M1140.47 -17.8566V200.007L1052.19 164.309C1133.7 107.857 1128.86 10.8085 1128.86 -33.3892L1140.47 -17.8566Z" fill="url(#paint17_linear_1002_5001)"/>
<path fill-rule="evenodd" clip-rule="evenodd" d="M1169.45 167.633L1133.22 172.466C1095.85 168.407 1058.49 164.271 1023.4 137.365C1023.4 137.365 1070.61 124.158 1101.91 134.32C1133.22 144.481 1169.45 167.633 1169.45 167.633Z" fill="#787878"/>
<path fill-rule="evenodd" clip-rule="evenodd" d="M1043.46 208.42C1042.82 207.671 1042.23 206.91 1041.67 206.149C1033.18 193.07 1086.64 174.98 1142.33 171.808C1197.27 168.687 1247.8 183.771 1243.54 198.068C1243.48 198.258 1243.41 198.448 1243.34 198.639C1234.96 221.702 1192.06 239.284 1140.47 239.284C1096.47 239.284 1058.79 226.497 1043.46 208.42Z" fill="url(#paint18_linear_1002_5001)"/>
<path fill-rule="evenodd" clip-rule="evenodd" d="M1041.67 206.147C1038.08 201.205 1036.13 195.893 1036.13 190.384C1036.13 163.393 1082.88 141.476 1140.48 141.476C1198.07 141.476 1244.83 163.393 1244.83 190.384C1244.83 192.994 1244.39 195.564 1243.55 198.068C1247.81 183.768 1197.28 168.691 1142.33 171.815C1086.65 174.978 1033.18 193.073 1041.67 206.147Z" fill="url(#paint19_linear_1002_5001)"/>
<path d="M1098.16 158.879C1098.16 161.089 1096.37 162.881 1094.16 162.881C1091.95 162.881 1090.16 161.089 1090.16 158.879C1090.16 156.668 1091.95 154.876 1094.16 154.876C1096.37 154.876 1098.16 156.668 1098.16 158.879Z" stroke="#FFCED4" stroke-width="0.461483"/>
<path fill-rule="evenodd" clip-rule="evenodd" d="M1148.82 34.2126C1148.82 41.5708 1148.93 42.6809 1150.33 49.5946L1145.99 50.4751C1144.5 43.1514 1144.38 41.7116 1144.38 34.2124L1148.82 34.2126Z" fill="#F2FBEB"/>
<path fill-rule="evenodd" clip-rule="evenodd" d="M1101.61 74.9766C1101.61 83.4573 1101.48 84.7367 1099.84 92.7051L1104.92 93.7198C1106.65 85.279 1106.79 83.6195 1106.79 74.9763L1101.61 74.9766Z" fill="#F2FBEB"/>
<path fill-rule="evenodd" clip-rule="evenodd" d="M1128.44 44.4209C1127.93 62.2919 1126.91 65.2121 1123.43 82.1861L1134.24 84.3477C1137.01 67.244 1138.24 62.8323 1138.24 44.4209H1128.44Z" fill="white"/>
<path d="M1035.65 235.23C1058.02 220.185 1076.77 198.688 1090.47 168.205" stroke="#DFEBD5" stroke-width="1.02205" stroke-linecap="round"/>
<mask id="mask0_1002_5001" style="mask-type:alpha" maskUnits="userSpaceOnUse" x="1036" y="141" width="209" height="66">
<path fill-rule="evenodd" clip-rule="evenodd" d="M1041.67 206.146C1038.08 201.204 1036.13 195.893 1036.13 190.384C1036.13 163.393 1082.89 141.475 1140.48 141.475C1198.07 141.475 1244.83 163.393 1244.83 190.384C1244.83 192.993 1244.39 195.563 1243.55 198.067C1247.81 183.768 1197.28 168.691 1142.33 171.814C1086.65 174.977 1033.18 193.072 1041.67 206.146Z" fill="#FF6300"/>
</mask>
<g mask="url(#mask0_1002_5001)">
<path d="M1022.78 138.636C1033.97 163.167 1052.12 185.167 1079.96 203.656" stroke="#DFEBD5" stroke-width="1.02205" stroke-linecap="round"/>
<path d="M1042.2 134.172C1053.39 158.702 1071.55 180.703 1099.39 199.192" stroke="#DFEBD5" stroke-width="1.02205" stroke-linecap="round"/>
<path d="M1065.03 146.344C1085.12 164.322 1110.57 177.192 1143.49 182.958" stroke="#DFEBD5" stroke-width="1.02205" stroke-linecap="round"/>
<path d="M1089.17 141.364C1121.63 163.836 1160.79 178.168 1209.29 181.182" stroke="#B7CED1" stroke-width="1.02205" stroke-linecap="round"/>
<path d="M1141.33 135.672C1168.13 164.661 1203.23 187.162 1249.93 200.648" stroke="#B7CED1" stroke-width="1.02205" stroke-linecap="round"/>
<path d="M1175.14 125.291C1193.66 160.15 1221.87 190.855 1263.59 215.794" stroke="#B7CED1" stroke-width="1.02205" stroke-linecap="round"/>
</g>
<path fill-rule="evenodd" clip-rule="evenodd" d="M1163.64 104.437C1163.15 105.813 1162.74 108.947 1163.38 110.297C1164.02 111.648 1166.7 113.319 1168.08 113.811C1166.7 113.319 1163.57 112.912 1162.22 113.551C1160.87 114.189 1159.2 116.872 1158.71 118.248C1159.2 116.872 1159.61 113.738 1158.97 112.388C1158.33 111.038 1155.64 109.366 1154.27 108.874C1155.64 109.366 1158.78 109.774 1160.13 109.134C1161.48 108.496 1163.15 105.813 1163.64 104.437Z" fill="#F2FBEB"/>
<path fill-rule="evenodd" clip-rule="evenodd" d="M1023.4 137.364C1054.73 122.991 1149.73 108.846 1228.65 152.676C1230.62 153.767 1232.34 155.34 1234.5 157.586C1236.66 159.818 1238.79 163.738 1239.72 165.501C1248.77 182.792 1248.4 183.972 1246.43 194.565C1244.55 180.522 1209.19 161.873 1139.31 164.436C1095.17 130.768 1062.82 137.364 1023.4 137.364Z" fill="url(#paint20_linear_1002_5001)"/>
<path fill-rule="evenodd" clip-rule="evenodd" d="M1576.51 406.687C1601.46 450.03 1641.56 443.443 1695.37 495.842C1668.27 419.286 1652.25 391.326 1625.84 361.748C1596.09 328.428 1567.9 381.243 1576.51 406.687Z" fill="url(#paint21_linear_1002_5001)"/>
<path fill-rule="evenodd" clip-rule="evenodd" d="M1023.4 137.367C1054.72 122.994 1149.73 108.849 1228.65 152.679C1230.61 153.77 1232.34 155.343 1234.5 157.588C1236.66 159.821 1238.79 163.741 1239.71 165.504C1248.77 182.795 1248.39 183.975 1246.42 194.567C1244.54 180.524 1209.18 161.876 1139.3 164.438C1095.16 130.77 1062.81 137.367 1023.4 137.367Z" fill="url(#paint22_linear_1002_5001)"/>
<path opacity="0.5" fill-rule="evenodd" clip-rule="evenodd" d="M1138.82 332.235L1042.12 243.18L1149.49 208.624" fill="#1FC1BF"/>
<path opacity="0.7" fill-rule="evenodd" clip-rule="evenodd" d="M1149.4 208.624L1261.71 243.18L1138.73 332.235" fill="#69A0F7"/>
<rect x="51" y="336" width="359" height="359" rx="38" stroke="url(#paint23_linear_1002_5001)" stroke-width="8"/>
</g>
<defs>
<linearGradient id="paint0_linear_1002_5001" x1="800" y1="0" x2="800" y2="900" gradientUnits="userSpaceOnUse">
<stop stop-color="#B3FFA0"/>
<stop offset="0.685" stop-color="#EAFFE5"/>
<stop offset="1" stop-color="#EFFFF7"/>
</linearGradient>
<linearGradient id="paint1_linear_1002_5001" x1="322.214" y1="122" x2="610.815" y2="446.338" gradientUnits="userSpaceOnUse">
<stop stop-color="#39D551"/>
<stop offset="1" stop-color="#3374DB"/>
</linearGradient>
<linearGradient id="paint2_linear_1002_5001" x1="1512.87" y1="379.808" x2="1423.71" y2="378.38" gradientUnits="userSpaceOnUse">
<stop offset="0.26" stop-color="#EFFFF7" stop-opacity="0"/>
<stop offset="0.425" stop-color="#B8FFE4" stop-opacity="0"/>
<stop offset="0.518" stop-color="#6FE8EC"/>
<stop offset="0.809272" stop-color="#4991E6"/>
</linearGradient>
<linearGradient id="paint3_linear_1002_5001" x1="1298.23" y1="80.7688" x2="1382.58" y2="237.596" gradientUnits="userSpaceOnUse">
<stop offset="0.190728" stop-color="#4991E6"/>
<stop offset="0.482" stop-color="#6FE8EC"/>
<stop offset="0.575" stop-color="#B8FFE4"/>
<stop offset="0.74" stop-color="#EFFFF7"/>
</linearGradient>
<linearGradient id="paint4_linear_1002_5001" x1="1184.61" y1="-17.855" x2="1184.61" y2="140.579" gradientUnits="userSpaceOnUse">
<stop stop-color="#FAFBFF"/>
<stop offset="1" stop-color="#AAC9FD"/>
</linearGradient>
<linearGradient id="paint5_linear_1002_5001" x1="1082.73" y1="325.762" x2="1259.98" y2="225.133" gradientUnits="userSpaceOnUse">
<stop offset="0.690949" stop-color="#D6E4FF"/>
<stop offset="0.878762" stop-color="#FAFBFF"/>
</linearGradient>
<linearGradient id="paint6_linear_1002_5001" x1="1142.28" y1="171.395" x2="1142.28" y2="241.26" gradientUnits="userSpaceOnUse">
<stop stop-color="#68DFDC"/>
<stop offset="1" stop-color="#3374DB"/>
</linearGradient>
<linearGradient id="paint7_linear_1002_5001" x1="1036.12" y1="173.812" x2="1143.05" y2="141.477" gradientUnits="userSpaceOnUse">
<stop stop-color="#68DFDC"/>
<stop offset="1" stop-color="#69A0F7"/>
</linearGradient>
<radialGradient id="paint8_radial_1002_5001" cx="0" cy="0" r="1" gradientUnits="userSpaceOnUse" gradientTransform="translate(1429.27 206.533) rotate(48.6936) scale(189.671 204.584)">
<stop offset="0.26" stop-color="#EFFFF7"/>
<stop offset="0.425" stop-color="#B8FFE4"/>
<stop offset="0.518" stop-color="#6FE8EC"/>
<stop offset="0.809272" stop-color="#4991E6"/>
</radialGradient>
<radialGradient id="paint9_radial_1002_5001" cx="0" cy="0" r="1" gradientUnits="userSpaceOnUse" gradientTransform="translate(1547.02 389.015) rotate(142.525) scale(138.657 141.981)">
<stop offset="0.196106" stop-color="#EFFFF7"/>
<stop offset="0.425" stop-color="#B8FFE4"/>
<stop offset="0.518" stop-color="#6FE8EC"/>
<stop offset="0.809272" stop-color="#4991E6"/>
</radialGradient>
<radialGradient id="paint10_radial_1002_5001" cx="0" cy="0" r="1" gradientUnits="userSpaceOnUse" gradientTransform="translate(1557 375.019) rotate(-141.647) scale(63.4021 50.4555)">
<stop offset="0.303759" stop-color="#00AAB5"/>
<stop offset="0.814207" stop-color="#018EAD"/>
</radialGradient>
<linearGradient id="paint11_linear_1002_5001" x1="1267" y1="91.952" x2="1309.24" y2="115.434" gradientUnits="userSpaceOnUse">
<stop stop-color="#4991E5"/>
<stop offset="1" stop-color="#456CF5"/>
</linearGradient>
<linearGradient id="paint12_linear_1002_5001" x1="1384.64" y1="53.4809" x2="1423.23" y2="69.7499" gradientUnits="userSpaceOnUse">
<stop stop-color="#4991E5"/>
<stop offset="1" stop-color="#456CF5"/>
</linearGradient>
<radialGradient id="paint13_radial_1002_5001" cx="0" cy="0" r="1" gradientUnits="userSpaceOnUse" gradientTransform="translate(1464.25 181.46) rotate(-160.419) scale(101.036 80.6857)">
<stop offset="0.303759" stop-color="#00AAB5"/>
<stop offset="0.814207" stop-color="#018EAD"/>
</radialGradient>
<radialGradient id="paint14_radial_1002_5001" cx="0" cy="0" r="1" gradientUnits="userSpaceOnUse" gradientTransform="translate(1437.58 66.772) rotate(85.3006) scale(172.624 167.782)">
<stop stop-color="#FC2C2C"/>
<stop offset="0.469057" stop-color="#FF89AC"/>
<stop offset="0.714401" stop-color="#FFE2FE" stop-opacity="0.5"/>
<stop offset="0.917489" stop-color="#FFF9FF" stop-opacity="0"/>
</radialGradient>
<radialGradient id="paint15_radial_1002_5001" cx="0" cy="0" r="1" gradientUnits="userSpaceOnUse" gradientTransform="translate(1442.52 86.1958) rotate(63.6154) scale(279.4 222.754)">
<stop offset="0.190728" stop-color="#4991E6"/>
<stop offset="0.430443" stop-color="#6FE8EC"/>
<stop offset="0.578905" stop-color="#B8FFE4" stop-opacity="0"/>
<stop offset="1" stop-color="#EFFFF7" stop-opacity="0"/>
</radialGradient>
<linearGradient id="paint16_linear_1002_5001" x1="1184.61" y1="-17.856" x2="1184.61" y2="140.578" gradientUnits="userSpaceOnUse">
<stop stop-color="#EFDFDF"/>
<stop offset="1" stop-color="#C8D1FF"/>
</linearGradient>
<linearGradient id="paint17_linear_1002_5001" x1="1082.73" y1="325.763" x2="1259.98" y2="225.133" gradientUnits="userSpaceOnUse">
<stop offset="0.690949" stop-color="#E2EED8"/>
<stop offset="0.878762" stop-color="#F2F0FF"/>
</linearGradient>
<linearGradient id="paint18_linear_1002_5001" x1="1142.28" y1="171.394" x2="1142.28" y2="241.26" gradientUnits="userSpaceOnUse">
<stop stop-color="#E18BDE"/>
<stop offset="1" stop-color="#FF011D"/>
</linearGradient>
<linearGradient id="paint19_linear_1002_5001" x1="1036.13" y1="173.811" x2="1143.05" y2="141.476" gradientUnits="userSpaceOnUse">
<stop stop-color="#FF6300"/>
<stop offset="1" stop-color="#FF0420"/>
</linearGradient>
<linearGradient id="paint20_linear_1002_5001" x1="1100.95" y1="233.021" x2="1126.58" y2="112.205" gradientUnits="userSpaceOnUse">
<stop offset="0.690949" stop-color="#E2EED8"/>
<stop offset="0.878762" stop-color="white"/>
</linearGradient>
<linearGradient id="paint21_linear_1002_5001" x1="1566.33" y1="346.472" x2="1663.5" y2="481.809" gradientUnits="userSpaceOnUse">
<stop offset="0.26" stop-color="#EFFFF7" stop-opacity="0"/>
<stop offset="0.425" stop-color="#B8FFE4" stop-opacity="0"/>
<stop offset="0.518" stop-color="#6FE8EC"/>
<stop offset="0.809272" stop-color="#4991E6"/>
</linearGradient>
<linearGradient id="paint22_linear_1002_5001" x1="1100.95" y1="233.024" x2="1126.58" y2="112.207" gradientUnits="userSpaceOnUse">
<stop offset="0.690949" stop-color="#D6E4FF"/>
<stop offset="0.878762" stop-color="white"/>
</linearGradient>
<linearGradient id="paint23_linear_1002_5001" x1="414" y1="699" x2="47" y2="365" gradientUnits="userSpaceOnUse">
<stop stop-color="#3374DB"/>
<stop offset="1" stop-color="#0DA529"/>
</linearGradient>
<clipPath id="clip0_1002_5001">
<rect width="1600" height="900" fill="white"/>
</clipPath>
</defs>
</svg>
