<svg width="124" height="124" viewBox="0 0 124 124" fill="none" xmlns="http://www.w3.org/2000/svg">
<g clip-path="url(#clip0_3170_296277)">
<path fill-rule="evenodd" clip-rule="evenodd" d="M80.5678 58.2028L101.848 73.8023C96.3956 68.0946 91.61 60.9979 87.2341 53.0466C107.783 65.4397 121.505 74.3145 119.731 75.2153C107.05 82.0375 93.1694 86.5194 78.5451 89.5535" fill="url(#paint0_radial_3170_296277)"/>
<path fill-rule="evenodd" clip-rule="evenodd" d="M37.6267 18.9075C43.8794 20.3424 51.0601 27.0617 55.6506 38.5861L57.2135 26.8182C60.5448 31.9758 62.3439 35.7451 63.4967 38.9293L74.9914 28.5072L78.978 48.5134L89.9856 55.0868L88.1835 71.2482L95.6751 77.6462L86.8619 85.4748L92.4921 94.457L82.1136 92.9972L82.9591 105.505L74.043 100.431L73.788 118.142L57.8812 103.186L41.2305 123.251L38.6815 100.907L20.4623 109.346L26.7306 90.0274L3.98028 86.9984L19.3366 68.183L2.2257 57.274L24.3929 54.19L20.6463 41.6334L37.0648 43.2734L37.6267 18.9075Z" fill="url(#paint1_radial_3170_296277)"/>
<path fill-rule="evenodd" clip-rule="evenodd" d="M63.7626 58.9663C61.8229 62.1145 60.9567 65.5884 60.005 69.4506C60.5547 69.5157 65.0217 69.3109 65.5466 69.347L63.7626 58.9663Z" fill="url(#paint2_radial_3170_296277)"/>
<path fill-rule="evenodd" clip-rule="evenodd" d="M56.5978 52.8517C57.3899 53.1928 58.1556 53.6862 58.8874 54.3664C59.1491 54.608 59.1652 55.0185 58.9235 55.2803C58.6781 55.5397 58.2706 55.555 58.0089 55.3134C56.0668 53.507 53.8326 53.2771 51.4831 53.7077C51.1329 53.7701 50.7958 53.5377 50.7334 53.1875C50.6679 52.8381 50.9003 52.501 51.2497 52.4355C52.5653 52.1944 53.844 52.1408 55.0706 52.3819C54.2405 50.1689 53.094 48.5765 51.6326 47.5719C51.339 47.3706 51.2627 46.9656 51.4639 46.6719C51.6682 46.3775 52.071 46.3052 52.3646 46.5064C54.2104 47.7767 55.648 49.856 56.5978 52.8517Z" fill="url(#paint3_linear_3170_296277)"/>
<path fill-rule="evenodd" clip-rule="evenodd" d="M67.3625 51.4765C68.4562 51.0664 69.6544 51.0708 70.9205 51.3325C71.2345 51.3964 71.4357 51.7077 71.3718 52.0217C71.3051 52.3363 70.9965 52.5368 70.6826 52.4729C68.8518 52.0908 67.1816 52.3572 65.8701 54.0457C65.6743 54.2995 65.309 54.345 65.0552 54.1491C64.8007 53.9505 64.7554 53.5852 64.9512 53.3314C65.3676 52.7943 65.8151 52.369 66.2876 52.0425C65.8423 49.5824 64.9304 47.9232 63.6722 46.8244C63.4314 46.6106 63.4059 46.2433 63.619 45.9997C63.83 45.7597 64.1973 45.7342 64.4409 45.9472C65.8009 47.1372 66.8359 48.8909 67.3625 51.4765Z" fill="url(#paint4_radial_3170_296277)"/>
<path fill-rule="evenodd" clip-rule="evenodd" d="M25.8656 71.6967C21.0123 55.3808 16.1694 38.5927 11.6019 10.2481L40.7683 49.0543C53.3957 72.1568 31.4581 83.0849 25.8656 71.6967Z" fill="url(#paint5_radial_3170_296277)"/>
<path fill-rule="evenodd" clip-rule="evenodd" d="M88.4032 44.5937L87.3355 45.9169C87.4915 46.019 87.6458 46.1253 87.7953 46.2366C88.0225 46.4026 88.2342 46.581 88.4294 46.7691C88.7312 47.0613 88.9829 47.3455 89.2052 47.6408C89.3321 47.8077 89.4327 47.941 89.5217 48.1054C89.8924 48.7844 90.1161 49.19 90.0891 49.5627C90.1812 49.8066 90.0599 50.0807 89.8131 50.1739C89.5693 50.266 89.2941 50.1417 89.202 49.8979C89.1412 49.8437 89.0491 49.9019 88.9398 49.8525C88.7282 49.7546 88.4955 49.7518 88.1752 49.6413C87.8577 49.5296 87.533 49.4341 87.1639 49.2747C86.9436 49.1801 86.7268 49.0773 86.51 48.9478C86.1567 48.7322 85.8098 48.4805 85.4754 48.2174L81.1227 53.6048C80.6869 57.3914 82.0199 59.7378 84.7837 60.9226L121.217 55.2145C114.981 55.6167 100.086 32.6809 103.904 25.4076L90.8601 41.5541C90.7866 41.7061 90.6686 42.0427 90.6686 42.0427L90.2586 43.5873L89.8401 45.8736C89.8812 46.1334 89.702 46.379 89.4452 46.4189C89.1855 46.46 88.9428 46.2798 88.9028 46.0229C88.9028 46.0229 88.653 45.4594 88.4032 44.5937Z" fill="url(#paint6_linear_3170_296277)"/>
<path d="M122.185 54.9359C124.907 53.3366 123.156 45.3041 118.274 36.9947C113.392 28.6852 107.227 23.2456 104.505 24.8448C101.783 26.4441 103.534 34.4768 108.417 42.7862C113.299 51.0956 119.463 56.5352 122.185 54.9359Z" fill="url(#paint7_linear_3170_296277)"/>
<path fill-rule="evenodd" clip-rule="evenodd" d="M12.3009 10.7966C12.4523 10.7293 12.6284 10.7982 12.6958 10.9497C12.7601 11.1019 12.6911 11.2779 12.5397 11.3452C12.5397 11.3452 11.0029 12.1474 8.94686 12.3162C7.76961 12.4123 6.44106 12.281 5.13448 11.7102C4.20218 11.3009 3.28618 10.6607 2.47002 9.69742C2.1799 9.35606 1.89044 8.97891 1.65875 8.53537C1.5173 8.26986 1.39639 7.983 1.29903 7.67399C1.23998 7.47838 1.18779 7.28428 1.14775 7.07416C1.12153 6.91884 1.09235 6.77724 1.08059 6.61504C1.04708 6.25106 1.04633 5.92736 1.05389 5.53359C1.00406 5.37452 1.09211 5.20982 1.25118 5.15998C1.40721 5.11092 1.57571 5.20117 1.62478 5.3572C1.92043 5.79756 2.21588 6.12145 2.49922 6.50015C2.61226 6.653 2.71837 6.79136 2.82073 6.94042C2.97505 7.16706 3.12861 7.37774 3.26691 7.59222C3.48848 7.93144 3.68716 8.25699 3.90558 8.54519C4.50357 9.33679 5.146 9.91962 5.83609 10.3188C8.81681 12.0445 12.3009 10.7966 12.3009 10.7966Z" fill="url(#paint8_linear_3170_296277)"/>
<path fill-rule="evenodd" clip-rule="evenodd" d="M10.9995 10.7299C11.1975 10.7188 11.3653 10.8708 11.3764 11.0688C11.3867 11.2638 11.2377 11.4308 11.0397 11.4419C11.0397 11.4419 7.53582 11.9305 4.51224 8.26277C3.92432 7.54959 3.36272 6.67108 2.87609 5.58908C2.70393 5.20177 2.5264 4.79317 2.41352 4.34557C2.34287 4.06545 2.29352 3.77993 2.26852 3.47534C2.25059 3.27583 2.24255 3.08999 2.25126 2.88053C2.25769 2.67488 2.26726 2.49441 2.29805 2.28262C2.3408 1.96417 2.39815 1.71649 2.46677 1.38505C2.43438 1.19243 2.56193 1.00479 2.75455 0.972406C2.94945 0.936207 3.13404 1.06452 3.17024 1.25942C3.42014 1.67246 3.65225 1.96373 3.88534 2.34863C3.99692 2.53423 4.09017 2.69851 4.18576 2.88491C4.27753 3.06903 4.36323 3.24176 4.44129 3.42286C4.50635 3.5781 4.56377 3.7288 4.61816 3.88024C4.74841 4.25545 4.86188 4.61541 4.98901 4.95254C5.50371 6.35132 6.09232 7.41406 6.75126 8.2162C8.72194 10.6112 10.9995 10.7299 10.9995 10.7299Z" fill="url(#paint9_linear_3170_296277)"/>
<path fill-rule="evenodd" clip-rule="evenodd" d="M11.9029 10.2846C12.101 10.2865 12.259 10.4507 12.2563 10.6457C12.2545 10.8437 12.0933 11.0009 11.8952 10.999C11.8952 10.999 9.41976 11.2638 6.98617 6.73805C6.60925 6.03967 6.23821 5.22322 5.90947 4.25361C5.79299 3.90732 5.66585 3.54431 5.59269 3.15147C5.54648 2.90404 5.52536 2.65355 5.51948 2.38623C5.51378 2.20955 5.51495 2.0473 5.53742 1.86675C5.59433 1.39901 5.69796 1.03926 5.80888 0.541699C5.77345 0.349846 5.90406 0.16152 6.09668 0.129133C6.29158 0.0929334 6.47617 0.221247 6.51237 0.416145C6.69417 0.674716 6.8377 0.84578 7.00502 1.09829C7.11046 1.25953 7.19526 1.39031 7.2847 1.55235C7.41315 1.79199 7.52329 2.0104 7.62203 2.24781C7.68709 2.40305 7.74601 2.55978 7.78899 2.71734C8.02373 3.53254 8.17078 4.28245 8.36712 4.9454C8.76826 6.30481 9.16562 7.32835 9.61123 8.09361C10.7692 10.0912 11.9029 10.2846 11.9029 10.2846Z" fill="url(#paint10_linear_3170_296277)"/>
<path fill-rule="evenodd" clip-rule="evenodd" d="M15.8667 8.74349C15.8617 8.72363 15.8476 8.69336 15.8375 8.69169C15.7194 8.67289 15.8195 8.91595 15.8045 9.02327C15.7587 9.40666 15.729 9.84091 15.1467 10.2286C14.697 10.5258 13.8044 10.8904 11.7958 11.2597C11.6105 11.3212 11.4074 11.2224 11.3441 11.0355C11.2808 10.8487 11.3788 10.6465 11.5666 10.5823C13.0465 9.82449 13.7118 9.35459 14.0298 9.0103C14.0557 8.98475 14.0933 8.94143 14.0701 8.92617C14.0205 8.89643 13.9821 9.02656 13.9821 9.02656C13.9821 9.02656 13.9594 8.98791 13.9539 8.96606C13.9364 8.87116 13.925 8.77475 13.9157 8.67358C13.8964 8.49462 13.9315 8.31251 13.9798 8.10596C14.0626 7.74071 14.3109 7.28726 15.0322 6.70603C15.2152 6.55846 15.4328 6.38103 15.7248 6.24189C15.8726 6.17293 16.0346 6.10884 16.2264 6.07315C16.4527 6.03298 16.6413 6.01072 16.908 6.02798C17.1879 6.04613 17.3282 6.08895 17.6409 6.14742C17.8211 6.06604 18.0329 6.14784 18.1134 6.32611C18.1915 6.50714 18.1117 6.7174 17.9315 6.79878C17.7343 7.10837 17.6836 7.2796 17.4937 7.52821C17.3206 7.75356 17.1851 7.92293 17.0047 8.06774C16.7886 8.23842 16.5693 8.33177 16.4011 8.43545C16.2106 8.55322 16.0562 8.62174 15.952 8.70929C15.9307 8.72735 15.8875 8.73613 15.8667 8.74349ZM15.8667 8.74349C15.8697 8.75541 15.8687 8.76412 15.8606 8.75771C15.8525 8.7513 15.8581 8.74778 15.8667 8.74349Z" fill="url(#paint11_linear_3170_296277)"/>
<path fill-rule="evenodd" clip-rule="evenodd" d="M84.9947 47.8142C85.1092 47.8952 85.2189 47.9813 85.3286 48.0674C85.6055 48.2851 85.8623 48.5203 86.0761 48.7753C86.3732 49.1263 86.5934 49.4426 86.7622 49.7917C87.0533 50.3933 87.1828 50.7539 87.2158 51.1343C87.3556 51.3533 87.2886 51.6472 87.0696 51.787C86.8475 51.928 86.5549 51.8639 86.4139 51.6419C86.3197 51.5969 86.2441 51.6188 86.119 51.5721C85.8972 51.4914 85.6972 51.4864 85.4047 51.3787C85.1185 51.2787 84.846 51.197 84.5211 51.0479C84.3338 50.9609 84.1525 50.8716 83.9739 50.7544C83.6496 50.5446 83.3425 50.2914 83.0394 50.0401C82.1783 49.3247 81.3984 48.5754 80.9185 48.0249C80.5418 47.5965 80.2932 47.2407 80.2235 46.985C80.0707 46.4385 80.1146 46.0124 80.381 45.7137C80.5867 45.4849 80.9514 45.0819 81.7139 45.19C82.4095 45.2897 83.9762 45.856 86.9109 47.3152C87.1588 47.4028 87.2877 47.673 87.2001 47.9209C87.1114 48.1659 86.8383 48.2959 86.5933 48.2072C86.0277 48.0785 85.4926 47.9416 84.9947 47.8142Z" fill="url(#paint12_linear_3170_296277)"/>
<path fill-rule="evenodd" clip-rule="evenodd" d="M85.4751 48.2176C85.3131 48.0908 85.154 47.963 85.0019 47.8358C83.9203 46.9454 83.0767 45.9919 82.8234 45.2416C82.585 44.5395 82.5831 43.9124 82.9839 43.3918C83.2155 43.0894 83.5469 42.7494 84.1367 42.5602C85.0916 42.2531 86.908 42.1476 90.0609 42.5408L89.1372 43.6854C87.2107 43.8728 85.9907 44.1356 85.2678 44.4524C85.3128 44.4824 85.3577 44.5125 85.3897 44.544C85.6281 44.7661 85.9395 44.9775 86.2709 45.2148C86.6022 45.4522 86.9718 45.675 87.3351 45.9171C87.4912 46.0192 87.6455 46.1255 87.795 46.2368C88.0222 46.4028 88.2339 46.5812 88.4291 46.7693C88.7308 47.0615 88.9826 47.3457 89.2049 47.641C89.3318 47.8079 89.4324 47.9412 89.5214 48.1056C89.8921 48.7846 90.1158 49.1902 90.0888 49.5629C90.1809 49.8068 90.0595 50.0809 89.8128 50.1741C89.569 50.2662 89.2938 50.1419 89.2016 49.8981C89.1409 49.8439 89.0487 49.9021 88.9395 49.8527C88.7279 49.7548 88.4952 49.752 88.1748 49.6415C87.8574 49.5298 87.5327 49.4343 87.1636 49.2749C86.9432 49.1803 86.7265 49.0775 86.5097 48.948C86.1563 48.7324 85.8095 48.4807 85.4751 48.2176Z" fill="url(#paint13_linear_3170_296277)"/>
<path fill-rule="evenodd" clip-rule="evenodd" d="M90.2593 43.5873C89.9974 44.8578 89.8408 45.8737 89.8408 45.8737C89.8819 46.1334 89.7027 46.379 89.4459 46.4189C89.1862 46.46 88.9435 46.2798 88.9035 46.023C88.9035 46.023 88.6537 45.4594 88.4039 44.5937C88.3701 44.4688 88.333 44.3352 88.2978 44.1975C88.1935 43.7971 88.1241 43.3735 88.0752 42.9153C88.0076 42.3366 88.0283 41.7514 88.0985 41.1911C88.1916 40.451 88.4616 39.7885 88.8234 39.2624C89.5489 38.2061 90.7393 37.5986 92.4774 38.0497C92.7676 38.1247 93.078 38.2357 93.4151 38.3904L91.3979 40.8879C91.3153 40.909 91.2474 40.9515 91.1906 41.0233C91.0646 41.1783 90.9562 41.3536 90.8608 41.5541C90.7873 41.7061 90.724 41.8676 90.6693 42.0427C90.611 42.2259 90.5567 42.4108 90.5035 42.5988C90.4121 42.9254 90.3287 43.2556 90.26 43.5803L90.2593 43.5873Z" fill="url(#paint14_linear_3170_296277)"/>
<path d="M122.353 47.4033C124.101 46.3762 122.976 41.2175 119.841 35.881C116.705 30.5444 112.746 27.0509 110.998 28.078C109.25 29.1051 110.375 34.2639 113.51 39.6004C116.646 44.937 120.605 48.4304 122.353 47.4033Z" stroke="#FFF386" stroke-width="0.950021" stroke-miterlimit="24"/>
<path d="M106.104 29.3718C104.82 28.9065 103.537 29.2018 103.235 30.0295C102.933 30.8599 103.731 31.9092 105.014 32.3744C106.298 32.8396 107.583 32.5446 107.883 31.7167C108.185 30.8863 107.387 29.837 106.104 29.3718Z" fill="#FBF3FF"/>
<path opacity="0.75" d="M102.865 23.5531C104.294 23.0563 105.05 21.4964 104.553 20.0669C104.056 18.6374 102.496 17.8819 101.067 18.3787C99.6372 18.8754 98.8817 20.4354 99.3784 21.8648C99.8752 23.2943 101.435 24.0498 102.865 23.5531Z" fill="#FBF3FF"/>
<path opacity="0.3" d="M75.4426 20.6777L74.8139 19.4974C80.229 16.5917 82.2391 9.85751 79.3334 4.44243L80.5137 3.81388C83.4194 9.22896 90.1536 11.2391 95.5686 8.33341L96.1972 9.51358C90.7821 12.4193 88.772 19.1535 91.6777 24.5686L90.4975 25.1972C87.5918 19.7821 80.8576 17.7719 75.4426 20.6777Z" fill="white"/>
</g>
<defs>
<radialGradient id="paint0_radial_3170_296277" cx="0" cy="0" r="1" gradientUnits="userSpaceOnUse" gradientTransform="translate(58.2125 72.5593) rotate(-29.925) scale(54.8866 69.3733)">
<stop offset="0.258983" stop-color="#F3F6FF"/>
<stop offset="0.32171" stop-color="#D1DEFF"/>
<stop offset="0.398279" stop-color="#C3BCFF"/>
<stop offset="0.686918" stop-color="#BA61FF"/>
</radialGradient>
<radialGradient id="paint1_radial_3170_296277" cx="0" cy="0" r="1" gradientUnits="userSpaceOnUse" gradientTransform="translate(53.3642 69.1159) rotate(-26.9023) scale(81.6055 76.2476)">
<stop offset="0.235" stop-color="#F3F6FF"/>
<stop offset="0.356618" stop-color="#D1DEFF"/>
<stop offset="0.425" stop-color="#C3BCFF"/>
<stop offset="0.686918" stop-color="#B25FF2"/>
</radialGradient>
<radialGradient id="paint2_radial_3170_296277" cx="0" cy="0" r="1" gradientUnits="userSpaceOnUse" gradientTransform="translate(58.3863 71.1529) rotate(-36.1167) scale(16.354 11.6024)">
<stop stop-color="#A663FF"/>
<stop offset="0.608148" stop-color="#8346E1"/>
<stop offset="1" stop-color="#B5A8FC"/>
</radialGradient>
<linearGradient id="paint3_linear_3170_296277" x1="59.4207" y1="56.0531" x2="53.6265" y2="47.2247" gradientUnits="userSpaceOnUse">
<stop stop-color="#8B76FF"/>
<stop offset="0.46" stop-color="#A269FA"/>
<stop offset="1" stop-color="#9D57FA"/>
</linearGradient>
<radialGradient id="paint4_radial_3170_296277" cx="0" cy="0" r="1" gradientUnits="userSpaceOnUse" gradientTransform="translate(65.7062 53.1411) rotate(14.9041) scale(8.1217 8.27584)">
<stop stop-color="#806AF8"/>
<stop offset="0.46" stop-color="#A269FA"/>
<stop offset="1" stop-color="#9D57FA"/>
</radialGradient>
<radialGradient id="paint5_radial_3170_296277" cx="0" cy="0" r="1" gradientUnits="userSpaceOnUse" gradientTransform="translate(54.9738 68.6385) rotate(-129.178) scale(85.1816 304.257)">
<stop offset="0.184055" stop-color="#F3F6FF" stop-opacity="0"/>
<stop offset="0.32003" stop-color="#D1DEFF"/>
<stop offset="0.435" stop-color="#C3BCFF"/>
<stop offset="0.686918" stop-color="#BA61FF"/>
</radialGradient>
<linearGradient id="paint6_linear_3170_296277" x1="82.6158" y1="53.3739" x2="119.226" y2="36.013" gradientUnits="userSpaceOnUse">
<stop stop-color="#B8FFD1"/>
<stop offset="0.23" stop-color="#04FFE3"/>
<stop offset="1" stop-color="#009CBA"/>
</linearGradient>
<linearGradient id="paint7_linear_3170_296277" x1="114.45" y1="37.3212" x2="117.739" y2="53.8617" gradientUnits="userSpaceOnUse">
<stop stop-color="#007575"/>
<stop offset="1" stop-color="#02D0D0"/>
</linearGradient>
<linearGradient id="paint8_linear_3170_296277" x1="2.75659" y1="0.154274" x2="9.35968" y2="12.9966" gradientUnits="userSpaceOnUse">
<stop stop-color="#7365EE"/>
<stop offset="0.878495" stop-color="#BA61FF"/>
</linearGradient>
<linearGradient id="paint9_linear_3170_296277" x1="2.31476" y1="-5.2104" x2="13.8011" y2="9.07157" gradientUnits="userSpaceOnUse">
<stop stop-color="#7365EE"/>
<stop offset="0.878495" stop-color="#BA61FF"/>
</linearGradient>
<linearGradient id="paint10_linear_3170_296277" x1="4.86406" y1="-5.74289" x2="17.1158" y2="5.08612" gradientUnits="userSpaceOnUse">
<stop stop-color="#7365EE"/>
<stop offset="0.878495" stop-color="#BA61FF"/>
</linearGradient>
<linearGradient id="paint11_linear_3170_296277" x1="15.0753" y1="4.29296" x2="15.797" y2="10.8153" gradientUnits="userSpaceOnUse">
<stop stop-color="#7365EE"/>
<stop offset="0.878495" stop-color="#BA61FF"/>
</linearGradient>
<linearGradient id="paint12_linear_3170_296277" x1="80.4973" y1="48.2955" x2="85.6049" y2="49.5068" gradientUnits="userSpaceOnUse">
<stop stop-color="#7365EE"/>
<stop offset="0.878495" stop-color="#A54AEA"/>
</linearGradient>
<linearGradient id="paint13_linear_3170_296277" x1="82.9077" y1="46.1726" x2="88.8708" y2="47.8966" gradientUnits="userSpaceOnUse">
<stop stop-color="#7365EE"/>
<stop offset="0.878495" stop-color="#A54AEA"/>
</linearGradient>
<linearGradient id="paint14_linear_3170_296277" x1="87.0903" y1="41.8839" x2="92.1972" y2="43.5958" gradientUnits="userSpaceOnUse">
<stop stop-color="#7365EE"/>
<stop offset="0.878495" stop-color="#A54AEA"/>
</linearGradient>
<clipPath id="clip0_3170_296277">
<rect width="124" height="124" rx="5" fill="white"/>
</clipPath>
</defs>
</svg>
