<svg width="120" height="120" viewBox="0 0 120 120" fill="none"
    xmlns="http://www.w3.org/2000/svg">
    <g clip-path="url(#clip0_230_10253)">
        <path d="M0 12C0 5.37259 5.37258 0 12 0H108C114.627 0 120 5.37258 120 12V108C120 114.627 114.627 120 108 120H12C5.37259 120 0 114.627 0 108V12Z" fill="#FFE0CC"/>
        <circle opacity="0.24" cx="14.3693" cy="105.818" r="28" transform="rotate(105 14.3693 105.818)" fill="#FAFBFF"/>
        <path opacity="0.51" d="M24.3275 87.2681L24.6253 87.3847C24.0934 88.755 24.7757 90.2911 26.1459 90.823L26.0292 91.1208C24.659 90.5889 23.1228 91.2712 22.5909 92.6414L22.2932 92.5248C22.825 91.1546 22.1428 89.6184 20.7725 89.0865L20.8892 88.7887C22.2594 89.3206 23.7956 88.6383 24.3275 87.2681Z" fill="white"/>
        <circle opacity="0.24" cx="109.437" cy="6.02258" r="21" transform="rotate(105 109.437 6.02258)" fill="#FAFBFF"/>
        <path fill-rule="evenodd" clip-rule="evenodd" d="M96.1654 109.095C97.1478 108.528 98.9639 106.878 99.2633 105.758C99.5635 104.637 98.8162 102.301 98.2491 101.319C98.8162 102.301 100.466 104.116 101.586 104.417C102.706 104.717 105.043 103.97 106.025 103.402C105.043 103.97 103.227 105.62 102.927 106.739C102.627 107.859 103.374 110.196 103.942 111.179C103.374 110.196 101.724 108.38 100.604 108.08C99.4848 107.78 97.1478 108.528 96.1654 109.095Z" fill="white"/>
        <path fill-rule="evenodd" clip-rule="evenodd" d="M94.5972 52.858L92.2307 49.8704L89.2444 52.6006L91.2667 54.3194L94.5972 52.858Z" fill="white" stroke="white" stroke-width="0.410554" stroke-miterlimit="1.5" stroke-linecap="round" stroke-linejoin="round"/>
        <path opacity="0.8" d="M43.6655 9.93919C43.4549 10.725 43.9213 11.5328 44.7071 11.7434C45.493 11.954 46.3007 11.4876 46.5113 10.7017C46.7219 9.91587 46.2555 9.10811 45.4697 8.89754C44.6838 8.68697 43.876 9.15333 43.6655 9.93919Z" fill="white"/>
        <path d="M72.563 12.7555C72.2998 12.685 72.1436 12.4144 72.2141 12.1512C72.2846 11.8879 72.5552 11.7317 72.8185 11.8022C73.0817 11.8728 73.2379 12.1433 73.1674 12.4066C73.0969 12.6698 72.8263 12.8261 72.563 12.7555Z" fill="white" stroke="white" stroke-width="0.120897"/>
        <path opacity="0.8" fill-rule="evenodd" clip-rule="evenodd" d="M29.7863 99.1375C29.3709 99.3528 28.5957 99.9964 28.4493 100.453C28.303 100.909 28.5696 101.884 28.7847 102.299C28.5696 101.884 27.9228 101.106 27.4696 100.961C27.0124 100.817 26.0396 101.08 25.6242 101.295C26.0396 101.08 26.8149 100.436 26.9612 99.98C27.1036 99.5258 26.841 98.5492 26.626 98.1345C26.841 98.5492 27.4838 99.3287 27.941 99.4721C28.3982 99.6154 29.3709 99.3528 29.7863 99.1375Z" fill="white"/>
        <path d="M103.079 58.2592C103.247 58.2823 103.425 58.2892 103.592 58.2589C103.759 58.2285 103.923 58.1591 104.072 58.078C104.049 58.2465 104.042 58.4248 104.073 58.5915C104.103 58.758 104.172 58.9223 104.254 59.0716C104.085 59.0486 103.907 59.0417 103.74 59.0721C103.74 59.0722 103.74 59.0722 103.74 59.0722L103.819 59.5018M103.079 58.2592L102.735 59.6089C102.875 59.4971 103.022 59.3917 103.17 59.304C103.199 59.2866 103.229 59.2696 103.26 59.253C103.255 59.2874 103.25 59.3215 103.244 59.3549C103.214 59.5242 103.167 59.6994 103.112 59.8694C103.36 59.6834 103.613 59.5393 103.819 59.5018M103.079 58.2592C103.16 58.4086 103.229 58.5729 103.259 58.7395L103.079 58.2592ZM103.819 59.5018C104.024 59.4642 104.312 59.5096 104.609 59.5962L103.819 59.5018Z" fill="white" stroke="white" stroke-width="0.873518"/>
        <path fill-rule="evenodd" clip-rule="evenodd" d="M34.5158 -5.96574C34.5158 4.8425 34.5158 15.6554 34.5158 26.4637C23.0105 24.9036 11.5053 23.3388 0 21.7787C0 10.5207 0 -0.737309 0 -12C11.5053 -9.99014 23.0105 -7.9756 34.5158 -5.96574Z" stroke="#FFFDFA" stroke-width="1.67942" stroke-miterlimit="3"/>
        <path fill-rule="evenodd" clip-rule="evenodd" d="M88.1335 91.0306C87.6755 92.6661 87.6875 97.6896 88.8475 99.7444C90.0008 101.803 94.2871 104.423 95.9225 104.881C94.2871 104.423 89.2639 104.435 87.2108 105.589C85.1509 106.748 82.5319 111.034 82.0739 112.67C82.5319 111.034 82.5197 106.011 81.3612 103.951C80.2064 101.897 75.9201 99.2777 74.2847 98.8196C75.9201 99.2777 80.9432 99.2659 82.9979 98.1059C85.0563 96.9526 87.6755 92.6661 88.1335 91.0306Z" fill="#FFFDFA"/>
        <path fill-rule="evenodd" clip-rule="evenodd" d="M90.4233 5.92395L99.1478 -17.0001L114 -0.845154L90.4233 5.92395Z" fill="#FFFDFA"/>
        <path fill-rule="evenodd" clip-rule="evenodd" d="M4.24475 30.699L25.3266 17.9998L36.3645 42.9205L12.8671 50.1662L4.24475 30.699Z" fill="#FFFDFA"/>
        <path fill-rule="evenodd" clip-rule="evenodd" d="M40.7732 109.138L56.7392 104.634L59.0021 87.0137L48.5182 78.2107L34.7982 87.2376L33.0659 98.4009L40.7732 109.138Z" fill="#FFAF4D"/>
        <path d="M54.5821 103.497L44.4921 95.4446L34.9895 97.936" stroke="#FFF9EB" stroke-width="1.67942" stroke-miterlimit="3" stroke-linecap="round" stroke-linejoin="round"/>
        <path d="M48.4458 79.8463L44.4941 95.4443" stroke="#FFF9EB" stroke-width="1.67942" stroke-miterlimit="3" stroke-linejoin="round"/>
        <path fill-rule="evenodd" clip-rule="evenodd" d="M32.467 78.38L36.9224 69.1183L29.6695 60.8427L21.2836 62.1022L19.8488 72.1751L24.3214 77.5568L32.467 78.38Z" fill="#FFAF4D"/>
        <path d="M35.1858 69.6208L27.6406 71.0912L25.8912 76.2614" stroke="#FFF9EB" stroke-width="1.67942" stroke-miterlimit="3" stroke-linecap="round" stroke-linejoin="round"/>
        <path d="M22.0189 62.8596L27.6406 71.0903" stroke="#FFF9EB" stroke-width="1.67942" stroke-miterlimit="3" stroke-linejoin="round"/>
        <path d="M81.7468 14L46 16.9783V65.2161L81.7468 67.8399V14Z" fill="#FFFDFA"/>
        <path d="M96.9656 33.5918H61.2188V47.834H96.9656V33.5918Z" fill="#FFAF4D"/>
        <path d="M88.4675 53.2983H52.7207V59.8143H88.4675V53.2983Z" fill="#FFAF4D"/>
        <path d="M98.8953 71.0698H63.1484V77.5858H98.8953V71.0698Z" fill="#FFAF4D"/>
        <g style="mix-blend-mode:hue">
            <rect width="120" height="120" fill="#FFE6C7"/>
        </g>
    </g>
    <defs>
        <clipPath id="clip0_230_10253">
            <path d="M0 12C0 5.37259 5.37258 0 12 0H108C114.627 0 120 5.37258 120 12V108C120 114.627 114.627 120 108 120H12C5.37259 120 0 114.627 0 108V12Z" fill="white"/>
        </clipPath>
    </defs>
</svg>
