<svg width="120" height="120" viewBox="0 0 120 120" fill="none"
    xmlns="http://www.w3.org/2000/svg">
    <g clip-path="url(#clip0_230_10579)">
        <path d="M0 12C0 5.37259 5.37258 0 12 0H108C114.627 0 120 5.37258 120 12V108C120 114.627 114.627 120 108 120H12C5.37259 120 0 114.627 0 108V12Z" fill="#D6E4FF"/>
        <circle opacity="0.64" cx="29" cy="26" r="2" fill="#FAFBFF"/>
        <circle cx="16" cy="38" r="3" fill="#FAFBFF"/>
        <circle opacity="0.24" cx="116" cy="109" r="28" fill="#FAFBFF"/>
        <path opacity="0.52" d="M13.3953 99.7149L13.1499 98.9707C16.5665 97.8324 18.3984 94.1439 17.2601 90.7273L18.0043 90.4819C19.1426 93.8985 22.831 95.7304 26.2476 94.5921L26.493 95.3363C23.0764 96.4746 21.2445 100.163 22.3828 103.58L21.6387 103.825C20.5003 100.408 16.8119 98.5766 13.3953 99.7149Z" fill="white"/>
        <path opacity="0.51" d="M95.5046 104.182L95.5402 103.864C97.0014 104.023 98.3087 102.967 98.4678 101.505L98.7856 101.541C98.6265 103.002 99.6831 104.309 101.144 104.469L101.109 104.786C99.6475 104.627 98.3403 105.684 98.1812 107.145L97.8633 107.11C98.0225 105.648 96.9658 104.341 95.5046 104.182Z" fill="white"/>
        <circle opacity="0.24" cx="-5" cy="43" r="21" fill="#FAFBFF"/>
        <path fill-rule="evenodd" clip-rule="evenodd" d="M23.2893 -3.35079C21.9643 -2.35632 19.6202 0.35414 19.3824 2.03047C19.1433 3.70765 20.636 6.96387 21.6305 8.28888C20.636 6.96387 17.9264 4.62097 16.2493 4.38196C14.5732 4.14208 11.3159 5.63565 9.99085 6.63011C11.3159 5.63565 13.6599 2.92523 13.8987 1.25005C14.1377 -0.427137 12.6441 -3.68454 11.6496 -5.00955C12.6441 -3.68454 15.3546 -1.34045 17.0318 -1.10144C18.7069 -0.862709 21.9643 -2.35632 23.2893 -3.35079Z" fill="white"/>
        <path fill-rule="evenodd" clip-rule="evenodd" d="M97.9962 29.142C97.1941 28.3398 95.1303 27.0127 93.971 27.0134C92.8109 27.0134 90.7478 28.3398 89.9457 29.142C90.7478 28.3398 92.0743 26.2767 92.0743 25.1167C92.075 23.9574 90.7478 21.8936 89.9457 21.0914C90.7478 21.8936 92.8116 23.2207 93.9702 23.2207C95.1303 23.2207 97.1941 21.8936 97.9962 21.0914C97.1941 21.8936 95.8669 23.9574 95.8669 25.1174C95.8669 26.2761 97.1941 28.3398 97.9962 29.142Z" fill="white"/>
        <path fill-rule="evenodd" clip-rule="evenodd" d="M44.08 45.2134L41.8066 48.2724L45.2167 50.4504L46.3536 48.0521L44.08 45.2134Z" fill="white" stroke="white" stroke-width="0.410554" stroke-miterlimit="1.5" stroke-linecap="round" stroke-linejoin="round"/>
        <path fill-rule="evenodd" clip-rule="evenodd" d="M61.4819 22.0386V97.8512L92.2012 85.4289C63.8374 65.7845 65.2302 42.0608 65.2302 26.6808L61.4819 22.0386Z" fill="url(#paint0_linear_230_10579)"/>
        <path fill-rule="evenodd" clip-rule="evenodd" d="M61.4791 22.0383V97.8509L30.7598 85.4286C59.1235 65.7843 57.4399 32.0133 57.4399 16.6333L61.4791 22.0383Z" fill="url(#paint1_linear_230_10579)"/>
        <path fill-rule="evenodd" clip-rule="evenodd" d="M71.5641 86.5853L58.9573 88.2672C45.9531 86.8545 32.9513 85.4155 20.7422 76.0524C20.7422 76.0524 37.1693 71.4569 48.0633 74.9929C58.9573 78.5289 71.5641 86.5853 71.5641 86.5853Z" fill="#0E4CAF"/>
        <path fill-rule="evenodd" clip-rule="evenodd" d="M27.7212 100.778C27.4996 100.518 27.2917 100.253 27.0979 99.988C24.1429 95.4367 42.748 89.1417 62.1253 88.0381C81.2452 86.9522 98.8293 92.2009 97.3456 97.176C97.3244 97.2423 97.3006 97.3085 97.2754 97.3747C94.3583 105.4 79.4317 111.519 61.4799 111.519C46.1675 111.519 33.0557 107.069 27.7212 100.778Z" fill="url(#paint2_linear_230_10579)"/>
        <path fill-rule="evenodd" clip-rule="evenodd" d="M27.1014 99.9876C25.8504 98.2678 25.1719 96.4196 25.1719 94.5026C25.1719 85.1102 41.4427 77.4834 61.4839 77.4834C81.5246 77.4834 97.7954 85.1102 97.7954 94.5026C97.7954 95.4107 97.6431 96.3049 97.3496 97.1763C98.8328 92.2003 81.2492 86.9538 62.1288 88.0407C42.7516 89.1414 24.1469 95.4382 27.1014 99.9876Z" fill="url(#paint3_linear_230_10579)"/>
        <path d="M46.4905 23.993C46.4905 24.9546 45.7109 25.7341 44.7493 25.7341C43.7877 25.7341 43.0082 24.9546 43.0082 23.993C43.0082 23.0314 43.7877 22.2519 44.7493 22.2519C45.7109 22.2519 46.4905 23.0314 46.4905 23.993Z" stroke="white" stroke-opacity="0.5" stroke-width="0.426576"/>
        <path opacity="0.8" d="M15.8071 105.517C16.6207 105.517 17.2802 104.857 17.2802 104.043C17.2802 103.23 16.6207 102.57 15.8071 102.57C14.9935 102.57 14.334 103.23 14.334 104.043C14.334 104.857 14.9935 105.517 15.8071 105.517Z" fill="white"/>
        <path d="M11.0474 76.8742C11.0474 77.1467 10.8264 77.3677 10.5539 77.3677C10.2814 77.3677 10.0604 77.1467 10.0604 76.8742C10.0604 76.6017 10.2814 76.3808 10.5539 76.3808C10.8264 76.3808 11.0474 76.6017 11.0474 76.8742Z" fill="white" stroke="white" stroke-width="0.120897"/>
        <path d="M113.279 105.526C113.279 105.948 112.937 106.291 112.515 106.291C112.092 106.291 111.75 105.948 111.75 105.526C111.75 105.104 112.092 104.761 112.515 104.761C112.937 104.761 113.279 105.104 113.279 105.526Z" stroke="white" stroke-opacity="0.5" stroke-width="0.187362"/>
        <path opacity="0.5" fill-rule="evenodd" clip-rule="evenodd" d="M25.7488 36.5781L10.9551 39.7786L22.3903 53.693" fill="#1FC1BF"/>
        <path opacity="0.5" fill-rule="evenodd" clip-rule="evenodd" d="M95 58L110 61.553L98 77" fill="#1FC1BF"/>
        <path opacity="0.7" fill-rule="evenodd" clip-rule="evenodd" d="M22.3906 53.693L35.185 39.059L25.7491 36.5781" fill="#69A0F7"/>
        <path opacity="0.7" fill-rule="evenodd" clip-rule="evenodd" d="M98 77L86 60.7542L95 58" fill="#69A0F7"/>
        <path fill-rule="evenodd" clip-rule="evenodd" d="M68.9432 23.7389C68.943 27.0925 69.1314 30.435 69.7989 33.7295L68.2868 34.0358C67.5989 30.6405 67.4002 27.1954 67.4004 23.7388L68.9432 23.7389Z" fill="white" stroke="white" stroke-width="3.05279" stroke-linecap="square"/>
        <path fill-rule="evenodd" clip-rule="evenodd" d="M64.3865 40.1573C64.3864 42.7178 64.4266 43.1041 64.914 45.51L63.402 45.8163C62.8856 43.2678 62.8436 42.7668 62.8438 40.1572L64.3865 40.1573Z" fill="#F2FBEB"/>
        <path fill-rule="evenodd" clip-rule="evenodd" d="M47.9592 54.3429C47.9594 57.294 47.9124 57.7392 47.3429 60.5121L49.1095 60.8652C49.7128 57.9279 49.7619 57.3504 49.7617 54.3428L47.9592 54.3429Z" fill="#F2FBEB"/>
        <path fill-rule="evenodd" clip-rule="evenodd" d="M57.2935 43.7095C57.114 49.9283 56.7619 50.9444 55.5487 56.8511L59.3118 57.6033C60.2733 51.6515 60.7015 50.1163 60.7012 43.7095H57.2935Z" fill="white"/>
        <path fill-rule="evenodd" clip-rule="evenodd" d="M61.4587 9.00005L59.8221 10.5711L61.0702 11.8712L62.707 10.3003L61.4587 9.00005Z" fill="white" stroke="white" stroke-width="1.0176" stroke-linecap="square"/>
        <path fill-rule="evenodd" clip-rule="evenodd" d="M63.8791 15.0343L63.8791 17.3029H65.6814L65.6816 15.0342L63.8791 15.0343Z" fill="white" stroke="white" stroke-width="3.05279" stroke-linecap="square"/>
        <path d="M115.452 99.452L114.916 99.7783L115.242 100.315L115.779 99.9884L115.452 99.452Z" fill="white"/>
        <path opacity="0.8" fill-rule="evenodd" clip-rule="evenodd" d="M105.558 95.8362C105.873 96.1817 106.696 96.7639 107.174 96.7872C107.653 96.8105 108.525 96.3007 108.87 95.9854C108.525 96.3007 107.941 97.1267 107.918 97.6021C107.898 98.0808 108.404 98.9525 108.719 99.298C108.404 98.9525 107.581 98.3702 107.103 98.3469C106.627 98.3269 105.752 98.8334 105.407 99.1484C105.752 98.8334 106.338 98.0107 106.359 97.532C106.379 97.0533 105.873 96.1817 105.558 95.8362Z" fill="white"/>
        <path d="M47.1027 35.6226C47.0815 35.454 47.042 35.2801 46.9696 35.1271C46.8971 34.974 46.7875 34.8331 46.6705 34.7097C46.8393 34.6884 47.0133 34.6489 47.1665 34.5764C47.3195 34.504 47.4602 34.3945 47.5834 34.2776C47.6047 34.4462 47.6442 34.6201 47.7167 34.7731C47.7168 34.7732 47.7168 34.7733 47.7169 34.7734L48.1115 34.5863M47.1027 35.6226L48.4953 35.6051C48.3513 35.4993 48.2112 35.3841 48.0883 35.264C48.064 35.2403 48.0397 35.2158 48.0158 35.1906C48.0503 35.1862 48.0846 35.1826 48.1184 35.1797C48.2896 35.1647 48.471 35.1644 48.6495 35.1739C48.4057 34.9826 48.201 34.7754 48.1115 34.5863M47.1027 35.6226C47.226 35.5057 47.3668 35.3962 47.5199 35.3238L47.1027 35.6226ZM48.1115 34.5863C48.0219 34.3973 47.9914 34.1078 47.998 33.798L48.1115 34.5863Z" fill="white" stroke="white" stroke-width="0.873518"/>
        <path fill-rule="evenodd" clip-rule="evenodd" d="M69.5437 64.5943C69.3726 65.0732 69.2307 66.164 69.4533 66.6336C69.6758 67.1037 70.609 67.6852 71.0879 67.8564C70.609 67.6852 69.5186 67.5435 69.0486 67.766C68.5787 67.988 67.997 68.9216 67.8258 69.4005C67.997 68.9216 68.1389 67.8308 67.9167 67.3614C67.6942 66.8913 66.7605 66.3096 66.2817 66.1385C66.7605 66.3096 67.8514 66.4515 68.3214 66.229C68.7909 66.0068 69.3726 65.0732 69.5437 64.5943Z" fill="#F2FBEB"/>
        <path fill-rule="evenodd" clip-rule="evenodd" d="M20.7422 76.0523C31.6432 71.0508 64.7044 66.1286 92.1663 81.3806C92.8492 81.7602 93.4501 82.3076 94.2018 83.089C94.9532 83.8659 95.6957 85.23 96.0162 85.8436C99.1672 91.8605 99.0365 92.271 98.351 95.9571C97.6976 91.0703 85.3924 84.581 61.0758 85.4728C45.7161 73.7568 34.4583 76.0523 20.7422 76.0523Z" fill="url(#paint4_linear_230_10579)"/>
        <path d="M51.9165 -2C78.303 2.67298 110.397 14.2741 107.858 32.8686C103.319 66.1357 3.91551 49.3972 -2 86" stroke="white" stroke-opacity="0.8" stroke-linecap="round"/>
        <g style="mix-blend-mode:hue">
            <rect width="120" height="120" fill="#D6E4FF"/>
        </g>
    </g>
    <defs>
        <linearGradient id="paint0_linear_230_10579" x1="76.8415" y1="22.0386" x2="76.8415" y2="77.1707" gradientUnits="userSpaceOnUse">
            <stop stop-color="#FAFBFF"/>
            <stop offset="1" stop-color="#AAC9FD"/>
        </linearGradient>
        <linearGradient id="paint1_linear_230_10579" x1="41.387" y1="141.612" x2="103.068" y2="106.594" gradientUnits="userSpaceOnUse">
            <stop offset="0.690949" stop-color="#D6E4FF"/>
            <stop offset="0.878762" stop-color="#FAFBFF"/>
        </linearGradient>
        <linearGradient id="paint2_linear_230_10579" x1="62.1102" y1="87.894" x2="62.1102" y2="112.206" gradientUnits="userSpaceOnUse">
            <stop stop-color="#68DFDC"/>
            <stop offset="1" stop-color="#3374DB"/>
        </linearGradient>
        <linearGradient id="paint3_linear_230_10579" x1="25.1719" y1="88.7355" x2="62.3801" y2="77.4834" gradientUnits="userSpaceOnUse">
            <stop stop-color="#68DFDC"/>
            <stop offset="1" stop-color="#69A0F7"/>
        </linearGradient>
        <linearGradient id="paint4_linear_230_10579" x1="47.7289" y1="109.339" x2="56.6469" y2="67.2972" gradientUnits="userSpaceOnUse">
            <stop offset="0.690949" stop-color="#D6E4FF"/>
            <stop offset="0.878762" stop-color="white"/>
        </linearGradient>
        <clipPath id="clip0_230_10579">
            <path d="M0 12C0 5.37259 5.37258 0 12 0H108C114.627 0 120 5.37258 120 12V108C120 114.627 114.627 120 108 120H12C5.37259 120 0 114.627 0 108V12Z" fill="white"/>
        </clipPath>
    </defs>
</svg>
