<svg width="120" height="120" viewBox="0 0 120 120" fill="none"
    xmlns="http://www.w3.org/2000/svg">
    <g clip-path="url(#clip0_230_9862)">
        <path d="M0 12C0 5.37259 5.37258 0 12 0H108C114.627 0 120 5.37258 120 12V108C120 114.627 114.627 120 108 120H12C5.37259 120 0 114.627 0 108V12Z" fill="#FFD1D5"/>
        <g clip-path="url(#clip1_230_9862)">
            <path d="M0 12C0 5.37259 5.37258 0 12 0H108C114.627 0 120 5.37258 120 12V108C120 114.627 114.627 120 108 120H12C5.37259 120 0 114.627 0 108V12Z" fill="#E8D6FF"/>
            <path fill-rule="evenodd" clip-rule="evenodd" d="M57.4648 29.7194L59.2909 28.7119L61.1171 29.7194V73.769H57.4648V29.7194Z" fill="#D7FFFC" stroke="#68DFDC" stroke-width="5.90984" stroke-miterlimit="2" stroke-linejoin="round"/>
            <path d="M59.2911 34.8522C62.3308 34.8522 64.795 32.388 64.795 29.3482C64.795 26.3085 62.3308 23.8442 59.2911 23.8442C56.2513 23.8442 53.7871 26.3085 53.7871 29.3482C53.7871 32.388 56.2513 34.8522 59.2911 34.8522Z" stroke="#68DFDC" stroke-width="1.30861" stroke-miterlimit="1.5" stroke-linecap="round" stroke-linejoin="round"/>
            <path d="M59.2911 33.1765C61.4054 33.1765 63.1194 31.4625 63.1194 29.3483C63.1194 27.234 61.4054 25.52 59.2911 25.52C57.1769 25.52 55.4629 27.234 55.4629 29.3483C55.4629 31.4625 57.1769 33.1765 59.2911 33.1765Z" fill="#68DFDC" stroke="white" stroke-width="1.32567" stroke-miterlimit="1.5" stroke-linecap="round" stroke-linejoin="round"/>
            <path fill-rule="evenodd" clip-rule="evenodd" d="M71.6921 61.3931L111.016 61.3931C109.018 66.031 100.829 69.3418 91.3559 69.3418C81.8823 69.3418 73.6933 66.031 71.6921 61.3931Z" fill="url(#paint0_linear_230_9862)"/>
            <path fill-rule="evenodd" clip-rule="evenodd" d="M9.00266 82.0366H48.3262C46.3289 86.6745 38.1399 89.9854 28.6664 89.9854C19.1929 89.9854 11.0039 86.6745 9.00266 82.0366Z" fill="url(#paint1_linear_230_9862)"/>
            <path d="M29.0583 54.0327C31.7873 54.0327 33.9995 51.8204 33.9995 49.0915C33.9995 46.3626 31.7873 44.1504 29.0583 44.1504C26.3294 44.1504 24.1172 46.3626 24.1172 49.0915C24.1172 51.8204 26.3294 54.0327 29.0583 54.0327Z" fill="white" stroke="white" stroke-width="0.515486" stroke-miterlimit="1.5" stroke-linecap="round" stroke-linejoin="round"/>
            <path d="M29.0583 51.3612C30.3115 51.3612 31.3275 50.3452 31.3275 49.092C31.3275 47.8387 30.3115 46.8228 29.0583 46.8228C27.805 46.8228 26.7891 47.8387 26.7891 49.092C26.7891 50.3452 27.805 51.3612 29.0583 51.3612Z" fill="#A3F5F1" stroke="white" stroke-width="1.32605" stroke-miterlimit="1.5" stroke-linecap="round" stroke-linejoin="round"/>
            <path d="M29.0573 50.0164C29.5679 50.0164 29.9818 49.6025 29.9818 49.092C29.9818 48.5814 29.5679 48.1675 29.0573 48.1675C28.5467 48.1675 28.1328 48.5814 28.1328 49.092C28.1328 49.6025 28.5467 50.0164 29.0573 50.0164Z" fill="#B6F9E8"/>
            <path d="M91.5 37C93.9853 37 96 34.9853 96 32.5C96 30.0147 93.9853 28 91.5 28C89.0147 28 87 30.0147 87 32.5C87 34.9853 89.0147 37 91.5 37Z" fill="#A3F5F1" stroke="white" stroke-width="0.878835" stroke-miterlimit="1.5" stroke-linecap="round" stroke-linejoin="round"/>
            <path d="M91.3938 34.11C92.3167 34.11 93.0649 33.2938 93.0649 32.2869C93.0649 31.2801 92.3167 30.4639 91.3938 30.4639C90.4709 30.4639 89.7227 31.2801 89.7227 32.2869C89.7227 33.2938 90.4709 34.11 91.3938 34.11Z" stroke="white" stroke-width="0.88054" stroke-miterlimit="1.5" stroke-linecap="round" stroke-linejoin="round"/>
            <path d="M59.2899 29.3467C50.2783 47.497 29.3712 48.895 29 49.0916" stroke="#1FC1BF" stroke-width="1.30861" stroke-miterlimit="1.5" stroke-linecap="round" stroke-linejoin="round"/>
            <path fill-rule="evenodd" clip-rule="evenodd" d="M15.5004 84.5574C15.4623 84.7434 15.4656 85.1525 15.5699 85.3123C15.6746 85.4721 16.0438 85.6318 16.2268 85.667C16.0438 85.6318 15.6396 85.6428 15.4796 85.7518C15.3201 85.8608 15.1555 86.2376 15.1173 86.4236C15.1555 86.2376 15.1521 85.8285 15.0474 85.6687C14.9427 85.5088 14.5735 85.3491 14.3904 85.3139C14.5735 85.3491 14.9777 85.3381 15.1376 85.2292C15.2976 85.1202 15.4623 84.7434 15.5004 84.5574Z" stroke="white" stroke-width="0.931529" stroke-miterlimit="1.5" stroke-linejoin="round"/>
            <path fill-rule="evenodd" clip-rule="evenodd" d="M67.7803 53.4301C67.8453 53.6993 68.142 54.2653 68.4411 54.4552C68.7402 54.6451 69.3674 54.6662 69.6319 54.6061C69.3674 54.6662 68.8151 54.9555 68.6338 55.2545C68.4526 55.5535 68.4454 56.1886 68.5103 56.4578C68.4454 56.1886 68.1478 55.6228 67.8487 55.4329C67.5496 55.243 66.9224 55.2218 66.6579 55.2819C66.9224 55.2218 67.4748 54.9326 67.656 54.6336C67.8373 54.3345 67.8453 53.6993 67.7803 53.4301Z" fill="white"/>
            <path fill-rule="evenodd" clip-rule="evenodd" d="M52.6619 50.785C52.6145 50.9784 52.7567 51.6665 53.1045 52.2461C53.4523 52.8258 53.9871 53.2665 54.1771 53.3105C53.9871 53.2665 53.3051 53.4255 52.7254 53.7903C52.1457 54.1553 51.6991 54.7069 51.6517 54.9004C51.6991 54.7069 51.5569 54.0189 51.2091 53.4392C50.8613 52.8596 50.3255 52.4186 50.1355 52.3746C50.3255 52.4186 51.0085 52.2599 51.5882 51.895C52.1679 51.5302 52.6145 50.9784 52.6619 50.785Z" fill="white"/>
            <path fill-rule="evenodd" clip-rule="evenodd" d="M22.8425 19.9038C22.8425 20.8542 23.2788 22.8622 23.9638 23.5489C24.6511 24.2358 26.6596 24.6718 27.6103 24.6718C26.6596 24.6718 24.6511 25.1079 23.9638 25.7948C23.2788 26.4817 22.8425 28.4895 22.8425 29.4399C22.8425 28.4895 22.4062 26.4817 21.7188 25.7948C21.0314 25.1079 19.0229 24.6718 18.0723 24.6718C19.0229 24.6718 21.0314 24.2358 21.7188 23.5489C22.4062 22.8622 22.8425 20.8542 22.8425 19.9038Z" fill="white"/>
            <path fill-rule="evenodd" clip-rule="evenodd" d="M72.0037 0C72.0037 1.39528 72.6442 4.34328 73.6496 5.35135C74.6585 6.35979 77.6066 6.99999 79.002 6.99999C77.6066 6.99999 74.6585 7.64019 73.6496 8.64862C72.6442 9.65706 72.0037 12.6047 72.0037 14C72.0037 12.6047 71.3633 9.65706 70.3544 8.64862C69.3454 7.64019 66.3973 6.99999 65.002 6.99999C66.3973 6.99999 69.3454 6.35979 70.3544 5.35135C71.3633 4.34328 72.0037 1.39528 72.0037 0Z" fill="white"/>
            <path fill-rule="evenodd" clip-rule="evenodd" d="M30.0037 101C30.0037 102.395 30.6442 105.343 31.6496 106.351C32.6585 107.36 35.6066 108 37.002 108C35.6066 108 32.6585 108.64 31.6496 109.649C30.6442 110.657 30.0037 113.605 30.0037 115C30.0037 113.605 29.3633 110.657 28.3544 109.649C27.3454 108.64 24.3973 108 23.002 108C24.3973 108 27.3454 107.36 28.3544 106.351C29.3633 105.343 30.0037 102.395 30.0037 101Z" fill="white"/>
            <path fill-rule="evenodd" clip-rule="evenodd" d="M88.8132 90.2612C88.8132 91.2116 89.2495 93.2196 89.9345 93.9063C90.6218 94.5932 92.6303 95.0292 93.581 95.0292C92.6303 95.0292 90.6218 95.4653 89.9345 96.1522C89.2495 96.8391 88.8132 98.8469 88.8132 99.7973C88.8132 98.8469 88.3769 96.8391 87.6895 96.1522C87.0021 95.4653 84.9936 95.0292 84.043 95.0292C84.9936 95.0292 87.0021 94.5932 87.6895 93.9063C88.3769 93.2196 88.8132 91.2116 88.8132 90.2612Z" fill="white"/>
            <path d="M91 32.9477C88.4084 37.2048 63.982 37.1174 59.709 32" stroke="#1FC1BF" stroke-width="1.30861" stroke-miterlimit="1.5" stroke-linecap="round" stroke-linejoin="round"/>
            <path d="M58.8054 28.9731C58.7368 29.0504 58.699 29.1501 58.699 29.2534V84.4275C58.699 84.6606 58.888 84.8496 59.1211 84.8496H59.4591C59.6922 84.8496 59.8812 84.6606 59.8812 84.4275V29.2534C59.8812 29.1501 59.8433 29.0504 59.7748 28.9731L59.6058 28.7828C59.5256 28.6925 59.4107 28.6409 59.2901 28.6409C59.1694 28.6409 59.0545 28.6925 58.9744 28.7828L58.8054 28.9731Z" fill="#1FC1BF" stroke="#1FC1BF" stroke-width="0.844263" stroke-linejoin="round"/>
            <path d="M62.9498 69.6572H55.6328V71.1709H62.9498V69.6572Z" fill="#1FC1BF"/>
            <path d="M66.4481 68.022H52.1328V68.7177H66.4481V68.022Z" fill="#1FC1BF"/>
            <path opacity="0.5" d="M88.4797 33.7426L87.8691 33.4731L87.5824 34.1055L88.193 34.375L88.4797 33.7426Z" fill="white"/>
            <path d="M111.582 60.2326L111.156 60.0449L110.957 60.4855L111.382 60.6732L111.582 60.2326Z" fill="white"/>
            <path opacity="0.5" d="M10.7361 80.4403L10.2871 80.46L10.3126 80.9884L10.7616 80.9687L10.7361 80.4403Z" fill="white"/>
            <path d="M18.1092 86.5718L17.9258 86.3984L17.722 86.614L17.9055 86.7874L18.1092 86.5718Z" fill="white"/>
            <path opacity="0.5" d="M97.3019 41.788C97.6197 41.788 97.8773 41.5304 97.8773 41.2126C97.8773 40.8948 97.6197 40.6372 97.3019 40.6372C96.9842 40.6372 96.7266 40.8948 96.7266 41.2126C96.7266 41.5304 96.9842 41.788 97.3019 41.788Z" stroke="white" stroke-width="1.24504" stroke-miterlimit="1.5" stroke-linejoin="round"/>
            <path d="M13.148 84.027C13.4099 84.027 13.6222 83.8147 13.6222 83.5528C13.6222 83.2909 13.4099 83.0786 13.148 83.0786C12.8861 83.0786 12.6738 83.2909 12.6738 83.5528C12.6738 83.8147 12.8861 84.027 13.148 84.027Z" stroke="white" stroke-width="1.0885" stroke-miterlimit="1.5" stroke-linejoin="round"/>
            <path d="M24.1524 87.6916C24.228 87.6916 24.2893 87.6304 24.2893 87.5548C24.2893 87.4792 24.228 87.418 24.1524 87.418C24.0769 87.418 24.0156 87.4792 24.0156 87.5548C24.0156 87.6304 24.0769 87.6916 24.1524 87.6916Z" fill="white"/>
            <path opacity="0.5" d="M20.4254 50.2829C20.6872 50.2829 20.8995 50.0705 20.8995 49.8087C20.8995 49.5468 20.6872 49.3345 20.4254 49.3345C20.1635 49.3345 19.9512 49.5468 19.9512 49.8087C19.9512 50.0705 20.1635 50.2829 20.4254 50.2829Z" stroke="white" stroke-width="1.0885" stroke-miterlimit="1.5" stroke-linejoin="round"/>
            <path opacity="0.5" d="M8.18408 78.6924C8.26093 78.6924 8.32323 78.6301 8.32323 78.5532C8.32323 78.4764 8.26093 78.4141 8.18408 78.4141C8.10722 78.4141 8.04492 78.4764 8.04492 78.5532C8.04492 78.6301 8.10722 78.6924 8.18408 78.6924Z" fill="white"/>
            <path d="M71.6914 61.3939L91.3535 32.3608" stroke="#1FC1BF" stroke-width="1.30861" stroke-miterlimit="1.5" stroke-linecap="round" stroke-linejoin="round"/>
            <path d="M106.261 55.0447L91.75 32.7178" stroke="#1FC1BF" stroke-width="1.31" stroke-miterlimit="1.5" stroke-linejoin="round"/>
            <path d="M48.3259 82.0362L29.0586 49.0913" stroke="#1FC1BF" stroke-width="1.30861" stroke-miterlimit="1.5" stroke-linecap="round" stroke-linejoin="round"/>
            <path d="M29.0583 49.4681C29.2663 49.4681 29.4349 49.2995 29.4349 49.0915C29.4349 48.8835 29.2663 48.7148 29.0583 48.7148C28.8503 48.7148 28.6816 48.8835 28.6816 49.0915C28.6816 49.2995 28.8503 49.4681 29.0583 49.4681Z" fill="white" stroke="#C4DBD9" stroke-width="1.55511" stroke-miterlimit="1.5" stroke-linecap="round" stroke-linejoin="round"/>
            <path d="M13.7695 74.2095L25.9265 54.2393" stroke="#1FC1BF" stroke-width="1.30861" stroke-miterlimit="1.5" stroke-linejoin="round"/>
            <path opacity="0.5" d="M26.332 66.3311V74.5607" stroke="white" stroke-width="3.10538" stroke-miterlimit="1.5" stroke-linecap="round" stroke-linejoin="round"/>
            <path d="M20.084 51.8018V54.309" stroke="white" stroke-width="2.00001" stroke-miterlimit="1.5" stroke-linecap="round" stroke-linejoin="round"/>
            <path opacity="0.5" d="M30.5586 71.9897V76.6821" stroke="white" stroke-width="2.2318" stroke-miterlimit="1.5" stroke-linecap="round" stroke-linejoin="round"/>
            <path opacity="0.5" d="M109.775 69.5981V70.7949" stroke="white" stroke-width="1.4019" stroke-miterlimit="1.5" stroke-linecap="round" stroke-linejoin="round"/>
            <path d="M91.3933 32.5907C91.645 32.5907 91.849 32.3867 91.849 32.135C91.849 31.8833 91.645 31.6792 91.3933 31.6792C91.1416 31.6792 90.9375 31.8833 90.9375 32.135C90.9375 32.3867 91.1416 32.5907 91.3933 32.5907Z" fill="white" stroke="#00FFE8" stroke-width="1.03491" stroke-miterlimit="1.5" stroke-linecap="round" stroke-linejoin="round"/>
            <path d="M59.2898 31.0659C60.2383 31.0659 61.0073 30.2969 61.0073 29.3484C61.0073 28.3998 60.2383 27.6309 59.2898 27.6309C58.3412 27.6309 57.5723 28.3998 57.5723 29.3484C57.5723 30.2969 58.3412 31.0659 59.2898 31.0659Z" stroke="white" stroke-width="1.30861" stroke-miterlimit="1.5" stroke-linecap="round" stroke-linejoin="round"/>
            <path d="M59.2904 30.5627C59.961 30.5627 60.5046 30.0191 60.5046 29.3485C60.5046 28.6779 59.961 28.1343 59.2904 28.1343C58.6198 28.1343 58.0762 28.6779 58.0762 29.3485C58.0762 30.0191 58.6198 30.5627 59.2904 30.5627Z" stroke="white" stroke-width="1.30861" stroke-miterlimit="1.5" stroke-linecap="round" stroke-linejoin="round"/>
            <path fill-rule="evenodd" clip-rule="evenodd" d="M39.5646 41.8773C39.3558 42.5892 39.235 44.1827 39.587 44.8373C39.9408 45.4926 41.3196 46.2306 42.0175 46.4253C41.3196 46.2306 39.7492 46.1459 39.0936 46.5197C38.4399 46.8939 37.6784 48.3086 37.4696 49.0205C37.6784 48.3086 37.7992 46.7152 37.4454 46.0599C37.0917 45.4046 35.7129 44.6667 35.015 44.472C35.7129 44.6667 37.2833 44.7513 37.9389 44.3776C38.5944 44.004 39.3558 42.5892 39.5646 41.8773Z" fill="white"/>
            <path fill-rule="evenodd" clip-rule="evenodd" d="M110.024 60.2656C109.962 60.4773 109.926 60.9512 110.031 61.1459C110.136 61.3408 110.546 61.5603 110.753 61.6182C110.546 61.5603 110.079 61.5351 109.884 61.6462C109.689 61.7576 109.463 62.1783 109.401 62.39C109.463 62.1783 109.499 61.7044 109.394 61.5095C109.288 61.3146 108.878 61.0952 108.671 61.0373C108.878 61.0952 109.345 61.1204 109.54 61.0092C109.735 60.8981 109.962 60.4773 110.024 60.2656Z" fill="white"/>
            <path opacity="0.5" d="M31.5735 66.2356L30.8262 65.2778L29.7356 65.9258L30.483 66.8836L31.5735 66.2356Z" fill="white"/>
            <path fill-rule="evenodd" clip-rule="evenodd" d="M58.6328 83.6964C58.6918 83.3798 58.9634 83.1519 59.2941 83.1519C59.613 83.1519 59.8847 83.3798 59.9556 83.6964C60.8178 88.2047 62.5069 93.3013 64.7274 95.529C67.1015 97.8995 72.7237 99.6535 77.4246 100.467C77.5427 100.486 77.6371 100.603 77.6253 100.733C77.6253 100.864 77.519 100.966 77.3773 100.966C68.3062 100.97 50.2703 100.97 41.1993 100.97C41.0693 100.97 40.9513 100.868 40.9395 100.734C40.9395 100.601 41.0339 100.483 41.1638 100.463C45.8647 99.6535 51.475 97.8995 53.8491 95.529C56.0815 93.3013 57.7587 88.2047 58.6328 83.6964Z" fill="url(#paint2_linear_230_9862)"/>
            <path fill-rule="evenodd" clip-rule="evenodd" d="M107.981 3.65236L71.1016 41.7964L95.8306 -10.8396C95.843 -7.7271 94.9281 7.08131 107.981 3.65236Z" fill="url(#paint3_linear_230_9862)"/>
            <path fill-rule="evenodd" clip-rule="evenodd" d="M26.0429 -15L40.6367 36.0107L7.41713 -11.7232C10.1188 -10.1777 22.4858 -1.98114 26.0429 -15Z" fill="url(#paint4_linear_230_9862)"/>
            <path fill-rule="evenodd" clip-rule="evenodd" d="M105.998 121.246L75.9277 77.5322L122.612 112.211C119.559 111.606 105.227 107.772 105.998 121.246Z" fill="url(#paint5_linear_230_9862)"/>
            <g style="mix-blend-mode:hue">
                <rect width="120" height="120" fill="#8668AD"/>
            </g>
        </g>
    </g>
    <defs>
        <linearGradient id="paint0_linear_230_9862" x1="91.3706" y1="68.0653" x2="91.1404" y2="53.0989" gradientUnits="userSpaceOnUse">
            <stop stop-color="#A3F5F1"/>
            <stop offset="1" stop-color="#1FC1BF"/>
        </linearGradient>
        <linearGradient id="paint1_linear_230_9862" x1="29.0025" y1="89.5576" x2="28.451" y2="73.7424" gradientUnits="userSpaceOnUse">
            <stop stop-color="#A3F5F1"/>
            <stop offset="1" stop-color="#1FC1BF"/>
        </linearGradient>
        <linearGradient id="paint2_linear_230_9862" x1="59.0823" y1="81.4911" x2="59.3673" y2="102.293" gradientUnits="userSpaceOnUse">
            <stop stop-color="#A3F5F1"/>
            <stop offset="1" stop-color="#1FC1BF"/>
        </linearGradient>
        <linearGradient id="paint3_linear_230_9862" x1="101.479" y1="-2.32298" x2="70.2933" y2="35.9736" gradientUnits="userSpaceOnUse">
            <stop stop-color="white" stop-opacity="0"/>
            <stop offset="1" stop-color="white"/>
        </linearGradient>
        <linearGradient id="paint4_linear_230_9862" x1="17.6167" y1="-12.3562" x2="35.1899" y2="33.7994" gradientUnits="userSpaceOnUse">
            <stop stop-color="white" stop-opacity="0"/>
            <stop offset="1" stop-color="white"/>
        </linearGradient>
        <linearGradient id="paint5_linear_230_9862" x1="113.145" y1="116.057" x2="81.7951" y2="77.895" gradientUnits="userSpaceOnUse">
            <stop stop-color="white" stop-opacity="0"/>
            <stop offset="1" stop-color="white"/>
        </linearGradient>
        <clipPath id="clip0_230_9862">
            <path d="M0 12C0 5.37259 5.37258 0 12 0H108C114.627 0 120 5.37258 120 12V108C120 114.627 114.627 120 108 120H12C5.37259 120 0 114.627 0 108V12Z" fill="white"/>
        </clipPath>
        <clipPath id="clip1_230_9862">
            <path d="M0 12C0 5.37259 5.37258 0 12 0H108C114.627 0 120 5.37258 120 12V108C120 114.627 114.627 120 108 120H12C5.37259 120 0 114.627 0 108V12Z" fill="white"/>
        </clipPath>
    </defs>
</svg>
