<svg width="168" height="24" viewBox="0 0 168 24" fill="none" xmlns="http://www.w3.org/2000/svg">
<path d="M76.3188 19.9437C74.7508 19.9437 73.5188 19.6147 72.6228 18.9567C71.7408 18.2847 71.2788 17.3607 71.2368 16.1847H73.8618C73.9038 16.5767 74.1208 16.9337 74.5128 17.2557C74.9048 17.5777 75.5208 17.7387 76.3608 17.7387C77.0608 17.7387 77.6138 17.6127 78.0198 17.3607C78.4398 17.1087 78.6498 16.7657 78.6498 16.3317C78.6498 15.9537 78.4888 15.6527 78.1668 15.4287C77.8588 15.2047 77.3268 15.0577 76.5708 14.9877L75.5628 14.8827C74.2888 14.7427 73.3088 14.3787 72.6228 13.7907C71.9368 13.2027 71.5938 12.4187 71.5938 11.4387C71.5938 10.6547 71.7898 9.99666 72.1818 9.46466C72.5738 8.93266 73.1128 8.53366 73.7988 8.26766C74.4988 7.98766 75.2968 7.84766 76.1928 7.84766C77.5928 7.84766 78.7268 8.15566 79.5948 8.77166C80.4628 9.38766 80.9178 10.2907 80.9598 11.4807H78.3348C78.3068 11.0887 78.1108 10.7527 77.7468 10.4727C77.3828 10.1927 76.8578 10.0527 76.1718 10.0527C75.5558 10.0527 75.0798 10.1717 74.7438 10.4097C74.4078 10.6477 74.2398 10.9557 74.2398 11.3337C74.2398 11.6977 74.3728 11.9777 74.6388 12.1737C74.9188 12.3697 75.3668 12.5027 75.9828 12.5727L76.9908 12.6777C78.3348 12.8177 79.3848 13.1887 80.1408 13.7907C80.9108 14.3927 81.2958 15.2047 81.2958 16.2267C81.2958 16.9827 81.0858 17.6407 80.6658 18.2007C80.2598 18.7467 79.6858 19.1737 78.9438 19.4817C78.2018 19.7897 77.3268 19.9437 76.3188 19.9437Z" fill="black"/>
<path d="M67.48 19.5866V16.2056H66.997V12.4466C66.997 11.7886 66.836 11.2986 66.514 10.9766C66.192 10.6546 65.695 10.4936 65.023 10.4936C64.673 10.4936 64.253 10.5006 63.763 10.5146C63.273 10.5286 62.776 10.5496 62.272 10.5776C61.782 10.5916 61.341 10.6126 60.949 10.6406V8.16262C61.271 8.13462 61.635 8.10662 62.041 8.07862C62.447 8.05062 62.86 8.03662 63.28 8.03662C63.714 8.02262 64.12 8.01562 64.498 8.01562C65.674 8.01562 66.647 8.16962 67.417 8.47762C68.201 8.78562 68.789 9.26862 69.181 9.92662C69.587 10.5846 69.79 11.4456 69.79 12.5096V19.5866H67.48ZM63.805 19.8806C62.979 19.8806 62.251 19.7336 61.621 19.4396C61.005 19.1456 60.522 18.7256 60.172 18.1796C59.836 17.6336 59.668 16.9756 59.668 16.2056C59.668 15.3656 59.871 14.6796 60.277 14.1476C60.697 13.6156 61.278 13.2166 62.02 12.9506C62.776 12.6846 63.658 12.5516 64.666 12.5516H67.312V14.2946H64.624C63.952 14.2946 63.434 14.4626 63.07 14.7986C62.72 15.1206 62.545 15.5406 62.545 16.0586C62.545 16.5766 62.72 16.9966 63.07 17.3186C63.434 17.6406 63.952 17.8016 64.624 17.8016C65.03 17.8016 65.401 17.7316 65.737 17.5916C66.087 17.4376 66.374 17.1856 66.598 16.8356C66.836 16.4716 66.969 15.9816 66.997 15.3656L67.711 16.1846C67.641 16.9826 67.445 17.6546 67.123 18.2006C66.815 18.7466 66.381 19.1666 65.821 19.4606C65.275 19.7406 64.603 19.8806 63.805 19.8806Z" fill="black"/>
<path d="M55.0545 19.5878V4.25781H57.9735V19.5878H55.0545ZM53.6265 6.44181V4.25781H57.9735V6.44181H53.6265Z" fill="black"/>
<path d="M51.5549 19.7357C50.5049 19.7357 49.6369 19.6027 48.9509 19.3367C48.2789 19.0567 47.7749 18.5947 47.4389 17.9507C47.1029 17.2927 46.9349 16.4107 46.9349 15.3047L46.9559 4.97266H49.6859L49.6649 15.4937C49.6649 16.0537 49.8119 16.4877 50.1059 16.7957C50.4139 17.0897 50.8479 17.2367 51.4079 17.2367H53.1929V19.7357H51.5549ZM45.1289 10.3277V8.18566H53.1929V10.3277H45.1289Z" fill="black"/>
<path d="M29.9951 19.5878L35.2241 4.25781H40.0961L45.4721 19.5878H42.4061L37.8491 6.29481L38.9201 6.75681H36.2951L37.3871 6.29481L32.9771 19.5878H29.9951ZM33.6491 15.5138L34.5941 12.9938H40.8101L41.7341 15.5138H33.6491Z" fill="black"/>
<g clip-path="url(#clip0_536_5446)">
<circle cx="12" cy="12" r="12" fill="#FF0420"/>
<path d="M8.50259 15.1879C7.78806 15.1879 7.20263 15.0198 6.7463 14.6835C6.29597 14.3413 6.0708 13.8549 6.0708 13.2245C6.0708 13.0924 6.08581 12.9302 6.11583 12.7381C6.19389 12.3058 6.30497 11.7864 6.44908 11.1799C6.85738 9.52873 7.91115 8.70312 9.6104 8.70312C10.0727 8.70312 10.487 8.78118 10.8533 8.9373C11.2196 9.08741 11.5078 9.31558 11.718 9.6218C11.9281 9.92202 12.0332 10.2823 12.0332 10.7026C12.0332 10.8287 12.0182 10.9878 11.9882 11.1799C11.8981 11.7143 11.79 12.2337 11.6639 12.7381C11.4538 13.5607 11.0905 14.1761 10.5741 14.5845C10.0577 14.9867 9.36722 15.1879 8.50259 15.1879ZM8.62868 13.8909C8.96493 13.8909 9.25014 13.7919 9.48431 13.5937C9.72449 13.3956 9.89561 13.0924 9.99769 12.6841C10.1358 12.1196 10.2409 11.6273 10.3129 11.207C10.3369 11.0809 10.3489 10.9518 10.3489 10.8197C10.3489 10.2733 10.0637 10.0001 9.49332 10.0001C9.15707 10.0001 8.86886 10.0992 8.62868 10.2973C8.39451 10.4954 8.22639 10.7987 8.12431 11.207C8.01623 11.6093 7.90815 12.1016 7.80007 12.6841C7.77605 12.8041 7.76405 12.9302 7.76405 13.0623C7.76405 13.6147 8.05226 13.8909 8.62868 13.8909Z" fill="white"/>
<path d="M12.4467 15.0978C12.3807 15.0978 12.3296 15.0768 12.2936 15.0348C12.2636 14.9867 12.2546 14.9327 12.2666 14.8727L13.5095 9.01836C13.5215 8.95231 13.5545 8.89827 13.6086 8.85624C13.6626 8.81421 13.7197 8.79319 13.7797 8.79319H16.1755C16.8419 8.79319 17.3763 8.93129 17.7786 9.2075C18.1869 9.4837 18.3911 9.88299 18.3911 10.4054C18.3911 10.5555 18.3731 10.7116 18.337 10.8737C18.1869 11.5642 17.8837 12.0746 17.4274 12.4048C16.977 12.7351 16.3586 12.9002 15.572 12.9002H14.3561L13.9418 14.8727C13.9298 14.9387 13.8968 14.9928 13.8427 15.0348C13.7887 15.0768 13.7317 15.0978 13.6716 15.0978H12.4467ZM15.6351 11.6573C15.8872 11.6573 16.1064 11.5882 16.2925 11.4501C16.4847 11.312 16.6108 11.1139 16.6708 10.8557C16.6888 10.7536 16.6978 10.6636 16.6978 10.5855C16.6978 10.4114 16.6468 10.2793 16.5447 10.1892C16.4427 10.0931 16.2685 10.0451 16.0223 10.0451H14.9416L14.5993 11.6573H15.6351Z" fill="white"/>
</g>
<defs>
<clipPath id="clip0_536_5446">
<rect width="24" height="24" fill="white"/>
</clipPath>
</defs>
</svg>
