<svg width="80" height="80" viewBox="0 0 80 80" fill="none" xmlns="http://www.w3.org/2000/svg">
<circle cx="40" cy="40" r="40" fill="#FF0420"/>
<path d="M28.3414 50.6315C25.9596 50.6315 24.0082 50.0711 22.4871 48.9503C20.986 47.8094 20.2354 46.1883 20.2354 44.0867C20.2354 43.6464 20.2854 43.106 20.3855 42.4655C20.6457 41.0245 21.016 39.2932 21.4963 37.2717C22.8573 31.7676 26.3699 29.0156 32.0341 29.0156C33.5752 29.0156 34.9562 29.2758 36.1771 29.7962C37.398 30.2966 38.3587 31.0571 39.0593 32.0779C39.7598 33.0786 40.11 34.2795 40.11 35.6805C40.11 36.1008 40.06 36.6312 39.9599 37.2717C39.6597 39.053 39.2994 40.7843 38.8791 42.4655C38.1786 45.2075 36.9677 47.259 35.2465 48.62C33.5252 49.961 31.2235 50.6315 28.3414 50.6315ZM28.7617 46.3083C29.8825 46.3083 30.8332 45.9781 31.6138 45.3176C32.4144 44.6571 32.9848 43.6464 33.325 42.2854C33.7854 40.404 34.1356 38.7628 34.3758 37.3618C34.4559 36.9415 34.4959 36.5111 34.4959 36.0708C34.4959 34.2495 33.5452 33.3388 31.6438 33.3388C30.523 33.3388 29.5623 33.669 28.7617 34.3295C27.9811 34.99 27.4207 36.0008 27.0804 37.3618C26.7202 38.7028 26.3599 40.344 25.9997 42.2854C25.9196 42.6857 25.8796 43.106 25.8796 43.5463C25.8796 45.3877 26.8403 46.3083 28.7617 46.3083Z" fill="white"/>
<path d="M41.4885 50.3313C41.2683 50.3313 41.0982 50.2613 40.9781 50.1211C40.878 49.961 40.848 49.7809 40.888 49.5808L45.0311 30.0664C45.0711 29.8462 45.1812 29.6661 45.3613 29.526C45.5414 29.3859 45.7316 29.3158 45.9317 29.3158H53.9176C56.1392 29.3158 57.9205 29.7762 59.2615 30.6969C60.6225 31.6175 61.303 32.9485 61.303 34.6898C61.303 35.1902 61.243 35.7105 61.1229 36.2509C60.6225 38.5526 59.6118 40.2539 58.0907 41.3547C56.5896 42.4555 54.5281 43.0059 51.9061 43.0059H47.8531L46.4721 49.5808C46.4321 49.8009 46.322 49.981 46.1419 50.1211C45.9618 50.2613 45.7716 50.3313 45.5715 50.3313H41.4885ZM52.1163 38.8629C52.9569 38.8629 53.6874 38.6327 54.3079 38.1724C54.9484 37.712 55.3687 37.0515 55.5688 36.1909C55.6289 35.8507 55.6589 35.5504 55.6589 35.2902C55.6589 34.7098 55.4888 34.2695 55.1485 33.9693C54.8083 33.649 54.2278 33.4889 53.4072 33.4889H49.8046L48.6637 38.8629H52.1163Z" fill="white"/>
</svg>
