<svg width="210" height="172" viewBox="0 0 210 172" fill="none" xmlns="http://www.w3.org/2000/svg">
<path d="M635.84 143.132L40.0843 30.4824L240.404 602.747L635.84 143.132Z" fill="url(#paint0_linear_793_4300)"/>
<path d="M96.2877 244.144C91.1546 244.644 89.745 252 86.0006 252C82.2561 252 80.4739 244.81 75.7135 244.144C70.6264 243.298 67.3607 250.039 63.7432 249.071C60.1258 248.102 60.2667 240.694 55.8398 238.82C51.145 236.686 46.245 242.352 43.0029 240.479C39.7595 238.606 41.8125 231.488 38.022 228.531C34.0389 225.254 27.8395 229.459 25.192 226.812C22.5445 224.164 26.3685 217.82 23.4726 213.982C20.4734 209.786 13.3977 212.243 11.5247 209.001C9.65182 205.757 14.9887 200.62 13.1841 196.164C11.3726 191.335 3.90187 191.876 2.9333 188.26C1.96475 184.643 8.44881 181.062 7.85985 176.29C7.36021 171.157 0.00390625 169.747 0.00390625 166.003C0.00390625 162.258 7.19414 160.476 7.85985 155.715C8.7056 150.628 1.96475 147.363 2.9333 143.745C3.90187 140.128 11.3098 140.269 13.1841 135.842C15.318 131.147 9.65182 126.247 11.5247 123.005C13.3977 119.761 20.5153 121.814 23.4726 118.024C26.7496 114.041 22.5445 107.841 25.192 105.194C27.8395 102.546 34.184 106.37 38.022 103.474C42.2172 100.475 39.7609 93.3992 43.0029 91.5262C46.2464 89.6533 51.3836 94.9902 55.8398 93.1856C60.6687 91.3741 60.1272 83.9033 63.7432 82.9347C67.3607 81.9662 70.9418 88.4503 75.7135 87.8599C80.8465 87.3603 82.2561 80.0039 86.0006 80.0039C89.745 80.0039 91.5272 87.1942 96.2877 87.8599C101.375 88.7057 104.64 81.9648 108.258 82.9347C111.875 83.9033 111.734 91.3113 116.161 93.1856C120.856 95.3196 125.756 89.6533 128.998 91.5262C132.242 93.3992 130.189 100.517 133.979 103.474C137.962 106.751 144.16 102.546 146.809 105.194C149.457 107.841 145.633 114.186 148.528 118.024C151.528 122.219 158.603 119.763 160.476 123.005C162.349 126.248 157.012 131.385 158.817 135.842C160.628 140.671 168.099 140.129 169.068 143.745C170.036 147.363 163.552 150.944 164.143 155.715C164.644 160.846 172 162.255 172 166C172 169.744 164.81 171.527 164.144 176.287C163.298 181.374 170.039 184.64 169.069 188.257C168.101 191.875 160.693 191.734 158.818 196.161C156.684 200.856 162.351 205.756 160.478 208.998C158.605 212.241 151.487 210.188 148.53 213.979C145.253 217.962 149.458 224.16 146.81 226.809C144.163 229.456 137.818 225.632 133.981 228.528C129.785 231.527 132.242 238.603 129 240.476C125.756 242.349 120.619 237.012 116.163 238.817C111.334 240.628 111.875 248.099 108.259 249.068C104.642 250.036 101.061 243.552 96.2891 244.143L96.2877 244.144Z" fill="url(#paint1_linear_793_4300)"/>
<path d="M58.9836 128.168V128.262C61.2181 129.376 62.8922 131.05 64.0059 133.285H64.1001C65.2138 131.05 66.8879 129.376 69.1224 128.262V128.168C66.8879 127.054 65.2138 125.38 64.1001 123.146H64.0059C62.8922 125.38 61.2181 127.054 58.9836 128.168Z" fill="white"/>
<path d="M39.9581 128.168V128.262C42.1926 129.376 43.8667 131.05 44.9804 133.285H45.0746C46.1883 131.05 47.8624 129.376 50.0969 128.262V128.168C47.8624 127.054 46.1883 125.38 45.0746 123.146H44.9804C43.8667 125.38 42.1926 127.054 39.9581 128.168Z" fill="white"/>
<defs>
<linearGradient id="paint0_linear_793_4300" x1="231.461" y1="138.457" x2="-132.072" y2="69.0678" gradientUnits="userSpaceOnUse">
<stop stop-color="#FF0420"/>
<stop offset="0.287125" stop-color="#FF67B5"/>
<stop offset="0.551135" stop-color="#FF744A" stop-opacity="0.470029"/>
<stop offset="0.917707" stop-color="white" stop-opacity="0"/>
</linearGradient>
<linearGradient id="paint1_linear_793_4300" x1="9.14668" y1="86.7754" x2="151.347" y2="203.921" gradientUnits="userSpaceOnUse">
<stop offset="0.62" stop-color="#FF0420"/>
<stop offset="1" stop-color="#FA4E7C" stop-opacity="0.54"/>
</linearGradient>
</defs>
</svg>
