<svg width="124" height="124" viewBox="0 0 124 124" fill="none" xmlns="http://www.w3.org/2000/svg">
<g clip-path="url(#clip0_3170_296278)">
<rect width="124" height="124" fill="url(#paint0_linear_3170_296278)"/>
<path d="M94.0619 79.3704L92.0045 109.852L80.1719 102.903L70.442 119.398L63.9932 103.377L34.8715 119.398L36.0757 94.6535L19.7268 85.7875L28.8087 68.7443L8.9588 46.5462L29.3179 46.7499L29.6744 23.3296L49.9316 34.4541L64.2192 5.01318L72.8427 36.1856L85.8515 20.6758L89.2182 45.1656L103.441 46.5462L95.1019 66.7274L104.037 77.2108L94.0619 79.3704Z" fill="url(#paint1_radial_3170_296278)"/>
<path d="M87.5777 93.3696L93.4512 80.0837L80.7244 73.6248C75.8031 69.3486 86.2083 59.9162 87.5777 62.0381L103.257 81.3908L87.6795 95.633C87.0741 95.2256 86.9439 94.5352 87.5833 93.3696H87.5777Z" fill="url(#paint2_radial_3170_296278)"/>
<path d="M55.9369 112.185L44.6822 103.131L45.4291 89.2905L76.6242 81.7195L86.3906 90.0883L85.5588 102.99L55.9369 112.185Z" fill="url(#paint3_linear_3170_296278)"/>
<path d="M43.9669 104.57C43.7123 104.434 43.4237 104.168 43.0899 103.721C42.2864 102.652 27.1099 88.8971 26.8826 87.5612C26.6554 86.2252 40.4979 66.0243 43.8081 65.2434C45.5746 64.8673 46.0261 68.3499 47.8505 70.869C49.675 73.3872 51.0859 74.4661 53.1802 76.3866L38.2802 88.2525L45.6362 101.752C45.6362 101.752 45.025 105.153 43.9669 104.576" fill="url(#paint4_radial_3170_296278)"/>
<path d="M60.9759 67.7229C63.4102 70.582 65.5973 71.8929 67.4673 71.6193C69.3316 71.3451 71.0339 69.4754 72.534 66.0626C72.6575 65.7747 72.9908 65.6471 73.2786 65.7706C73.5665 65.8941 73.6942 66.2273 73.5707 66.5152C71.9082 70.3083 69.9069 72.4063 67.6319 72.7368C67.2325 72.7944 66.822 72.7994 66.4115 72.7532C64.4547 72.533 62.3821 71.1154 60.1138 68.4515C59.913 68.2125 59.9416 67.857 60.175 67.6555C60.4083 67.454 60.7694 67.4833 60.971 67.7166L60.9759 67.7229Z" fill="url(#paint5_linear_3170_296278)"/>
<path d="M71.6327 61.0261C71.5365 61.2355 71.3328 61.3599 71.1178 61.3599C71.0386 61.3599 70.9594 61.343 70.8858 61.309C70.6029 61.1789 70.4784 60.845 70.6029 60.5621C71.6497 58.2591 72.6003 56.8898 73.5623 56.3126L72.9908 53.738C72.9229 53.4325 73.1153 53.1326 73.4208 53.0647C73.7264 52.9968 74.0263 53.1891 74.0942 53.4947L74.643 55.9901C75.6446 55.9788 76.5386 56.7313 77.41 58.2987C77.5628 58.5703 77.4666 58.9155 77.1893 59.0683C76.9177 59.221 76.5726 59.1249 76.4198 58.8476C75.9728 58.0441 75.2824 57.0878 74.6261 57.1161C74.0602 57.1387 73.0813 57.8347 71.6271 61.0317L71.6327 61.0261Z" fill="url(#paint6_linear_3170_296278)"/>
<path d="M53.4577 62.1237C54.4309 59.634 55.5456 58.2534 56.8414 57.8969L56.6038 55.1242C56.5755 54.813 56.8075 54.5358 57.1187 54.5131C57.4356 54.4792 57.7015 54.7168 57.7298 55.028L57.9731 57.8403C59.2746 58.0723 60.6156 59.2889 62.0529 61.5353C62.2226 61.8012 62.1434 62.1464 61.8831 62.3161C61.6172 62.4859 61.272 62.4067 61.1022 62.1407C59.699 59.9396 58.4258 58.8305 57.379 58.9324C56.3888 59.0286 55.3985 60.2734 54.5158 62.5312C54.4253 62.7575 54.2159 62.8933 53.9896 62.8933C53.9217 62.8933 53.8481 62.882 53.7859 62.8537C53.4973 62.7405 53.3502 62.4123 53.4633 62.1181L53.4577 62.1237Z" fill="url(#paint7_linear_3170_296278)"/>
<path fill-rule="evenodd" clip-rule="evenodd" d="M89.5136 90.4578L89.5136 90.4578L89.5136 90.4578C89.1637 90.3206 88.8212 90.1864 88.4899 90.1225C88.2579 90.0433 88.0542 90.0829 88.0768 90.1225C88.0785 90.1259 88.0802 90.1272 88.0814 90.1282C88.0843 90.1306 88.0847 90.1309 88.0768 90.1508C87.3129 91.5428 85.4965 91.7748 84.3366 90.4281L84.3705 90.2809C84.6761 90.1168 84.942 90.032 85.1966 89.9754C85.604 89.8509 85.9888 89.7377 86.3736 89.7434L86.3956 89.7434C86.5349 89.7437 86.6701 89.744 86.8206 89.6472C86.8767 89.6094 86.9349 89.5652 86.9957 89.5191C87.1989 89.365 87.4316 89.1884 87.7146 89.1493C87.8618 89.1136 87.995 89.1341 88.1334 89.1555C88.1706 89.1613 88.2082 89.1671 88.2465 89.1719C88.3113 89.1935 88.4452 89.248 88.5427 89.2877L88.62 89.319C89.1915 89.6472 89.6385 90.0829 90.0459 90.5016L89.9497 90.6205L89.9554 90.6261C89.807 90.5728 89.6597 90.515 89.5136 90.4578ZM90.1782 91.2346L90.1808 91.2326V91.2383L90.1782 91.2346ZM90.1782 91.2346L90.0902 91.1081C88.7831 91.5325 87.4421 91.9343 86.0841 92.1436C84.6015 92.2059 83.5887 92.3021 82.0948 92.6868L82.0496 92.8283C82.5888 93.3855 83.2749 93.6701 83.992 93.7538C82.9256 93.8281 81.903 93.9003 80.6819 94.0668L80.631 94.2082C83.7657 96.8564 88.2982 94.1064 90.7709 92.2108L90.6747 92.0807C89.1017 92.737 87.4607 93.3255 85.7575 93.6198L85.6165 93.632C85.9306 93.5519 86.2333 93.4421 86.5141 93.3093C87.888 92.823 89.0812 92.0769 90.1782 91.2346ZM83.1198 96.8964C86.3961 98.6392 89.581 94.8938 90.9277 92.6474L90.807 92.4432C90.6419 92.5862 90.4757 92.7329 90.308 92.8809C89.3546 93.7221 88.3505 94.6082 87.2052 95.1423C87.1196 95.1714 87.0352 95.2 86.9519 95.2282C85.5778 95.6941 84.5123 96.0554 83.1198 96.7437V96.8964Z" fill="url(#paint8_radial_3170_296278)"/>
<path fill-rule="evenodd" clip-rule="evenodd" d="M44.5699 101.745C44.4228 101.787 44.2742 101.83 44.1246 101.869L44.1303 101.857L44.0454 101.733C44.4924 101.36 44.9791 100.98 45.5732 100.709C45.6064 100.7 45.6595 100.683 45.7169 100.665C45.8063 100.637 45.9063 100.606 45.958 100.596C45.9997 100.594 46.0409 100.591 46.0817 100.589C46.2179 100.579 46.3505 100.57 46.4899 100.618C46.763 100.683 46.9796 100.871 47.1678 101.034C47.2252 101.084 47.28 101.132 47.333 101.173C47.4801 101.286 47.6272 101.297 47.7687 101.303C48.1478 101.326 48.5212 101.467 48.9173 101.62C49.1606 101.699 49.4209 101.801 49.7095 101.982L49.7321 102.129C48.4533 103.334 46.6709 102.961 46.0372 101.563C46.0292 101.543 46.0297 101.543 46.0326 101.541C46.0338 101.54 46.0355 101.538 46.0372 101.535C46.0655 101.501 45.8674 101.444 45.6298 101.501C45.291 101.537 44.935 101.64 44.5699 101.745ZM43.8487 102.435C44.8615 103.335 45.9876 104.15 47.3116 104.727C47.574 104.874 47.8589 105.001 48.1572 105.102L48.0357 105.082C46.3664 104.664 44.7877 103.968 43.2826 103.209L43.1751 103.323V103.328C43.2135 103.362 43.2525 103.396 43.2921 103.431L43.2302 103.464H43.2358C44.3675 105.733 46.9384 109.858 50.3561 108.444C50.4147 108.403 50.3881 108.342 50.3561 108.292C49.6975 107.266 48.7256 106.955 47.805 106.66C47.2209 106.473 46.6575 106.293 46.2079 105.941C45.3704 105.285 44.7936 104.765 44.1555 104.149C46.5487 106.038 50.1568 108.061 53.083 106.061L53.0491 105.92C51.8578 105.662 50.8529 105.51 49.8047 105.354C50.5176 105.327 51.2169 105.107 51.7988 104.619L51.7648 104.478C50.3163 103.986 49.3147 103.816 47.8435 103.635C46.5081 103.324 45.2124 102.831 43.9505 102.316L43.8487 102.435Z" fill="url(#paint9_radial_3170_296278)"/>
<path d="M45.9701 89.7142C46.1625 89.4652 46.519 89.4199 46.7623 89.618L57.304 97.8227L85.1662 90.3479C85.4661 90.2687 85.7773 90.4441 85.8565 90.7497C85.9357 91.0496 85.7603 91.3608 85.4548 91.4456L57.4058 98.9714L56.4495 108.512C56.4326 108.659 56.3137 108.766 56.1666 108.766C56.1553 108.766 56.1496 108.766 56.1383 108.766C55.9856 108.749 55.8667 108.613 55.8837 108.455L56.84 98.9091L46.0606 90.5177C45.8117 90.3253 45.772 89.9688 45.9644 89.7255L45.9701 89.7142Z" fill="#FD2D2E"/>
<path opacity="0.53" d="M101.453 -4.8537L102.426 -6.7522C111.164 -2.30703 121.815 -5.80876 126.26 -14.5471L128.159 -13.5739C123.713 -4.83555 127.215 5.81526 135.953 10.2604L134.98 12.1587C126.242 7.71352 115.591 11.2153 111.146 19.9536L109.248 18.9806C113.693 10.2423 110.191 -0.408529 101.453 -4.8537Z" fill="white"/>
<path opacity="0.65" d="M-5.95564 25.8662L-6.4004 25.1627C-3.17367 23.1088 -2.23729 18.8361 -4.29113 15.6094L-3.58761 15.1647C-1.53378 18.3914 2.73893 19.3278 5.96566 17.274L6.41034 17.9774C3.18361 20.0313 2.24723 24.304 4.30107 27.5307L3.59764 27.9755C1.5438 24.7487 -2.72891 23.8123 -5.95564 25.8662Z" fill="#FFF0F1"/>
<path opacity="0.36" d="M11.7941 4.16732L11.8067 2.7255C18.4329 2.76313 23.8064 -2.57979 23.844 -9.20593L25.2857 -9.19321C25.2481 -2.56706 30.591 2.80642 37.2172 2.84405L37.2045 4.28573C30.5783 4.2481 25.2049 9.59102 25.1672 16.2172L23.7255 16.2046C23.7632 9.57843 18.4203 4.20494 11.7941 4.16732Z" fill="#FFF0F1"/>
<path d="M13.7648 102.53C12.79 102.53 11.9998 101.74 11.9998 100.765C11.9998 99.7903 12.79 99 13.7648 99C14.7396 99 15.5298 99.7903 15.5298 100.765C15.5298 101.74 14.7396 102.53 13.7648 102.53Z" fill="#FF99A1"/>
<path d="M99.7648 22.5304C98.79 22.5304 97.9998 21.7401 97.9998 20.7652C97.9998 19.7903 98.79 19 99.7648 19C100.74 19 101.53 19.7903 101.53 20.7652C101.53 21.7401 100.74 22.5304 99.7648 22.5304Z" fill="#FFD1D5"/>
<path d="M112.189 28.3497L112.152 27.9273C110.211 28.0908 108.513 26.6482 108.349 24.7066L107.927 24.7435C108.09 26.6851 106.648 28.3832 104.706 28.5467L104.743 28.969C106.685 28.8055 108.383 30.2481 108.546 32.1896L108.969 32.1528C108.805 30.2113 110.248 28.5131 112.189 28.3497Z" fill="#FFD1D5"/>
<path d="M20.9405 30.3211L21.1195 29.7836C18.6521 28.9537 17.3356 26.2836 18.1655 23.8163L17.6281 23.6374C16.7981 26.1047 14.1281 27.4213 11.6607 26.5913L11.4818 27.1288C13.9492 27.9587 15.2657 30.6288 14.4358 33.0961L14.9732 33.2751C15.8031 30.8077 18.4732 29.4911 20.9405 30.3211Z" fill="#FFF0F1"/>
</g>
<defs>
<linearGradient id="paint0_linear_3170_296278" x1="-14.5882" y1="167.872" x2="144.523" y2="-33.8877" gradientUnits="userSpaceOnUse">
<stop stop-color="#FFA4A4"/>
<stop offset="1" stop-color="white"/>
</linearGradient>
<radialGradient id="paint1_radial_3170_296278" cx="0" cy="0" r="1" gradientUnits="userSpaceOnUse" gradientTransform="translate(60.5278 60.8124) rotate(-34.872) scale(87.42 80.3847)">
<stop offset="0.179636" stop-color="#FFF9FF"/>
<stop offset="0.273686" stop-color="#FFE2FE"/>
<stop offset="0.564578" stop-color="#FF89AC"/>
<stop offset="0.869362" stop-color="#FC2C2C"/>
</radialGradient>
<radialGradient id="paint2_radial_3170_296278" cx="0" cy="0" r="1" gradientUnits="userSpaceOnUse" gradientTransform="translate(79.412 64.4234) rotate(39.629) scale(33.6037 31.3225)">
<stop offset="0.0822582" stop-color="#FFF9FF" stop-opacity="0"/>
<stop offset="0.262081" stop-color="#FFE2FE" stop-opacity="0.4"/>
<stop offset="0.584229" stop-color="#FF89AC"/>
<stop offset="0.869362" stop-color="#FC2C2C"/>
</radialGradient>
<linearGradient id="paint3_linear_3170_296278" x1="65.5364" y1="81.7195" x2="65.5364" y2="112.185" gradientUnits="userSpaceOnUse">
<stop stop-color="#E9BDB8"/>
<stop offset="1" stop-color="#FC2D99"/>
</linearGradient>
<radialGradient id="paint4_radial_3170_296278" cx="0" cy="0" r="1" gradientUnits="userSpaceOnUse" gradientTransform="translate(49.26 67.8255) rotate(122.416) scale(33.1325 33.6231)">
<stop offset="0.154701" stop-color="#FFF9FF"/>
<stop offset="0.321764" stop-color="#FFE2FE"/>
<stop offset="0.72" stop-color="#FF89AC"/>
<stop offset="1" stop-color="#FC2C2C"/>
</radialGradient>
<linearGradient id="paint5_linear_3170_296278" x1="67.5325" y1="61.6161" x2="68.6902" y2="76.8587" gradientUnits="userSpaceOnUse">
<stop offset="0.16" stop-color="#E20ABD"/>
<stop offset="0.909943" stop-color="#DF0A70"/>
</linearGradient>
<linearGradient id="paint6_linear_3170_296278" x1="68.5745" y1="64.3784" x2="75.5213" y2="53.5551" gradientUnits="userSpaceOnUse">
<stop offset="0.16" stop-color="#E20ABD"/>
<stop offset="0.909943" stop-color="#DF0A70"/>
</linearGradient>
<linearGradient id="paint7_linear_3170_296278" x1="63.5869" y1="65.3368" x2="51.7718" y2="62.3479" gradientUnits="userSpaceOnUse">
<stop offset="0.16" stop-color="#E20ABD"/>
<stop offset="0.909943" stop-color="#DF0A70"/>
</linearGradient>
<radialGradient id="paint8_radial_3170_296278" cx="0" cy="0" r="1" gradientUnits="userSpaceOnUse" gradientTransform="translate(90.1123 92.1306) rotate(161.522) scale(11.8772 12.7785)">
<stop stop-color="#FD2D2E"/>
<stop offset="1" stop-color="#C93131"/>
</radialGradient>
<radialGradient id="paint9_radial_3170_296278" cx="0" cy="0" r="1" gradientUnits="userSpaceOnUse" gradientTransform="translate(48.8433 106.413) rotate(-146.602) scale(6.78936 7.1366)">
<stop stop-color="#C93131"/>
<stop offset="1" stop-color="#FD2D2E"/>
</radialGradient>
<clipPath id="clip0_3170_296278">
<rect width="124" height="124" fill="white"/>
</clipPath>
</defs>
</svg>
