<svg width="112" height="112" viewBox="0 0 112 112" fill="none" xmlns="http://www.w3.org/2000/svg">
<g clip-path="url(#clip0_90_32577)">
<path fill-rule="evenodd" clip-rule="evenodd" d="M101.167 94.4684C101.166 94.4684 101.165 94.4684 101.164 94.4684L101.168 94.4763L101.167 94.4684ZM102.35 94.6461C101.989 94.5233 101.589 94.4756 101.167 94.4684L101.149 94.3578C101.875 94.1089 102.791 93.9983 103.525 94.417C103.752 94.5276 103.948 94.7033 104.141 94.8755C104.437 95.1401 104.724 95.3967 105.1 95.3967C105.305 95.4024 105.492 95.3777 105.683 95.3525C105.888 95.3254 106.098 95.2976 106.343 95.3058L106.41 95.4046C106.118 96.1274 105.344 96.7831 104.5 96.5343C104.318 96.4869 104.125 96.3526 103.994 96.2301C103.823 96.0535 103.718 95.8899 103.622 95.742C103.579 95.675 103.538 95.6111 103.493 95.5507C103.25 95.1573 102.934 94.8986 102.57 94.733C102.852 95.6667 103.183 96.6007 103.659 97.4305C103.947 97.8197 104.2 98.1517 104.451 98.4801C104.785 98.9182 105.115 99.3501 105.514 99.9032L105.471 100.014C104.33 100.156 103.284 99.3028 102.953 98.2481C102.485 97.1033 102.324 95.8675 102.35 94.6461ZM102.025 101.953C99.0686 100.982 100.091 96.7669 101.034 94.6418L101.038 94.6378L101.153 94.6734C101.058 95.3133 100.979 95.9492 100.967 96.5812C100.872 97.8058 101.137 99.0105 101.52 100.12C101.658 100.677 101.84 101.203 102.104 101.862L102.025 101.953ZM105.124 101.808C101.622 101.788 101.461 97.2617 101.622 94.6626L101.741 94.6547C101.774 94.8142 101.805 94.9735 101.837 95.1324L101.837 95.1325L101.837 95.1325C101.943 95.6622 102.047 96.1873 102.187 96.7008C102.621 98.7351 103.738 100.189 105.167 101.698L105.124 101.808Z" fill="url(#paint0_linear_90_32577)"/>
<path d="M-0.000190735 34.0442L11.453 51.9194L1.82368 59.9202L14.2772 67.3349L11.0674 83.0236L26.41 84.0112L29.2952 101.073L42.788 96.1831L53.8168 108.387L65.6054 96.1831L79.7201 102.863L82.5659 86.3838L103.077 96.7371L95.118 71.1929L110.193 64.6333L98.6841 51.261L106.261 35.1308L92.4297 31.2327L89.883 13.4726L75.969 17.3024L66.9279 0L55.5172 11.3248L42.1307 2.70974L35.7267 17.3024L18.8252 16.3911L20.6082 32.4933L-0.000190735 34.0442Z" fill="url(#paint1_radial_90_32577)"/>
<path d="M59.3687 48.3931C59.5384 48.3931 59.7042 48.322 59.8226 48.1838C60.0318 47.9349 60.0002 47.5597 59.7516 47.3503C57.6398 45.5728 56.6964 44.4589 56.3096 42.1876C56.2701 41.9624 56.1044 41.7768 55.8833 41.7136C55.6623 41.6504 55.4255 41.7254 55.2755 41.8992C52.6506 44.9842 49.9941 45.2449 46.0114 44.6524C45.6917 44.605 45.3878 44.8262 45.3404 45.1501C45.2931 45.474 45.5141 45.7742 45.8378 45.8216C49.7613 46.4063 52.6624 46.1969 55.3978 43.5069C55.9544 45.4227 57.0438 46.6117 58.9898 48.2509C59.1003 48.3457 59.2345 48.3892 59.3726 48.3892L59.3687 48.3931Z" fill="url(#paint2_linear_90_32577)"/>
<path d="M84.7675 52.77C85.0003 52.77 85.2214 52.6317 85.3161 52.3987C85.4385 52.0945 85.2924 51.7509 84.9885 51.6284C81.3926 50.1708 80.4098 47.6863 79.8769 45.2175C79.8138 44.9291 79.5533 44.7316 79.2572 44.7514C78.9612 44.7711 78.7283 45.0081 78.7086 45.3004C78.5862 47.1174 77.9428 48.5948 76.9442 49.3492C76.3758 49.7798 75.7284 49.9457 75.1206 49.8153C74.8009 49.7482 74.4851 49.9536 74.418 50.2735C74.3509 50.5935 74.5561 50.9095 74.8759 50.9767C75.8232 51.1781 76.8139 50.9372 77.6586 50.2972C78.4323 49.7126 79.0243 48.8515 79.4111 47.785C80.1927 49.7008 81.6137 51.5336 84.5464 52.7226C84.6175 52.7502 84.6964 52.766 84.7675 52.766V52.77Z" fill="url(#paint3_linear_90_32577)"/>
<path d="M63.9204 60.3042C63.034 59.7987 62.9883 58.2073 63.8184 56.7498C64.6485 55.2922 66.04 54.5205 66.9263 55.026C67.8127 55.5316 67.8583 57.123 67.0283 58.5805C66.1982 60.038 64.8067 60.8097 63.9204 60.3042Z" fill="url(#paint4_linear_90_32577)"/>
<path fill-rule="evenodd" clip-rule="evenodd" d="M40.1935 72.7116C32.1716 79.5017 34.3499 76.3593 15.611 92.1945L24.8388 63.2277C35.855 43.5273 47.8176 65.4222 40.1935 72.7116Z" fill="url(#paint5_radial_90_32577)"/>
<path fill-rule="evenodd" clip-rule="evenodd" d="M13.8781 94.6884C14.3589 94.0058 14.9788 93.3887 15.5906 92.7965L15.5884 92.7936L15.5297 92.7015C14.6985 93.0561 13.9025 93.4845 13.2248 94.1101C13.1905 94.1422 13.1554 94.1746 13.1199 94.2073C12.8037 94.4985 12.454 94.8206 12.3467 95.2946C12.2196 95.8003 12.2891 96.4095 12.6883 96.7821L12.7943 96.7587C12.9981 96.2802 13.1716 95.9914 13.3622 95.6893C13.4558 95.5539 13.5245 95.3962 13.5961 95.2318C13.6744 95.0519 13.7562 94.8639 13.8781 94.6884ZM15.4501 92.6578C14.2333 93.0024 13.0605 93.672 12.3492 94.7114L12.2457 94.8983C11.8175 95.6714 11.4734 96.2925 11.234 97.2627L11.1303 97.289C10.6303 96.7006 10.6099 95.8085 10.8748 95.0974C11.0994 94.5518 11.5386 94.1323 11.987 93.7655C12.9522 92.9551 14.2073 92.548 15.4418 92.5537L15.4546 92.6635L15.4501 92.6578ZM14.7373 92.1207C13.7486 92.5209 12.7679 92.984 11.887 93.5621C11.6271 93.7825 11.386 93.976 11.1534 94.1627C10.6369 94.5773 10.1625 94.9581 9.617 95.5242L9.50858 95.5035C9.32153 94.8854 9.59239 94.2112 9.97821 93.7415C10.3274 93.2918 10.841 93.0699 11.318 92.8639L11.318 92.8639C11.3691 92.8418 11.4198 92.8199 11.4698 92.7979C12.5036 92.3438 13.6035 92.1142 14.7116 92.0119L14.7351 92.1179L14.7373 92.1207Z" fill="url(#paint6_linear_90_32577)"/>
<path d="M13.3611 94.0256L0.225992 94.2687L22.2128 107.413L13.3611 94.0256Z" fill="url(#paint7_linear_90_32577)"/>
<path d="M22.2129 107.414L0.226073 94.2695L6.3531 106.441L22.2129 107.414Z" fill="url(#paint8_linear_90_32577)"/>
<path d="M6.35134 106.442L14.0303 102.521L13.3611 94.0293L6.70998 98.1445L6.35352 106.44L6.35134 106.442Z" fill="url(#paint9_linear_90_32577)"/>
<path d="M15.2198 93.0244C14.9371 93.4729 15.1003 93.9437 14.8088 94.3576C14.7292 94.4847 14.5886 94.6923 14.6692 94.7947C15.08 95.2874 15.3857 95.7752 15.4208 96.5221L15.3399 96.5949C15.1111 96.5676 14.9176 96.5032 14.7402 96.4124C13.8453 96.0656 13.3551 94.5475 14.3291 93.9237C14.3917 93.8745 14.407 93.8763 14.4526 93.8173C14.6034 93.5465 14.8435 93.1316 15.1406 92.9531L15.2226 93.0222L15.2198 93.0244Z" fill="url(#paint10_linear_90_32577)"/>
</g>
<defs>
<linearGradient id="paint0_linear_90_32577" x1="100.159" y1="98.0023" x2="106.842" y2="98.7168" gradientUnits="userSpaceOnUse">
<stop stop-color="#61A9FD"/>
<stop offset="0.878495" stop-color="#6F8FFF"/>
</linearGradient>
<radialGradient id="paint1_radial_90_32577" cx="0" cy="0" r="1" gradientUnits="userSpaceOnUse" gradientTransform="translate(60.1585 55.0968) rotate(173.305) scale(99.7376 94.8485)">
<stop offset="0.221759" stop-color="#EFFFF7"/>
<stop offset="0.335" stop-color="#B8FFE4"/>
<stop offset="0.435" stop-color="#6FE8EC"/>
<stop offset="0.686918" stop-color="#4991E5"/>
</radialGradient>
<linearGradient id="paint2_linear_90_32577" x1="59.9753" y1="45.0386" x2="45.3283" y2="45.0386" gradientUnits="userSpaceOnUse">
<stop offset="0.16" stop-color="#00AAB5"/>
<stop offset="0.9" stop-color="#018EAD"/>
</linearGradient>
<linearGradient id="paint3_linear_90_32577" x1="85.3701" y1="48.7556" x2="74.401" y2="48.7556" gradientUnits="userSpaceOnUse">
<stop offset="0.16" stop-color="#018EAD"/>
<stop offset="0.9" stop-color="#00AAB5"/>
</linearGradient>
<linearGradient id="paint4_linear_90_32577" x1="67.0331" y1="58.5794" x2="63.8176" y2="56.7482" gradientUnits="userSpaceOnUse">
<stop offset="0.16" stop-color="#018EAD"/>
<stop offset="0.9" stop-color="#00AAB5"/>
</linearGradient>
<radialGradient id="paint5_radial_90_32577" cx="0" cy="0" r="1" gradientUnits="userSpaceOnUse" gradientTransform="translate(46.9678 65.4857) rotate(167.155) scale(48.4269 131.609)">
<stop offset="0.109372" stop-color="#EFFFF7"/>
<stop offset="0.335" stop-color="#B8FFE4"/>
<stop offset="0.596236" stop-color="#6FE8EC"/>
<stop offset="0.850439" stop-color="#4991E5"/>
</radialGradient>
<linearGradient id="paint6_linear_90_32577" x1="10.1745" y1="96.1974" x2="14.546" y2="91.0256" gradientUnits="userSpaceOnUse">
<stop stop-color="#456CF5"/>
<stop offset="0.878495" stop-color="#4991E5"/>
</linearGradient>
<linearGradient id="paint7_linear_90_32577" x1="15.8541" y1="97.1928" x2="7.62582" y2="103.67" gradientUnits="userSpaceOnUse">
<stop stop-color="#5DDDEF"/>
<stop offset="0.82" stop-color="#69BAE8"/>
</linearGradient>
<linearGradient id="paint8_linear_90_32577" x1="14.853" y1="109.45" x2="4.30747" y2="84.4348" gradientUnits="userSpaceOnUse">
<stop stop-color="#4298EB"/>
<stop offset="0.82" stop-color="#69BAE8"/>
</linearGradient>
<linearGradient id="paint9_linear_90_32577" x1="12.4855" y1="91.2338" x2="8.53165" y2="108.18" gradientUnits="userSpaceOnUse">
<stop offset="0.27" stop-color="#66B4D7"/>
<stop offset="0.32" stop-color="#70B9CE"/>
<stop offset="0.44" stop-color="#85C5BD"/>
<stop offset="0.58" stop-color="#94CDB2"/>
<stop offset="0.75" stop-color="#9DD2AB"/>
<stop offset="1" stop-color="#A0D4A9"/>
</linearGradient>
<linearGradient id="paint10_linear_90_32577" x1="14.0336" y1="95.7403" x2="16.0244" y2="93.7583" gradientUnits="userSpaceOnUse">
<stop offset="0.121505" stop-color="#456CF5"/>
<stop offset="1" stop-color="#4991E5"/>
</linearGradient>
<clipPath id="clip0_90_32577">
<rect width="112" height="112" rx="5" fill="white"/>
</clipPath>
</defs>
</svg>
