<svg width="112" height="112" viewBox="0 0 112 112" fill="none" xmlns="http://www.w3.org/2000/svg">
<g clip-path="url(#clip0_90_35993)">
<path fill-rule="evenodd" clip-rule="evenodd" d="M109.362 46.3851C110.155 46.103 110.931 45.849 111.745 45.7423C111.901 45.7217 112.012 45.578 111.991 45.4214C111.971 45.2647 111.827 45.1543 111.67 45.1749C110.831 45.285 110.041 45.5386 109.278 45.808C110.032 45.3272 110.803 44.9117 111.675 44.6305C111.872 44.5671 111.98 44.3563 111.917 44.1596C111.853 43.963 111.643 43.8549 111.446 43.9183C111.12 44.0235 110.806 44.1463 110.503 44.2827C110.847 44.0587 111.256 43.801 111.748 43.4983C111.862 43.4282 111.897 43.2791 111.827 43.1652C111.757 43.0514 111.608 43.0158 111.494 43.0859C109.129 44.5407 108.644 44.9917 107.95 45.6375L107.95 45.6375C107.736 45.8363 107.503 46.0535 107.188 46.3241C107.109 46.3795 107.029 46.4347 106.949 46.4896L106.965 46.5135C106.937 46.5376 106.907 46.562 106.877 46.5869L106.88 46.5894C106.851 46.5964 106.821 46.6032 106.792 46.6098L106.92 47.1677C107.061 47.1353 107.202 47.0997 107.342 47.0614L107.373 47.1063L107.504 47.0158C108.022 46.8664 108.527 46.6848 109.022 46.5069L109.022 46.5069C109.136 46.466 109.249 46.4252 109.362 46.3851Z" fill="#A1F9F7"/>
<path fill-rule="evenodd" clip-rule="evenodd" d="M109.362 46.3851C110.155 46.103 110.931 45.849 111.745 45.7423C111.901 45.7217 112.012 45.578 111.991 45.4214C111.971 45.2647 111.827 45.1543 111.67 45.1749C110.831 45.285 110.041 45.5386 109.278 45.808C110.032 45.3272 110.803 44.9117 111.675 44.6305C111.872 44.5671 111.98 44.3563 111.917 44.1596C111.853 43.963 111.643 43.8549 111.446 43.9183C111.12 44.0235 110.806 44.1463 110.503 44.2827C110.847 44.0587 111.256 43.801 111.748 43.4983C111.862 43.4282 111.897 43.2791 111.827 43.1652C111.757 43.0514 111.608 43.0158 111.494 43.0859C109.129 44.5407 108.644 44.9917 107.95 45.6375L107.95 45.6375C107.736 45.8363 107.503 46.0535 107.188 46.3241C107.109 46.3795 107.029 46.4347 106.949 46.4896L106.965 46.5135C106.937 46.5376 106.907 46.562 106.877 46.5869L106.88 46.5894C106.851 46.5964 106.821 46.6032 106.792 46.6098L106.92 47.1677C107.061 47.1353 107.202 47.0997 107.342 47.0614L107.373 47.1063L107.504 47.0158C108.022 46.8664 108.527 46.6848 109.022 46.5069L109.022 46.5069C109.136 46.466 109.249 46.4252 109.362 46.3851Z" fill="url(#paint0_linear_90_35993)"/>
<path fill-rule="evenodd" clip-rule="evenodd" d="M89.417 80.3867C89.4661 81.7806 88.9387 93.1091 85.028 101.161C78.2033 95.4653 73.7339 89.8338 73.1619 87.6241" fill="url(#paint1_radial_90_35993)"/>
<path fill-rule="evenodd" clip-rule="evenodd" d="M52.3867 88.0058C49.4306 96.6057 45.0083 104.639 38.8468 112L27.9996 77" fill="url(#paint2_radial_90_35993)"/>
<path fill-rule="evenodd" clip-rule="evenodd" d="M92.1299 39.7424C95.6793 39.7267 100.344 40.4372 111.098 45.0937C105.036 50.1674 99.5182 54.1022 95.4171 55.097" fill="url(#paint3_radial_90_35993)"/>
<path fill-rule="evenodd" clip-rule="evenodd" d="M100.258 18.9863L56.2824 0L12.6449 16.0921V74.0992L54.5744 97.5484L100.258 80.0958V18.9863Z" fill="url(#paint4_radial_90_35993)"/>
<path fill-rule="evenodd" clip-rule="evenodd" d="M86.6666 42.0664C87.2593 44.9066 88.1778 47.1985 90.3223 47.4048C87.1101 48.7627 86.4088 50.6482 86.1419 52.6269C85.9111 50.9857 85.1374 49.7808 83.3594 49.3776C85.8613 48.9007 86.4902 45.7985 86.6666 42.0664ZM75.0023 59.0301C74.8977 58.3067 75.5063 58.423 76.4733 58.6077C77.482 58.8003 78.8807 59.0674 80.267 58.534C82.1784 57.7986 83.1249 56.3939 83.6472 55.6188C83.9614 55.1525 84.1221 54.9141 84.2469 55.1863C84.613 58.3397 83.5282 60.6657 80.267 61.9442C77.1482 63.1672 75.4362 62.0258 75.0023 59.0301ZM76.4539 50.9446C74.7935 50.3559 74.0742 48.2646 73.9611 45.1999C72.7802 49.7333 71.2736 52.8328 69.3192 53.9617C71.2872 53.7871 72.6717 54.4848 73.0879 56.631C74.047 53.3541 75.1871 51.5912 76.4539 50.9446Z" fill="url(#paint5_radial_90_35993)"/>
<path fill-rule="evenodd" clip-rule="evenodd" d="M8.11404 80.7005C8.5014 80.5707 8.91467 80.7768 9.0371 81.1609C9.15952 81.545 8.94475 81.9617 8.55739 82.0916C5.41167 83.1461 3.10542 84.8548 1.87121 88.0368C1.72358 88.4174 1.29709 88.6127 0.91861 88.4728C0.540133 88.333 0.352994 87.9112 0.500623 87.5305C1.93983 83.82 4.67185 81.8545 8.11404 80.7005ZM3.62961 92.3085C3.59387 88.5641 5.45541 85.9479 8.62994 83.702L7.80584 82.4624C4.40254 84.8701 2.14297 87.8892 2.18512 92.3055C2.18907 92.7189 2.51563 93.0547 2.91451 93.0555C3.31339 93.0564 3.63356 92.7219 3.62961 92.3085ZM13.2252 83.3199C12.8523 84.459 13.0439 85.4896 13.4067 86.7324C13.4574 86.9061 13.5127 87.0866 13.5699 87.2733L13.5699 87.2733C13.9023 88.3583 14.2995 89.6547 14.2396 91.0597L13.0423 90.2563C12.9607 90.1449 12.8861 90.0436 12.8175 89.9503L12.8173 89.9501L12.8173 89.9501C12.1493 89.0429 12.0516 88.9102 11.7521 87.9199L11.7521 87.9198C11.6906 87.7165 11.6272 87.507 11.5637 87.2895C11.1767 85.9639 10.825 84.4162 11.4004 82.6585L13.2252 83.3199ZM9.26293 83.2933C9.54013 82.9995 9.99739 82.997 10.2842 83.2878C10.5711 83.5786 10.5789 84.0525 10.3017 84.3464C7.90863 86.8831 6.28675 89.344 5.94394 92.2452C5.89553 92.655 5.5353 92.9425 5.13935 92.8874C4.74339 92.8324 4.46165 92.4556 4.51006 92.0459C4.91034 88.6583 6.79716 85.9071 9.26293 83.2933Z" fill="url(#paint6_linear_90_35993)"/>
<path fill-rule="evenodd" clip-rule="evenodd" d="M108.892 45.4267L109.184 46.0755C109.997 46.1445 110.61 46.9407 111.463 46.4126C112.316 45.8845 111.903 45.8954 111.903 45.8954C110.986 46.0417 110.846 45.7525 110.51 45.6822" fill="url(#paint7_linear_90_35993)"/>
<path fill-rule="evenodd" clip-rule="evenodd" d="M53.8568 66.7091C39.028 75.0699 20.4665 85.9789 4.88223 84.7403C0.82409 81.1762 47.7645 37.8688 47.3777 39.0811" fill="url(#paint8_radial_90_35993)"/>
</g>
<defs>
<linearGradient id="paint0_linear_90_35993" x1="103.372" y1="49.0013" x2="109.287" y2="51.2562" gradientUnits="userSpaceOnUse">
<stop stop-color="#FFC830"/>
<stop offset="1" stop-color="#FA4119"/>
</linearGradient>
<radialGradient id="paint1_radial_90_35993" cx="0" cy="0" r="1" gradientUnits="userSpaceOnUse" gradientTransform="translate(89.4034 85.2374) rotate(120.611) scale(21.6872 22.2919)">
<stop offset="0.32941" stop-color="#FFF8D6"/>
<stop offset="0.425" stop-color="#FFE767"/>
<stop offset="0.54" stop-color="#FF9D42"/>
<stop offset="0.809272" stop-color="#FA4119"/>
</radialGradient>
<radialGradient id="paint2_radial_90_35993" cx="0" cy="0" r="1" gradientUnits="userSpaceOnUse" gradientTransform="translate(52.3619 85.1723) rotate(121.387) scale(31.4972 32.2622)">
<stop offset="0.32941" stop-color="#FFF8D6"/>
<stop offset="0.425" stop-color="#FFE767"/>
<stop offset="0.54" stop-color="#FF9D42"/>
<stop offset="0.809272" stop-color="#FA4119"/>
</radialGradient>
<radialGradient id="paint3_radial_90_35993" cx="0" cy="0" r="1" gradientUnits="userSpaceOnUse" gradientTransform="translate(87.5353 49.666) rotate(-7.04232) scale(33.5085 28.6615)">
<stop offset="0.32941" stop-color="#FFF8D6"/>
<stop offset="0.425" stop-color="#FFE767"/>
<stop offset="0.54" stop-color="#FF9D42"/>
<stop offset="0.809272" stop-color="#FA4119"/>
</radialGradient>
<radialGradient id="paint4_radial_90_35993" cx="0" cy="0" r="1" gradientUnits="userSpaceOnUse" gradientTransform="translate(68.2293 50.7769) rotate(-141.795) scale(87.1707 88.3068)">
<stop offset="0.281592" stop-color="#FFF8D6"/>
<stop offset="0.412926" stop-color="#FFE767"/>
<stop offset="0.54" stop-color="#FF9D42"/>
<stop offset="0.809272" stop-color="#FA4119"/>
</radialGradient>
<radialGradient id="paint5_radial_90_35993" cx="0" cy="0" r="1" gradientUnits="userSpaceOnUse" gradientTransform="translate(79.8152 52.0612) rotate(135.117) scale(10.6451 7.02081)">
<stop stop-color="#FFC830"/>
<stop offset="0.62" stop-color="#FA4119"/>
</radialGradient>
<linearGradient id="paint6_linear_90_35993" x1="12.311" y1="76.738" x2="1.17842" y2="89.1951" gradientUnits="userSpaceOnUse">
<stop stop-color="#FFC830"/>
<stop offset="1" stop-color="#FA4119"/>
</linearGradient>
<linearGradient id="paint7_linear_90_35993" x1="107.317" y1="45.9465" x2="111.252" y2="46.4399" gradientUnits="userSpaceOnUse">
<stop stop-color="#FFC830"/>
<stop offset="1" stop-color="#FA4119"/>
</linearGradient>
<radialGradient id="paint8_radial_90_35993" cx="0" cy="0" r="1" gradientUnits="userSpaceOnUse" gradientTransform="translate(74.9677 52.3873) rotate(159.288) scale(97.0464 95.6577)">
<stop offset="0.32941" stop-color="#FFF8D6"/>
<stop offset="0.425" stop-color="#FFE767"/>
<stop offset="0.54" stop-color="#FF9D42"/>
<stop offset="0.809272" stop-color="#FA4119"/>
</radialGradient>
<clipPath id="clip0_90_35993">
<rect width="112" height="112" rx="5" fill="white"/>
</clipPath>
</defs>
</svg>
