<svg width="278" height="129" viewBox="0 0 278 129" fill="none" xmlns="http://www.w3.org/2000/svg">
<path d="M124.735 83.8788V84.0642C120.132 86.2549 116.684 89.5478 114.39 93.9432H114.195C111.901 89.5478 108.453 86.2549 103.85 84.0642V83.8788C108.453 81.6883 111.901 78.3953 114.195 74H114.39C116.684 78.3953 120.132 81.6883 124.735 83.8788Z" fill="white"/>
<path d="M163.927 83.8788V84.0642C159.324 86.2549 155.876 89.5478 153.582 93.9432H153.388C151.093 89.5478 147.645 86.2549 143.042 84.0642V83.8788C147.645 81.6883 151.093 78.3953 153.388 74H153.582C155.876 78.3953 159.324 81.6883 163.927 83.8788Z" fill="white"/>
<mask id="path-3-inside-1_0_1" fill="white">
<path d="M144.825 313.973C154.644 314.928 157.34 329 164.503 329C171.665 329 175.074 315.246 184.18 313.973C193.911 312.355 200.158 325.249 207.077 323.397C213.997 321.544 213.727 307.374 222.195 303.788C231.176 299.706 240.549 310.545 246.75 306.962C252.954 303.38 249.027 289.765 256.278 284.108C263.897 277.84 275.755 285.883 280.819 280.819C285.883 275.755 278.569 263.619 284.108 256.277C289.845 248.252 303.38 252.951 306.963 246.749C310.545 240.545 300.337 230.718 303.788 222.194C307.254 212.957 321.544 213.993 323.397 207.076C325.249 200.157 312.846 193.306 313.973 184.179C314.929 174.36 329 171.664 329 164.501C329 157.339 315.246 153.93 313.973 144.824C312.355 135.093 325.249 128.846 323.397 121.926C321.544 115.007 307.374 115.276 303.788 106.808C299.707 97.8278 310.545 88.4548 306.963 82.2533C303.38 76.0492 289.765 79.9762 284.108 72.7255C277.84 65.1064 285.883 53.248 280.819 48.1838C275.755 43.1195 263.619 50.4343 256.278 44.8948C248.253 39.1578 252.951 25.6229 246.75 22.0403C240.546 18.4577 230.719 28.6663 222.195 25.2145C212.958 21.7493 213.994 7.45889 207.077 5.60618C200.158 3.75347 193.308 16.1565 184.18 15.0272C174.361 14.0715 171.665 0 164.503 0C157.34 0 153.931 13.7538 144.825 15.0272C135.094 16.645 128.848 3.7508 121.928 5.60618C115.009 7.45889 115.278 21.6292 106.81 25.2145C97.8297 29.2963 88.4568 18.4577 82.2553 22.0403C76.0512 25.6229 79.9782 39.2379 72.7276 44.8948C65.1086 51.1631 53.2529 43.1195 48.1861 48.1838C43.1218 53.248 50.4365 65.3841 44.8971 72.7255C39.1602 80.7504 25.6254 76.0518 22.0428 82.2533C18.4602 88.4575 28.6687 98.2843 25.2169 106.808C21.7518 116.045 7.4615 115.009 5.6088 121.926C3.75611 128.846 16.159 135.696 15.0298 144.824C14.0714 154.637 0 157.333 0 164.496C0 171.659 13.7537 175.068 15.0271 184.174C16.6449 193.904 3.75077 200.151 5.60613 207.071C7.45883 213.991 21.629 213.721 25.2143 222.189C29.2961 231.169 18.4575 240.542 22.0401 246.744C25.6227 252.948 39.2376 249.021 44.8945 256.272C51.1626 263.891 43.1192 275.747 48.1834 280.814C53.2476 285.878 65.3835 278.563 72.7249 284.103C80.7497 289.84 76.0512 303.374 82.2527 306.957C88.4568 310.54 98.2835 300.331 106.808 303.783C116.044 307.248 115.009 321.538 121.925 323.391C128.845 325.244 135.695 312.841 144.822 313.97L144.825 313.973Z"/>
</mask>
<path d="M144.825 313.973L144.116 314.678L144.37 314.933L144.728 314.968L144.825 313.973ZM184.18 313.973L184.319 314.963L184.331 314.961L184.344 314.959L184.18 313.973ZM222.195 303.788L222.585 304.709L222.597 304.704L222.609 304.699L222.195 303.788ZM246.75 306.962L246.25 306.096L246.25 306.096L246.75 306.962ZM256.278 284.108L256.893 284.896L256.903 284.888L256.913 284.88L256.278 284.108ZM284.108 256.277L284.906 256.879L284.914 256.869L284.922 256.859L284.108 256.277ZM306.963 246.749L307.828 247.25L307.829 247.249L306.963 246.749ZM303.788 222.194L304.715 222.57L304.72 222.558L304.725 222.546L303.788 222.194ZM323.397 207.076L324.362 207.335L324.363 207.335L323.397 207.076ZM313.973 184.179L314.965 184.302L314.967 184.289L314.968 184.276L313.973 184.179ZM313.973 144.824L314.963 144.685L314.961 144.672L314.959 144.66L313.973 144.824ZM303.788 106.808L304.709 106.419L304.704 106.407L304.699 106.395L303.788 106.808ZM306.963 82.2533L306.097 82.7534L306.097 82.7536L306.963 82.2533ZM284.108 72.7255L284.897 72.1104L284.889 72.1002L284.88 72.0902L284.108 72.7255ZM256.278 44.8948L256.88 44.0966L256.87 44.0888L256.859 44.0813L256.278 44.8948ZM246.75 22.0403L247.25 21.1744L247.25 21.1743L246.75 22.0403ZM222.195 25.2145L222.57 24.2876L222.558 24.2827L222.546 24.2782L222.195 25.2145ZM207.077 5.60618L207.336 4.64023L207.336 4.64021L207.077 5.60618ZM184.18 15.0272L184.303 14.0348L184.29 14.0332L184.277 14.0319L184.18 15.0272ZM144.825 15.0272L144.687 14.0369L144.674 14.0387L144.661 14.0408L144.825 15.0272ZM121.928 5.60618L122.187 6.57215L122.187 6.57206L121.928 5.60618ZM106.81 25.2145L106.42 24.2936L106.408 24.2987L106.396 24.3041L106.81 25.2145ZM82.2553 22.0403L82.7554 22.9063L82.7556 22.9062L82.2553 22.0403ZM72.7276 44.8948L72.1124 44.1064L72.1022 44.1144L72.0922 44.1226L72.7276 44.8948ZM48.1861 48.1838L47.4791 47.4765L47.4789 47.4767L48.1861 48.1838ZM44.8971 72.7255L44.0989 72.1232L44.0911 72.1335L44.0836 72.1439L44.8971 72.7255ZM22.0428 82.2533L21.1769 81.7531L21.1768 81.7533L22.0428 82.2533ZM25.2169 106.808L24.29 106.433L24.2852 106.445L24.2806 106.457L25.2169 106.808ZM5.6088 121.926L4.64285 121.668L4.64283 121.668L5.6088 121.926ZM15.0298 144.824L14.0373 144.701L14.0358 144.714L14.0345 144.726L15.0298 144.824ZM15.0271 184.174L14.0367 184.312L14.0385 184.325L14.0406 184.338L15.0271 184.174ZM5.60613 207.071L6.57211 206.812L6.57202 206.812L5.60613 207.071ZM25.2143 222.189L24.2934 222.579L24.2985 222.591L24.3039 222.603L25.2143 222.189ZM22.0401 246.744L22.9061 246.244L22.906 246.244L22.0401 246.744ZM44.8945 256.272L44.106 256.887L44.114 256.897L44.1222 256.907L44.8945 256.272ZM48.1834 280.814L47.4761 281.52L47.4763 281.521L48.1834 280.814ZM72.7249 284.103L72.1226 284.901L72.1329 284.909L72.1433 284.916L72.7249 284.103ZM82.2527 306.957L81.7524 307.823L81.7526 307.823L82.2527 306.957ZM106.808 303.783L106.432 304.71L106.444 304.715L106.456 304.719L106.808 303.783ZM121.925 323.391L121.667 324.357L121.667 324.357L121.925 323.391ZM144.822 313.97L145.532 313.265L145.288 313.02L144.945 312.978L144.822 313.97ZM144.728 314.968C149.151 315.399 152.037 318.774 154.867 322.454C156.238 324.237 157.614 326.11 159.101 327.514C160.605 328.933 162.351 330 164.503 330V328C163.074 328 161.797 327.308 160.474 326.059C159.134 324.794 157.879 323.09 156.453 321.235C153.689 317.641 150.318 313.503 144.922 312.977L144.728 314.968ZM164.503 330C166.64 330 168.425 328.967 169.984 327.578C171.53 326.2 172.971 324.362 174.393 322.59C177.332 318.925 180.224 315.536 184.319 314.963L184.042 312.982C179.031 313.683 175.665 317.807 172.833 321.338C171.369 323.163 170.045 324.844 168.653 326.085C167.273 327.314 165.946 328 164.503 328V330ZM184.344 314.959C188.727 314.231 192.389 316.744 196.075 319.567C197.86 320.934 199.674 322.387 201.474 323.358C203.294 324.34 205.257 324.919 207.336 324.362L206.819 322.431C205.438 322.8 204.025 322.462 202.424 321.598C200.802 320.723 199.149 319.401 197.291 317.979C193.691 315.222 189.364 312.097 184.016 312.986L184.344 314.959ZM207.336 324.362C209.401 323.81 210.858 322.349 212.004 320.604C213.14 318.873 214.057 316.725 214.971 314.645C216.861 310.344 218.777 306.321 222.585 304.709L221.805 302.867C217.145 304.84 214.962 309.696 213.14 313.84C212.199 315.982 211.355 317.948 210.332 319.506C209.318 321.051 208.213 322.057 206.819 322.431L207.336 324.362ZM222.609 304.699C226.654 302.86 230.842 304.34 235.133 306.112C237.211 306.971 239.34 307.905 241.329 308.377C243.341 308.854 245.387 308.905 247.25 307.828L246.25 306.096C245.012 306.811 243.561 306.851 241.791 306.431C239.998 306.006 238.059 305.157 235.896 304.264C231.706 302.533 226.717 300.634 221.781 302.878L222.609 304.699ZM247.25 307.828C249.102 306.759 250.131 304.972 250.786 302.989C251.436 301.023 251.765 298.711 252.11 296.465C252.823 291.822 253.632 287.44 256.893 284.896L255.663 283.319C251.673 286.432 250.82 291.687 250.133 296.161C249.778 298.474 249.472 300.591 248.887 302.362C248.307 304.116 247.5 305.374 246.25 306.096L247.25 307.828ZM256.913 284.88C260.345 282.057 264.773 282.402 269.377 283.003C271.607 283.295 273.905 283.646 275.948 283.587C278.016 283.528 280.005 283.048 281.526 281.526L280.112 280.112C279.102 281.122 277.71 281.536 275.891 281.588C274.049 281.641 271.956 281.323 269.636 281.02C265.14 280.433 259.83 279.891 255.642 283.336L256.913 284.88ZM281.526 281.526C283.038 280.014 283.569 278.022 283.689 275.938C283.808 273.87 283.528 271.552 283.28 269.293C282.767 264.623 282.415 260.181 284.906 256.879L283.31 255.675C280.262 259.715 280.798 265.011 281.292 269.511C281.547 271.837 281.799 273.961 281.692 275.823C281.586 277.668 281.133 279.091 280.112 280.112L281.526 281.526ZM284.922 256.859C287.506 253.244 291.872 252.432 296.475 251.821C298.704 251.525 301.014 251.27 302.973 250.684C304.955 250.091 306.752 249.113 307.828 247.25L306.097 246.249C305.382 247.487 304.144 248.246 302.4 248.768C300.635 249.296 298.531 249.53 296.212 249.838C291.717 250.435 286.448 251.285 283.295 255.696L284.922 256.859ZM307.829 247.249C308.898 245.398 308.895 243.335 308.472 241.291C308.052 239.263 307.181 237.097 306.356 234.979C304.653 230.602 303.163 226.403 304.715 222.57L302.862 221.819C300.962 226.51 302.851 231.486 304.493 235.704C305.341 237.885 306.135 239.871 306.513 241.697C306.888 243.506 306.819 244.999 306.097 246.249L307.829 247.249ZM304.725 222.546C306.285 218.385 310.293 216.47 314.581 214.689C316.657 213.826 318.823 212.982 320.563 211.909C322.323 210.824 323.806 209.413 324.362 207.335L322.431 206.818C322.061 208.198 321.062 209.252 319.514 210.206C317.945 211.173 315.974 211.944 313.814 212.842C309.627 214.581 304.757 216.766 302.852 221.843L304.725 222.546ZM324.363 207.335C324.915 205.27 324.379 203.278 323.441 201.413C322.51 199.563 321.108 197.696 319.763 195.864C316.984 192.077 314.459 188.406 314.965 184.302L312.98 184.057C312.36 189.079 315.473 193.397 318.151 197.047C319.535 198.933 320.816 200.647 321.654 202.312C322.485 203.963 322.804 205.423 322.431 206.818L324.363 207.335ZM314.968 184.276C315.399 179.854 318.774 176.967 322.454 174.137C324.237 172.766 326.11 171.39 327.514 169.903C328.933 168.399 330 166.653 330 164.501H328C328 165.931 327.308 167.207 326.059 168.53C324.794 169.87 323.09 171.125 321.235 172.551C317.641 175.315 313.503 178.686 312.978 184.082L314.968 184.276ZM330 164.501C330 162.364 328.967 160.579 327.578 159.02C326.2 157.474 324.362 156.033 322.59 154.611C318.925 151.672 315.536 148.78 314.963 144.685L312.983 144.962C313.683 149.973 317.807 153.339 321.338 156.171C323.163 157.635 324.844 158.959 326.085 160.351C327.314 161.73 328 163.058 328 164.501H330ZM314.959 144.66C314.231 140.277 316.744 136.615 319.567 132.929C320.934 131.144 322.387 129.329 323.358 127.53C324.34 125.71 324.919 123.747 324.363 121.668L322.431 122.185C322.8 123.566 322.462 124.979 321.598 126.58C320.723 128.202 319.402 129.855 317.979 131.713C315.222 135.313 312.097 139.64 312.986 144.988L314.959 144.66ZM324.363 121.668C323.81 119.602 322.349 118.146 320.604 117C318.873 115.863 316.725 114.947 314.645 114.033C310.344 112.142 306.322 110.227 304.709 106.419L302.868 107.198C304.841 111.858 309.696 114.042 313.84 115.864C315.982 116.805 317.948 117.648 319.506 118.672C321.051 119.686 322.057 120.791 322.431 122.185L324.363 121.668ZM304.699 106.395C302.86 102.35 304.34 98.1619 306.113 93.8705C306.971 91.7922 307.905 89.6636 308.377 87.6742C308.854 85.6621 308.905 83.6166 307.828 81.7531L306.097 82.7536C306.811 83.9909 306.851 85.4425 306.431 87.2127C306.006 89.0055 305.157 90.9442 304.264 93.107C302.533 97.2975 300.635 102.286 302.878 107.222L304.699 106.395ZM307.829 81.7533C306.759 79.9017 304.972 78.8726 302.989 78.2174C301.023 77.5674 298.711 77.2384 296.465 76.8934C291.822 76.1804 287.441 75.3711 284.897 72.1104L283.32 73.3406C286.433 77.3306 291.687 78.1831 296.161 78.8703C298.474 79.2254 300.591 79.5311 302.362 80.1163C304.117 80.6963 305.374 81.5029 306.097 82.7534L307.829 81.7533ZM284.88 72.0902C282.057 68.6586 282.402 64.2302 283.004 59.6261C283.295 57.3965 283.647 55.0985 283.588 53.0547C283.528 50.9875 283.048 48.9984 281.526 47.4767L280.112 48.8909C281.123 49.9013 281.536 51.2936 281.589 53.1123C281.642 54.9543 281.324 57.0467 281.021 59.3671C280.433 63.863 279.891 69.1734 283.336 73.3608L284.88 72.0902ZM281.526 47.4767C280.015 45.9652 278.022 45.4339 275.938 45.314C273.87 45.1952 271.552 45.4755 269.293 45.7235C264.624 46.236 260.182 46.5878 256.88 44.0966L255.675 45.6931C259.715 48.7413 265.012 48.2054 269.512 47.7115C271.837 47.4562 273.961 47.2037 275.823 47.3107C277.668 47.4168 279.092 47.8703 280.112 48.8909L281.526 47.4767ZM256.859 44.0813C253.245 41.4974 252.432 37.1309 251.821 32.5281C251.526 30.2991 251.27 27.9885 250.685 26.0294C250.092 24.0481 249.114 22.2508 247.25 21.1744L246.25 22.9062C247.487 23.6211 248.247 24.8591 248.768 26.6025C249.296 28.3681 249.531 30.4716 249.839 32.7912C250.435 37.2858 251.286 42.5552 255.696 45.7083L256.859 44.0813ZM247.25 21.1743C245.398 20.1051 243.336 20.1074 241.292 20.5311C239.264 20.9513 237.097 21.8222 234.98 22.6464C230.603 24.3503 226.404 25.8399 222.57 24.2876L221.82 26.1413C226.51 28.0408 231.487 26.1521 235.705 24.5102C237.885 23.6616 239.872 22.8678 241.698 22.4894C243.507 22.1145 244.999 22.1842 246.25 22.9063L247.25 21.1743ZM222.546 24.2782C218.386 22.7175 216.471 18.7097 214.69 14.422C213.827 12.3456 212.983 10.1799 211.91 8.43953C210.825 6.67935 209.414 5.19695 207.336 4.64023L206.819 6.57213C208.199 6.94176 209.253 7.94043 210.207 9.48907C211.174 11.0575 211.945 13.0284 212.843 15.1893C214.582 19.3763 216.767 24.2463 221.844 26.1507L222.546 24.2782ZM207.336 4.64021C205.271 4.08727 203.279 4.62366 201.414 5.56213C199.564 6.49306 197.697 7.89502 195.865 9.23912C192.078 12.0176 188.408 14.5426 184.303 14.0348L184.057 16.0197C189.08 16.6411 193.399 13.5292 197.048 10.8517C198.934 9.46779 200.648 8.18696 202.313 7.34868C203.964 6.51795 205.424 6.19873 206.819 6.57215L207.336 4.64021ZM184.277 14.0319C179.855 13.6015 176.968 10.2263 174.138 6.54568C172.768 4.76326 171.391 2.88986 169.905 1.4864C168.401 0.0669399 166.655 -1 164.503 -1V1C165.932 1 167.209 1.692 168.532 2.94082C169.872 4.20562 171.126 5.90984 172.553 7.76476C175.316 11.3589 178.687 15.4973 184.083 16.0225L184.277 14.0319ZM164.503 -1C162.365 -1 160.58 0.0333382 159.022 1.42239C157.475 2.80029 156.035 4.63777 154.613 6.41037C151.673 10.0747 148.782 13.4642 144.687 14.0369L144.964 16.0176C149.975 15.3169 153.34 11.1928 156.173 7.6618C157.637 5.83678 158.96 4.15621 160.352 2.91547C161.732 1.68589 163.059 1 164.503 1V-1ZM144.661 14.0408C140.279 14.7694 136.617 12.2563 132.93 9.43363C131.145 8.0667 129.331 6.61344 127.531 5.64283C125.711 4.66115 123.748 4.08285 121.669 4.6403L122.187 6.57206C123.568 6.20182 124.981 6.53953 126.582 7.40314C128.204 8.27781 129.857 9.59911 131.715 11.0216C135.314 13.7778 139.641 16.9028 144.989 16.0137L144.661 14.0408ZM121.669 4.64021C119.604 5.19318 118.148 6.6533 117.002 8.39855C115.865 10.1298 114.949 12.2778 114.034 14.3582C112.144 18.6587 110.228 22.6813 106.42 24.2936L107.2 26.1353C111.86 24.1623 114.044 19.3071 115.865 15.163C116.807 13.0211 117.65 11.0551 118.673 9.49626C119.688 7.95146 120.792 6.94553 122.187 6.57215L121.669 4.64021ZM106.396 24.3041C102.352 26.1425 98.1638 24.6628 93.8724 22.8903C91.7941 22.032 89.6656 21.0977 87.6762 20.6258C85.6641 20.1486 83.6185 20.0979 81.7551 21.1744L82.7556 22.9062C83.9928 22.1914 85.4445 22.152 87.2146 22.5719C89.0074 22.9971 90.9461 23.8456 93.1089 24.7389C97.2994 26.4696 102.288 28.3683 107.224 26.1248L106.396 24.3041ZM81.7553 21.1743C79.9037 22.2435 78.8746 24.031 78.2194 26.0134C77.5694 27.9799 77.2404 30.2918 76.8955 32.5379C76.1824 37.181 75.3732 41.5624 72.1124 44.1064L73.3427 45.6832C77.3326 42.5703 78.1852 37.3158 78.8723 32.8415C79.2274 30.5289 79.5331 28.4118 80.1184 26.641C80.6983 24.8863 81.5049 23.6284 82.7554 22.9063L81.7553 21.1743ZM72.0922 44.1226C68.6607 46.9458 64.233 46.6006 59.6293 45.9992C57.3998 45.708 55.102 45.3564 53.058 45.4153C50.9907 45.4749 49.0014 45.955 47.4791 47.4765L48.893 48.8911C49.9041 47.8805 51.2968 47.4669 53.1157 47.4145C54.9578 47.3614 57.0501 47.6793 59.3702 47.9824C63.8659 48.5696 69.1755 49.1121 73.3629 45.6671L72.0922 44.1226ZM47.4789 47.4767C45.9674 48.9882 45.4362 50.9809 45.3163 53.0651C45.1975 55.1326 45.4778 57.4509 45.7258 59.7098C46.2383 64.3793 46.5901 68.8215 44.0989 72.1232L45.6954 73.3278C48.7435 69.2881 48.2077 63.9915 47.7138 59.4916C47.4585 57.1658 47.206 55.0417 47.313 53.1799C47.4191 51.3349 47.8726 49.9115 48.8932 48.8909L47.4789 47.4767ZM44.0836 72.1439C41.4997 75.7583 37.1332 76.571 32.5305 77.1819C30.3015 77.4777 27.9909 77.7329 26.0319 78.3188C24.0506 78.9114 22.2533 79.8898 21.1769 81.7531L22.9087 82.7536C23.6236 81.5161 24.8616 80.7563 26.605 80.2349C28.3706 79.7069 30.474 79.4723 32.7936 79.1645C37.2882 78.568 42.5576 77.7176 45.7106 73.3071L44.0836 72.1439ZM21.1768 81.7533C20.1076 83.6049 20.1099 85.6673 20.5336 87.7117C20.9538 89.7396 21.8247 91.9061 22.6489 94.0236C24.3527 98.4009 25.8423 102.6 24.29 106.433L26.1438 107.184C28.0433 102.493 26.1546 97.5163 24.5127 93.2982C23.6641 91.118 22.8703 89.1318 22.4919 87.3058C22.117 85.4964 22.1867 84.0039 22.9088 82.7534L21.1768 81.7533ZM24.2806 106.457C22.7199 110.617 18.7122 112.533 14.4246 114.314C12.3481 115.176 10.1825 116.021 8.44211 117.094C6.68195 118.179 5.19957 119.589 4.64285 121.668L6.57475 122.185C6.94439 120.805 7.94305 119.751 9.49167 118.796C11.0601 117.829 13.031 117.059 15.1918 116.161C19.3788 114.421 24.2488 112.236 26.1532 107.16L24.2806 106.457ZM4.64283 121.668C4.0899 123.733 4.62629 125.724 5.56475 127.589C6.49566 129.439 7.89761 131.307 9.24171 133.139C12.0201 136.926 14.5452 140.596 14.0373 144.701L16.0222 144.946C16.6436 139.924 13.5318 135.605 10.8543 131.956C9.47039 130.069 8.18957 128.356 7.3513 126.69C6.52058 125.039 6.20136 123.58 6.57478 122.185L4.64283 121.668ZM14.0345 144.726C13.6029 149.146 10.2272 152.032 6.54607 154.861C4.76345 156.231 2.88998 157.607 1.48645 159.094C0.066929 160.598 -1 162.344 -1 164.496H1C1 163.067 1.692 161.79 2.94081 160.467C4.20561 159.127 5.9099 157.873 7.76492 156.447C11.3591 153.684 15.4983 150.315 16.025 144.921L14.0345 144.726ZM-1 164.496C-1 166.634 0.0333259 168.419 1.42237 169.977C2.80026 171.523 4.63772 172.964 6.41031 174.386C10.0746 177.325 13.4641 180.217 14.0367 184.312L16.0175 184.035C15.3167 179.024 11.1927 175.658 7.66175 172.826C5.83674 171.362 4.15618 170.039 2.91546 168.646C1.68589 167.267 1 165.94 1 164.496H-1ZM14.0406 184.338C14.7693 188.72 12.2561 192.382 9.43354 196.069C8.06662 197.854 6.61337 199.668 5.64277 201.468C4.6611 203.288 4.08281 205.251 4.64025 207.33L6.57202 206.812C6.20178 205.431 6.53949 204.018 7.40309 202.417C8.27775 200.795 9.59904 199.142 11.0215 197.284C13.7777 193.685 16.9027 189.358 16.0136 184.01L14.0406 184.338ZM4.64016 207.33C5.19313 209.395 6.65323 210.852 8.39847 211.997C10.1297 213.134 12.2777 214.05 14.3581 214.965C18.6586 216.855 22.6811 218.771 24.2934 222.579L26.1351 221.799C24.1621 217.139 19.307 214.955 15.1629 213.134C13.021 212.192 11.055 211.349 9.49619 210.326C7.95141 209.311 6.94549 208.207 6.57211 206.812L4.64016 207.33ZM24.3039 222.603C26.1423 226.647 24.6625 230.835 22.8901 235.127C22.0318 237.205 21.0975 239.334 20.6257 241.323C20.1484 243.335 20.0977 245.381 21.1742 247.244L22.906 246.244C22.1912 245.006 22.1518 243.555 22.5717 241.785C22.9969 239.992 23.8454 238.053 24.7387 235.89C26.4694 231.7 28.368 226.711 26.1246 221.775L24.3039 222.603ZM21.1741 247.244C22.2433 249.096 24.0308 250.125 26.0132 250.78C27.9797 251.43 30.2915 251.759 32.5376 252.104C37.1807 252.817 41.562 253.626 44.106 256.887L45.6829 255.657C42.57 251.667 37.3155 250.814 32.8412 250.127C30.5287 249.772 28.4115 249.466 26.6408 248.881C24.8861 248.301 23.6282 247.494 22.9061 246.244L21.1741 247.244ZM44.1222 256.907C46.9454 260.339 46.6002 264.767 45.9988 269.37C45.7076 271.6 45.356 273.898 45.4149 275.942C45.4745 278.009 45.9546 279.998 47.4761 281.52L48.8907 280.107C47.8801 279.095 47.4665 277.703 47.4141 275.884C47.361 274.042 47.6789 271.949 47.982 269.629C48.5693 265.134 49.1117 259.824 45.6667 255.636L44.1222 256.907ZM47.4763 281.521C48.9878 283.032 50.9805 283.563 53.0647 283.683C55.1322 283.802 57.4504 283.522 59.7093 283.274C64.3788 282.761 68.821 282.41 72.1226 284.901L73.3272 283.304C69.2875 280.256 63.991 280.792 59.4911 281.286C57.1653 281.541 55.0412 281.794 53.1795 281.687C51.3345 281.581 49.9111 281.127 48.8905 280.106L47.4763 281.521ZM72.1433 284.916C75.7577 287.5 76.5704 291.866 77.1812 296.469C77.477 298.698 77.7322 301.009 78.3181 302.968C78.9107 304.949 79.8891 306.746 81.7524 307.823L82.7529 306.091C81.5155 305.376 80.7557 304.138 80.2343 302.395C79.7062 300.629 79.4717 298.526 79.1638 296.206C78.5674 291.711 77.7169 286.442 73.3065 283.289L72.1433 284.916ZM81.7526 307.823C83.6042 308.892 85.6666 308.89 87.711 308.466C89.7388 308.046 91.9053 307.175 94.0229 306.351C98.4002 304.647 102.599 303.157 106.432 304.71L107.183 302.856C102.492 300.956 97.5155 302.845 93.2974 304.487C91.1172 305.336 89.1311 306.129 87.3051 306.508C85.4957 306.883 84.0032 306.813 82.7527 306.091L81.7526 307.823ZM106.456 304.719C110.617 306.28 112.532 310.288 114.313 314.575C115.176 316.652 116.02 318.817 117.093 320.558C118.178 322.318 119.588 323.8 121.667 324.357L122.184 322.425C120.804 322.056 119.75 321.057 118.795 319.508C117.828 317.94 117.058 315.969 116.16 313.808C114.421 309.621 112.235 304.751 107.159 302.847L106.456 304.719ZM121.667 324.357C123.732 324.91 125.723 324.374 127.588 323.435C129.438 322.504 131.305 321.102 133.138 319.758C136.925 316.98 140.595 314.455 144.7 314.963L144.945 312.978C139.923 312.356 135.604 315.468 131.954 318.146C130.068 319.53 128.355 320.81 126.689 321.649C125.038 322.479 123.579 322.799 122.184 322.425L121.667 324.357ZM144.113 314.675L144.116 314.678L145.534 313.268L145.532 313.265L144.113 314.675Z" fill="#EEE8EF" mask="url(#path-3-inside-1_0_1)"/>
</svg>
