<svg width="532" height="240" viewBox="0 0 532 240" fill="none" xmlns="http://www.w3.org/2000/svg">
<g clip-path="url(#clip0_285_4509)">
<path d="M265.936 240L265.935 237.391L265.934 240L231.714 0H300.285L265.936 240Z" fill="url(#paint0_linear_285_4509)"/>
<path d="M266.321 239.864L268.266 236.493L266.318 239.864L356.683 14.9076L386.297 32.0057L386.298 32.0049L416.068 49.1924L266.321 239.864Z" fill="url(#paint1_linear_285_4509)"/>
<path d="M265.679 239.864L263.734 236.493L265.682 239.864L175.317 14.9076L145.703 32.0057L145.702 32.0049L115.932 49.1924L265.679 239.864Z" fill="url(#paint2_linear_285_4509)"/>
<path d="M265.718 240.072L267.977 238.766L265.717 240.07L456.453 90.4351L490.738 149.819L265.718 240.072Z" fill="url(#paint3_linear_285_4509)"/>
<path d="M266.282 240.072L264.023 238.766L266.283 240.07L75.5469 90.4351L41.2617 149.819L266.282 240.072Z" fill="url(#paint4_linear_285_4509)"/>
<path d="M266.008 240.064L266 240.064L266.004 240.065L266 240.065L266.008 240.066L506 274.286L506 205.714L266.008 240.064Z" fill="url(#paint5_linear_285_4509)"/>
<path d="M265.992 240.064L266 240.064L265.996 240.065L266 240.065L265.992 240.066L26 274.286L26 205.714L265.992 240.064Z" fill="url(#paint6_linear_285_4509)"/>
<path d="M250.212 89.0583C258.091 88.2914 260.255 77 266.002 77C271.75 77 274.485 88.0365 281.792 89.0583C289.6 90.3565 294.613 80.0097 300.165 81.4964C305.718 82.9831 305.501 94.3538 312.296 97.2307C319.503 100.506 327.024 91.8089 332 94.6837C336.978 97.5585 333.827 108.484 339.645 113.023C345.759 118.053 355.275 111.598 359.338 115.662C363.402 119.726 357.532 129.464 361.977 135.355C366.581 141.794 377.442 138.024 380.316 143.001C383.191 147.979 375 155.864 377.769 162.704C380.55 170.116 392.017 169.285 393.504 174.835C394.99 180.388 385.038 185.885 385.942 193.209C386.709 201.088 398 203.251 398 208.999C398 214.746 386.964 217.482 385.942 224.789C384.644 232.597 394.99 237.61 393.504 243.162C392.017 248.715 380.646 248.499 377.769 255.294C374.494 262.5 383.191 270.021 380.316 274.997C377.442 279.976 366.517 276.825 361.977 282.643C356.948 288.757 363.402 298.272 359.338 302.336C355.275 306.4 345.536 300.53 339.645 304.975C333.206 309.579 336.976 320.439 332 323.314C327.022 326.189 319.136 317.997 312.296 320.767C304.885 323.548 305.716 335.015 300.165 336.501C294.613 337.988 289.116 328.036 281.792 328.942C273.913 329.709 271.75 341 266.002 341C260.255 341 257.519 329.963 250.212 328.942C242.404 327.644 237.391 337.99 231.839 336.501C226.286 335.015 226.503 323.644 219.708 320.767C212.502 317.492 204.981 326.189 200.004 323.314C195.026 320.439 198.177 309.514 192.359 304.975C186.245 299.945 176.732 306.4 172.666 302.336C168.602 298.272 174.472 288.534 170.027 282.643C165.423 276.203 154.563 279.974 151.688 274.997C148.813 270.019 157.005 262.134 154.235 255.294C151.454 247.882 139.987 248.713 138.501 243.162C137.014 237.61 146.967 232.113 146.06 224.789C145.291 216.914 134 214.751 134 209.003C134 203.256 145.036 200.52 146.058 193.213C147.356 185.405 137.01 180.392 138.499 174.84C139.985 169.287 151.356 169.504 154.233 162.709C157.508 155.502 148.811 147.981 151.686 143.005C154.56 138.026 165.485 141.178 170.025 135.359C175.055 129.246 168.6 119.732 172.664 115.666C176.728 111.603 186.466 117.472 192.357 113.027C198.796 108.424 195.026 97.5628 200.002 94.688C204.981 91.8132 212.866 100.005 219.706 97.235C227.118 94.4545 226.286 82.9874 231.837 81.5007C237.389 80.014 242.886 89.9666 250.21 89.0605L250.212 89.0583Z" fill="url(#paint7_linear_285_4509)"/>
<path fill-rule="evenodd" clip-rule="evenodd" d="M253.033 197.265C254.231 197.265 255.202 198.293 255.202 199.561C255.202 205.902 260.058 211.042 266.049 211.042C272.039 211.042 276.896 205.902 276.896 199.561C276.896 198.293 277.867 197.265 279.065 197.265C280.263 197.265 281.234 198.293 281.234 199.561C281.234 208.438 274.436 215.634 266.049 215.634C257.662 215.634 250.863 208.438 250.863 199.561C250.863 198.293 251.835 197.265 253.033 197.265Z" fill="white"/>
<path d="M305.098 172.869L306.545 176.752C307.823 180.184 310.385 182.897 313.618 184.247L317.3 185.784L313.618 187.322C310.385 188.671 307.823 191.385 306.545 194.816L305.098 198.7L303.651 194.816C302.372 191.385 299.811 188.671 296.578 187.322L292.895 185.784L296.578 184.247C299.811 182.897 302.372 180.184 303.651 176.752L305.098 172.869Z" fill="white"/>
<path d="M227 172.869L228.447 176.752C229.726 180.184 232.287 182.897 235.52 184.247L239.203 185.784L235.52 187.322C232.287 188.671 229.726 191.385 228.447 194.816L227 198.7L225.553 194.816C224.274 191.385 221.713 188.671 218.48 187.322L214.797 185.784L218.48 184.247C221.713 182.897 224.274 180.184 225.553 176.752L227 172.869Z" fill="white"/>
<path d="M372.539 100.155L370.908 99.7717C372.553 91.9834 367.794 84.2959 360.289 82.5602L360.653 80.8668C368.157 82.6025 375.542 77.6864 377.187 69.8981L378.819 70.2811C377.174 78.0693 381.933 85.7569 389.437 87.4925L389.074 89.1859C381.57 87.4503 374.185 92.3663 372.539 100.155Z" fill="#FF99A1"/>
<circle cx="409.398" cy="90" r="3" fill="#FF5C6C"/>
<rect x="396.13" y="111.438" width="7" height="7" transform="rotate(15 396.13 111.438)" fill="#FFD1D5"/>
<path d="M132.363 116.773L131.285 116.89C130.81 111.762 126.411 108.076 121.458 108.63L121.358 107.514C126.311 106.96 129.918 102.355 129.443 97.2266L130.521 97.1095C130.996 102.238 135.395 105.924 140.347 105.37L140.447 106.486C135.495 107.04 131.888 111.645 132.363 116.773Z" fill="#FF5C6C"/>
<rect x="152.951" y="77" width="6" height="6" transform="rotate(15 152.951 77)" fill="#FFD1D5"/>
</g>
<defs>
<linearGradient id="paint0_linear_285_4509" x1="266" y1="0" x2="266" y2="240" gradientUnits="userSpaceOnUse">
<stop stop-color="#FFD1D5" stop-opacity="0"/>
<stop offset="1" stop-color="#FFD1D5"/>
</linearGradient>
<linearGradient id="paint1_linear_285_4509" x1="386.375" y1="32.0496" x2="266.375" y2="239.896" gradientUnits="userSpaceOnUse">
<stop stop-color="#FFD1D5" stop-opacity="0"/>
<stop offset="1" stop-color="#FFD1D5"/>
</linearGradient>
<linearGradient id="paint2_linear_285_4509" x1="145.625" y1="32.0496" x2="265.625" y2="239.896" gradientUnits="userSpaceOnUse">
<stop stop-color="#FFD1D5" stop-opacity="0"/>
<stop offset="1" stop-color="#FFD1D5"/>
</linearGradient>
<linearGradient id="paint3_linear_285_4509" x1="473.596" y1="120.127" x2="265.75" y2="240.127" gradientUnits="userSpaceOnUse">
<stop stop-color="#FFD1D5" stop-opacity="0"/>
<stop offset="1" stop-color="#FFD1D5"/>
</linearGradient>
<linearGradient id="paint4_linear_285_4509" x1="58.4043" y1="120.127" x2="266.25" y2="240.127" gradientUnits="userSpaceOnUse">
<stop stop-color="#FFD1D5" stop-opacity="0"/>
<stop offset="1" stop-color="#FFD1D5"/>
</linearGradient>
<linearGradient id="paint5_linear_285_4509" x1="506" y1="240" x2="266" y2="240" gradientUnits="userSpaceOnUse">
<stop stop-color="#FFD1D5" stop-opacity="0"/>
<stop offset="1" stop-color="#FFD1D5"/>
</linearGradient>
<linearGradient id="paint6_linear_285_4509" x1="26" y1="240" x2="266" y2="240" gradientUnits="userSpaceOnUse">
<stop stop-color="#FFD1D5" stop-opacity="0"/>
<stop offset="1" stop-color="#FFD1D5"/>
</linearGradient>
<linearGradient id="paint7_linear_285_4509" x1="266" y1="77" x2="266" y2="341" gradientUnits="userSpaceOnUse">
<stop stop-color="#F7041F"/>
<stop offset="0.35" stop-color="#FF0420"/>
<stop offset="0.7" stop-color="#FA5300"/>
</linearGradient>
<clipPath id="clip0_285_4509">
<rect width="532" height="240" fill="white"/>
</clipPath>
</defs>
</svg>
