<svg width="400" height="400" viewBox="0 0 400 400" fill="none" xmlns="http://www.w3.org/2000/svg">
<path d="M199.107 8.03613L238.854 51.6618L295.089 33.7545L307.699 91.409L365.353 104.018L347.446 160.253L391.071 200L347.446 239.748L365.353 295.983L307.699 308.592L295.089 366.246L238.854 348.339L199.107 391.965L159.36 348.339L103.125 366.246L90.5157 308.592L32.8612 295.983L50.7685 239.748L7.14282 200L50.7685 160.253L32.8612 104.018L90.5157 91.409L103.125 33.7545L159.36 51.6618L199.107 8.03613Z" fill="#FF0420"/>
<path fill-rule="evenodd" clip-rule="evenodd" d="M180.566 195.188C183.859 195.188 186.528 197.858 186.528 201.151C186.528 207.736 191.867 213.075 198.453 213.075C205.039 213.075 210.377 207.736 210.377 201.151C210.377 197.858 213.047 195.188 216.34 195.188C219.632 195.188 222.302 197.858 222.302 201.151C222.302 214.322 211.624 225 198.453 225C185.281 225 174.604 214.322 174.604 201.151C174.604 197.858 177.273 195.188 180.566 195.188Z" fill="#FBFCFE"/>
<path d="M141.811 146.745L145.259 155.485C148.304 163.207 154.404 169.314 162.106 172.352L170.877 175.811L162.106 179.271C154.404 182.308 148.304 188.416 145.259 196.137L141.811 204.877L138.364 196.137C135.319 188.416 129.218 182.308 121.517 179.271L112.745 175.811L121.517 172.352C129.218 169.314 135.319 163.207 138.364 155.485L141.811 146.745Z" fill="#FBFCFE"/>
<path d="M256.585 146.745L260.032 155.485C263.077 163.207 269.178 169.314 276.879 172.352L285.651 175.811L276.879 179.271C269.178 182.308 263.077 188.416 260.032 196.137L256.585 204.877L253.138 196.137C250.093 188.416 243.992 182.308 236.29 179.271L227.519 175.811L236.29 172.352C243.992 169.314 250.093 163.207 253.138 155.485L256.585 146.745Z" fill="#FBFCFE"/>
</svg>
