<svg width="82" height="82" viewBox="0 0 82 82" fill="none" xmlns="http://www.w3.org/2000/svg">
<path d="M41 0.833984L49.2822 9.92436L61 6.19297L63.6274 18.2066L75.641 20.834L71.9096 32.5518L81 40.834L71.9096 49.1162L75.641 60.834L63.6274 63.4614L61 75.475L49.2822 71.7436L41 80.834L32.7178 71.7436L21 75.475L18.3726 63.4614L6.35898 60.834L10.0904 49.1162L1 40.834L10.0904 32.5518L6.35898 20.834L18.3726 18.2066L21 6.19297L32.7178 9.92436L41 0.833984Z" fill="#E0E2EB" stroke="#BCBFCD" stroke-linejoin="round"/>
<path fill-rule="evenodd" clip-rule="evenodd" d="M37.1136 39.5371C37.7722 39.5371 38.306 40.071 38.306 40.7296C38.306 42.0467 39.3738 43.1145 40.691 43.1145C42.0081 43.1145 43.0759 42.0467 43.0759 40.7296C43.0759 40.071 43.6097 39.5371 44.2683 39.5371C44.9269 39.5371 45.4608 40.071 45.4608 40.7296C45.4608 43.3639 43.3252 45.4994 40.691 45.4994C38.0567 45.4994 35.9211 43.3639 35.9211 40.7296C35.9211 40.071 36.455 39.5371 37.1136 39.5371Z" fill="#636779"/>
<path d="M29.3626 29.8486L30.0521 31.5967C30.6611 33.141 31.8813 34.3625 33.4215 34.9699L35.1758 35.6618L33.4215 36.3537C31.8812 36.9612 30.6611 38.1827 30.0521 39.727L29.3626 41.475L28.6732 39.727C28.0642 38.1827 26.844 36.9612 25.3038 36.3537L23.5494 35.6618L25.3038 34.9699C26.844 34.3625 28.0642 33.141 28.6732 31.5967L29.3626 29.8486Z" fill="#636779"/>
<path d="M52.3174 29.8486L53.0068 31.5967C53.6158 33.141 54.836 34.3625 56.3762 34.9699L58.1306 35.6618L56.3762 36.3537C54.836 36.9612 53.6158 38.1827 53.0068 39.727L52.3174 41.475L51.6279 39.727C51.0189 38.1827 49.7987 36.9612 48.2585 36.3537L46.5042 35.6618L48.2585 34.9699C49.7987 34.3625 51.0189 33.141 51.6279 31.5967L52.3174 29.8486Z" fill="#636779"/>
</svg>
