<svg width="239" height="123" viewBox="0 0 239 123" fill="none" xmlns="http://www.w3.org/2000/svg">
<path d="M116.082 3.11902C117.996 1.35643 120.942 1.35642 122.856 3.11902L130.916 10.5409C132.468 11.9704 134.751 12.2714 136.621 11.2931L146.313 6.22215C148.617 5.01644 151.461 5.77877 152.854 7.97545L158.735 17.2531C159.863 19.0338 161.988 19.9151 164.046 19.4564L174.719 17.0767C177.255 16.5114 179.801 17.9819 180.578 20.4606L183.875 30.9716C184.505 32.98 186.325 34.3789 188.428 34.4706L199.367 34.9475C201.958 35.0605 204.032 37.1358 204.144 39.7269L204.621 50.7581C204.712 52.8571 206.105 54.6755 208.108 55.3093L218.571 58.6202C221.04 59.4013 222.504 61.9378 221.945 64.4661L219.56 75.2605C219.107 77.3086 219.981 79.4215 221.748 80.5516L231.02 86.4814C233.199 87.8748 233.956 90.6996 232.765 92.9955L227.677 102.807C226.712 104.667 227.01 106.932 228.423 108.479L235.861 116.629C237.604 118.539 237.604 121.461 235.861 123.371L228.423 131.521C227.01 133.068 226.712 135.333 227.677 137.193L232.765 147.005C233.956 149.3 233.199 152.125 231.02 153.519L221.748 159.448C219.981 160.579 219.107 162.691 219.56 164.74L221.945 175.534C222.504 178.062 221.04 180.599 218.571 181.38L208.108 184.691C206.105 185.324 204.712 187.143 204.621 189.242L204.144 200.273C204.032 202.864 201.958 204.94 199.367 205.052L188.428 205.529C186.325 205.621 184.505 207.02 183.875 209.028L180.578 219.539C179.801 222.018 177.255 223.489 174.719 222.923L164.046 220.544C161.988 220.085 159.863 220.966 158.735 222.747L152.854 232.025C151.461 234.221 148.617 234.984 146.313 233.778L136.621 228.707C134.751 227.729 132.468 228.03 130.916 229.459L122.856 236.881C120.942 238.644 117.996 238.644 116.082 236.881L108.022 229.459C106.47 228.03 104.187 227.729 102.317 228.707L92.6254 233.778C90.321 234.984 87.477 234.221 86.0845 232.025L80.2034 222.747C79.0746 220.966 76.9502 220.085 74.8924 220.544L64.2186 222.923C61.6831 223.489 59.1371 222.018 58.3597 219.539L55.0632 209.028C54.4333 207.02 52.613 205.621 50.5101 205.529L39.5713 205.052C36.9803 204.94 34.9057 202.864 34.7938 200.273L34.3171 189.242C34.2263 187.143 32.8332 185.324 30.8301 184.691L20.3666 181.38C17.8979 180.599 16.434 178.062 16.9927 175.534L19.3781 164.74C19.8307 162.691 18.9568 160.579 17.1897 159.448L7.91778 153.519C5.73907 152.125 4.98245 149.3 6.17303 147.005L11.261 137.193C12.2258 135.333 11.9281 133.068 10.5154 131.521L3.07662 123.371C1.33392 121.461 1.33393 118.539 3.07662 116.629L10.5154 108.479C11.9281 106.932 12.2258 104.667 11.261 102.807L6.17302 92.9955C4.98245 90.6996 5.73907 87.8748 7.91778 86.4814L17.1897 80.5516C18.9568 79.4215 19.8307 77.3086 19.3781 75.2605L16.9927 64.4661C16.434 61.9378 17.8979 59.4013 20.3666 58.6202L30.8301 55.3093C32.8332 54.6755 34.2263 52.8571 34.3171 50.7581L34.7938 39.7269C34.9057 37.1358 36.9803 35.0605 39.5713 34.9475L50.5101 34.4706C52.613 34.3789 54.4333 32.98 55.0632 30.9716L58.3597 20.4606C59.1371 17.9819 61.6831 16.5114 64.2186 17.0767L74.8924 19.4564C76.9502 19.9151 79.0746 19.0338 80.2034 17.2531L86.0845 7.97546C87.477 5.77877 90.321 5.01644 92.6254 6.22216L102.317 11.2931C104.187 12.2714 106.47 11.9704 108.022 10.5409L116.082 3.11902Z" fill="url(#paint0_radial_162_6834)"/>
<path fill-rule="evenodd" clip-rule="evenodd" d="M112.465 88.4336C113.64 88.4336 114.593 89.3797 114.593 90.5468C114.593 92.881 116.497 94.7732 118.847 94.7732C121.197 94.7732 123.102 92.881 123.102 90.5468C123.102 89.3797 124.054 88.4336 125.229 88.4336C126.404 88.4336 127.357 89.3797 127.357 90.5468C127.357 95.2152 123.547 98.9996 118.847 98.9996C114.148 98.9996 110.338 95.2152 110.338 90.5468C110.338 89.3797 111.29 88.4336 112.465 88.4336Z" fill="#FBFCFE"/>
<path d="M98.6364 71.2637L99.8663 74.3615C100.953 77.0982 103.13 79.2629 105.877 80.3394L109.007 81.5656L105.877 82.7917C103.13 83.8682 100.953 86.0329 99.8663 88.7696L98.6364 91.8675L97.4064 88.7696C96.3199 86.0329 94.1432 83.8682 91.3953 82.7917L88.2656 81.5656L91.3953 80.3394C94.1432 79.2629 96.3199 77.0982 97.4064 74.3615L98.6364 71.2637Z" fill="#FBFCFE"/>
<path d="M139.588 71.2637L140.817 74.3615C141.904 77.0982 144.081 79.2629 146.829 80.3394L149.958 81.5656L146.829 82.7917C144.081 83.8682 141.904 86.0329 140.817 88.7696L139.588 91.8675L138.358 88.7696C137.271 86.0329 135.094 83.8682 132.346 82.7917L129.217 81.5656L132.346 80.3394C135.094 79.2629 137.271 77.0982 138.358 74.3615L139.588 71.2637Z" fill="#FBFCFE"/>
<defs>
<radialGradient id="paint0_radial_162_6834" cx="0" cy="0" r="1" gradientUnits="userSpaceOnUse" gradientTransform="translate(138 117.5) rotate(50.4403) scale(104.415 103.953)">
<stop stop-color="#FF5C6C"/>
<stop offset="1" stop-color="#FF0420"/>
</radialGradient>
</defs>
</svg>
