<svg width="180" height="53" viewBox="0 0 180 53" fill="none" xmlns="http://www.w3.org/2000/svg">
<path d="M168.98 44.045C165.509 44.045 162.781 43.3185 160.797 41.8654C158.844 40.3814 157.821 38.3409 157.728 35.7439H163.54C163.633 36.6095 164.114 37.3979 164.982 38.109C165.849 38.8201 167.213 39.1756 169.073 39.1756C170.623 39.1756 171.848 38.8974 172.747 38.3409C173.676 37.7844 174.141 37.0269 174.141 36.0685C174.141 35.2338 173.785 34.569 173.072 34.0744C172.39 33.5797 171.212 33.2551 169.538 33.1005L167.306 32.8686C164.486 32.5595 162.316 31.7556 160.797 30.4571C159.278 29.1586 158.518 27.4273 158.518 25.2631C158.518 23.5318 158.952 22.0787 159.82 20.9039C160.688 19.729 161.882 18.8479 163.401 18.2605C164.951 17.6422 166.717 17.333 168.701 17.333C171.801 17.333 174.312 18.0132 176.234 19.3735C178.156 20.7338 179.163 22.728 179.256 25.3559H173.444C173.382 24.4902 172.948 23.7482 172.142 23.1299C171.336 22.5115 170.174 22.2024 168.655 22.2024C167.291 22.2024 166.237 22.4652 165.493 22.9908C164.749 23.5163 164.377 24.1965 164.377 25.0313C164.377 25.8351 164.672 26.4534 165.261 26.8863C165.88 27.3191 166.872 27.6128 168.236 27.7674L170.468 27.9993C173.444 28.3084 175.769 29.1277 177.443 30.4571C179.148 31.7865 180 33.5797 180 35.8366C180 37.5061 179.535 38.9592 178.605 40.1959C177.706 41.4016 176.435 42.3446 174.792 43.0248C173.149 43.7049 171.212 44.045 168.98 44.045Z" fill="black"/>
<path d="M149.41 43.2567V35.7904H148.341V27.4892C148.341 26.0361 147.984 24.9541 147.271 24.243C146.558 23.5319 145.458 23.1764 143.97 23.1764C143.195 23.1764 142.265 23.1918 141.18 23.2227C140.095 23.2536 138.995 23.3 137.879 23.3619C136.794 23.3928 135.818 23.4391 134.95 23.501V18.0287C135.663 17.9669 136.468 17.9051 137.367 17.8432C138.266 17.7814 139.181 17.7505 140.111 17.7505C141.072 17.7196 141.971 17.7041 142.808 17.7041C145.411 17.7041 147.566 18.0442 149.271 18.7243C151.007 19.4045 152.308 20.4711 153.176 21.9242C154.075 23.3773 154.525 25.2787 154.525 27.6284V43.2567H149.41ZM141.273 43.906C139.444 43.906 137.832 43.5814 136.437 42.9321C135.074 42.2829 134.004 41.3554 133.229 40.1496C132.485 38.9439 132.113 37.4908 132.113 35.7904C132.113 33.9354 132.563 32.4204 133.462 31.2456C134.392 30.0708 135.678 29.1896 137.321 28.6022C138.995 28.0148 140.948 27.7211 143.18 27.7211H149.038V31.5702H143.087C141.599 31.5702 140.452 31.9412 139.646 32.6832C138.871 33.3943 138.483 34.3218 138.483 35.4657C138.483 36.6096 138.871 37.5371 139.646 38.2482C140.452 38.9593 141.599 39.3149 143.087 39.3149C143.985 39.3149 144.807 39.1603 145.551 38.8511C146.326 38.511 146.961 37.9545 147.457 37.1816C147.984 36.3778 148.279 35.2957 148.341 33.9354L149.922 35.744C149.767 37.5062 149.333 38.9902 148.62 40.196C147.938 41.4017 146.977 42.3292 145.737 42.9785C144.528 43.5968 143.04 43.906 141.273 43.906Z" fill="black"/>
<path d="M121.899 43.2566V9.40283H128.362V43.2566H121.899ZM118.737 14.2258V9.40283H128.362V14.2258H118.737Z" fill="black"/>
<path d="M114.149 43.5811C111.825 43.5811 109.903 43.2874 108.384 42.7C106.896 42.0817 105.78 41.0614 105.036 39.6392C104.292 38.1862 103.92 36.2384 103.92 33.796L103.967 10.9795H110.011L109.965 34.2134C109.965 35.45 110.29 36.4085 110.941 37.0886C111.623 37.7379 112.584 38.0625 113.824 38.0625H117.776V43.5811H114.149ZM99.9214 22.8051V18.0749H117.776V22.8051H99.9214Z" fill="black"/>
<path d="M66.4131 43.2566L77.9908 9.40283H88.7781L100.681 43.2566H93.8927L83.8029 13.9012L86.1743 14.9215H80.3621L82.78 13.9012L73.0156 43.2566H66.4131ZM74.5035 34.2598L76.5959 28.6948H90.359L92.4048 34.2598H74.5035Z" fill="black"/>
<g clip-path="url(#clip0_358_17499)">
<ellipse cx="26.5696" cy="26.5" rx="26.5696" ry="26.5" fill="#FF0420"/>
<path d="M18.8257 33.5432C17.2437 33.5432 15.9474 33.1719 14.937 32.4294C13.94 31.6736 13.4414 30.5995 13.4414 29.2072C13.4414 28.9155 13.4746 28.5575 13.5411 28.1332C13.7139 27.1785 13.9599 26.0315 14.279 24.6923C15.183 21.0459 17.5162 19.2227 21.2786 19.2227C22.3023 19.2227 23.2196 19.395 24.0306 19.7398C24.8415 20.0713 25.4797 20.5752 25.945 21.2514C26.4103 21.9144 26.6429 22.71 26.6429 23.6382C26.6429 23.9166 26.6097 24.268 26.5432 24.6923C26.3438 25.8724 26.1045 27.0194 25.8253 28.1332C25.36 29.9498 24.5557 31.3089 23.4124 32.2106C22.269 33.099 20.7401 33.5432 18.8257 33.5432ZM19.1049 30.6791C19.8494 30.6791 20.4809 30.4603 20.9994 30.0227C21.5312 29.5852 21.9101 28.9155 22.1361 28.0139C22.4418 26.7675 22.6745 25.6802 22.834 24.752C22.8872 24.4735 22.9138 24.1884 22.9138 23.8967C22.9138 22.6901 22.2823 22.0868 21.0193 22.0868C20.2748 22.0868 19.6367 22.3055 19.1049 22.7431C18.5864 23.1807 18.2142 23.8503 17.9882 24.752C17.7489 25.6404 17.5096 26.7277 17.2702 28.0139C17.2171 28.2791 17.1905 28.5575 17.1905 28.8492C17.1905 30.0691 17.8286 30.6791 19.1049 30.6791Z" fill="white"/>
<path d="M27.5586 33.3443C27.4123 33.3443 27.2993 33.2979 27.2195 33.2051C27.1531 33.099 27.1331 32.9796 27.1597 32.8471L29.9117 19.9188C29.9383 19.7729 30.0114 19.6536 30.1311 19.5608C30.2507 19.468 30.377 19.4216 30.51 19.4216H35.8145C37.2902 19.4216 38.4734 19.7265 39.3642 20.3365C40.2682 20.9464 40.7202 21.8282 40.7202 22.9818C40.7202 23.3133 40.6803 23.658 40.6005 24.0161C40.2682 25.5409 39.5968 26.668 38.5864 27.3973C37.5893 28.1266 36.22 28.4912 34.4784 28.4912H31.7862L30.8689 32.8471C30.8423 32.9929 30.7692 33.1122 30.6495 33.2051C30.5299 33.2979 30.4036 33.3443 30.2706 33.3443H27.5586ZM34.618 25.7465C35.1764 25.7465 35.6616 25.594 36.0737 25.289C36.4992 24.984 36.7784 24.5464 36.9113 23.9763C36.9512 23.7509 36.9711 23.552 36.9711 23.3796C36.9711 22.9951 36.8581 22.7033 36.6321 22.5044C36.4061 22.2923 36.0206 22.1862 35.4755 22.1862H33.0825L32.3247 25.7465H34.618Z" fill="white"/>
</g>
<defs>
<clipPath id="clip0_358_17499">
<rect width="53.1393" height="53" fill="white"/>
</clipPath>
</defs>
</svg>
