<svg width="120" height="120" viewBox="0 0 120 120" fill="none" xmlns="http://www.w3.org/2000/svg">
<g clip-path="url(#clip0_105_40582)">
<path d="M0.415384 66.3146L14.311 77.3094L7.73586 88.7854L22.6825 91.8506L25.2142 108.804L41.952 104.045L47.4496 119.011L62.5397 108.053L76.4894 119.236L83.6651 102.757L99.9802 104.494L96.8034 86.872L114.598 84.5217L103.647 67.1122L116.105 55.1604L97.9766 42L100.977 24L86.5061 27.778L77.5574 10.7749L65.2521 19.5633L50.0774 5.32143L42.9548 20.7795L26.6544 16.8346L25.6448 33.8141L8.67946 38.8807L16.2752 54.4827L0.415384 66.3146Z" fill="url(#paint0_radial_105_40582)"/>
<path d="M26.9771 67.5L16.3734 22.7651C16.2955 22.5092 15.7279 21.2357 15.7279 21.2357C16.2071 20.6143 17.017 21.0001 17.2262 21.2961L48.8712 61.1385C48.92 61.2209 48.9444 61.2621 48.9932 61.3444C50.7964 67.8336 30.3076 77.3538 26.9771 67.5Z" fill="url(#paint1_radial_105_40582)"/>
<path d="M96.2964 57.4852L104.062 13.713C104.106 13.4219 104.511 11.9514 104.511 11.9514C103.937 11.3247 103.164 11.8467 102.991 12.1977L76.0698 54.5001C73.9736 55.5 76.0378 60.5001 76.0699 60.1082C75.1179 67.4701 94.2467 68.7353 96.2964 57.4852Z" fill="url(#paint2_radial_105_40582)"/>
<path fill-rule="evenodd" clip-rule="evenodd" d="M5.80942 21.3932C3.19512 20.6789 0.949519 18.7354 0.326701 16.1916L0.483306 16.0489C1.36262 16.5956 2.23615 17.1321 3.10968 17.6686L3.11013 17.6689L3.11014 17.6689C3.98352 18.2054 4.8569 18.7418 5.73607 19.2884C8.5711 21.0858 12.2553 21.6831 15.8145 20.9329C14.9506 20.5734 14.0839 20.2925 13.1808 20.0323L13.1208 20.0142C10.1374 19.1156 6.05526 17.8861 6.078 14.2756L6.23649 14.1317C6.65183 14.3618 6.99705 14.5985 7.31581 14.8171C7.40412 14.8777 7.49039 14.9368 7.57556 14.9941C7.75066 15.1133 7.94634 15.2416 8.1511 15.3759L8.15113 15.3759C8.75672 15.773 9.44183 16.2222 9.9092 16.6439C10.8173 17.5313 11.9711 18.1675 13.1266 18.8046C14.2427 19.4201 15.3605 20.0364 16.26 20.8809L16.125 21.0656L16.1091 21.0586L16.1109 21.0657C12.8231 22.505 9.03989 22.455 5.80942 21.3932ZM7.60078 23.3619C10.5992 23.56 13.6254 22.3729 16.3597 21.0876L16.3839 21.232C15.3878 22.0595 14.3005 22.728 13.1458 23.3819C11.391 24.3231 9.38625 24.9318 7.42203 25.2014C5.39055 25.4565 3.47824 24.4852 2.18766 23.1618L2.27518 23.0069C2.96799 22.9832 3.57201 23.0099 4.19885 23.0762C4.72402 23.1207 5.31055 23.1698 5.89717 23.2189L5.8991 23.219L5.8997 23.2191C6.48724 23.2682 7.07478 23.3174 7.60078 23.3619ZM17.9734 15.6676C18.0638 17.4013 17.6975 19.2856 16.8003 20.8759L16.6168 20.8718C16.7661 19.9758 16.8479 19.1723 16.7461 18.3646C16.6443 17.5569 16.5425 16.7491 16.3496 15.9931C16.275 15.7006 16.1629 15.4213 16.0501 15.1406C15.8713 14.6955 15.6911 14.2467 15.6566 13.7356L15.6566 13.7354C15.6003 12.902 15.5441 12.0685 15.761 11.0802L15.9666 11.0178C16.7761 11.5866 17.3125 12.3102 17.6433 13.0963C17.9443 13.7045 17.9531 14.4091 17.9621 15.1275C17.9643 15.3071 17.9666 15.4876 17.9734 15.6676Z" fill="#3173C1"/>
<path fill-rule="evenodd" clip-rule="evenodd" d="M114.651 10.9347C117.219 9.83443 119.243 7.42492 119.531 4.54907L119.352 4.41075C118.53 5.11791 117.713 5.81323 116.896 6.50855L116.895 6.50947L116.895 6.50951C116.077 7.20512 115.26 7.90073 114.438 8.60818C111.793 10.9275 108.117 12.0272 104.385 11.6282C105.217 11.1288 106.063 10.7155 106.948 10.3206L107.007 10.2934C109.926 8.94607 113.921 7.10244 113.404 3.12946L113.223 2.98998C112.831 3.2932 112.511 3.59529 112.216 3.87423L112.216 3.87424C112.134 3.95151 112.054 4.02701 111.975 4.10026C111.813 4.25259 111.631 4.41735 111.441 4.58975L111.441 4.58976C110.877 5.09966 110.24 5.6765 109.821 6.19696C109.016 7.28305 107.927 8.12201 106.835 8.96222C105.781 9.77384 104.726 10.5866 103.924 11.6245L104.087 11.8117L104.102 11.8022L104.101 11.8101C107.65 13.0004 111.502 12.4915 114.651 10.9347ZM113.093 13.3177C110.063 13.8956 106.814 12.9514 103.85 11.8643L103.846 12.0261C104.974 12.8178 106.175 13.4235 107.441 14.005C109.359 14.8308 111.487 15.2605 113.527 15.3218C115.633 15.3589 117.451 14.0599 118.586 12.4478L118.476 12.2877C117.766 12.3448 117.154 12.4466 116.523 12.5949C115.994 12.7069 115.402 12.8313 114.811 12.9557L114.808 12.9563L114.804 12.9572L114.802 12.9576C114.212 13.0818 113.622 13.2059 113.093 13.3177ZM101.464 6.08953C101.609 8.00937 102.24 10.0403 103.372 11.6839L103.558 11.6573C103.284 10.6886 103.091 9.81359 103.084 8.91198C103.077 8.01037 103.071 7.10876 103.164 6.25306C103.2 5.92207 103.277 5.6011 103.353 5.27843C103.475 4.76691 103.597 4.25107 103.562 3.68414L103.562 3.68394C103.506 2.75944 103.449 1.83495 103.093 0.772718L102.875 0.728617C102.127 1.45207 101.679 2.31324 101.449 3.21851C101.225 3.92435 101.313 4.70132 101.402 5.49344C101.424 5.69148 101.446 5.89047 101.464 6.08953Z" fill="#3173C1"/>
<path d="M51.5871 38.5572C51.6021 38.2994 51.8355 38.1018 52.1084 38.1159C52.3814 38.1301 52.5905 38.3506 52.5756 38.6084L52.4248 41.2077C52.8075 41.4162 53.1618 41.7215 53.4761 42.0463C53.995 42.5825 54.4828 43.2547 54.8985 43.9006C55.316 44.5492 55.6702 45.1859 55.9195 45.6592C55.9722 45.7592 55.9936 45.8034 56.017 45.8519C56.0491 45.9185 56.0853 45.9933 56.2116 46.2315C56.4301 46.6436 56.3549 46.9358 56.0647 47.0685C55.587 47.2869 55.3167 46.6912 55.1319 46.284C55.0961 46.2051 55.0635 46.1333 55.0333 46.0758C54.7918 45.6175 54.4512 45.0056 54.0527 44.3864C53.6523 43.7645 53.2027 43.1497 52.7455 42.6773C52.2713 42.1873 51.8353 41.9756 51.5231 41.9261C50.8577 41.8206 50.342 42.1777 49.9075 42.798C49.6434 43.175 49.4327 43.596 49.2897 44.0281L49.2895 44.0286C49.2116 44.2759 48.9364 44.4169 48.6745 44.3436C48.3183 44.2439 48.2864 43.9025 48.3886 43.6232C48.4795 43.3753 48.7007 42.8263 49.0819 42.282C49.5355 41.6344 50.3167 40.8685 51.4497 40.9268L51.5871 38.5572Z" fill="#01A0B2"/>
<path d="M68.4613 36.9678C68.2623 36.7372 68.3089 36.4051 68.5654 36.2262C68.8218 36.0473 69.191 36.0892 69.39 36.3198L71.3976 38.647C72.0459 38.4496 72.7361 38.3829 73.2958 38.3653C73.3221 38.3645 73.3507 38.3635 73.3813 38.3624C73.9827 38.3414 75.3379 38.2938 75.3379 39.0242C75.2817 39.378 74.9268 39.4973 74.5795 39.4624C74.3829 39.4427 73.9025 39.404 73.3368 39.4218C72.5554 39.4464 71.7134 39.5754 71.1559 39.9151C71.1078 39.9444 71.0107 40.0364 70.8945 40.2555C70.7835 40.4646 70.68 40.7421 70.5867 41.0768C70.4004 41.7453 70.2725 42.5767 70.186 43.4016C70.1 44.2227 70.0568 45.02 70.0352 45.6132C70.0323 45.6924 70.036 45.7888 70.0401 45.8942C70.0597 46.401 70.0873 47.1152 69.4259 47.1152C68.922 47.1078 68.8243 46.8962 68.841 46.3087C68.8438 46.1332 68.8493 45.8822 68.8604 45.5785C68.8825 44.9721 68.9268 44.152 69.0158 43.3024C69.1044 42.4567 69.2391 41.5642 69.4466 40.8197C69.5502 40.448 69.6765 40.0966 69.8336 39.8004C69.9581 39.5655 70.1213 39.328 70.3427 39.1487L68.4613 36.9678Z" fill="#01A0B2"/>
<path d="M63.3934 58.2882C62.8389 55.6224 63.4463 53.2774 64.7502 53.0504C66.0541 52.8234 67.5606 54.8004 68.1151 57.4662C68.6696 60.1319 68.0622 62.477 66.7583 62.704C65.4544 62.931 63.9479 60.954 63.3934 58.2882Z" fill="#01A0B2"/>
</g>
<defs>
<radialGradient id="paint0_radial_105_40582" cx="0" cy="0" r="1" gradientUnits="userSpaceOnUse" gradientTransform="translate(63.4005 63.2648) rotate(153.355) scale(104.359 101.589)">
<stop offset="0.221759" stop-color="#EFFFF7"/>
<stop offset="0.335" stop-color="#B8FFE4"/>
<stop offset="0.435" stop-color="#6FE8EC"/>
<stop offset="0.686918" stop-color="#4991E5"/>
</radialGradient>
<radialGradient id="paint1_radial_105_40582" cx="0" cy="0" r="1" gradientUnits="userSpaceOnUse" gradientTransform="translate(50.0211 63.6736) rotate(-177.175) scale(59.5021 161.855)">
<stop offset="0.152279" stop-color="#EFFFF7"/>
<stop offset="0.311857" stop-color="#B8FFE4"/>
<stop offset="0.445896" stop-color="#6FE8EC"/>
<stop offset="0.663808" stop-color="#4991E5"/>
<stop offset="0.93917" stop-color="#2767B2"/>
</radialGradient>
<radialGradient id="paint2_radial_105_40582" cx="0" cy="0" r="1" gradientUnits="userSpaceOnUse" gradientTransform="translate(63.4736 62) rotate(-10.5051) scale(76.787 225.773)">
<stop offset="0.280251" stop-color="#EFFFF7"/>
<stop offset="0.418115" stop-color="#B8FFE4"/>
<stop offset="0.521564" stop-color="#6FE8EC"/>
<stop offset="0.660941" stop-color="#4991E5"/>
<stop offset="1" stop-color="#2767B2"/>
</radialGradient>
<clipPath id="clip0_105_40582">
<rect width="120" height="120" fill="white"/>
</clipPath>
</defs>
</svg>
