<svg width="16" height="16" viewBox="0 0 16 16" fill="none" xmlns="http://www.w3.org/2000/svg">
<mask id="path-1-inside-1_1050_19300" fill="white">
<path d="M13.3033 2.6967L12.1247 3.87521C11.0692 2.81958 9.61083 2.16667 8 2.16667C4.77834 2.16667 2.16667 4.77834 2.16667 8C2.16667 11.2217 4.77834 13.8333 8 13.8333C11.2217 13.8333 13.8333 11.2217 13.8333 8H15.5C15.5 12.1422 12.1422 15.5 8 15.5C3.85787 15.5 0.5 12.1422 0.5 8C0.5 3.85787 3.85787 0.5 8 0.5C10.0711 0.5 11.9461 1.33947 13.3033 2.6967Z"/>
</mask>
<path d="M13.3033 2.6967L12.1247 3.87521C11.0692 2.81958 9.61083 2.16667 8 2.16667C4.77834 2.16667 2.16667 4.77834 2.16667 8C2.16667 11.2217 4.77834 13.8333 8 13.8333C11.2217 13.8333 13.8333 11.2217 13.8333 8H15.5C15.5 12.1422 12.1422 15.5 8 15.5C3.85787 15.5 0.5 12.1422 0.5 8C0.5 3.85787 3.85787 0.5 8 0.5C10.0711 0.5 11.9461 1.33947 13.3033 2.6967Z" fill="#0F111A"/>
<path d="M13.3033 2.6967L14.4842 3.87761L15.6651 2.69673L14.4842 1.51582L13.3033 2.6967ZM12.1247 3.87521L10.9439 5.05605L12.1247 6.23693L13.3056 5.05611L12.1247 3.87521ZM13.8333 8V6.33H12.1633V8H13.8333ZM15.5 8H17.17V6.33H15.5V8ZM12.1225 1.51579L10.9439 2.6943L13.3056 5.05611L14.4842 3.87761L12.1225 1.51579ZM13.3056 2.69436C11.9497 1.33833 10.0715 0.496667 8 0.496667V3.83667C9.15014 3.83667 10.1887 4.30084 10.9439 5.05605L13.3056 2.69436ZM8 0.496667C3.85603 0.496667 0.496667 3.85603 0.496667 8H3.83667C3.83667 5.70066 5.70066 3.83667 8 3.83667V0.496667ZM0.496667 8C0.496667 12.144 3.85603 15.5033 8 15.5033V12.1633C5.70066 12.1633 3.83667 10.2993 3.83667 8H0.496667ZM8 15.5033C12.144 15.5033 15.5033 12.144 15.5033 8H12.1633C12.1633 10.2994 10.2994 12.1633 8 12.1633V15.5033ZM13.8333 9.67H15.5V6.33H13.8333V9.67ZM13.83 8C13.83 11.2199 11.2199 13.83 8 13.83V17.17C13.0645 17.17 17.17 13.0645 17.17 8H13.83ZM8 13.83C4.78018 13.83 2.17 11.2198 2.17 8H-1.17C-1.17 13.0645 2.93556 17.17 8 17.17V13.83ZM2.17 8C2.17 4.78018 4.78018 2.17 8 2.17V-1.17C2.93555 -1.17 -1.17 2.93555 -1.17 8H2.17ZM8 2.17C9.61039 2.17 11.0656 2.82072 12.1225 3.87758L14.4842 1.51582C12.8266 -0.141784 10.5318 -1.17 8 -1.17V2.17Z" fill="#636779" mask="url(#path-1-inside-1_1050_19300)"/>
</svg>
