<svg width="30" height="35" viewBox="0 0 30 35" fill="none" xmlns="http://www.w3.org/2000/svg">
<path d="M16.9937 1.77952L22.4103 11.1615C22.8705 11.9586 22.5973 12.9779 21.8002 13.4382L19.6343 14.6867L21.3018 17.5749L18.415 19.2416L16.7475 16.3534L14.5833 17.6049C13.7862 18.0651 12.7668 17.7919 12.3067 16.9947L9.24367 11.6907C5.82305 12.7285 3.33333 15.9066 3.33333 19.6662C3.33333 20.7086 3.52467 21.7061 3.87412 22.6257C5.16533 21.8062 6.69405 21.3329 8.33333 21.3329C11.1401 21.3329 13.6228 22.7206 15.1328 24.8472L27.9468 17.4502L29.6135 20.3371L16.483 27.9179C16.6033 28.4817 16.6667 29.0666 16.6667 29.6662C16.6667 30.2374 16.6092 30.7952 16.4998 31.3341L30 31.3329V34.6662L1.66757 34.6682C0.6205 33.2752 0 31.5432 0 29.6662C0 27.9876 0.496367 26.4247 1.35035 25.1167C0.487933 23.4909 0 21.6356 0 19.6662C0 14.6741 3.13552 10.4143 7.54462 8.74871L6.88995 7.61286C5.96948 6.01856 6.51573 3.97992 8.11005 3.05944L12.4402 0.55944C14.0345 -0.36103 16.0732 0.185223 16.9937 1.77952Z" fill="black"/>
</svg>
