<svg width="48" height="22" viewBox="0 0 48 22" fill="none" xmlns="http://www.w3.org/2000/svg">
<path fill-rule="evenodd" clip-rule="evenodd" d="M19.4928 14.8301C20.2848 14.8301 20.9269 15.4721 20.9269 16.264C20.9269 17.848 22.2111 19.132 23.7952 19.132C25.3794 19.132 26.6635 17.848 26.6635 16.264C26.6635 15.4721 27.3056 14.8301 28.0977 14.8301C28.8898 14.8301 29.5319 15.4721 29.5319 16.264C29.5319 19.4319 26.9635 21.9999 23.7952 21.9999C20.627 21.9999 18.0586 19.4319 18.0586 16.264C18.0586 15.4721 18.7007 14.8301 19.4928 14.8301Z" fill="#69A0F7"/>
<path d="M10.1702 3.1792L10.9994 5.2813C11.7319 7.13833 13.1994 8.60723 15.0518 9.33774L17.1618 10.1698L15.0518 11.0018C13.1994 11.7323 11.7319 13.2012 10.9994 15.0582L10.1702 17.1603L9.34106 15.0582C8.60856 13.2012 7.14111 11.7323 5.28862 11.0018L3.17871 10.1698L5.28862 9.33774C7.14111 8.60723 8.60856 7.13833 9.34106 5.2813L10.1702 3.1792Z" fill="#69A0F7"/>
<path d="M37.7777 3.1792L38.6068 5.2813C39.3393 7.13833 40.8068 8.60723 42.6593 9.33774L44.7692 10.1698L42.6593 11.0018C40.8068 11.7323 39.3393 13.2012 38.6068 15.0582L37.7777 17.1603L36.9485 15.0582C36.216 13.2012 34.7485 11.7323 32.896 11.0018L30.7861 10.1698L32.896 9.33774C34.7485 8.60723 36.216 7.13833 36.9485 5.2813L37.7777 3.1792Z" fill="#69A0F7"/>
</svg>
