<svg width="30" height="30" viewBox="0 0 30 30" fill="none" xmlns="http://www.w3.org/2000/svg">
<path d="M3.8819 0.452306C5.93705 -0.278327 8.32001 0.178823 9.96496 1.82377C11.6104 3.46919 12.0673 5.85304 11.3358 7.90859L29.4103 25.9833L25.8748 29.5188L7.79845 11.4448C5.7433 12.1754 3.36033 11.7183 1.71538 10.0734C0.0699628 8.42794 -0.386987 6.04409 0.344529 3.98854L4.0724 7.71634C5.04871 8.69264 6.63163 8.69264 7.60793 7.71634C8.58425 6.74002 8.58425 5.15711 7.60793 4.18081L3.8819 0.452306ZM21.1608 3.59154L26.4642 0.645256L28.8212 3.00229L25.8748 8.30559L22.9285 8.89484L19.393 12.4304L17.036 10.0734L20.5715 6.53782L21.1608 3.59154ZM9.37571 16.5551L12.9112 20.0908L4.66166 28.3403C3.68535 29.3166 2.10243 29.3166 1.12613 28.3403C0.207246 27.4214 0.153196 25.9651 0.963963 24.9831L1.12613 24.8048L9.37571 16.5551Z" fill="black"/>
</svg>
