<svg width="14" height="12" viewBox="0 0 14 12" fill="none" xmlns="http://www.w3.org/2000/svg">
<path d="M12.333 1.33333H1.66634V10.6667L7.86121 4.47099C8.12154 4.21063 8.54361 4.21061 8.80401 4.47094L12.333 8.00693V1.33333ZM0.333008 0.662267C0.333008 0.296507 0.636548 0 0.994208 0H13.0051C13.3703 0 13.6663 0.296633 13.6663 0.662267V11.3377C13.6663 11.7035 13.3628 12 13.0051 12H0.994208C0.629041 12 0.333008 11.7034 0.333008 11.3377V0.662267ZM4.33301 5.33333C3.59663 5.33333 2.99967 4.7364 2.99967 4C2.99967 3.26362 3.59663 2.66667 4.33301 2.66667C5.06939 2.66667 5.66634 3.26362 5.66634 4C5.66634 4.7364 5.06939 5.33333 4.33301 5.33333Z" fill="#636779"/>
</svg>
