<svg width="48" height="48" viewBox="0 0 48 48" fill="none" xmlns="http://www.w3.org/2000/svg">
<circle cx="24" cy="24" r="24" fill="#FF0420"/>
<path d="M17.0049 30.3777C15.5758 30.3777 14.405 30.0415 13.4923 29.369C12.5916 28.6845 12.1413 27.7118 12.1413 26.4509C12.1413 26.1867 12.1713 25.8624 12.2314 25.4781C12.3875 24.6135 12.6096 23.5747 12.8979 22.3618C13.7145 19.0594 15.822 17.4082 19.2205 17.4082C20.1452 17.4082 20.9738 17.5643 21.7063 17.8765C22.4389 18.1768 23.0153 18.6331 23.4356 19.2456C23.8559 19.846 24.0661 20.5665 24.0661 21.4071C24.0661 21.6593 24.036 21.9776 23.976 22.3618C23.7959 23.4306 23.5797 24.4694 23.3275 25.4781C22.9072 27.1233 22.1807 28.3543 21.1479 29.1709C20.1152 29.9754 18.7341 30.3777 17.0049 30.3777ZM17.2571 27.7838C17.9296 27.7838 18.5 27.5857 18.9683 27.1894C19.4487 26.7931 19.7909 26.1867 19.9951 25.3701C20.2713 24.2412 20.4814 23.2565 20.6255 22.4159C20.6736 22.1637 20.6976 21.9055 20.6976 21.6413C20.6976 20.5485 20.1272 20.0021 18.9863 20.0021C18.3138 20.0021 17.7374 20.2003 17.2571 20.5965C16.7887 20.9928 16.4525 21.5993 16.2483 22.4159C16.0322 23.2205 15.816 24.2052 15.5998 25.3701C15.5518 25.6102 15.5278 25.8624 15.5278 26.1266C15.5278 27.2314 16.1042 27.7838 17.2571 27.7838Z" fill="white"/>
<path d="M24.8931 30.1976C24.761 30.1976 24.659 30.1556 24.5869 30.0715C24.5269 29.9754 24.5088 29.8674 24.5329 29.7473L27.0187 18.0387C27.0427 17.9066 27.1088 17.7985 27.2168 17.7144C27.3249 17.6304 27.439 17.5883 27.5591 17.5883H32.3506C33.6836 17.5883 34.7524 17.8645 35.557 18.4169C36.3736 18.9694 36.7819 19.7679 36.7819 20.8127C36.7819 21.1129 36.7458 21.4252 36.6738 21.7494C36.3736 23.1304 35.7671 24.1512 34.8545 24.8116C33.9538 25.4721 32.7169 25.8024 31.1437 25.8024H28.7119L27.8833 29.7473C27.8593 29.8794 27.7933 29.9875 27.6852 30.0715C27.5771 30.1556 27.463 30.1976 27.3429 30.1976H24.8931ZM31.2698 23.3165C31.7742 23.3165 32.2125 23.1784 32.5848 22.9022C32.9691 22.626 33.2213 22.2297 33.3413 21.7134C33.3774 21.5092 33.3954 21.3291 33.3954 21.173C33.3954 20.8247 33.2933 20.5605 33.0892 20.3804C32.885 20.1882 32.5367 20.0922 32.0444 20.0922H29.8828L29.1983 23.3165H31.2698Z" fill="white"/>
</svg>
