<svg width="64" height="64" viewBox="0 0 64 64" fill="none" xmlns="http://www.w3.org/2000/svg">
<path fill-rule="evenodd" clip-rule="evenodd" d="M57.2421 53.2439C57.2415 53.2439 57.241 53.2439 57.2405 53.2439L57.2428 53.2486L57.2421 53.2439ZM57.9411 53.349C57.728 53.2763 57.4914 53.2481 57.2421 53.2439L57.2312 53.1785C57.6605 53.0314 58.2018 52.9661 58.6357 53.2136C58.77 53.2789 58.8862 53.3827 59.0001 53.4845C59.1751 53.641 59.3448 53.7926 59.5667 53.7926C59.6883 53.796 59.7985 53.7814 59.9114 53.7665C60.0325 53.7505 60.1568 53.7341 60.3016 53.7389L60.3413 53.7973C60.1687 54.2246 59.7113 54.6122 59.212 54.4651C59.1047 54.437 58.9904 54.3577 58.9134 54.2853C58.8123 54.1809 58.7498 54.0842 58.6933 53.9968C58.6677 53.9571 58.6433 53.9194 58.6171 53.8837C58.473 53.651 58.2866 53.4981 58.0709 53.4002C58.2376 53.9524 58.4335 54.5046 58.7151 54.9953C58.8851 55.2254 59.0349 55.4216 59.1831 55.6158L59.1831 55.6158L59.1831 55.6158C59.3808 55.8748 59.5757 56.13 59.8117 56.457L59.7861 56.5223C59.1118 56.6064 58.4935 56.1021 58.2975 55.4786C58.0208 54.8018 57.926 54.0711 57.9411 53.349ZM57.7486 57.6685C56.0011 57.0941 56.6054 54.6028 57.163 53.3466L57.1653 53.3443L57.233 53.3653C57.177 53.7436 57.1304 54.1195 57.1234 54.4931C57.0674 55.2169 57.2237 55.929 57.45 56.5851C57.5317 56.9144 57.639 57.2249 57.7953 57.6148L57.7486 57.6685ZM59.5798 57.5814C57.5103 57.5697 57.4146 54.8939 57.5103 53.3575L57.5803 53.3529C57.5996 53.4472 57.6184 53.5414 57.6371 53.6353L57.6371 53.6353L57.6371 53.6353C57.6995 53.9484 57.7614 54.2588 57.8439 54.5624C58.1006 55.7648 58.7609 56.6241 59.6055 57.516L59.5798 57.5814Z" fill="url(#paint0_linear_613_9575)"/>
<path d="M1.52588e-05 18.8566L4.10177 28.6212L1.52588e-05 31.6986L6.31129 36.5365L4.94405 45.6613L12.9679 47.2864L14.6781 57.2097L22.6763 54.3658L29.2139 60.9385L36.2018 54.3658L44.5686 58.2511L46.2555 48.6663L58.4138 54.688L53.6961 39.8311L63.7031 36.0158L55.8099 28.2383L60.3013 18.8566L52.1025 16.5895L50.5929 6.25987L42.3451 8.48736L36.9858 0.315213L30.2218 5.0107L22.2867 0L18.4906 8.48736L8.47183 7.95734L9.52876 17.3226L1.52588e-05 18.8566Z" fill="url(#paint1_radial_613_9575)"/>
<path d="M32.5366 26.0107C32.637 26.0107 32.735 25.9687 32.805 25.887C32.9286 25.7399 32.9099 25.5181 32.763 25.3943C31.5147 24.3436 30.9571 23.6852 30.7284 22.3426C30.7051 22.2095 30.6071 22.0998 30.4764 22.0624C30.3458 22.0251 30.2058 22.0694 30.1171 22.1722C28.5655 23.9957 26.9953 24.1498 24.6411 23.7996C24.4521 23.7716 24.2725 23.9023 24.2445 24.0938C24.2165 24.2852 24.3471 24.4627 24.5385 24.4907C26.8576 24.8363 28.5725 24.7125 30.1894 23.1225C30.5184 24.2549 31.1624 24.9577 32.3126 25.9267C32.378 25.9827 32.4573 26.0084 32.539 26.0084L32.5366 26.0107Z" fill="url(#paint2_linear_613_9575)"/>
<path d="M47.5493 28.5951C47.6869 28.5951 47.8176 28.5134 47.8736 28.3757C47.9459 28.1959 47.8596 27.9927 47.6799 27.9203C45.5544 27.0588 44.9735 25.5901 44.6585 24.1308C44.6211 23.9604 44.4671 23.8436 44.2922 23.8553C44.1172 23.867 43.9795 24.0071 43.9678 24.1798C43.8955 25.2539 43.5152 26.1271 42.9249 26.5731C42.5889 26.8276 42.2063 26.9257 41.847 26.8486C41.658 26.8089 41.4713 26.9304 41.4317 27.1195C41.392 27.3086 41.5133 27.4954 41.7023 27.5351C42.2623 27.6542 42.8479 27.5117 43.3472 27.1335C43.8045 26.7879 44.1545 26.2789 44.3831 25.6485C44.8451 26.7809 45.6851 27.8643 47.4186 28.5671C47.4606 28.5835 47.5073 28.5928 47.5493 28.5928V28.5951Z" fill="url(#paint3_linear_613_9575)"/>
<path d="M35.6569 33.2249C35.0738 33.0705 34.8064 32.1682 35.0597 31.2097C35.3129 30.2511 35.9908 29.5992 36.5739 29.7536C37.157 29.908 37.4244 30.8103 37.1711 31.7689C36.9179 32.7275 36.2399 33.3794 35.6569 33.2249Z" fill="url(#paint4_linear_613_9575)"/>
<path fill-rule="evenodd" clip-rule="evenodd" d="M26.3393 51.2536C25.7735 50.9766 25.2401 50.5882 24.7261 50.2029L24.7243 50.2049L24.6626 50.2596C25.0256 50.8366 25.4395 51.3787 25.9861 51.8091C26.0141 51.8308 26.0424 51.8531 26.071 51.8757C26.3255 52.0766 26.6071 52.2988 26.973 52.3223C27.3648 52.3568 27.8104 52.2326 28.0405 51.8908L28.0104 51.8147C27.6297 51.7198 27.394 51.6249 27.1462 51.5189C27.0343 51.4652 26.9086 51.4328 26.7776 51.3991C26.6342 51.3621 26.4845 51.3235 26.3393 51.2536ZM24.6408 50.3249C25.0423 51.1903 25.6806 51.9844 26.5395 52.3906L26.6911 52.4454C27.3179 52.6725 27.8216 52.8549 28.5728 52.9179L28.6047 52.992C28.2259 53.4345 27.5637 53.5558 27.0025 53.443C26.5693 53.3406 26.2046 53.0633 25.878 52.7729C25.1594 52.1503 24.7069 51.2637 24.5642 50.3434L24.6445 50.3209L24.6408 50.3249ZM24.3278 50.9224C24.7436 51.6114 25.2052 52.2869 25.7407 52.8743C25.9358 53.0418 26.1086 53.1983 26.2754 53.3494C26.6456 53.6848 26.9858 53.993 27.4723 54.332L27.4698 54.4152C27.0317 54.6281 26.4972 54.5065 26.1014 54.275C25.7248 54.0683 25.4985 53.7121 25.2882 53.3813L25.2882 53.3812C25.2657 53.3458 25.2433 53.3107 25.221 53.276C24.7598 52.5599 24.4579 51.7678 24.2498 50.9546L24.326 50.9244L24.3278 50.9224Z" fill="url(#paint5_linear_613_9575)"/>
<path d="M25.5495 51.279L27.8169 63.9667L37.1501 40.6323L25.5495 51.279Z" fill="url(#paint6_linear_613_9575)"/>
<path d="M37.1489 40.6309L27.8158 63.9653L38.66 56.1464L37.1489 40.6309Z" fill="url(#paint7_linear_613_9575)"/>
<path d="M38.6618 56.148L33.6752 49.3152L25.552 51.2772L30.5677 57.0842L38.6598 56.1462L38.6618 56.148Z" fill="url(#paint8_linear_613_9575)"/>
<path d="M24.9434 50.4564C25.3111 50.6137 25.6424 50.4361 25.9854 50.604C26.0896 50.6481 26.2609 50.7283 26.3277 50.656C26.6458 50.2913 26.9728 50.0056 27.5251 49.8906L27.589 49.9422C27.5958 50.1159 27.5709 50.2677 27.5243 50.4107C27.3725 51.1186 26.2998 51.6643 25.7193 51.0129C25.6751 50.9722 25.6747 50.9606 25.6253 50.9336C25.4056 50.8535 25.068 50.724 24.8996 50.5239L24.9414 50.4546L24.9434 50.4564Z" fill="url(#paint9_linear_613_9575)"/>
<path d="M22.6316 49.14L17.3556 35.797L21.1521 33.085C26.7584 29.6015 13.6333 23.0557 11.9319 24.9495L8.6544 34.8415L22.1856 51.3694C22.8573 51.0586 23.0932 50.3939 22.6259 49.1391L22.6316 49.14Z" fill="url(#paint10_linear_613_9575)"/>
<defs>
<linearGradient id="paint0_linear_613_9575" x1="56.6457" y1="55.3329" x2="60.5968" y2="55.7553" gradientUnits="userSpaceOnUse">
<stop stop-color="#225FA8"/>
<stop offset="0.425" stop-color="#43A1BE"/>
<stop offset="0.878495" stop-color="#49A0EA"/>
</linearGradient>
<radialGradient id="paint1_radial_613_9575" cx="0" cy="0" r="1" gradientUnits="userSpaceOnUse" gradientTransform="translate(34.7039 28.6099) rotate(171.882) scale(61.0613 57.0043)">
<stop offset="0.150438" stop-color="#F9F7E7"/>
<stop offset="0.299989" stop-color="#ECCCFF"/>
<stop offset="0.487239" stop-color="#C77AEB"/>
<stop offset="0.770595" stop-color="#D06CFF"/>
</radialGradient>
<linearGradient id="paint2_linear_613_9575" x1="35.7989" y1="27.2419" x2="25.22" y2="24.03" gradientUnits="userSpaceOnUse">
<stop offset="0.1" stop-color="#DB35CA"/>
<stop offset="0.84" stop-color="#9C0DB3"/>
</linearGradient>
<linearGradient id="paint3_linear_613_9575" x1="47.9055" y1="26.2222" x2="38.4111" y2="27.8635" gradientUnits="userSpaceOnUse">
<stop offset="0.16" stop-color="#9D0EB4"/>
<stop offset="0.9" stop-color="#C628C3"/>
</linearGradient>
<linearGradient id="paint4_linear_613_9575" x1="37.1737" y1="31.7675" x2="35.059" y2="31.2089" gradientUnits="userSpaceOnUse">
<stop offset="0.16" stop-color="#B81FBE"/>
<stop offset="0.885" stop-color="#9E0FB5"/>
</linearGradient>
<linearGradient id="paint5_linear_613_9575" x1="27.9076" y1="53.8365" x2="23.5314" y2="51.1939" gradientUnits="userSpaceOnUse">
<stop stop-color="#225FA8"/>
<stop offset="0.425" stop-color="#43A1BE"/>
<stop offset="0.878495" stop-color="#49A0EA"/>
</linearGradient>
<linearGradient id="paint6_linear_613_9575" x1="28.2322" y1="48.3738" x2="35.7798" y2="55.3434" gradientUnits="userSpaceOnUse">
<stop stop-color="#5DDDEF"/>
<stop offset="0.82" stop-color="#69BAE8"/>
</linearGradient>
<linearGradient id="paint7_linear_613_9575" x1="40.2596" y1="47.4463" x2="17.6565" y2="61.5327" gradientUnits="userSpaceOnUse">
<stop stop-color="#4298EB"/>
<stop offset="0.82" stop-color="#69BAE8"/>
</linearGradient>
<linearGradient id="paint8_linear_613_9575" x1="22.9792" y1="52.5579" x2="40.0087" y2="53.7668" gradientUnits="userSpaceOnUse">
<stop offset="0.27" stop-color="#66B4D7"/>
<stop offset="0.32" stop-color="#70B9CE"/>
<stop offset="0.44" stop-color="#85C5BD"/>
<stop offset="0.58" stop-color="#94CDB2"/>
<stop offset="0.75" stop-color="#9DD2AB"/>
<stop offset="1" stop-color="#A0D4A9"/>
</linearGradient>
<linearGradient id="paint9_linear_613_9575" x1="27.1077" y1="51.017" x2="25.3944" y2="49.7697" gradientUnits="userSpaceOnUse">
<stop stop-color="#225FA8"/>
<stop offset="0.425" stop-color="#43A1BE"/>
<stop offset="0.878495" stop-color="#49A0EA"/>
</linearGradient>
<linearGradient id="paint10_linear_613_9575" x1="24.9994" y1="27.7052" x2="22.5904" y2="50.0589" gradientUnits="userSpaceOnUse">
<stop offset="0.0612116" stop-color="#FBECFF" stop-opacity="0"/>
<stop offset="0.42241" stop-color="#EF99FE" stop-opacity="0.38"/>
<stop offset="0.869362" stop-color="#B348C5"/>
</linearGradient>
</defs>
</svg>
