<svg width="20" height="20" viewBox="0 0 20 20" fill="none" xmlns="http://www.w3.org/2000/svg">
<path d="M9.99923 4.99941V0.00146484C4.47632 0.00146484 0 4.47779 0 10.0007C0 15.5236 4.47632 19.9999 9.99923 19.9999V19.5833C5.97288 19.5833 2.70813 16.3185 2.70813 12.2922C2.70813 8.26583 5.97288 5.00108 9.99923 5.00108V4.99941Z" fill="#FF0420"/>
<path d="M9.99762 0.00166817V0.418303C14.024 0.418303 17.2887 3.68305 17.2887 7.70941C17.2887 11.7358 14.024 15.0005 9.99762 15.0005V19.9985C15.5205 19.9985 19.9969 15.5221 19.9969 9.99923C19.9969 4.47632 15.5205 0 9.99762 0V0.00166817Z" fill="#FF0420"/>
<path d="M13.4423 10.0326C11.9241 10.7892 10.7859 11.9274 10.0293 13.4456H9.96592C9.20932 11.9274 8.07107 10.7892 6.55286 10.0326V9.96922C8.07107 9.21261 9.20932 8.07437 9.96592 6.55615H10.0293C10.7859 8.07437 11.9241 9.21261 13.4423 9.96922V10.0326Z" fill="#FF0420"/>
</svg>
