<svg width="16" height="16" viewBox="0 0 16 16" fill="none" xmlns="http://www.w3.org/2000/svg">
<path d="M4.66653 4.50065H5.16653V4.00065V2.00065C5.16653 1.90861 5.24116 1.83398 5.3332 1.83398H13.3332C13.4253 1.83398 13.4999 1.9086 13.4999 2.00065V11.334C13.4999 11.426 13.4253 11.5007 13.3332 11.5007H11.3332H10.8332V12.0007V14.0001C10.8332 14.0899 10.7596 14.1673 10.662 14.1673H2.67111C2.57275 14.1673 2.50005 14.091 2.5 14.0001C2.5 14.0001 2.5 14.0001 2.5 14.0001L2.50173 4.66799C2.50175 4.57802 2.57543 4.50065 2.67295 4.50065H4.66653ZM3.33495 4.83398H2.83504L2.83495 5.33389L2.83346 13.3339L2.83337 13.834H3.33346H9.99987H10.4999V13.334V5.33398V4.83398H9.99987H3.33495ZM5.49987 4.00065V4.50065H5.99987H10.8332V10.6673V11.1673H11.3332H12.6665H13.1665V10.6673V2.66732V2.16732H12.6665H5.99987H5.49987V2.66732V4.00065Z" fill="#404454" stroke="#404454"/>
</svg>
