<svg width="16" height="16" viewBox="0 0 16 16" fill="none" xmlns="http://www.w3.org/2000/svg">
<path d="M6.22829 12.5206L4.94039 12.1755L5.46537 10.2163C4.67263 9.92428 3.94424 9.49922 3.30728 8.96828L1.87172 10.4038L0.928918 9.46102L2.36447 8.02548C1.57038 7.07288 1.01326 5.91579 0.783691 4.6448L2.09574 4.40625C2.60176 7.20775 5.05271 9.33275 7.99997 9.33275C10.9472 9.33275 13.3982 7.20775 13.9042 4.40625L15.2163 4.6448C14.9867 5.91579 14.4296 7.07288 13.6355 8.02548L15.071 9.46102L14.1282 10.4038L12.6927 8.96828C12.0557 9.49922 11.3273 9.92428 10.5346 10.2163L11.0596 12.1755L9.7717 12.5206L9.2465 10.5605C8.84137 10.6299 8.4249 10.6661 7.99997 10.6661C7.5751 10.6661 7.15857 10.6299 6.7535 10.5605L6.22829 12.5206Z" fill="#404454"/>
</svg>
