<svg width="16" height="16" viewBox="0 0 16 16" fill="none" xmlns="http://www.w3.org/2000/svg">
<path d="M8.00053 2C11.5953 2 14.5859 4.58651 15.2129 8C14.5859 11.4135 11.5953 14 8.00053 14C4.40574 14 1.41509 11.4135 0.788086 8C1.41509 4.58651 4.40574 2 8.00053 2ZM8.00053 12.6667C10.8243 12.6667 13.2405 10.7013 13.8521 8C13.2405 5.29869 10.8243 3.33333 8.00053 3.33333C5.17673 3.33333 2.76047 5.29869 2.14885 8C2.76047 10.7013 5.17673 12.6667 8.00053 12.6667ZM8.00053 11C6.34365 11 5.0005 9.65687 5.0005 8C5.0005 6.34315 6.34365 5 8.00053 5C9.65733 5 11.0005 6.34315 11.0005 8C11.0005 9.65687 9.65733 11 8.00053 11ZM8.00053 9.66667C8.92099 9.66667 9.66719 8.92047 9.66719 8C9.66719 7.07953 8.92099 6.33333 8.00053 6.33333C7.08006 6.33333 6.33383 7.07953 6.33383 8C6.33383 8.92047 7.08006 9.66667 8.00053 9.66667Z" fill="#404454"/>
</svg>
