<svg width="15" height="13" viewBox="0 0 15 13" fill="none" xmlns="http://www.w3.org/2000/svg">
  <path d="M3.12195 0H11.7216V12.2288H10.4592V6.62722H10.4468C10.3073 5.07907 9.00623 3.86588 7.42176 3.86588C5.83729 3.86588 4.53617 5.07907 4.39666 6.62722H4.38428V12.2288H3.12195V0Z" fill="#FFFFFF"/>
  <path d="M0.833984 1.7357L1.3468 3.4714H1.78073V10.4931C1.56287 10.4931 1.38625 10.6697 1.38625 10.8876V11.3609H1.30736C1.08949 11.3609 0.91288 11.5376 0.91288 11.7554V12.2288H5.33103V11.7554C5.33103 11.5376 5.15441 11.3609 4.93655 11.3609H4.85765V10.8876C4.85765 10.6697 4.68104 10.4931 4.46318 10.4931H3.9898V1.7357H0.833984Z" fill="#FFFFFF"/>
  <path d="M10.5381 10.4931C10.3203 10.4931 10.1437 10.6697 10.1437 10.8876V11.3609H10.0648C9.84689 11.3609 9.67028 11.5376 9.67028 11.7554V12.2288H14.0884V11.7554C14.0884 11.5376 13.9118 11.3609 13.6939 11.3609H13.6151V10.8876C13.6151 10.6697 13.4384 10.4931 13.2206 10.4931V3.4714H13.6545L14.1673 1.7357H11.0115V10.4931H10.5381Z" fill="#FFFFFF"/>
</svg>
