<svg width="13" height="12" viewBox="0 0 13 12" fill="none" xmlns="http://www.w3.org/2000/svg">
<path d="M4.69891 3C4.69891 3.65311 4.28151 4.20873 3.69891 4.41465V4.5C3.69891 5.0523 4.14663 5.5 4.69891 5.5H7.69891C8.25121 5.5 8.69891 5.0523 8.69891 4.5V4.41465C8.11631 4.20873 7.69891 3.65311 7.69891 3C7.69891 2.17158 8.37046 1.5 9.19891 1.5C10.0274 1.5 10.6989 2.17158 10.6989 3C10.6989 3.65311 10.2815 4.20873 9.69891 4.41465V4.5C9.69891 5.60455 8.80346 6.5 7.69891 6.5H6.69891V7.58535C7.28151 7.79125 7.69891 8.3469 7.69891 9C7.69891 9.82845 7.02736 10.5 6.19891 10.5C5.37046 10.5 4.69891 9.82845 4.69891 9C4.69891 8.3469 5.11632 7.79125 5.69891 7.58535V6.5H4.69891C3.59434 6.5 2.69891 5.60455 2.69891 4.5V4.41465C2.11632 4.20873 1.69891 3.65311 1.69891 3C1.69891 2.17158 2.37049 1.5 3.19891 1.5C4.02734 1.5 4.69891 2.17158 4.69891 3Z" fill="#404454"/>
</svg>
