<svg width="136" height="12" viewBox="0 0 136 12" fill="none" xmlns="http://www.w3.org/2000/svg">
<path d="M9.14345 0.429619C8.44315 0.143217 7.65112 0 6.76722 0C3.51841 0 1.50378 1.51469 0.7232 4.5441C0.447741 5.65673 0.235252 6.60961 0.0861412 7.40277C0.0286232 7.75525 0 8.05267 0 8.29508C0 9.45174 0.430431 10.3441 1.29143 10.9719C2.16388 11.5888 3.28316 11.8973 4.64914 11.8973C6.30217 11.8973 7.62236 11.5283 8.60957 10.7902C9.59678 10.0411 10.2914 8.91194 10.6932 7.40277C10.9341 6.47742 11.1408 5.52451 11.313 4.5441C11.3704 4.19159 11.3991 3.89967 11.3991 3.66833C11.3991 2.89722 11.1983 2.23625 10.7965 1.68547C10.3947 1.12362 9.84375 0.705029 9.14345 0.429619ZM8.11031 4.59368C7.97251 5.36479 7.7716 6.26809 7.50759 7.30365C7.31241 8.05267 6.9853 8.60897 6.52611 8.97254C6.07837 9.33608 5.53317 9.51782 4.89025 9.51782C3.78828 9.51782 3.23723 9.01113 3.23723 7.99762C3.23723 7.75525 3.26012 7.52397 3.30606 7.30365C3.51268 6.23505 3.71931 5.33175 3.92594 4.59368C4.12112 3.84458 4.44251 3.28828 4.89025 2.92475C5.34944 2.56121 5.90036 2.37947 6.54328 2.37947C7.63381 2.37947 8.17914 2.88068 8.17914 3.88314C8.17914 4.12551 8.1561 4.36233 8.11031 4.59368ZM23.3402 0.92535C22.571 0.418594 21.5493 0.165233 20.2751 0.165233H15.6948C15.58 0.165233 15.471 0.203785 15.3677 0.280922C15.2643 0.358027 15.2012 0.45718 15.1782 0.578348L12.802 11.319C12.7791 11.4291 12.7962 11.5283 12.8536 11.6164C12.9225 11.6935 13.02 11.732 13.1463 11.732H15.4881C15.6029 11.732 15.7119 11.6935 15.8153 11.6164C15.9186 11.5393 15.9818 11.4401 16.0047 11.319L16.7969 7.70019H19.1215C20.6252 7.70019 21.8076 7.39726 22.6686 6.79135C23.5411 6.1855 24.1207 5.24913 24.4078 3.98229C24.4766 3.68486 24.5111 3.39843 24.5111 3.12305C24.5111 2.16466 24.1207 1.43207 23.3402 0.92535ZM21.2222 3.94925C21.1075 4.42293 20.8663 4.78644 20.499 5.03983C20.143 5.29319 19.724 5.41987 19.2419 5.41987H17.2618L17.916 2.46209H19.9824C20.453 2.46209 20.7859 2.55022 20.9811 2.72647C21.1762 2.89171 21.2737 3.13404 21.2737 3.45352C21.2737 3.59674 21.2566 3.76197 21.2222 3.94925ZM37.0004 0.280922C37.0463 0.347002 37.0692 0.413116 37.0692 0.479196C37.0692 0.512236 37.0635 0.545275 37.0521 0.578348L36.656 2.3464C36.6329 2.4676 36.5698 2.56672 36.4667 2.64386C36.3748 2.72096 36.2656 2.75951 36.1394 2.75951H33.0916L31.1802 11.319C31.1573 11.4401 31.0942 11.5393 30.9909 11.6164C30.8876 11.6935 30.7785 11.732 30.6636 11.732H28.3907C28.2645 11.732 28.1669 11.6935 28.0981 11.6164C28.0292 11.5283 28.0062 11.4291 28.0292 11.319L29.9404 2.75951H26.8755C26.7491 2.75951 26.6515 2.72096 26.5828 2.64386C26.5253 2.55573 26.5081 2.45658 26.531 2.3464L26.9271 0.578348C26.95 0.45718 27.0133 0.358027 27.1166 0.280922C27.2199 0.203785 27.3289 0.165233 27.4437 0.165233H36.7076C36.8339 0.165233 36.9314 0.203785 37.0004 0.280922ZM42.6742 0.280922C42.7202 0.347002 42.7432 0.413116 42.7432 0.479196C42.7432 0.512236 42.7373 0.545275 42.7259 0.578348L40.3497 11.319C40.3266 11.4401 40.2635 11.5393 40.1603 11.6164C40.0569 11.6935 39.9479 11.732 39.8331 11.732H37.5085C37.3822 11.732 37.2846 11.6935 37.2158 11.6164C37.1469 11.5283 37.1239 11.4291 37.1469 11.319L39.5403 0.578348C39.5634 0.45718 39.6265 0.358027 39.7298 0.280922C39.8331 0.203785 39.9421 0.165233 40.0569 0.165233H42.3815C42.5078 0.165233 42.6054 0.203785 42.6742 0.280922ZM57.8924 0.280922C57.9382 0.347002 57.9611 0.413116 57.9611 0.479196C57.9611 0.512236 57.9555 0.545275 57.9438 0.578348L55.5675 11.319C55.5446 11.4401 55.4815 11.5393 55.3782 11.6164C55.2748 11.6935 55.1657 11.732 55.051 11.732H52.9675C52.8412 11.732 52.7436 11.6935 52.6747 11.6164C52.6174 11.5283 52.6 11.4291 52.6231 11.319L53.9662 5.2216L51.3316 8.57593C51.2169 8.69713 51.1078 8.79081 51.0045 8.85689C50.9012 8.92297 50.7806 8.95601 50.6428 8.95601H49.7474C49.5063 8.95601 49.3399 8.82936 49.2481 8.57593L48.0256 5.07287L46.648 11.319C46.625 11.4401 46.5619 11.5393 46.4586 11.6164C46.3553 11.6935 46.2462 11.732 46.1314 11.732H44.0652C43.9388 11.732 43.8412 11.6935 43.7724 11.6164C43.7036 11.5393 43.6805 11.4401 43.7036 11.319L46.0798 0.578348C46.1027 0.45718 46.1659 0.358027 46.2692 0.280922C46.3726 0.203785 46.4873 0.165233 46.6135 0.165233H48.4732C48.7488 0.165233 48.9267 0.286401 49.0071 0.528771L50.884 5.73384L55.0681 0.528771C55.1257 0.440643 55.2061 0.358027 55.3092 0.280922C55.424 0.203785 55.5618 0.165233 55.7226 0.165233H57.5992C57.7254 0.165233 57.8231 0.203785 57.8924 0.280922ZM64.4298 0.280922C64.4761 0.347002 64.499 0.413116 64.499 0.479196C64.499 0.512236 64.4929 0.545275 64.4817 0.578348L62.1052 11.319C62.0823 11.4401 62.0191 11.5393 61.9159 11.6164C61.8126 11.6935 61.7037 11.732 61.5887 11.732H59.2641C59.1379 11.732 59.0401 11.6935 58.9714 11.6164C58.9029 11.5283 58.8794 11.4291 58.9029 11.319L61.2962 0.578348C61.3191 0.45718 61.3822 0.358027 61.4855 0.280922C61.5887 0.203785 61.6976 0.165233 61.8126 0.165233H64.1373C64.2634 0.165233 64.3611 0.203785 64.4298 0.280922ZM75.98 1.58631C76.3591 2.03795 76.5484 2.48961 76.5484 2.94128C76.5484 3.07347 76.5428 3.16712 76.531 3.22217C76.5081 3.32132 76.4568 3.40394 76.3765 3.47005C76.3072 3.53613 76.2212 3.56917 76.1179 3.56917H73.8105C73.5582 3.56917 73.3857 3.47557 73.2942 3.28828C73.2825 3.03492 73.1446 2.82012 72.8804 2.64386C72.617 2.4676 72.2725 2.37947 71.8477 2.37947C71.3424 2.37947 70.9237 2.4676 70.5903 2.64386C70.2694 2.82012 70.0685 3.07899 69.988 3.42048C69.9763 3.47557 69.9707 3.54716 69.9707 3.63529C69.9707 3.89967 70.1316 4.11999 70.4531 4.29625C70.7858 4.46148 71.3653 4.63223 72.1921 4.80849C73.4778 5.05086 74.413 5.39786 74.9985 5.84952C75.5954 6.30119 75.894 6.90152 75.894 7.65062C75.894 7.90398 75.8594 8.17939 75.7908 8.47681C75.5384 9.60047 74.9244 10.4542 73.9485 11.038C72.9838 11.6109 71.6925 11.8973 70.074 11.8973C69.0635 11.8973 68.1971 11.7651 67.474 11.5007C66.7623 11.2363 66.2225 10.8838 65.8551 10.4432C65.4995 10.0025 65.3213 9.51231 65.3213 8.97254C65.3213 8.88441 65.333 8.75226 65.3559 8.57593C65.3788 8.47681 65.4246 8.3942 65.4939 8.32812C65.5743 8.262 65.6659 8.22896 65.7692 8.22896H67.9731C68.1111 8.22896 68.2144 8.25098 68.2831 8.29508C68.3635 8.33914 68.4438 8.41625 68.5242 8.52642C68.6046 8.81282 68.7882 9.04968 69.0753 9.23696C69.3739 9.42418 69.7816 9.51782 70.2979 9.51782C70.9522 9.51782 71.4804 9.4187 71.8823 9.22039C72.2837 9.02209 72.5248 8.75226 72.6052 8.41073C72.617 8.36667 72.6226 8.30059 72.6226 8.21243C72.6226 7.93705 72.4444 7.72221 72.0888 7.56797C71.7327 7.40277 71.0783 7.20997 70.1253 6.98965C69.0121 6.75831 68.1686 6.41134 67.5946 5.94865C67.0201 5.47496 66.7332 4.85806 66.7332 4.09795C66.7332 3.83356 66.7679 3.56369 66.8366 3.28828C67.0665 2.26378 67.6343 1.45963 68.5415 0.875774C69.4599 0.291914 70.6424 0 72.0888 0C72.9609 0 73.7357 0.14873 74.4135 0.446155C75.0907 0.743581 75.6127 1.12362 75.98 1.58631ZM92.0747 0.479196C92.0747 0.512236 92.0685 0.545275 92.0574 0.578348L89.6807 11.319C89.6578 11.4401 89.5947 11.5393 89.4915 11.6164C89.3882 11.6935 89.2793 11.732 89.1643 11.732H87.0808C86.9546 11.732 86.857 11.6935 86.7883 11.6164C86.7308 11.5283 86.7135 11.4291 86.7364 11.319L88.0796 5.2216L85.4451 8.57593C85.3301 8.69713 85.2212 8.79081 85.1179 8.85689C85.0147 8.92297 84.8941 8.95601 84.7561 8.95601H83.8606C83.6195 8.95601 83.4531 8.82936 83.3615 8.57593L82.1389 5.07287L80.7612 11.319C80.7383 11.4401 80.6752 11.5393 80.5719 11.6164C80.4686 11.6935 80.3597 11.732 80.2446 11.732H78.1785C78.0524 11.732 77.9547 11.6935 77.886 11.6164C77.8168 11.5393 77.7939 11.4401 77.8168 11.319L80.1934 0.578348C80.2163 0.45718 80.2793 0.358027 80.3826 0.280922C80.4859 0.203785 80.6009 0.165233 80.7271 0.165233H82.5867C82.862 0.165233 83.04 0.286401 83.1204 0.528771L84.9974 5.73384L89.1817 0.528771C89.2391 0.440643 89.3195 0.358027 89.4228 0.280922C89.5372 0.203785 89.6751 0.165233 89.836 0.165233H91.7129C91.839 0.165233 91.9367 0.203785 92.0054 0.280922C92.0512 0.347002 92.0747 0.413116 92.0747 0.479196Z" fill="#111111"/>
<path d="M131.898 8.13983C130.143 7.87698 128.863 7.12126 128.863 5.47841C128.863 4.01627 130.094 2.96484 132.39 2.96484C134.769 2.96484 135.754 4.2627 135.836 5.42912H134.294C134.244 4.68984 133.621 4.16413 132.358 4.16413C130.98 4.16413 130.422 4.68984 130.422 5.34698C130.422 6.18484 131.078 6.43127 132.177 6.61198L132.965 6.72698C134.654 6.98984 136 7.51555 136 9.37197C136 10.9491 134.687 12.0005 132.39 12.0005C130.028 12.0005 128.748 10.8834 128.699 9.37197H130.291C130.34 10.3577 131.078 10.7848 132.39 10.7848C133.752 10.7848 134.441 10.292 134.441 9.5034C134.441 8.61626 133.703 8.38626 132.669 8.25483L131.898 8.13983Z" fill="#111111"/>
<path d="M122.692 10.7684C124.185 10.7684 125.399 9.78269 125.399 8.05769V7.40055L122.61 7.64698C121.445 7.76198 120.887 8.28769 120.887 9.20769C120.887 10.3577 121.691 10.7684 122.692 10.7684ZM119.723 5.42912C119.903 4.06556 121.035 2.96484 123.348 2.96484C124.776 2.96484 125.957 3.32627 126.564 4.36127C126.843 4.82127 126.974 5.39627 126.974 6.08627V11.7541H125.399V10.6863C124.89 11.3434 123.922 12.0005 122.528 12.0005C120.773 12.0005 119.312 11.097 119.312 9.20769C119.312 7.71269 120.297 6.67769 122.446 6.49698L125.399 6.25055V6.08627C125.399 4.93627 124.923 4.19698 123.348 4.19698C122.101 4.19698 121.429 4.68984 121.347 5.42912H119.723Z" fill="#111111"/>
<path d="M115.93 0.257812H117.505V11.7578H115.93V0.257812Z" fill="#111111"/>
<path d="M110.476 4.52985H108.426V3.21557H110.476V1.24414H112.051V3.21557H114.266V4.52985H112.051V9.70484C112.051 10.2798 112.215 10.477 112.79 10.477H114.266V11.7584H112.462C110.969 11.7584 110.476 11.0191 110.476 9.70484V4.52985Z" fill="#111111"/>
<path d="M105.922 9.04708H100.508L99.4413 11.7578H97.7188L102.394 0.257812H104.035L108.71 11.7578H106.988L105.922 9.04708ZM103.182 2.06495C102.936 2.80424 102.558 3.95423 102.115 5.00566L101.065 7.65066H105.364L104.314 5.00566C103.871 3.95423 103.494 2.80424 103.247 2.06495H103.182Z" fill="#111111"/>
</svg>
