<svg width="16" height="16" viewBox="0 0 16 16" fill="none" xmlns="http://www.w3.org/2000/svg">
<path d="M8.00016 14.6673C4.31826 14.6673 1.3335 11.6825 1.3335 8.00065C1.3335 4.31875 4.31826 1.33398 8.00016 1.33398C11.682 1.33398 14.6668 4.31875 14.6668 8.00065C14.6668 11.6825 11.682 14.6673 8.00016 14.6673ZM7.3335 10.0007V11.334H8.66683V10.0007H7.3335ZM8.66683 8.90405C9.63063 8.61718 10.3335 7.72432 10.3335 6.66732C10.3335 5.37865 9.28883 4.33398 8.00016 4.33398C6.86816 4.33398 5.92441 5.14011 5.7117 6.20962L7.01936 6.47116C7.11056 6.0128 7.51503 5.66732 8.00016 5.66732C8.55243 5.66732 9.00016 6.11503 9.00016 6.66732C9.00016 7.21958 8.55243 7.66732 8.00016 7.66732C7.63196 7.66732 7.3335 7.96578 7.3335 8.33398V9.33398H8.66683V8.90405Z" fill="#404454"/>
</svg>
