<svg version="1.1" xmlns="http://www.w3.org/2000/svg" width="768" height="768">
<path d="M0 0 C1.10794922 0.0309375 1.10794922 0.0309375 2.23828125 0.0625 C8.57525437 2.48813564 11.57327292 9.38419691 14.640625 15.02734375 C14.98933151 15.66451324 15.33803802 16.30168274 15.6973114 16.9581604 C17.15273683 19.62634715 18.6050866 22.29368784 19.99951172 24.99438477 C23.7237402 32.91863499 23.7237402 32.91863499 30.31567383 37.99853516 C34.22445336 38.14435566 36.80701432 37.52135845 40.16796875 35.53125 C40.73128906 34.8609375 41.29460937 34.190625 41.875 33.5 C42.84566406 32.39398438 42.84566406 32.39398438 43.8359375 31.265625 C44.75246094 30.14414062 44.75246094 30.14414062 45.6875 29 C46.78943701 27.74803401 47.89357696 26.49800324 49 25.25 C49.83917969 24.27933594 49.83917969 24.27933594 50.6953125 23.2890625 C53.22946549 20.37727103 55.79109216 17.49267973 58.375 14.625 C59.0707312 13.83851074 59.0707312 13.83851074 59.78051758 13.03613281 C62.86770301 9.62828024 65.19271256 7.21422146 69.87109375 6.8125 C70.61488281 6.874375 71.35867188 6.93625 72.125 7 C72.86621094 7.04125 73.60742188 7.0825 74.37109375 7.125 C78.30675351 8.61165731 80.73749587 12.11481325 82.59120178 15.79330444 C83.39012955 17.74451197 84.10903827 19.7075235 84.80078125 21.69921875 C85.06005905 22.41608353 85.31933685 23.1329483 85.58647156 23.87153625 C86.12741807 25.37457276 86.66240904 26.87976501 87.19165039 28.38696289 C88.00297367 30.69596298 88.83284503 32.99763199 89.66601562 35.29882812 C90.19119115 36.76523616 90.71531735 38.23202052 91.23828125 39.69921875 C91.60848137 40.73051155 91.60848137 40.73051155 91.98616028 41.78263855 C92.99254196 44.66150021 93.6875 46.92544418 93.6875 50 C98.36403134 51.0043964 102.70588072 51.86869197 107.19921875 49.89892578 C109.64948608 48.23617109 111.91559934 46.46149067 114.1875 44.5625 C115.00774658 43.92030518 115.82799316 43.27811035 116.6730957 42.61645508 C119.03157081 40.76821019 121.36138241 38.88869669 123.6875 37 C135.44106754 27.63153733 135.44106754 27.63153733 142.6875 28 C146.56108135 29.24246949 148.1741171 30.14150839 150.26879883 33.64428711 C151.80765101 37.28419818 152.53437198 40.74655529 153.07421875 44.62890625 C153.18095413 45.34102768 153.28768951 46.05314911 153.3976593 46.78684998 C153.61993799 48.28289229 153.83732989 49.77966811 154.05004883 51.27709961 C154.37475935 53.56080746 154.7143601 55.8419128 155.05664062 58.12304688 C155.27170397 59.58320536 155.48592551 61.04348814 155.69921875 62.50390625 C155.84915535 63.51971519 155.84915535 63.51971519 156.00212097 64.55604553 C156.49725961 68.06580281 156.79527433 71.45537478 156.6875 75 C158.68291868 75.68025637 160.68367991 76.34490497 162.6875 77 C163.28594727 77.24137695 163.88439453 77.48275391 164.50097656 77.73144531 C167.833453 78.14074903 169.92578058 76.80349777 172.921875 75.359375 C173.51873108 75.07652649 174.11558716 74.79367798 174.73052979 74.5022583 C176.6383283 73.59581285 178.53801492 72.6737222 180.4375 71.75 C202.86347929 60.97425367 202.86347929 60.97425367 208.6875 63 C214.26101509 66.36514119 214.26101509 66.36514119 215.18408203 69.90356445 C215.72291274 75.72545158 215.62111565 81.35753209 215.25 87.1875 C215.15612134 89.03508411 215.06367729 90.88274166 214.97265625 92.73046875 C214.80764575 95.92431308 214.60708242 99.11151964 214.37109375 102.30078125 C214.31050781 103.52152344 214.24992188 104.74226563 214.1875 106 C214.1153125 107.051875 214.043125 108.10375 213.96875 109.1875 C214.92130272 112.91488021 216.52932507 113.96899395 219.64001465 116.07556152 C223.22842884 117.6957285 226.42937664 116.5898168 230 115.484375 C231.1588269 115.17055878 231.1588269 115.17055878 232.34106445 114.85040283 C234.79934953 114.18007997 237.24275475 113.46799323 239.6875 112.75 C242.13340397 112.05289325 244.58125473 111.36532676 247.03393555 110.69244385 C248.55539719 110.27288759 250.07288962 109.83856038 251.58520508 109.387146 C256.28003489 108.06542046 259.831021 107.86551929 264.6875 109 C267.60996869 110.81842496 269.27209724 112.32025004 271.0625 115.25 C272.45774052 121.3890583 270.32753566 127.85551759 268.6640625 133.7890625 C268.27839301 135.23917068 267.89432446 136.68970544 267.51171875 138.140625 C266.91378963 140.39431991 266.30718538 142.64381431 265.67333984 144.88769531 C265.05851372 147.07744783 264.48335544 149.27459818 263.9140625 151.4765625 C263.71640289 152.14233307 263.51874329 152.80810364 263.31509399 153.49404907 C262.64517455 156.19564151 262.29697811 158.26748796 263.63600159 160.77912903 C265.67333943 163.34868298 267.09027699 164.8593208 270.32421875 165.62109375 C271.33097656 165.56050781 272.33773437 165.49992188 273.375 165.4375 C274.58414063 165.38722656 275.79328125 165.33695313 277.0390625 165.28515625 C278.10108887 165.21965576 278.10108887 165.21965576 279.18457031 165.15283203 C283.35952158 164.89790426 287.53734354 164.71282333 291.71606445 164.53149414 C294.04856534 164.42820343 296.3805261 164.31177218 298.71166992 164.18139648 C299.79810791 164.12927002 300.8845459 164.07714355 302.00390625 164.0234375 C302.97787354 163.97106934 303.95184082 163.91870117 304.95532227 163.86474609 C309.27704945 164.07868916 311.88713943 165.19963943 314.9375 168.25 C317.01332142 171.51200508 317.6875 173.11521333 317.6875 177 C315.87610072 182.69170734 313.20022522 188.08871999 310.6015625 193.453125 C310.06402344 194.566875 309.52648437 195.680625 308.97265625 196.828125 C307.85526619 199.1312631 306.72478202 201.42808932 305.58203125 203.71875 C304.78732422 205.38164062 304.78732422 205.38164062 303.9765625 207.078125 C303.48881348 208.07231445 303.00106445 209.06650391 302.49853516 210.09082031 C301.46942348 213.78223955 302.22886055 215.51557089 303.6875 219 C304.03726758 220.32911682 304.37846017 221.66082739 304.6875 223 C305.32131592 223.05043457 305.95513184 223.10086914 306.6081543 223.15283203 C314.27964122 223.80240872 321.88121333 224.77399498 329.5 225.875 C330.68787109 226.03613281 331.87574219 226.19726562 333.09960938 226.36328125 C344.14043093 227.96088751 344.14043093 227.96088751 348.6875 231 C351.53412118 234.94853905 352.05287685 237.95232262 351.35424805 242.75463867 C350.02122066 247.24378289 346.98592495 250.68167939 344.125 254.3125 C343.49327881 255.14845703 342.86155762 255.98441406 342.21069336 256.84570312 C339.52715249 260.39030072 336.80556426 263.88920381 333.9453125 267.29296875 C330.05082879 272.09524137 328.16686794 274.86782773 328.6875 281.1875 C328.97622373 282.80029274 329.29374183 284.40958612 329.6875 286 C330.53441406 286.11698242 331.38132812 286.23396484 332.25390625 286.35449219 C337.9158456 287.4189239 343.23132197 289.52741004 348.62792969 291.50048828 C350.67726349 292.24627476 352.73273882 292.97296574 354.7890625 293.69921875 C356.10979648 294.17852771 357.43012338 294.65896014 358.75 295.140625 C360.53083984 295.78306152 360.53083984 295.78306152 362.34765625 296.43847656 C366.57415968 298.41455229 370.75168573 300.77647436 372.6328125 305.24609375 C372.69210937 305.96925781 372.75140625 306.69242187 372.8125 307.4375 C372.94011719 308.51837891 372.94011719 308.51837891 373.0703125 309.62109375 C371.97665938 316.41736669 365.74910289 321.04176985 360.9375 325.4375 C360.25945313 326.06720703 359.58140625 326.69691406 358.8828125 327.34570312 C354.76718708 331.15226542 350.58118998 334.8701427 346.34277344 338.53930664 C343.34431876 341.1852881 342.1857799 342.57780457 341.68359375 346.578125 C341.60243255 349.34489767 341.60243255 349.34489767 342.6875 352 C346.91063966 355.73952587 351.76042805 358.17378184 356.75 360.75 C359.39413608 362.16877354 362.02782749 363.6063334 364.66015625 365.046875 C365.28895691 365.38852188 365.91775757 365.73016876 366.56561279 366.08216858 C377.44913948 372.0768932 377.44913948 372.0768932 379.6953125 377.37890625 C379.75332031 378.45978516 379.75332031 378.45978516 379.8125 379.5625 C379.87695312 380.28566406 379.94140625 381.00882812 380.0078125 381.75390625 C379.46044426 385.59215918 377.53939661 388.25543296 374.65087891 390.7800293 C370.03833934 393.91783402 365.38663903 396.77048124 360.4609375 399.39453125 C359.41035156 399.95849609 358.35976563 400.52246094 357.27734375 401.10351562 C355.10836779 402.25652532 352.92547488 403.38367851 350.73046875 404.48632812 C345.05252132 407.36637232 345.05252132 407.36637232 341.85839844 412.5300293 C341.71048703 416.43783429 342.15812891 419.10598233 344.15625 422.48046875 C344.8265625 423.04378906 345.496875 423.60710937 346.1875 424.1875 C346.92484375 424.83460938 347.6621875 425.48171875 348.421875 426.1484375 C349.54335937 427.06496094 349.54335937 427.06496094 350.6875 428 C351.93946599 429.10193701 353.18949676 430.20607696 354.4375 431.3125 C355.08460938 431.87195313 355.73171875 432.43140625 356.3984375 433.0078125 C359.31022897 435.54196549 362.19482027 438.10359216 365.0625 440.6875 C365.58682617 441.1513208 366.11115234 441.6151416 366.65136719 442.09301758 C370.05921976 445.18020301 372.47327854 447.50521256 372.875 452.18359375 C372.813125 452.92738281 372.75125 453.67117188 372.6875 454.4375 C372.64625 455.17871094 372.605 455.91992188 372.5625 456.68359375 C371.07584269 460.61925351 367.57268675 463.04999587 363.89419556 464.90370178 C361.94298803 465.70262955 359.9799765 466.42153827 357.98828125 467.11328125 C357.27141647 467.37255905 356.5545517 467.63183685 355.81596375 467.89897156 C354.31292724 468.43991807 352.80773499 468.97490904 351.30053711 469.50415039 C348.99153702 470.31547367 346.68986801 471.14534503 344.38867188 471.97851562 C342.92226384 472.50369115 341.45547948 473.02781735 339.98828125 473.55078125 C339.30075272 473.79758133 338.61322418 474.04438141 337.90486145 474.29866028 C335.02599979 475.30504196 332.76205582 476 329.6875 476 C328.6831036 480.67653134 327.81880803 485.01838072 329.78857422 489.51171875 C331.45132891 491.96198608 333.22600933 494.22809934 335.125 496.5 C335.76719482 497.32024658 336.40938965 498.14049316 337.07104492 498.9855957 C338.91928981 501.34407081 340.79880331 503.67388241 342.6875 506 C352.05596267 517.75356754 352.05596267 517.75356754 351.6875 525 C350.44503051 528.87358135 349.54599161 530.4866171 346.04321289 532.58129883 C342.40330182 534.12015101 338.94094471 534.84687198 335.05859375 535.38671875 C334.34647232 535.49345413 333.63435089 535.60018951 332.90065002 535.7101593 C331.40460771 535.93243799 329.90783189 536.14982989 328.41040039 536.36254883 C326.12669254 536.68725935 323.8455872 537.0268601 321.56445312 537.36914062 C320.10429464 537.58420397 318.64401186 537.79842551 317.18359375 538.01171875 C316.16778481 538.16165535 316.16778481 538.16165535 315.13145447 538.31462097 C311.62169719 538.80975961 308.23212522 539.10777433 304.6875 539 C304.00724363 540.99541868 303.34259503 542.99617991 302.6875 545 C302.30972412 545.86951294 302.30972412 545.86951294 301.92431641 546.7565918 C301.5488188 550.31375414 303.27987906 553.04610898 304.8359375 556.14453125 C305.33391342 557.17654915 305.33391342 557.17654915 305.84194946 558.22941589 C306.90436004 560.42938483 307.98178237 562.62147251 309.0625 564.8125 C310.13533004 566.99313317 311.20433187 569.17523792 312.2616272 571.3634491 C312.91901734 572.72368457 313.58520176 574.07971727 314.26156616 575.43061829 C316.28975941 579.62266414 317.38739796 583.34841832 317.6875 588 C316.27019712 591.68498748 314.71887109 594.46837967 311.6875 597 C305.54415176 598.70110156 298.78301874 597.9624553 292.5 597.5625 C290.65241589 597.46862134 288.80475834 597.37617729 286.95703125 597.28515625 C283.76318692 597.12014575 280.57598036 596.91958242 277.38671875 596.68359375 C276.16597656 596.62300781 274.94523438 596.56242188 273.6875 596.5 C272.635625 596.4278125 271.58375 596.355625 270.5 596.28125 C266.77261979 597.23380272 265.71850605 598.84182507 263.61193848 601.95251465 C261.9917715 605.54092884 263.0976832 608.74187664 264.203125 612.3125 C264.41233582 613.08505127 264.62154663 613.85760254 264.83709717 614.65356445 C265.50742003 617.11184953 266.21950677 619.55525475 266.9375 622 C267.63460675 624.44590397 268.32217324 626.89375473 268.99505615 629.34643555 C269.41461241 630.86789719 269.84893962 632.38538962 270.300354 633.89770508 C271.62207954 638.59253489 271.82198071 642.143521 270.6875 647 C268.86907504 649.92246869 267.36724996 651.58459724 264.4375 653.375 C258.2984417 654.77024052 251.83198241 652.64003566 245.8984375 650.9765625 C244.44832932 650.59089301 242.99779456 650.20682446 241.546875 649.82421875 C239.29318009 649.22628963 237.04368569 648.61968538 234.79980469 647.98583984 C232.61005217 647.37101372 230.41290182 646.79585544 228.2109375 646.2265625 C227.54516693 646.02890289 226.87939636 645.83124329 226.19345093 645.62759399 C223.49185849 644.95767455 221.42001204 644.60947811 218.90837097 645.94850159 C216.33881702 647.98583943 214.8281792 649.40277699 214.06640625 652.63671875 C214.12699219 653.64347656 214.18757812 654.65023437 214.25 655.6875 C214.30027344 656.89664063 214.35054687 658.10578125 214.40234375 659.3515625 C214.44601074 660.05958008 214.48967773 660.76759766 214.53466797 661.49707031 C214.78959574 665.67202158 214.97467667 669.84984354 215.15600586 674.02856445 C215.25929657 676.36106534 215.37572782 678.6930261 215.50610352 681.02416992 C215.55822998 682.11060791 215.61035645 683.1970459 215.6640625 684.31640625 C215.74261475 685.77735718 215.74261475 685.77735718 215.82275391 687.26782227 C215.60881084 691.58954945 214.48786057 694.19963943 211.4375 697.25 C208.17549492 699.32582142 206.57228667 700 202.6875 700 C196.99579266 698.18860072 191.59878001 695.51272522 186.234375 692.9140625 C185.120625 692.37652344 184.006875 691.83898437 182.859375 691.28515625 C180.5562369 690.16776619 178.25941068 689.03728202 175.96875 687.89453125 C174.86015625 687.36472656 173.7515625 686.83492187 172.609375 686.2890625 C171.61518555 685.80131348 170.62099609 685.31356445 169.59667969 684.81103516 C165.90526045 683.78192348 164.17192911 684.54136055 160.6875 686 C159.35838318 686.34976758 158.02667261 686.69096017 156.6875 687 C156.63706543 687.63381592 156.58663086 688.26763184 156.53466797 688.9206543 C155.88509128 696.59214122 154.91350502 704.19371333 153.8125 711.8125 C153.65136719 713.00037109 153.49023438 714.18824219 153.32421875 715.41210938 C151.72661249 726.45293093 151.72661249 726.45293093 148.6875 731 C144.73896095 733.84662118 141.73517738 734.36537685 136.93286133 733.66674805 C132.44371711 732.33372066 129.00582061 729.29842495 125.375 726.4375 C124.53904297 725.80577881 123.70308594 725.17405762 122.84179688 724.52319336 C119.29719928 721.83965249 115.79829619 719.11806426 112.39453125 716.2578125 C107.59225863 712.36332879 104.81967227 710.47936794 98.5 711 C96.88720726 711.28872373 95.27791388 711.60624183 93.6875 712 C93.57051758 712.84691406 93.45353516 713.69382812 93.33300781 714.56640625 C92.2685761 720.2283456 90.16008996 725.54382197 88.18701172 730.94042969 C87.44122524 732.98976349 86.71453426 735.04523882 85.98828125 737.1015625 C85.50897229 738.42229648 85.02853986 739.74262338 84.546875 741.0625 C83.90443848 742.84333984 83.90443848 742.84333984 83.24902344 744.66015625 C81.27294771 748.88665968 78.91102564 753.06418573 74.44140625 754.9453125 C73.71824219 755.00460937 72.99507813 755.06390625 72.25 755.125 C71.16912109 755.25261719 71.16912109 755.25261719 70.06640625 755.3828125 C63.27013331 754.28915938 58.64573015 748.06160289 54.25 743.25 C53.62029297 742.57195313 52.99058594 741.89390625 52.34179688 741.1953125 C48.53523458 737.07968708 44.8173573 732.89368998 41.14819336 728.65527344 C38.5022119 725.65681876 37.10969543 724.4982799 33.109375 723.99609375 C30.34260233 723.91493255 30.34260233 723.91493255 27.6875 725 C23.94797413 729.22313966 21.51371816 734.07292805 18.9375 739.0625 C17.51872646 741.70663608 16.0811666 744.34032749 14.640625 746.97265625 C14.29897812 747.60145691 13.95733124 748.23025757 13.60533142 748.87811279 C7.6106068 759.76163948 7.6106068 759.76163948 2.30859375 762.0078125 C1.22771484 762.06582031 1.22771484 762.06582031 0.125 762.125 C-0.59816406 762.18945312 -1.32132812 762.25390625 -2.06640625 762.3203125 C-5.90465918 761.77294426 -8.56793296 759.85189661 -11.0925293 756.96337891 C-14.23033402 752.35083934 -17.08298124 747.69913903 -19.70703125 742.7734375 C-20.27099609 741.72285156 -20.83496094 740.67226563 -21.41601562 739.58984375 C-22.56902532 737.42086779 -23.69617851 735.23797488 -24.79882812 733.04296875 C-27.67887232 727.36502132 -27.67887232 727.36502132 -32.8425293 724.17089844 C-36.75033429 724.02298703 -39.41848233 724.47062891 -42.79296875 726.46875 C-43.35628906 727.1390625 -43.91960937 727.809375 -44.5 728.5 C-45.14710938 729.23734375 -45.79421875 729.9746875 -46.4609375 730.734375 C-47.37746094 731.85585937 -47.37746094 731.85585937 -48.3125 733 C-49.41443701 734.25196599 -50.51857696 735.50199676 -51.625 736.75 C-52.18445313 737.39710938 -52.74390625 738.04421875 -53.3203125 738.7109375 C-55.85446549 741.62272897 -58.41609216 744.50732027 -61 747.375 C-61.4638208 747.89932617 -61.9276416 748.42365234 -62.40551758 748.96386719 C-65.49270301 752.37171976 -67.81771256 754.78577854 -72.49609375 755.1875 C-73.23988281 755.125625 -73.98367188 755.06375 -74.75 755 C-75.49121094 754.95875 -76.23242188 754.9175 -76.99609375 754.875 C-80.93175351 753.38834269 -83.36249587 749.88518675 -85.21620178 746.20669556 C-86.01512955 744.25548803 -86.73403827 742.2924765 -87.42578125 740.30078125 C-87.68505905 739.58391647 -87.94433685 738.8670517 -88.21147156 738.12846375 C-88.75241807 736.62542724 -89.28740904 735.12023499 -89.81665039 733.61303711 C-90.62797367 731.30403702 -91.45784503 729.00236801 -92.29101562 726.70117188 C-92.81619115 725.23476384 -93.34031735 723.76797948 -93.86328125 722.30078125 C-94.11008133 721.61325272 -94.35688141 720.92572418 -94.61116028 720.21736145 C-95.61754196 717.33849979 -96.3125 715.07455582 -96.3125 712 C-100.98903134 710.9956036 -105.33088072 710.13130803 -109.82421875 712.10107422 C-112.27448608 713.76382891 -114.54059934 715.53850933 -116.8125 717.4375 C-117.63274658 718.07969482 -118.45299316 718.72188965 -119.2980957 719.38354492 C-121.65657081 721.23178981 -123.98638241 723.11130331 -126.3125 725 C-138.06606754 734.36846267 -138.06606754 734.36846267 -145.3125 734 C-149.18608135 732.75753051 -150.7991171 731.85849161 -152.89379883 728.35571289 C-154.43265101 724.71580182 -155.15937198 721.25344471 -155.69921875 717.37109375 C-155.80595413 716.65897232 -155.91268951 715.94685089 -156.0226593 715.21315002 C-156.24493799 713.71710771 -156.46232989 712.22033189 -156.67504883 710.72290039 C-156.99975935 708.43919254 -157.3393601 706.1580872 -157.68164062 703.87695312 C-157.89670397 702.41679464 -158.11092551 700.95651186 -158.32421875 699.49609375 C-158.42417648 698.81888779 -158.52413422 698.14168182 -158.62712097 697.44395447 C-159.12225961 693.93419719 -159.42027433 690.54462522 -159.3125 687 C-161.30791868 686.31974363 -163.30867991 685.65509503 -165.3125 685 C-166.18201294 684.62222412 -166.18201294 684.62222412 -167.0690918 684.23681641 C-170.62625414 683.8613188 -173.35860898 685.59237906 -176.45703125 687.1484375 C-177.14504318 687.48042145 -177.83305511 687.8124054 -178.54191589 688.15444946 C-180.74188483 689.21686004 -182.93397251 690.29428237 -185.125 691.375 C-187.30563317 692.44783004 -189.48773792 693.51683187 -191.6759491 694.5741272 C-193.03618457 695.23151734 -194.39221727 695.89770176 -195.74311829 696.57406616 C-199.93516414 698.60225941 -203.66091832 699.69989796 -208.3125 700 C-211.99748748 698.58269712 -214.78087967 697.03137109 -217.3125 694 C-219.01360156 687.85665176 -218.2749553 681.09551874 -217.875 674.8125 C-217.78112134 672.96491589 -217.68867729 671.11725834 -217.59765625 669.26953125 C-217.43264575 666.07568692 -217.23208242 662.88848036 -216.99609375 659.69921875 C-216.93550781 658.47847656 -216.87492188 657.25773438 -216.8125 656 C-216.7403125 654.948125 -216.668125 653.89625 -216.59375 652.8125 C-217.54630272 649.08511979 -219.15432507 648.03100605 -222.26501465 645.92443848 C-225.85342884 644.3042715 -229.05437664 645.4101832 -232.625 646.515625 C-233.39755127 646.72483582 -234.17010254 646.93404663 -234.96606445 647.14959717 C-237.42434953 647.81992003 -239.86775475 648.53200677 -242.3125 649.25 C-244.75840397 649.94710675 -247.20625473 650.63467324 -249.65893555 651.30755615 C-251.18039719 651.72711241 -252.69788962 652.16143962 -254.21020508 652.612854 C-258.90503489 653.93457954 -262.456021 654.13448071 -267.3125 653 C-270.23496869 651.18157504 -271.89709724 649.67974996 -273.6875 646.75 C-275.08274052 640.6109417 -272.95253566 634.14448241 -271.2890625 628.2109375 C-270.90339301 626.76082932 -270.51932446 625.31029456 -270.13671875 623.859375 C-269.53878963 621.60568009 -268.93218538 619.35618569 -268.29833984 617.11230469 C-267.68351372 614.92255217 -267.10835544 612.72540182 -266.5390625 610.5234375 C-266.34140289 609.85766693 -266.14374329 609.19189636 -265.94009399 608.50595093 C-265.27017455 605.80435849 -264.92197811 603.73251204 -266.26100159 601.22087097 C-268.29833943 598.65131702 -269.71527699 597.1406792 -272.94921875 596.37890625 C-273.95597656 596.43949219 -274.96273437 596.50007812 -276 596.5625 C-277.81371094 596.63791016 -277.81371094 596.63791016 -279.6640625 596.71484375 C-280.37208008 596.75851074 -281.08009766 596.80217773 -281.80957031 596.84716797 C-285.98452158 597.10209574 -290.16234354 597.28717667 -294.34106445 597.46850586 C-296.67356534 597.57179657 -299.0055261 597.68822782 -301.33666992 597.81860352 C-302.42310791 597.87072998 -303.5095459 597.92285645 -304.62890625 597.9765625 C-305.60287354 598.02893066 -306.57684082 598.08129883 -307.58032227 598.13525391 C-311.90204945 597.92131084 -314.51213943 596.80036057 -317.5625 593.75 C-319.63832142 590.48799492 -320.3125 588.88478667 -320.3125 585 C-318.50110072 579.30829266 -315.82522522 573.91128001 -313.2265625 568.546875 C-312.42025391 566.87625 -312.42025391 566.87625 -311.59765625 565.171875 C-310.48026619 562.8687369 -309.34978202 560.57191068 -308.20703125 558.28125 C-307.67722656 557.17265625 -307.14742188 556.0640625 -306.6015625 554.921875 C-306.11381348 553.92768555 -305.62606445 552.93349609 -305.12353516 551.90917969 C-304.09442348 548.21776045 -304.85386055 546.48442911 -306.3125 543 C-306.66226758 541.67088318 -307.00346017 540.33917261 -307.3125 539 C-308.26322388 538.92434814 -308.26322388 538.92434814 -309.2331543 538.84716797 C-316.90464122 538.19759128 -324.50621333 537.22600502 -332.125 536.125 C-333.31287109 535.96386719 -334.50074219 535.80273438 -335.72460938 535.63671875 C-346.76543093 534.03911249 -346.76543093 534.03911249 -351.3125 531 C-354.15912118 527.05146095 -354.67787685 524.04767738 -353.97924805 519.24536133 C-352.64622066 514.75621711 -349.61092495 511.31832061 -346.75 507.6875 C-346.11827881 506.85154297 -345.48655762 506.01558594 -344.83569336 505.15429688 C-342.15215249 501.60969928 -339.43056426 498.11079619 -336.5703125 494.70703125 C-332.67582879 489.90475863 -330.79186794 487.13217227 -331.3125 480.8125 C-331.60122373 479.19970726 -331.91874183 477.59041388 -332.3125 476 C-333.15941406 475.88301758 -334.00632812 475.76603516 -334.87890625 475.64550781 C-340.5408456 474.5810761 -345.85632197 472.47258996 -351.25292969 470.49951172 C-353.30226349 469.75372524 -355.35773882 469.02703426 -357.4140625 468.30078125 C-358.73479648 467.82147229 -360.05512338 467.34103986 -361.375 466.859375 C-363.15583984 466.21693848 -363.15583984 466.21693848 -364.97265625 465.56152344 C-369.19915968 463.58544771 -373.37668573 461.22352564 -375.2578125 456.75390625 C-375.31710937 456.03074219 -375.37640625 455.30757813 -375.4375 454.5625 C-375.56511719 453.48162109 -375.56511719 453.48162109 -375.6953125 452.37890625 C-374.60165938 445.58263331 -368.37410289 440.95823015 -363.5625 436.5625 C-362.88445312 435.93279297 -362.20640625 435.30308594 -361.5078125 434.65429688 C-357.39218708 430.84773458 -353.20618998 427.1298573 -348.96777344 423.46069336 C-345.96931876 420.8147119 -344.8107799 419.42219543 -344.30859375 415.421875 C-344.22743255 412.65510233 -344.22743255 412.65510233 -345.3125 410 C-349.53563966 406.26047413 -354.38542805 403.82621816 -359.375 401.25 C-362.01913608 399.83122646 -364.65282749 398.3936666 -367.28515625 396.953125 C-367.91395691 396.61147812 -368.54275757 396.26983124 -369.19061279 395.91783142 C-380.07413948 389.9231068 -380.07413948 389.9231068 -382.3203125 384.62109375 C-382.37832031 383.54021484 -382.37832031 383.54021484 -382.4375 382.4375 C-382.50195312 381.71433594 -382.56640625 380.99117188 -382.6328125 380.24609375 C-382.08544426 376.40784082 -380.16439661 373.74456704 -377.27587891 371.2199707 C-372.66333934 368.08216598 -368.01163903 365.22951876 -363.0859375 362.60546875 C-362.03535156 362.04150391 -360.98476563 361.47753906 -359.90234375 360.89648438 C-357.73336779 359.74347468 -355.55047488 358.61632149 -353.35546875 357.51367188 C-347.67752132 354.63362768 -347.67752132 354.63362768 -344.48339844 349.4699707 C-344.33548703 345.56216571 -344.78312891 342.89401767 -346.78125 339.51953125 C-347.4515625 338.95621094 -348.121875 338.39289063 -348.8125 337.8125 C-349.91851562 336.84183594 -349.91851562 336.84183594 -351.046875 335.8515625 C-352.16835938 334.93503906 -352.16835938 334.93503906 -353.3125 334 C-354.56446599 332.89806299 -355.81449676 331.79392304 -357.0625 330.6875 C-358.03316406 329.84832031 -358.03316406 329.84832031 -359.0234375 328.9921875 C-361.93522897 326.45803451 -364.81982027 323.89640784 -367.6875 321.3125 C-368.47398926 320.6167688 -368.47398926 320.6167688 -369.27636719 319.90698242 C-372.68421976 316.81979699 -375.09827854 314.49478744 -375.5 309.81640625 C-375.438125 309.07261719 -375.37625 308.32882812 -375.3125 307.5625 C-375.27125 306.82128906 -375.23 306.08007812 -375.1875 305.31640625 C-373.70084269 301.38074649 -370.19768675 298.95000413 -366.51919556 297.09629822 C-364.56798803 296.29737045 -362.6049765 295.57846173 -360.61328125 294.88671875 C-359.89641647 294.62744095 -359.1795517 294.36816315 -358.44096375 294.10102844 C-356.93792724 293.56008193 -355.43273499 293.02509096 -353.92553711 292.49584961 C-351.61653702 291.68452633 -349.31486801 290.85465497 -347.01367188 290.02148438 C-345.54726384 289.49630885 -344.08047948 288.97218265 -342.61328125 288.44921875 C-341.58198845 288.07901863 -341.58198845 288.07901863 -340.52986145 287.70133972 C-337.65099979 286.69495804 -335.38705582 286 -332.3125 286 C-331.3081036 281.32346866 -330.44380803 276.98161928 -332.41357422 272.48828125 C-334.07632891 270.03801392 -335.85100933 267.77190066 -337.75 265.5 C-338.39219482 264.67975342 -339.03438965 263.85950684 -339.69604492 263.0144043 C-341.54428981 260.65592919 -343.42380331 258.32611759 -345.3125 256 C-354.68096267 244.24643246 -354.68096267 244.24643246 -354.3125 237 C-353.07003051 233.12641865 -352.17099161 231.5133829 -348.66821289 229.41870117 C-345.02830182 227.87984899 -341.56594471 227.15312802 -337.68359375 226.61328125 C-336.61541161 226.45317818 -336.61541161 226.45317818 -335.52565002 226.2898407 C-334.02960771 226.06756201 -332.53283189 225.85017011 -331.03540039 225.63745117 C-328.75169254 225.31274065 -326.4705872 224.9731399 -324.18945312 224.63085938 C-322.72929464 224.41579603 -321.26901186 224.20157449 -319.80859375 223.98828125 C-319.13138779 223.88832352 -318.45418182 223.78836578 -317.75645447 223.68537903 C-314.24669719 223.19024039 -310.85712522 222.89222567 -307.3125 223 C-306.63224363 221.00458132 -305.96759503 219.00382009 -305.3125 217 C-305.07112305 216.40155273 -304.82974609 215.80310547 -304.58105469 215.18652344 C-304.17175097 211.854047 -305.50900223 209.76171942 -306.953125 206.765625 C-307.23597351 206.16876892 -307.51882202 205.57191284 -307.8102417 204.95697021 C-308.71668715 203.0491717 -309.6387778 201.14948508 -310.5625 199.25 C-321.33824633 176.82402071 -321.33824633 176.82402071 -319.3125 171 C-315.94735881 165.42648491 -315.94735881 165.42648491 -312.40893555 164.50341797 C-306.58704842 163.96458726 -300.95496791 164.06638435 -295.125 164.4375 C-293.27741589 164.53137866 -291.42975834 164.62382271 -289.58203125 164.71484375 C-286.38818692 164.87985425 -283.20098036 165.08041758 -280.01171875 165.31640625 C-278.79097656 165.37699219 -277.57023437 165.43757812 -276.3125 165.5 C-275.260625 165.5721875 -274.20875 165.644375 -273.125 165.71875 C-269.39761979 164.76619728 -268.34350605 163.15817493 -266.23693848 160.04748535 C-264.6167715 156.45907116 -265.7226832 153.25812336 -266.828125 149.6875 C-267.14194122 148.5286731 -267.14194122 148.5286731 -267.46209717 147.34643555 C-268.13242003 144.88815047 -268.84450677 142.44474525 -269.5625 140 C-270.25960675 137.55409603 -270.94717324 135.10624527 -271.62005615 132.65356445 C-272.03961241 131.13210281 -272.47393962 129.61461038 -272.925354 128.10229492 C-274.24707954 123.40746511 -274.44698071 119.856479 -273.3125 115 C-271.49407504 112.07753131 -269.99224996 110.41540276 -267.0625 108.625 C-260.9234417 107.22975948 -254.45698241 109.35996434 -248.5234375 111.0234375 C-247.07332932 111.40910699 -245.62279456 111.79317554 -244.171875 112.17578125 C-241.91818009 112.77371037 -239.66868569 113.38031462 -237.42480469 114.01416016 C-235.23505217 114.62898628 -233.03790182 115.20414456 -230.8359375 115.7734375 C-230.17016693 115.97109711 -229.50439636 116.16875671 -228.81845093 116.37240601 C-226.11685849 117.04232545 -224.04501204 117.39052189 -221.53337097 116.05149841 C-218.96381702 114.01416057 -217.4531792 112.59722301 -216.69140625 109.36328125 C-216.75199219 108.35652344 -216.81257812 107.34976563 -216.875 106.3125 C-216.92527344 105.10335937 -216.97554687 103.89421875 -217.02734375 102.6484375 C-217.09284424 101.58641113 -217.09284424 101.58641113 -217.15966797 100.50292969 C-217.41459574 96.32797842 -217.59967667 92.15015646 -217.78100586 87.97143555 C-217.88429657 85.63893466 -218.00072782 83.3069739 -218.13110352 80.97583008 C-218.18322998 79.88939209 -218.23535645 78.8029541 -218.2890625 77.68359375 C-218.34143066 76.70962646 -218.39379883 75.73565918 -218.44775391 74.73217773 C-218.23381084 70.41045055 -217.11286057 67.80036057 -214.0625 64.75 C-210.80049492 62.67417858 -209.19728667 62 -205.3125 62 C-199.62079266 63.81139928 -194.22378001 66.48727478 -188.859375 69.0859375 C-187.745625 69.62347656 -186.631875 70.16101563 -185.484375 70.71484375 C-183.1812369 71.83223381 -180.88441068 72.96271798 -178.59375 74.10546875 C-177.48515625 74.63527344 -176.3765625 75.16507812 -175.234375 75.7109375 C-174.24018555 76.19868652 -173.24599609 76.68643555 -172.22167969 77.18896484 C-168.53026045 78.21807652 -166.79692911 77.45863945 -163.3125 76 C-161.98338318 75.65023242 -160.65167261 75.30903983 -159.3125 75 C-159.26206543 74.36618408 -159.21163086 73.73236816 -159.15966797 73.0793457 C-158.51009128 65.40785878 -157.53850502 57.80628667 -156.4375 50.1875 C-156.19580078 48.40569336 -156.19580078 48.40569336 -155.94921875 46.58789062 C-154.35161249 35.54706907 -154.35161249 35.54706907 -151.3125 31 C-147.36396095 28.15337882 -144.36017738 27.63462315 -139.55786133 28.33325195 C-135.06871711 29.66627934 -131.63082061 32.70157505 -128 35.5625 C-127.16404297 36.19422119 -126.32808594 36.82594238 -125.46679688 37.47680664 C-121.92219928 40.16034751 -118.42329619 42.88193574 -115.01953125 45.7421875 C-110.21725863 49.63667121 -107.44467227 51.52063206 -101.125 51 C-99.51220726 50.71127627 -97.90291388 50.39375817 -96.3125 50 C-96.19551758 49.15308594 -96.07853516 48.30617187 -95.95800781 47.43359375 C-94.8935761 41.7716544 -92.78508996 36.45617803 -90.81201172 31.05957031 C-90.06622524 29.01023651 -89.33953426 26.95476118 -88.61328125 24.8984375 C-88.13397229 23.57770352 -87.65353986 22.25737662 -87.171875 20.9375 C-86.52943848 19.15666016 -86.52943848 19.15666016 -85.87402344 17.33984375 C-83.89794771 13.11334032 -81.53602564 8.93581427 -77.06640625 7.0546875 C-76.34324219 6.99539062 -75.62007813 6.93609375 -74.875 6.875 C-73.79412109 6.74738281 -73.79412109 6.74738281 -72.69140625 6.6171875 C-65.89513331 7.71084062 -61.27073015 13.93839711 -56.875 18.75 C-56.24529297 19.42804687 -55.61558594 20.10609375 -54.96679688 20.8046875 C-51.16023458 24.92031292 -47.4423573 29.10631002 -43.77319336 33.34472656 C-41.1272119 36.34318124 -39.73469543 37.5017201 -35.734375 38.00390625 C-32.96760233 38.08506745 -32.96760233 38.08506745 -30.3125 37 C-26.57297413 32.77686034 -24.13871816 27.92707195 -21.5625 22.9375 C-20.14372532 20.29336178 -18.70578451 17.6598831 -17.265625 15.02734375 C-16.92511108 14.39863373 -16.58459717 13.76992371 -16.23376465 13.12216187 C-8.75834577 -0.48405365 -8.75834577 -0.48405365 0 0 Z M-19.3125 79 C-22.5914426 84.50016179 -23.16803266 89.74576123 -22.3125 96 C-20.40632168 102.66562984 -15.86804127 107.06434962 -10.3125 111 C-4.82944869 112.82768377 1.61803635 113.16358753 7.078125 111.09375 C12.30330786 107.98257242 15.9377913 103.99950062 19 98.75 C20.66650574 92.08397705 20.47256153 85.8478636 17.01953125 79.8203125 C13.33923303 74.79093135 8.86307263 71.26032094 2.6875 70 C-6.35787554 69.28211305 -13.18676659 72.28860215 -19.3125 79 Z M-63.4453125 109.06640625 C-64.40614746 109.30085449 -65.36698242 109.53530273 -66.35693359 109.77685547 C-67.37352051 110.03611816 -68.39010742 110.29538086 -69.4375 110.5625 C-70.4992041 110.8320752 -71.5609082 111.10165039 -72.65478516 111.37939453 C-102.1592101 119.06527298 -132.68697927 131.88174123 -157.3125 150 C-158.8381585 151.09428441 -160.36424043 152.18797859 -161.890625 153.28125 C-170.45886219 159.46342758 -178.62822329 165.74099815 -186.3125 173 C-187.62044571 174.13029167 -188.93286248 175.25543311 -190.25 176.375 C-193.73733381 179.41120028 -197.03563898 182.61544912 -200.3125 185.875 C-200.80613037 186.36403809 -201.29976074 186.85307617 -201.80834961 187.35693359 C-204.24605348 189.33561459 -204.24605348 189.33561459 -205.3125 192 C-204.67667728 192.00135653 -204.04085456 192.00271306 -203.38576448 192.00411069 C-165.66587356 192.08483588 -127.94602027 192.17582114 -90.22618672 192.28005161 C-85.69278353 192.29256984 -81.15938012 192.30500271 -76.62597656 192.31738281 C-75.72349263 192.31984881 -74.8210087 192.3223148 -73.89117678 192.32485552 C-59.2959947 192.36453281 -44.70080493 192.39730237 -30.10560052 192.42749982 C-15.11928541 192.45866096 -0.13300284 192.49729017 14.85327566 192.54279006 C24.09371084 192.57061146 33.33412234 192.59267188 42.57458805 192.60726251 C48.91906141 192.61783953 55.2634888 192.6356986 61.60792746 192.65916704 C65.26325569 192.6724769 68.91851977 192.68268838 72.57387352 192.68421364 C76.54960619 192.68595719 80.525193 192.70309341 84.50088501 192.7215271 C86.20815134 192.718625 86.20815134 192.718625 87.9499079 192.71566427 C117.30972003 192.9179874 143.75667511 204.15852031 165.06640625 224.29296875 C177.08041868 236.70088323 186.3375239 252.22495405 190.6875 269 C191.02201172 270.22589844 191.02201172 270.22589844 191.36328125 271.4765625 C196.23090557 292.86761905 191.84559114 314.44010652 180.6875 333 C177.61288634 337.71217964 174.49705966 342.24105739 170.453125 346.171875 C168.45593193 347.81617363 168.45593193 347.81617363 168.6875 350 C168.1203125 350.24492187 167.553125 350.48984375 166.96875 350.7421875 C164.28691713 352.22086932 162.40016982 354.00821254 160.1875 356.125 C154.75125493 361.13121375 148.93343622 365.06141135 142.6875 369 C144.24338961 372.84552261 146.66845341 375.02073958 149.6875 377.8125 C164.83554848 392.46003474 174.08386676 412.72451031 179.4453125 432.84375 C182.06824616 442.61191673 186.89629728 449.80735064 195.6875 455 C203.60724978 459.49953926 211.71864084 460.22006288 220.6875 459 C229.32452887 456.20653809 235.44376817 451.79546754 239.859375 443.90625 C244.3372768 434.69085789 244.98546937 425.03482763 245.25 414.9375 C245.30961398 412.88398873 245.37318774 410.83058719 245.44140625 408.77734375 C245.46533447 407.88265381 245.4892627 406.98796387 245.51391602 406.06616211 C245.6875 404 245.6875 404 246.6875 403 C248.90437994 402.84126045 251.12605298 402.74866163 253.34765625 402.68359375 C254.01212265 402.66281265 254.67658905 402.64203156 255.3611908 402.62062073 C257.49068543 402.55506342 259.62030668 402.49621215 261.75 402.4375 C263.19076847 402.39432061 264.63152399 402.35070651 266.07226562 402.30664062 C269.6105404 402.19937607 273.14895869 402.09812629 276.6875 402 C276.73741844 395.97177295 276.77346198 389.94366966 276.79736328 383.9152832 C276.80734099 381.87001445 276.82092795 379.82475966 276.83837891 377.77954102 C276.89320838 371.18226559 276.84918385 364.59551894 276.6875 358 C276.67437271 356.92904587 276.67437271 356.92904587 276.66098022 355.8364563 C276.57490504 351.94733421 276.29200339 348.56591403 274.6875 345 C271.41842631 341.98038434 267.84755243 340.46286823 263.75 338.8125 C261.56285958 337.83022088 259.37667276 336.84581594 257.19140625 335.859375 C256.09715332 335.38435547 255.00290039 334.90933594 253.87548828 334.41992188 C249.20139108 332.33809086 244.69773161 329.97443983 240.1875 327.5625 C239.44250244 327.17360596 238.69750488 326.78471191 237.92993164 326.3840332 C223.22883575 318.65180131 223.22883575 318.65180131 220.6875 313.375 C220.295625 312.61960937 219.90375 311.86421875 219.5 311.0859375 C217.04763182 301.77165451 219.02752037 294.70150371 223.375 286.375 C224.09864746 284.9202124 224.09864746 284.9202124 224.83691406 283.43603516 C227.58550047 277.95198417 230.45943439 272.53650318 233.34765625 267.125 C233.94553955 265.99787598 234.54342285 264.87075195 235.15942383 263.70947266 C236.32764504 261.51867693 237.51068308 259.33570592 238.7097168 257.16162109 C239.2437915 256.16727051 239.77786621 255.17291992 240.328125 254.1484375 C240.80797852 253.27364746 241.28783203 252.39885742 241.78222656 251.49755859 C242.87337078 248.48720117 242.65622728 247.02192429 241.6875 244 C240.27314458 241.44273111 238.82951573 239.01261496 237.25 236.5625 C236.80479004 235.86237793 236.35958008 235.16225586 235.90087891 234.44091797 C229.09945803 223.84791414 221.73976431 213.6801589 213.6875 204 C213.06633301 203.24348145 213.06633301 203.24348145 212.43261719 202.47167969 C201.12855666 188.74122183 188.8178717 175.84642077 174.6875 165 C173.42504054 163.99832869 172.16338173 162.99564778 170.90234375 161.9921875 C137.84956351 135.92315875 97.39937857 115.37654547 55.6875 108 C54.73746094 107.81872559 53.78742188 107.63745117 52.80859375 107.45068359 C47.73605993 108.34345589 45.11298511 111.87904007 41.65625 115.515625 C40.90210815 116.28299988 40.14796631 117.05037476 39.37097168 117.84100342 C36.96188512 120.29689559 34.57398323 122.77215433 32.1875 125.25 C29.79773577 127.71006558 27.40370532 130.16575276 25.00402832 132.6161499 C23.51269268 134.14122202 22.02759268 135.67242416 20.54968262 137.21051025 C14.69722188 143.2307233 9.29137617 147.99699804 0.6875 149 C-10.23916923 149 -16.80306089 143.34099338 -24.3125 136 C-26.62746092 133.68286434 -28.91764937 131.34228241 -31.203125 128.99609375 C-31.80201538 128.38246979 -32.40090576 127.76884583 -33.01794434 127.1366272 C-35.50232172 124.58836653 -37.98600546 122.04006979 -40.44628906 119.46850586 C-42.26822153 117.56800908 -44.10858995 115.68712632 -45.953125 113.80859375 C-46.50325256 113.22436142 -47.05338013 112.64012909 -47.62017822 112.03819275 C-50.17200041 109.46857587 -51.75064967 108.07846823 -55.38916016 107.5703125 C-58.11931837 107.97160517 -60.7646577 108.41167353 -63.4453125 109.06640625 Z M-293.8359375 278.04296875 C-297.7131357 283.18179494 -298.99782876 288.60359819 -298.3125 295 C-296.91547657 302.43576986 -292.36052026 306.74811998 -286.3125 311 C-280.94719245 313.39522658 -275.94201079 313.49926834 -270.3125 312 C-263.59118434 308.92434496 -259.23137654 304.69438637 -256.4375 297.8125 C-254.44055846 291.26515069 -255.9306141 285.6157126 -259.0625 279.6875 C-264.1341287 273.62972128 -268.78014727 270.41966229 -276.6875 269.6875 C-283.94734565 270.31334876 -288.87139057 272.65904228 -293.8359375 278.04296875 Z M258.3125 277.1875 C254.76731362 281.84179497 252.52056589 286.65120067 252.81640625 292.5859375 C253.89581922 299.06241531 256.18932497 303.57121872 260.9375 308.1875 C266.67277958 311.96757063 271.63831727 313.69026608 278.5234375 312.56640625 C285.26344868 310.8023239 289.80236283 306.68496109 293.6875 301 C296.2770006 295.35018051 296.4750651 289.91564025 294.625 284 C292.1249104 277.98342924 287.70407076 273.5625896 281.6875 271.0625 C272.9123338 268.3676313 264.61965151 270.45778499 258.3125 277.1875 Z M-228.3125 280 C-226.92371709 284.16634874 -225.65339996 287.38790973 -223.6875 291.1875 C-220.62959642 297.90396678 -220.03602343 303.58339105 -222.09375 310.703125 C-226.41465537 321.01157066 -236.6748548 324.21905918 -246.1875 328.72265625 C-248.95098436 330.04936787 -251.7129735 331.37912549 -254.47412109 332.71069336 C-256.37324881 333.61517213 -258.28000869 334.50378955 -260.19384766 335.37670898 C-270.97581358 339.85281115 -270.97581358 339.85281115 -278.99291992 347.79711914 C-279.6422564 351.32912912 -279.5295235 354.41192311 -279.3125 358 C-279.34208585 359.6522871 -279.38840738 361.30432456 -279.44775391 362.95581055 C-279.63842439 368.74308264 -279.64670706 374.52257645 -279.625 380.3125 C-279.62284485 381.33944977 -279.6206897 382.36639954 -279.61846924 383.42446899 C-279.53229969 408.96328004 -277.90654391 436.01489022 -268.3125 460 C-240.2625 460 -212.2125 460 -183.3125 460 C-183.3125 400.6 -183.3125 341.2 -183.3125 280 C-198.1625 280 -213.0125 280 -228.3125 280 Z M-58.3125 280 C-58.3125 296.5 -58.3125 313 -58.3125 330 C-41.59181189 330.0873918 -41.59181189 330.0873918 -24.87109375 330.14648438 C-18.04208298 330.16435322 -11.21319395 330.18539353 -4.38427734 330.22631836 C1.12707724 330.25913701 6.6383011 330.27690012 12.14974594 330.28463173 C14.24267507 330.2901351 16.3355978 330.30088072 18.42847061 330.31719017 C42.68871372 330.75450253 42.68871372 330.75450253 63.78515625 320.109375 C68.27166414 315.28200306 70.32922545 311.22447099 71.0625 304.625 C70.30208062 297.27427935 66.83009122 292.24227502 61.1640625 287.60546875 C51.22753074 281.16396314 40.52751181 279.83943076 28.98852539 279.88647461 C28.04140686 279.88632858 27.09428833 279.88618256 26.11846924 279.8860321 C23.00734111 279.8867253 19.89627385 279.89448985 16.78515625 279.90234375 C14.62039726 279.90421004 12.45563786 279.90563295 10.2908783 279.90663147 C4.60768456 279.91044006 -1.0754834 279.92025615 -6.75866699 279.93133545 C-13.58529376 279.94338904 -20.41192916 279.94795971 -27.23856354 279.95378876 C-37.59656025 279.96346882 -47.95450048 279.98263699 -58.3125 280 Z M-58.3125 410 C-58.3125 426.5 -58.3125 443 -58.3125 460 C-26.6325 460.495 -26.6325 460.495 5.6875 461 C5.72760881 482.17299479 5.72760881 482.17299479 5.73632812 491.16601562 C5.74231671 497.31356667 5.7494174 503.46110289 5.76293945 509.60864258 C5.77376787 514.5623141 5.77977674 519.51596974 5.78237724 524.46965218 C5.78423157 526.36397616 5.78785234 528.25829924 5.79323006 530.1526165 C5.80043989 532.79634386 5.80149097 535.44000471 5.80102539 538.08374023 C5.80462067 538.87495773 5.80821594 539.66617523 5.81192017 540.48136902 C5.80155216 545.88594784 5.80155216 545.88594784 4.6875 547 C1.75477266 547.11039315 -1.15490847 547.1549733 -4.08851624 547.15821838 C-5.0204206 547.16315636 -5.95232496 547.16809434 -6.91246885 547.17318195 C-10.06021496 547.18863823 -13.20794056 547.19693945 -16.35571289 547.20532227 C-18.60213911 547.21489441 -20.8485635 547.22490409 -23.09498596 547.23532104 C-29.21455466 547.26244811 -35.33413113 547.28341529 -41.45372701 547.30332303 C-47.8412718 547.32513464 -54.22879243 547.35254685 -60.61631775 547.37937927 C-71.34421811 547.42368387 -82.07212529 547.464508 -92.80004883 547.50268555 C-103.85181649 547.54202504 -114.90357308 547.58344753 -125.95532227 547.62768555 C-126.63609453 547.63040982 -127.3168668 547.63313409 -128.01826853 547.63594092 C-131.43336628 547.64962014 -134.84846387 547.66334046 -138.26356137 547.67708123 C-166.61318451 547.7910937 -194.96283191 547.89781867 -223.3125 548 C-222.70204834 549.09562256 -222.09159668 550.19124512 -221.46264648 551.32006836 C-221.11926743 551.93635605 -220.77588837 552.55264374 -220.42210388 553.18760681 C-218.72727325 555.95589156 -216.59859971 558.20870493 -214.375 560.5625 C-209.44350378 565.81412426 -209.44350378 565.81412426 -208.12402344 567.6862793 C-206.80651664 569.61898918 -206.80651664 569.61898918 -204.3125 572 C-201.07848556 572.47719424 -201.07848556 572.47719424 -197.4375 571.6875 C-196.38151611 571.52531982 -196.38151611 571.52531982 -195.30419922 571.35986328 C-192.63377695 570.94059542 -189.97466108 570.46890337 -187.3125 570 C-183.40220362 569.34427177 -179.49050273 568.69803653 -175.57763672 568.05786133 C-172.8628116 567.61358023 -170.15167734 567.15247215 -167.44189453 566.6784668 C-145.24513985 562.9230189 -145.24513985 562.9230189 -136.3125 569 C-131.56457767 573.04144811 -129.98577339 577.53324821 -128.84375 583.55859375 C-128.7206546 584.20431335 -128.5975592 584.85003296 -128.47073364 585.51531982 C-126.84479653 594.22629365 -125.52860203 602.99171415 -124.1875 611.75 C-123.7917085 614.3291529 -123.39491075 616.90813068 -122.99490356 619.4866333 C-122.74863124 621.07442021 -122.50476066 622.66258206 -122.26364136 624.25115967 C-121.79484076 627.27614051 -121.28264946 630.08955163 -120.3125 633 C-118.45397216 634.21907258 -118.45397216 634.21907258 -116.09765625 635.19921875 C-115.19724609 635.59987549 -114.29683594 636.00053223 -113.36914062 636.41333008 C-111.88704102 637.04404419 -111.88704102 637.04404419 -110.375 637.6875 C-109.34955078 638.12666748 -108.32410156 638.56583496 -107.26757812 639.01831055 C-88.31975297 646.92516357 -68.49211452 652.33291738 -48.3125 656 C-47.4580127 656.16371094 -46.60352539 656.32742188 -45.72314453 656.49609375 C-16.74259187 661.84057365 16.80988469 661.61085662 45.6875 656 C46.72680664 655.80664062 47.76611328 655.61328125 48.83691406 655.4140625 C65.20382378 652.30113104 80.98792514 647.81494623 96.63330078 642.09960938 C99.49920736 641.06779137 102.38189196 640.11669017 105.27734375 639.171875 C106.91600762 638.5782589 108.5528812 637.97966579 110.1875 637.375 C111.28203491 637.04363037 111.28203491 637.04363037 112.39868164 636.70556641 C114.78711851 635.74531196 116.02039555 634.97881498 117.6875 633 C119.14369349 628.82001137 119.8064986 624.60880847 120.38824463 620.24072266 C120.6959444 617.93677124 121.04465868 615.6421671 121.40380859 613.34570312 C122.29972386 607.57396529 123.16522459 601.79766952 123.98706055 596.01489258 C124.34224194 593.53005789 124.71469951 591.04829502 125.08984375 588.56640625 C125.19103012 587.82354874 125.29221649 587.08069122 125.39646912 586.31532288 C126.40651033 579.78798986 128.52672924 573.62369823 133.5625 569.125 C142.85098013 562.80883351 153.67280979 564.71624477 164.2109375 566.56640625 C165.63474228 566.80302223 165.63474228 566.80302223 167.08731079 567.04441833 C170.08052395 567.54205424 173.07165895 568.05081336 176.0625 568.5625 C180.02702946 569.2405848 183.99325598 569.90704596 187.9609375 570.56640625 C188.86306976 570.72468399 189.76520203 570.88296173 190.69467163 571.04603577 C196.72798784 572.09278405 196.72798784 572.09278405 202.6875 571 C209.66777313 564.92410532 215.40241357 556.58403656 220.6875 549 C220.6875 548.67 220.6875 548.34 220.6875 548 C219.79684688 547.99641747 219.79684688 547.99641747 218.88820076 547.99276257 C204.40565737 547.93349207 189.92326664 547.85786547 175.44090462 547.76428509 C168.43718094 547.71941909 161.43350707 547.67998356 154.4296875 547.65356445 C147.66685705 547.62803885 140.90425848 547.5870726 134.14156723 547.53681374 C131.56531422 547.52016721 128.98902274 547.50863919 126.41272354 547.50238609 C122.79590947 547.49272129 119.17966192 547.4646319 115.56298828 547.43237305 C113.97586281 547.43452568 113.97586281 547.43452568 112.35667419 547.4367218 C101.81885759 547.30435921 92.82913344 544.88666104 84.6875 538 C68.48405904 521.19503919 65.69415667 493.32329269 61.0222168 471.47753906 C54.60507645 441.60539046 54.60507645 441.60539046 36.26953125 418.15234375 C23.15944341 409.8797767 9.7723168 409.84813305 -5.28515625 409.90234375 C-6.81928969 409.90421218 -8.35342373 409.90563407 -9.88755798 409.90663147 C-13.89714243 409.91042324 -17.90668982 409.92022445 -21.91625977 409.93133545 C-26.74221786 409.94343509 -31.56818844 409.94796773 -36.39415741 409.95378876 C-43.70029726 409.96343844 -51.00635604 409.98261821 -58.3125 410 Z M-189.3125 603 C-192.58550764 608.01861171 -193.96051629 613.35097623 -192.91015625 619.265625 C-191.03418608 625.79266913 -187.94086389 630.85877165 -182.015625 634.35546875 C-174.90930047 637.58862572 -169.46693967 637.41250949 -162.1875 634.9375 C-157.21106165 631.58381329 -153.42951894 627.37973601 -150.875 621.9375 C-149.61655968 615.36564498 -150.06852481 609.85526018 -153.3125 604 C-157.32501299 598.68182802 -161.80363083 595.48354102 -168.3125 594 C-176.68424124 592.95353235 -183.76729352 596.98411286 -189.3125 603 Z M152.1640625 602.04296875 C148.2868643 607.18179494 147.00217124 612.60359819 147.6875 619 C149.11614294 625.4868112 152.34097244 630.07299623 157.6875 634 C163.51460949 637.09432274 169.33340741 637.84764394 175.6875 636 C182.40645134 632.90261108 186.76342249 628.70719742 189.5625 621.8125 C191.55944154 615.26515069 190.0693859 609.6157126 186.9375 603.6875 C181.67347816 597.39991836 176.92470765 594.55714975 168.75 593.6875 C161.78144403 594.39857714 156.92252089 596.88254013 152.1640625 602.04296875 Z " fill="#000000" transform="translate(385.3125,3)"/>
</svg>
