<svg width="24" height="24" viewBox="0 0 24 24" fill="none" xmlns="http://www.w3.org/2000/svg">
<path fill-rule="evenodd" clip-rule="evenodd" d="M14.3313 3.09996L11.9464 0.482422L9.56161 3.09996L6.18752 2.02552L5.43096 5.4848L1.97169 6.24135L3.04613 9.61545L0.428589 12.0003L3.04613 14.3851L1.97169 17.7592L5.43096 18.5158L6.18752 21.975L9.56161 20.9006L11.9464 23.5181L14.3313 20.9006L17.7054 21.975L18.4619 18.5158L21.9212 17.7592L20.8468 14.3851L23.4643 12.0003L20.8468 9.61545L21.9212 6.24135L18.4619 5.4848L17.7054 2.02552L14.3313 3.09996ZM11.1917 12.0693C11.1917 11.8717 11.0316 11.7116 10.834 11.7116C10.6364 11.7116 10.4763 11.8717 10.4763 12.0693C10.4763 12.8596 11.1169 13.5003 11.9072 13.5003C12.6975 13.5003 13.3381 12.8596 13.3381 12.0693C13.3381 11.8717 13.178 11.7116 12.9804 11.7116C12.7828 11.7116 12.6227 11.8717 12.6227 12.0693C12.6227 12.4645 12.3023 12.7848 11.9072 12.7848C11.5121 12.7848 11.1917 12.4645 11.1917 12.0693ZM7.43327 11.4265C7.63084 11.4265 7.791 11.2663 7.791 11.0688C7.791 10.6736 8.11133 10.3533 8.50648 10.3533C8.90162 10.3533 9.22195 10.6736 9.22195 11.0688C9.22195 11.2663 9.38211 11.4265 9.57968 11.4265C9.77726 11.4265 9.93742 11.2663 9.93742 11.0688C9.93742 10.2785 9.29676 9.63783 8.50648 9.63783C7.71619 9.63783 7.07553 10.2785 7.07553 11.0688C7.07553 11.2663 7.2357 11.4265 7.43327 11.4265ZM14.664 11.0688C14.664 11.2663 14.5038 11.4265 14.3063 11.4265C14.1087 11.4265 13.9485 11.2663 13.9485 11.0688C13.9485 10.2785 14.5892 9.63783 15.3795 9.63783C16.1698 9.63783 16.8104 10.2785 16.8104 11.0688C16.8104 11.2663 16.6503 11.4265 16.4527 11.4265C16.2551 11.4265 16.0949 11.2663 16.0949 11.0688C16.0949 10.6736 15.7746 10.3533 15.3795 10.3533C14.9843 10.3533 14.664 10.6736 14.664 11.0688Z" fill="#0F111A"/>
</svg>
