<svg width="80" height="80" viewBox="0 0 80 80" fill="none" xmlns="http://www.w3.org/2000/svg">
<path d="M39.8216 1.60693L47.771 10.3321L59.018 6.7506L61.5399 18.2815L73.0708 20.8034L69.4893 32.0504L78.2144 39.9998L69.4893 47.9492L73.0708 59.1962L61.5399 61.7181L59.018 73.249L47.771 69.6675L39.8216 78.3927L31.8721 69.6675L20.6251 73.249L18.1033 61.7181L6.57238 59.1962L10.1538 47.9492L1.42871 39.9998L10.1538 32.0504L6.57238 20.8034L18.1033 18.2815L20.6251 6.7506L31.8721 10.3321L39.8216 1.60693Z" fill="#FF0420"/>
<path fill-rule="evenodd" clip-rule="evenodd" d="M36.1134 39.0381C36.7719 39.0381 37.3058 39.572 37.3058 40.2305C37.3058 41.5477 38.3736 42.6154 39.6907 42.6154C41.0079 42.6154 42.0756 41.5477 42.0756 40.2305C42.0756 39.572 42.6095 39.0381 43.2681 39.0381C43.9266 39.0381 44.4605 39.572 44.4605 40.2305C44.4605 42.8648 42.325 45.0003 39.6907 45.0003C37.0564 45.0003 34.9209 42.8648 34.9209 40.2305C34.9209 39.572 35.4548 39.0381 36.1134 39.0381Z" fill="#FBFCFE"/>
<path d="M28.362 29.3491L29.0515 31.0972C29.6605 32.6415 30.8806 33.863 32.4209 34.4704L34.1752 35.1623L32.4209 35.8542C30.8806 36.4617 29.6605 37.6832 29.0515 39.2275L28.362 40.9755L27.6726 39.2275C27.0636 37.6832 25.8434 36.4617 24.3031 35.8542L22.5488 35.1623L24.3031 34.4704C25.8434 33.863 27.0636 32.6415 27.6726 31.0972L28.362 29.3491Z" fill="#FBFCFE"/>
<path d="M51.3166 29.3491L52.006 31.0972C52.6151 32.6415 53.8352 33.863 55.3755 34.4704L57.1298 35.1623L55.3755 35.8542C53.8352 36.4617 52.6151 37.6832 52.006 39.2275L51.3166 40.9755L50.6272 39.2275C50.0181 37.6832 48.798 36.4617 47.2577 35.8542L45.5034 35.1623L47.2577 34.4704C48.798 33.863 50.0181 32.6415 50.6272 31.0972L51.3166 29.3491Z" fill="#FBFCFE"/>
</svg>
