<svg width="160" height="161" viewBox="0 0 160 161" fill="none" xmlns="http://www.w3.org/2000/svg">
<path d="M79.6427 3.71484L95.5415 21.1651L118.036 14.0022L123.079 37.064L146.141 42.1077L138.978 64.6017L156.428 80.5006L138.978 96.3995L146.141 118.893L123.079 123.937L118.036 146.999L95.5415 139.836L79.6427 157.286L63.7438 139.836L41.2498 146.999L36.2061 123.937L13.1443 118.893L20.3072 96.3995L2.85693 80.5006L20.3072 64.6017L13.1443 42.1077L36.2061 37.064L41.2498 14.0022L63.7438 21.1651L79.6427 3.71484Z" fill="#FF0420"/>
<path fill-rule="evenodd" clip-rule="evenodd" d="M72.2262 78.5742C73.5434 78.5742 74.6111 79.642 74.6111 80.9591C74.6111 83.5934 76.7466 85.7289 79.3809 85.7289C82.0152 85.7289 84.1507 83.5934 84.1507 80.9591C84.1507 79.642 85.2185 78.5742 86.5356 78.5742C87.8528 78.5742 88.9206 79.642 88.9206 80.9591C88.9206 86.2277 84.6495 90.4987 79.3809 90.4987C74.1123 90.4987 69.8413 86.2277 69.8413 80.9591C69.8413 79.642 70.9091 78.5742 72.2262 78.5742Z" fill="#FBFCFE"/>
<path d="M56.7246 59.1953L58.1034 62.6914C59.3215 65.78 61.7618 68.223 64.8423 69.4379L68.351 70.8217L64.8423 72.2055C61.7618 73.4205 59.3215 75.8635 58.1034 78.952L56.7246 82.4481L55.3457 78.952C54.1276 75.8635 51.6873 73.4205 48.6068 72.2055L45.0981 70.8217L48.6068 69.4379C51.6873 68.223 54.1276 65.78 55.3457 62.6914L56.7246 59.1953Z" fill="#FBFCFE"/>
<path d="M102.634 59.1953L104.013 62.6914C105.231 65.78 107.671 68.223 110.752 69.4379L114.26 70.8217L110.752 72.2055C107.671 73.4205 105.231 75.8635 104.013 78.952L102.634 82.4481L101.255 78.952C100.037 75.8635 97.5965 73.4205 94.516 72.2055L91.0073 70.8217L94.516 69.4379C97.5965 68.223 100.037 65.78 101.255 62.6914L102.634 59.1953Z" fill="#FBFCFE"/>
</svg>
