<svg width="56" height="56" viewBox="0 0 56 56" fill="none" xmlns="http://www.w3.org/2000/svg">
<g clip-path="url(#clip0_536_9579)">
<path fill-rule="evenodd" clip-rule="evenodd" d="M16.6903 18.5187C15.7709 19.1945 14.1444 21.0365 13.9794 22.1757C13.8135 23.3155 14.8493 25.5283 15.5394 26.4288C14.8493 25.5283 12.9691 23.9361 11.8054 23.7737C10.6424 23.6107 8.38215 24.6257 7.46274 25.3015C8.38215 24.6257 10.0087 22.7837 10.1743 21.6453C10.3402 20.5055 9.30378 18.2919 8.61373 17.3914C9.30378 18.2919 11.1846 19.8849 12.3483 20.0473C13.5107 20.2095 15.7709 19.1945 16.6903 18.5187Z" fill="#69A0F7"/>
<path d="M31.5 2.5C44.4534 4.35857 56.1765 8.47265 54.9305 15.8682C52.7019 29.0994 3.90398 22.4421 1 37" stroke="#F0F4FF" stroke-linecap="round"/>
<path d="M0.640137 53.4141C0.640137 54.2467 0.684137 55.0539 0.769249 55.8367" stroke="#FEE5FF" stroke-width="0.258757" stroke-linecap="round"/>
<path fill-rule="evenodd" clip-rule="evenodd" d="M28.2869 3.04688V47.8074L46.8057 40.4731C29.7069 28.8749 30.5465 14.8682 30.5465 5.7877L28.2869 3.04688Z" fill="url(#paint0_linear_536_9579)"/>
<path fill-rule="evenodd" clip-rule="evenodd" d="M28.2849 3.04275V47.8033L9.76611 40.469C26.8649 28.8708 25.8499 8.93205 25.8499 -0.148438L28.2849 3.04275Z" fill="url(#paint1_linear_536_9579)"/>
<path fill-rule="evenodd" clip-rule="evenodd" d="M34.3644 41.1493L26.7646 42.1423C18.9252 41.3083 11.0871 40.4587 3.72705 34.9306C3.72705 34.9306 13.6299 32.2174 20.1973 34.3051C26.7646 36.3928 34.3644 41.1493 34.3644 41.1493Z" fill="#787878"/>
<path fill-rule="evenodd" clip-rule="evenodd" d="M7.93471 49.5367C7.80112 49.3829 7.67578 49.2265 7.55895 49.0701C5.77754 46.383 16.9935 42.6663 28.6748 42.0148C40.201 41.3736 50.8014 44.4725 49.907 47.4099C49.8942 47.449 49.8798 47.488 49.8647 47.5271C48.1061 52.2655 39.1078 55.8779 28.2857 55.8779C19.0548 55.8779 11.1505 53.2507 7.93471 49.5367Z" fill="url(#paint2_linear_536_9579)"/>
<path fill-rule="evenodd" clip-rule="evenodd" d="M7.56068 49.0719C6.8065 48.0565 6.39746 46.9653 6.39746 45.8335C6.39746 40.2881 16.2061 35.7852 28.2878 35.7852C40.3691 35.7852 50.1778 40.2881 50.1778 45.8335C50.1778 46.3696 50.086 46.8976 49.909 47.412C50.8031 44.4742 40.203 41.3766 28.6766 42.0183C16.9952 42.6681 5.77954 46.3858 7.56068 49.0719Z" fill="url(#paint3_linear_536_9579)"/>
<path d="M19.3838 39.358C19.3838 39.795 19.0217 40.1519 18.5716 40.1519C18.1216 40.1519 17.7595 39.795 17.7595 39.358C17.7595 38.9211 18.1216 38.5642 18.5716 38.5642C19.0217 38.5642 19.3838 38.9211 19.3838 39.358Z" stroke="#FFCED4" stroke-width="0.151812"/>
<path fill-rule="evenodd" clip-rule="evenodd" d="M33.4276 11.6055C33.4275 13.5855 33.5411 15.559 33.9435 17.5041L33.0319 17.685C32.6172 15.6803 32.4975 13.6463 32.4976 11.6055L33.4276 11.6055Z" fill="#AAC9FD"/>
<path fill-rule="evenodd" clip-rule="evenodd" d="M30.038 13.7383C30.0379 15.2501 30.0621 15.4782 30.356 16.8986L29.4444 17.0795C29.1331 15.5748 29.1078 15.279 29.1079 13.7383L30.038 13.7383Z" fill="#F0F4FF"/>
<path fill-rule="evenodd" clip-rule="evenodd" d="M21.43 20.1035C20.9446 21.7769 20.8442 22.0215 20.0583 23.4981L21.023 23.9951C21.8555 22.4309 21.9789 22.1117 22.4736 20.4062L21.43 20.1035Z" fill="#F0F4FF"/>
<mask id="mask0_536_9579" style="mask-type:alpha" maskUnits="userSpaceOnUse" x="6" y="35" width="45" height="15">
<path fill-rule="evenodd" clip-rule="evenodd" d="M7.56068 49.064C6.8065 48.0487 6.39746 46.9575 6.39746 45.8256C6.39746 40.2803 16.2061 35.7773 28.2878 35.7773C40.3691 35.7773 50.1778 40.2803 50.1778 45.8256C50.1778 46.3618 50.086 46.8898 49.909 47.4042C50.8032 44.4664 40.203 41.3688 28.6766 42.0105C16.9952 42.6603 5.77954 46.378 7.56068 49.064Z" fill="#FF6300"/>
</mask>
<g mask="url(#mask0_536_9579)">
<path d="M3.59651 35.1946C5.94454 40.2344 9.75229 44.7543 15.5926 48.553" stroke="#DFEBD5" stroke-width="0.336218" stroke-linecap="round"/>
<path d="M7.67024 34.2805C10.0183 39.3203 13.826 43.8402 19.6663 47.6389" stroke="#DFEBD5" stroke-width="0.336218" stroke-linecap="round"/>
<path d="M12.4592 36.7783C16.6745 40.4721 22.0139 43.1162 28.9197 44.3009" stroke="#DFEBD5" stroke-width="0.336218" stroke-linecap="round"/>
<path d="M17.5247 35.7545C24.3328 40.3713 32.5476 43.3159 42.723 43.9352" stroke="#B7CED1" stroke-width="0.336218" stroke-linecap="round"/>
<path d="M28.4674 34.5864C34.0881 40.5421 41.4529 45.165 51.2477 47.9356" stroke="#B7CED1" stroke-width="0.336218" stroke-linecap="round"/>
<path d="M35.5587 32.4552C39.4441 39.617 45.363 45.9254 54.1135 51.0491" stroke="#B7CED1" stroke-width="0.336218" stroke-linecap="round"/>
</g>
<path fill-rule="evenodd" clip-rule="evenodd" d="M42.1679 25.9399C42.563 26.3636 43.5924 27.0775 44.1916 27.106C44.7908 27.1346 45.8831 26.5095 46.3153 26.123C45.8831 26.5095 45.1524 27.5223 45.1234 28.1053C45.0982 28.6923 45.731 29.7611 46.126 30.1848C45.731 29.7611 44.7015 29.0471 44.1023 29.0186C43.5068 28.9941 42.4108 29.6151 41.979 30.0013C42.4108 29.6151 43.1453 28.6064 43.1705 28.0193C43.1957 27.4323 42.563 26.3636 42.1679 25.9399Z" fill="#69A0F7"/>
<path fill-rule="evenodd" clip-rule="evenodd" d="M16.7469 4.25C16.7367 5.02487 17.0767 6.66273 17.6387 7.22236C18.2008 7.78267 19.86 8.13849 20.6475 8.13849C19.86 8.13849 18.1914 8.49431 17.6145 9.05461C17.0377 9.61424 16.6544 11.2521 16.6442 12.027C16.6544 11.2521 16.3145 9.61424 15.7531 9.05461C15.191 8.49431 13.5311 8.13849 12.7436 8.13849C13.5311 8.13849 15.2004 7.78267 15.7773 7.22236C16.3534 6.66273 16.7367 5.02487 16.7469 4.25Z" fill="#69A0F7"/>
<path fill-rule="evenodd" clip-rule="evenodd" d="M36.1403 26.0816C35.9401 26.6302 35.7742 27.8797 36.0346 28.4177C36.2948 28.9561 37.3863 29.6223 37.9464 29.8184C37.3863 29.6223 36.111 29.4599 35.5612 29.7148C35.0116 29.9692 34.3312 31.0386 34.131 31.5872C34.3312 31.0386 34.4972 29.7891 34.2373 29.2513C33.977 28.7129 32.885 28.0465 32.3249 27.8505C32.885 28.0465 34.1609 28.2091 34.7107 27.9542C35.2598 27.6996 35.9401 26.6302 36.1403 26.0816Z" fill="#F0F4FF"/>
<path fill-rule="evenodd" clip-rule="evenodd" d="M3.72705 34.9313C10.2986 31.9783 30.2292 29.0722 46.7843 38.0771C47.196 38.3013 47.5582 38.6244 48.0114 39.0858C48.4643 39.5445 48.9119 40.3498 49.1051 40.7121C51.0047 44.2646 50.9259 44.507 50.5127 46.6832C50.1188 43.798 42.7007 39.9667 28.0417 40.4932C18.7823 33.576 11.9957 34.9313 3.72705 34.9313Z" fill="url(#paint4_linear_536_9579)"/>
<path fill-rule="evenodd" clip-rule="evenodd" d="M42.2713 9.45339C41.9876 10.5122 41.8846 12.8825 42.4606 13.8575C43.0374 14.832 45.1914 15.9303 46.2725 16.2199C45.1914 15.9303 42.777 15.8037 41.7902 16.3593C40.8039 16.9157 39.708 19.0199 39.4243 20.0787C39.708 19.0199 39.8117 16.6498 39.2357 15.6748C38.6589 14.7003 36.5046 13.6026 35.4236 13.313C36.5046 13.6026 38.9193 13.7285 39.9061 13.173C40.8924 12.6166 41.9876 10.5122 42.2713 9.45339Z" fill="#69A0F7"/>
</g>
<defs>
<linearGradient id="paint0_linear_536_9579" x1="37.5463" y1="3.04687" x2="37.5463" y2="35.5975" gradientUnits="userSpaceOnUse">
<stop stop-color="#F6C7C7"/>
<stop offset="1" stop-color="#C8D1FF"/>
</linearGradient>
<linearGradient id="paint1_linear_536_9579" x1="16.1726" y1="73.64" x2="52.975" y2="52.3071" gradientUnits="userSpaceOnUse">
<stop offset="0.690949" stop-color="#AAC9FD"/>
<stop offset="0.878762" stop-color="#CEC9EF"/>
</linearGradient>
<linearGradient id="paint2_linear_536_9579" x1="28.6657" y1="41.9297" x2="28.6657" y2="56.2837" gradientUnits="userSpaceOnUse">
<stop stop-color="#E18BDE"/>
<stop offset="1" stop-color="#FF011D"/>
</linearGradient>
<linearGradient id="paint3_linear_536_9579" x1="6.39746" y1="42.4285" x2="28.7484" y2="35.5271" gradientUnits="userSpaceOnUse">
<stop stop-color="#FF6300"/>
<stop offset="1" stop-color="#FF0420"/>
</linearGradient>
<linearGradient id="paint4_linear_536_9579" x1="19.9957" y1="54.5842" x2="24.6523" y2="30.3868" gradientUnits="userSpaceOnUse">
<stop offset="0.760548" stop-color="#FFD1D5"/>
<stop offset="0.997968" stop-color="white"/>
</linearGradient>
<clipPath id="clip0_536_9579">
<rect width="56" height="56" fill="white"/>
</clipPath>
</defs>
</svg>
