<svg width="20" height="20" viewBox="0 0 20 20" fill="none" xmlns="http://www.w3.org/2000/svg">
<path d="M2.5 3.32783C2.5 2.87063 2.87079 2.5 3.32783 2.5H16.6722C17.1293 2.5 17.5 2.87079 17.5 3.32783V16.6722C17.5 17.1293 17.1292 17.5 16.6722 17.5H3.32783C2.87063 17.5 2.5 17.1292 2.5 16.6722V3.32783ZM8.85158 7.01216C8.79683 6.97565 8.7325 6.95617 8.66667 6.95617C8.48258 6.95617 8.33333 7.10541 8.33333 7.28951V12.7105C8.33333 12.7763 8.35283 12.8407 8.38933 12.8954C8.49142 13.0486 8.69842 13.09 8.85158 12.9878L12.9173 10.2773C12.9539 10.2529 12.9853 10.2215 13.0097 10.1849C13.1119 10.0317 13.0705 9.82475 12.9173 9.72267L8.85158 7.01216Z" fill="#0E4CAF"/>
</svg>
